<svg width="88" height="32" viewBox="0 0 88 32" fill="none" xmlns="http://www.w3.org/2000/svg">
<path d="M21.9901 17.935C21.8251 17.915 21.6551 17.895 21.4901 17.87C21.6601 17.89 21.8251 17.915 21.9901 17.935ZM16.0001 14.555C14.6951 12.02 11.1451 7.29495 7.8451 4.96495C4.6801 2.72995 3.4751 3.11495 2.6801 3.47495C1.7651 3.88995 1.6001 5.29495 1.6001 6.11995C1.6001 6.94495 2.0551 12.9 2.3501 13.895C3.3251 17.18 6.8051 18.29 10.0101 17.93C10.1751 17.905 10.3401 17.885 10.5101 17.86C10.3451 17.885 10.1801 17.91 10.0101 17.93C5.3151 18.63 1.1451 20.34 6.6151 26.425C12.6301 32.655 14.8551 25.09 16.0001 21.255C17.1451 25.09 18.4601 32.38 25.2801 26.425C30.4001 21.255 26.6851 18.625 21.9901 17.93C21.8251 17.91 21.6551 17.89 21.4901 17.865C21.6601 17.885 21.8251 17.91 21.9901 17.93C25.1951 18.285 28.6701 17.175 29.6501 13.895C29.9451 12.9 30.4001 6.94995 30.4001 6.11995C30.4001 5.28995 30.2351 3.88495 29.3201 3.47495C28.5301 3.11995 27.3201 2.72995 24.1601 4.96495C20.8551 7.29495 17.3051 12.02 16.0001 14.555Z" fill="#7883BE"/>
<path d="M59.2 16C59.2 8.92995 64.93 3.19995 72 3.19995C79.07 3.19995 84.8 8.92995 84.8 16C84.8 23.07 79.07 28.8 72 28.8H61.055C60.37 28.8 60.03 27.975 60.51 27.49L62.95 25.05C60.635 22.735 59.2 19.535 59.2 16ZM76.68 10.88C77.86 10.88 78.815 9.92495 78.815 8.74495C78.815 7.56495 77.86 6.60995 76.68 6.60995C75.65 6.60995 74.79 7.33995 74.59 8.30995C72.865 8.49495 71.52 9.95995 71.52 11.73V11.74C69.645 11.82 67.93 12.355 66.57 13.195C66.065 12.805 65.43 12.57 64.745 12.57C63.095 12.57 61.755 13.91 61.755 15.56C61.755 16.76 62.46 17.79 63.475 18.265C63.575 21.735 67.355 24.525 72.005 24.525C76.655 24.525 80.44 21.73 80.535 18.26C81.545 17.78 82.24 16.75 82.24 15.56C82.24 13.91 80.9 12.57 79.25 12.57C78.565 12.57 77.935 12.8 77.43 13.19C76.06 12.34 74.325 11.805 72.43 11.735V11.725C72.43 10.455 73.375 9.39995 74.6 9.22995C74.82 10.17 75.665 10.87 76.675 10.87L76.68 10.88ZM68.055 15.545C68.89 15.545 69.53 16.425 69.48 17.51C69.43 18.595 68.805 18.99 67.965 18.99C67.125 18.99 66.395 18.55 66.445 17.465C66.495 16.38 67.215 15.55 68.05 15.55L68.055 15.545ZM77.56 17.46C77.61 18.545 76.875 18.985 76.04 18.985C75.205 18.985 74.575 18.59 74.525 17.505C74.475 16.42 75.115 15.54 75.95 15.54C76.785 15.54 77.51 16.37 77.555 17.455L77.56 17.46ZM75.155 20.295C74.64 21.525 73.425 22.39 72.005 22.39C70.585 22.39 69.37 21.525 68.855 20.295C68.795 20.15 68.895 19.985 69.05 19.97C69.97 19.875 70.965 19.825 72.005 19.825C73.045 19.825 74.04 19.875 74.96 19.97C75.115 19.985 75.215 20.15 75.155 20.295Z" fill="#7883BE"/>
</svg>
