<svg width="32" height="32" viewBox="0 0 32 32" fill="none" xmlns="http://www.w3.org/2000/svg">
<rect width="32" height="32" fill="#101321"/>
<path d="M26 15.7869V14.2321C26 12.4666 25.0368 10.8694 23.5471 10.1646L17.6484 7.3718C16.6005 6.87607 15.3995 6.87607 14.3516 7.3718L10.9566 8.97899V7.01271H7.89428V10.4895C6.72284 11.2985 6 12.7207 6 14.2321V21.5473C6 23.4511 7.45161 25 9.23586 25H22.7641C24.5484 25 26 23.4511 26 21.5473V19.7343H22.9377V21.5473C22.9377 21.8298 22.7895 21.9739 22.7641 21.9856L9.25024 21.9873C9.21046 21.9739 9.06234 21.8298 9.06234 21.5473V14.2321C9.06234 13.6272 9.35097 13.084 9.7801 12.8807L15.6788 10.0879C15.8921 9.98712 16.1079 9.98712 16.3212 10.0879L22.2199 12.8807C22.649 13.084 22.9377 13.6272 22.9377 14.2321V15.7869H26Z" fill="#00BD7B"/>
</svg>
