<svg width="310" height="235" viewBox="0 0 310 235" fill="none" xmlns="http://www.w3.org/2000/svg">
<rect width="310" height="235" fill="#121526"/>
<path d="M25.95 21.3187C26.125 20.7937 25.8437 20.2312 25.3187 20.0562C24.7937 19.8812 24.2312 20.1625 24.0562 20.6875L14.0562 50.6875C13.8812 51.2125 14.1625 51.775 14.6875 51.95C15.2125 52.125 15.775 51.8437 15.95 51.3187L25.95 21.3187ZM10.7062 28.2937C10.3187 27.9062 9.68124 27.9062 9.29374 28.2937L2.29374 35.2937C1.90624 35.6812 1.90624 36.3187 2.29374 36.7062L9.29374 43.7062C9.68124 44.0937 10.3187 44.0937 10.7062 43.7062C11.0937 43.3187 11.0937 42.6812 10.7062 42.2937L4.41249 36L10.7062 29.7062C11.0937 29.3187 11.0937 28.6812 10.7062 28.2937ZM29.2937 28.2937C28.9062 28.6812 28.9062 29.3187 29.2937 29.7062L35.5875 36L29.2937 42.2937C28.9062 42.6812 28.9062 43.3187 29.2937 43.7062C29.6812 44.0937 30.3187 44.0937 30.7062 43.7062L37.7062 36.7062C38.0937 36.3187 38.0937 35.6812 37.7062 35.2937L30.7062 28.2937C30.3187 27.9062 29.6812 27.9062 29.2937 28.2937Z" fill="#00BD7B"/>
<path d="M9.048 95.12C7.8 95.12 6.664 94.88 5.64 94.4C4.632 93.92 3.76 93.272 3.024 92.456C2.304 91.624 1.744 90.696 1.344 89.672C0.944 88.632 0.744 87.568 0.744 86.48C0.744 85.344 0.952 84.264 1.368 83.24C1.8 82.2 2.384 81.28 3.12 80.48C3.872 79.664 4.752 79.024 5.76 78.56C6.784 78.08 7.904 77.84 9.12 77.84C10.352 77.84 11.472 78.088 12.48 78.584C13.504 79.08 14.376 79.744 15.096 80.576C15.816 81.408 16.376 82.336 16.776 83.36C17.176 84.384 17.376 85.44 17.376 86.528C17.376 87.648 17.168 88.728 16.752 89.768C16.336 90.792 15.752 91.712 15 92.528C14.264 93.328 13.384 93.96 12.36 94.424C11.352 94.888 10.248 95.12 9.048 95.12ZM4.104 86.48C4.104 87.216 4.216 87.928 4.44 88.616C4.664 89.304 4.984 89.92 5.4 90.464C5.832 90.992 6.352 91.416 6.96 91.736C7.584 92.04 8.288 92.192 9.072 92.192C9.872 92.192 10.584 92.032 11.208 91.712C11.832 91.376 12.352 90.936 12.768 90.392C13.184 89.832 13.496 89.216 13.704 88.544C13.928 87.856 14.04 87.168 14.04 86.48C14.04 85.744 13.92 85.04 13.68 84.368C13.456 83.68 13.128 83.072 12.696 82.544C12.28 82 11.76 81.576 11.136 81.272C10.528 80.952 9.84 80.792 9.072 80.792C8.256 80.792 7.536 80.96 6.912 81.296C6.304 81.616 5.792 82.048 5.376 82.592C4.96 83.136 4.64 83.744 4.416 84.416C4.208 85.088 4.104 85.776 4.104 86.48ZM19.4846 90.296V82.424H22.7006V89.6C22.7006 90.56 22.8766 91.288 23.2286 91.784C23.5806 92.264 24.1006 92.504 24.7886 92.504C25.2046 92.504 25.6126 92.424 26.0126 92.264C26.4286 92.088 26.8046 91.832 27.1406 91.496C27.4926 91.16 27.7886 90.736 28.0286 90.224V82.424H31.2446V91.4C31.2446 91.736 31.3006 91.976 31.4126 92.12C31.5406 92.264 31.7406 92.352 32.0126 92.384V95C31.6926 95.048 31.4206 95.08 31.1966 95.096C30.9886 95.128 30.7966 95.144 30.6206 95.144C30.0446 95.144 29.5726 95.016 29.2046 94.76C28.8526 94.488 28.6446 94.12 28.5806 93.656L28.5086 92.648C27.9486 93.496 27.2286 94.144 26.3486 94.592C25.4686 95.024 24.5006 95.24 23.4446 95.24C22.1486 95.24 21.1646 94.824 20.4926 93.992C19.8206 93.144 19.4846 91.912 19.4846 90.296ZM41.9286 85.208C40.9526 85.208 40.0806 85.4 39.3126 85.784C38.5446 86.152 37.9926 86.688 37.6566 87.392V95H34.4406V82.424H37.3926V85.112C37.8406 84.248 38.4086 83.568 39.0966 83.072C39.7846 82.576 40.5126 82.304 41.2806 82.256C41.4566 82.256 41.5926 82.256 41.6886 82.256C41.7846 82.256 41.8646 82.264 41.9286 82.28V85.208ZM48.0844 91.28C48.0844 90.464 48.3084 89.752 48.7564 89.144C49.2204 88.52 49.8604 88.04 50.6764 87.704C51.4924 87.368 52.4284 87.2 53.4844 87.2C54.0124 87.2 54.5484 87.24 55.0924 87.32C55.6364 87.4 56.1084 87.528 56.5084 87.704V87.032C56.5084 86.232 56.2684 85.616 55.7884 85.184C55.3244 84.752 54.6284 84.536 53.7004 84.536C53.0124 84.536 52.3564 84.656 51.7324 84.896C51.1084 85.136 50.4524 85.488 49.7644 85.952L48.7324 83.84C49.5644 83.296 50.4124 82.888 51.2764 82.616C52.1564 82.344 53.0764 82.208 54.0364 82.208C55.8284 82.208 57.2204 82.656 58.2124 83.552C59.2204 84.448 59.7244 85.728 59.7244 87.392V91.4C59.7244 91.736 59.7804 91.976 59.8924 92.12C60.0204 92.264 60.2204 92.352 60.4924 92.384V95C60.2044 95.048 59.9404 95.088 59.7004 95.12C59.4764 95.152 59.2844 95.168 59.1244 95.168C58.4844 95.168 57.9964 95.024 57.6604 94.736C57.3404 94.448 57.1404 94.096 57.0604 93.68L56.9884 93.032C56.4444 93.736 55.7644 94.28 54.9484 94.664C54.1324 95.048 53.3004 95.24 52.4524 95.24C51.6204 95.24 50.8684 95.072 50.1964 94.736C49.5404 94.384 49.0204 93.912 48.6364 93.32C48.2684 92.712 48.0844 92.032 48.0844 91.28ZM55.9084 91.928C56.0844 91.736 56.2284 91.544 56.3404 91.352C56.4524 91.16 56.5084 90.984 56.5084 90.824V89.552C56.1244 89.392 55.7084 89.272 55.2604 89.192C54.8124 89.096 54.3884 89.048 53.9884 89.048C53.1564 89.048 52.4684 89.232 51.9244 89.6C51.3964 89.952 51.1324 90.424 51.1324 91.016C51.1324 91.336 51.2204 91.64 51.3964 91.928C51.5724 92.216 51.8284 92.448 52.1644 92.624C52.5004 92.8 52.9004 92.888 53.3644 92.888C53.8444 92.888 54.3164 92.8 54.7804 92.624C55.2444 92.432 55.6204 92.2 55.9084 91.928ZM62.7056 77.48H65.9216V90.968C65.9216 91.544 66.0176 91.936 66.2096 92.144C66.4016 92.336 66.6656 92.432 67.0016 92.432C67.2576 92.432 67.5216 92.4 67.7936 92.336C68.0656 92.272 68.3056 92.192 68.5136 92.096L68.9456 94.544C68.5136 94.752 68.0096 94.912 67.4336 95.024C66.8576 95.136 66.3376 95.192 65.8736 95.192C64.8656 95.192 64.0816 94.928 63.5216 94.4C62.9776 93.856 62.7056 93.088 62.7056 92.096V77.48ZM75.2668 95.072C74.4348 95.072 73.6668 94.912 72.9628 94.592C72.2748 94.256 71.6748 93.792 71.1628 93.2C70.6668 92.608 70.2828 91.928 70.0108 91.16C69.7388 90.392 69.6028 89.576 69.6028 88.712C69.6028 87.8 69.7468 86.952 70.0348 86.168C70.3228 85.384 70.7228 84.696 71.2348 84.104C71.7628 83.496 72.3788 83.032 73.0828 82.712C73.8028 82.376 74.5948 82.208 75.4588 82.208C76.4348 82.208 77.2908 82.432 78.0268 82.88C78.7628 83.312 79.3708 83.896 79.8508 84.632V82.424H82.6588V94.4C82.6588 95.648 82.3548 96.712 81.7468 97.592C81.1548 98.488 80.3308 99.168 79.2748 99.632C78.2188 100.112 77.0188 100.352 75.6748 100.352C74.3148 100.352 73.1628 100.12 72.2188 99.656C71.2748 99.208 70.4668 98.568 69.7948 97.736L71.5468 96.032C72.0268 96.624 72.6268 97.088 73.3468 97.424C74.0828 97.76 74.8588 97.928 75.6748 97.928C76.3628 97.928 76.9868 97.8 77.5468 97.544C78.1228 97.304 78.5788 96.92 78.9148 96.392C79.2668 95.88 79.4428 95.216 79.4428 94.4V92.816C79.0268 93.536 78.4348 94.096 77.6668 94.496C76.9148 94.88 76.1148 95.072 75.2668 95.072ZM76.3468 92.504C76.6988 92.504 77.0348 92.448 77.3548 92.336C77.6748 92.224 77.9708 92.072 78.2428 91.88C78.5148 91.688 78.7548 91.464 78.9628 91.208C79.1708 90.936 79.3308 90.664 79.4428 90.392V87.392C79.2508 86.896 78.9788 86.464 78.6268 86.096C78.2908 85.728 77.9068 85.448 77.4748 85.256C77.0588 85.048 76.6188 84.944 76.1548 84.944C75.6588 84.944 75.2108 85.048 74.8108 85.256C74.4108 85.464 74.0668 85.76 73.7788 86.144C73.4908 86.512 73.2668 86.928 73.1068 87.392C72.9628 87.84 72.8908 88.312 72.8908 88.808C72.8908 89.32 72.9788 89.8 73.1548 90.248C73.3308 90.696 73.5708 91.088 73.8748 91.424C74.1948 91.76 74.5628 92.024 74.9788 92.216C75.4108 92.408 75.8668 92.504 76.3468 92.504ZM91.3658 95.24C90.3418 95.24 89.4218 95.072 88.6058 94.736C87.7898 94.384 87.0938 93.904 86.5178 93.296C85.9578 92.688 85.5258 91.992 85.2218 91.208C84.9178 90.424 84.7658 89.6 84.7658 88.736C84.7658 87.856 84.9178 87.024 85.2218 86.24C85.5258 85.456 85.9578 84.76 86.5178 84.152C87.0938 83.544 87.7898 83.072 88.6058 82.736C89.4218 82.384 90.3418 82.208 91.3658 82.208C92.3898 82.208 93.3018 82.384 94.1018 82.736C94.9178 83.072 95.6138 83.544 96.1898 84.152C96.7658 84.76 97.1978 85.456 97.4858 86.24C97.7898 87.024 97.9418 87.856 97.9418 88.736C97.9418 89.6 97.7898 90.424 97.4858 91.208C97.1978 91.992 96.7658 92.688 96.1898 93.296C95.6298 93.904 94.9418 94.384 94.1258 94.736C93.3098 95.072 92.3898 95.24 91.3658 95.24ZM88.0778 88.736C88.0778 89.472 88.2218 90.128 88.5098 90.704C88.7978 91.264 89.1898 91.704 89.6858 92.024C90.1818 92.344 90.7418 92.504 91.3658 92.504C91.9738 92.504 92.5258 92.344 93.0218 92.024C93.5178 91.688 93.9098 91.24 94.1978 90.68C94.5018 90.104 94.6538 89.448 94.6538 88.712C94.6538 87.992 94.5018 87.344 94.1978 86.768C93.9098 86.192 93.5178 85.744 93.0218 85.424C92.5258 85.104 91.9738 84.944 91.3658 84.944C90.7418 84.944 90.1818 85.112 89.6858 85.448C89.1898 85.768 88.7978 86.216 88.5098 86.792C88.2218 87.352 88.0778 88 88.0778 88.736ZM107.6 85.208C106.624 85.208 105.752 85.4 104.984 85.784C104.216 86.152 103.664 86.688 103.328 87.392V95H100.112V82.424H103.064V85.112C103.512 84.248 104.08 83.568 104.768 83.072C105.456 82.576 106.184 82.304 106.952 82.256C107.128 82.256 107.264 82.256 107.36 82.256C107.456 82.256 107.536 82.264 107.6 82.28V85.208ZM109.394 95V82.424H112.61V95H109.394ZM109.394 80.672V77.48H112.61V80.672H109.394ZM123.047 94.352C122.775 94.464 122.447 94.592 122.063 94.736C121.679 94.88 121.263 94.992 120.815 95.072C120.383 95.168 119.943 95.216 119.495 95.216C118.903 95.216 118.359 95.112 117.863 94.904C117.367 94.696 116.967 94.368 116.663 93.92C116.375 93.456 116.231 92.856 116.231 92.12V84.896H114.575V82.424H116.231V78.344H119.447V82.424H122.087V84.896H119.447V91.04C119.463 91.472 119.583 91.784 119.807 91.976C120.031 92.168 120.311 92.264 120.647 92.264C120.983 92.264 121.311 92.208 121.631 92.096C121.951 91.984 122.207 91.888 122.399 91.808L123.047 94.352ZM136.41 95H133.194V87.944C133.194 86.968 133.002 86.24 132.618 85.76C132.25 85.28 131.738 85.04 131.082 85.04C130.698 85.04 130.29 85.152 129.858 85.376C129.426 85.6 129.034 85.912 128.682 86.312C128.346 86.696 128.098 87.144 127.938 87.656V95H124.722V77.48H127.938V84.752C128.402 83.952 129.034 83.328 129.834 82.88C130.634 82.432 131.506 82.208 132.45 82.208C133.266 82.208 133.93 82.352 134.442 82.64C134.954 82.912 135.354 83.288 135.642 83.768C135.93 84.232 136.13 84.76 136.242 85.352C136.354 85.928 136.41 86.528 136.41 87.152V95ZM158.742 95H155.526V87.944C155.526 86.952 155.35 86.224 154.998 85.76C154.662 85.28 154.19 85.04 153.582 85.04C152.958 85.04 152.358 85.288 151.782 85.784C151.222 86.264 150.822 86.896 150.582 87.68V95H147.366V87.944C147.366 86.936 147.19 86.2 146.838 85.736C146.502 85.272 146.03 85.04 145.422 85.04C144.798 85.04 144.198 85.28 143.622 85.76C143.062 86.24 142.662 86.872 142.422 87.656V95H139.206V82.424H142.11V84.752C142.59 83.936 143.23 83.312 144.03 82.88C144.83 82.432 145.75 82.208 146.79 82.208C147.83 82.208 148.638 82.464 149.214 82.976C149.806 83.488 150.182 84.12 150.342 84.872C150.854 84.008 151.502 83.352 152.286 82.904C153.086 82.44 153.982 82.208 154.974 82.208C155.758 82.208 156.39 82.352 156.87 82.64C157.366 82.912 157.75 83.288 158.022 83.768C158.294 84.232 158.478 84.76 158.574 85.352C158.686 85.944 158.742 86.544 158.742 87.152V95ZM166.174 95.24C165.102 95.24 164.078 95.064 163.102 94.712C162.126 94.36 161.286 93.84 160.582 93.152L161.734 91.064C162.486 91.672 163.222 92.12 163.942 92.408C164.678 92.696 165.382 92.84 166.054 92.84C166.678 92.84 167.174 92.728 167.542 92.504C167.926 92.28 168.118 91.944 168.118 91.496C168.118 91.192 168.014 90.96 167.806 90.8C167.598 90.624 167.294 90.472 166.894 90.344C166.51 90.216 166.038 90.072 165.478 89.912C164.55 89.608 163.774 89.312 163.15 89.024C162.526 88.736 162.054 88.376 161.734 87.944C161.43 87.496 161.278 86.928 161.278 86.24C161.278 85.408 161.486 84.696 161.902 84.104C162.334 83.496 162.926 83.024 163.678 82.688C164.446 82.352 165.342 82.184 166.366 82.184C167.262 82.184 168.11 82.328 168.91 82.616C169.71 82.888 170.438 83.336 171.094 83.96L169.798 86C169.158 85.504 168.55 85.144 167.974 84.92C167.398 84.68 166.814 84.56 166.222 84.56C165.886 84.56 165.566 84.6 165.262 84.68C164.974 84.76 164.734 84.896 164.542 85.088C164.366 85.264 164.278 85.52 164.278 85.856C164.278 86.16 164.358 86.4 164.518 86.576C164.694 86.736 164.95 86.88 165.286 87.008C165.638 87.136 166.062 87.28 166.558 87.44C167.566 87.728 168.414 88.024 169.102 88.328C169.806 88.632 170.334 89.008 170.686 89.456C171.038 89.888 171.214 90.488 171.214 91.256C171.214 92.504 170.758 93.48 169.846 94.184C168.934 94.888 167.71 95.24 166.174 95.24ZM178.303 91.28C178.303 90.464 178.527 89.752 178.975 89.144C179.439 88.52 180.079 88.04 180.895 87.704C181.711 87.368 182.647 87.2 183.703 87.2C184.231 87.2 184.767 87.24 185.311 87.32C185.855 87.4 186.327 87.528 186.727 87.704V87.032C186.727 86.232 186.487 85.616 186.007 85.184C185.543 84.752 184.847 84.536 183.919 84.536C183.231 84.536 182.575 84.656 181.951 84.896C181.327 85.136 180.671 85.488 179.983 85.952L178.951 83.84C179.783 83.296 180.631 82.888 181.495 82.616C182.375 82.344 183.295 82.208 184.255 82.208C186.047 82.208 187.439 82.656 188.431 83.552C189.439 84.448 189.943 85.728 189.943 87.392V91.4C189.943 91.736 189.999 91.976 190.111 92.12C190.239 92.264 190.439 92.352 190.711 92.384V95C190.423 95.048 190.159 95.088 189.919 95.12C189.695 95.152 189.503 95.168 189.343 95.168C188.703 95.168 188.215 95.024 187.879 94.736C187.559 94.448 187.359 94.096 187.279 93.68L187.207 93.032C186.663 93.736 185.983 94.28 185.167 94.664C184.351 95.048 183.519 95.24 182.671 95.24C181.839 95.24 181.087 95.072 180.415 94.736C179.759 94.384 179.239 93.912 178.855 93.32C178.487 92.712 178.303 92.032 178.303 91.28ZM186.127 91.928C186.303 91.736 186.447 91.544 186.559 91.352C186.671 91.16 186.727 90.984 186.727 90.824V89.552C186.343 89.392 185.927 89.272 185.479 89.192C185.031 89.096 184.607 89.048 184.207 89.048C183.375 89.048 182.687 89.232 182.143 89.6C181.615 89.952 181.351 90.424 181.351 91.016C181.351 91.336 181.439 91.64 181.615 91.928C181.791 92.216 182.047 92.448 182.383 92.624C182.719 92.8 183.119 92.888 183.583 92.888C184.063 92.888 184.535 92.8 184.999 92.624C185.463 92.432 185.839 92.2 186.127 91.928ZM200.436 85.208C199.46 85.208 198.588 85.4 197.82 85.784C197.052 86.152 196.5 86.688 196.164 87.392V95H192.948V82.424H195.9V85.112C196.348 84.248 196.916 83.568 197.604 83.072C198.292 82.576 199.02 82.304 199.788 82.256C199.964 82.256 200.1 82.256 200.196 82.256C200.292 82.256 200.372 82.264 200.436 82.28V85.208ZM207.898 95.24C206.89 95.24 205.978 95.072 205.162 94.736C204.346 94.384 203.65 93.912 203.074 93.32C202.498 92.712 202.05 92.024 201.73 91.256C201.426 90.472 201.274 89.648 201.274 88.784C201.274 87.584 201.538 86.488 202.066 85.496C202.61 84.504 203.378 83.712 204.37 83.12C205.378 82.512 206.562 82.208 207.922 82.208C209.298 82.208 210.474 82.512 211.45 83.12C212.426 83.712 213.17 84.504 213.682 85.496C214.21 86.472 214.474 87.528 214.474 88.664C214.474 88.856 214.466 89.056 214.45 89.264C214.434 89.456 214.418 89.616 214.402 89.744H204.682C204.746 90.384 204.93 90.944 205.234 91.424C205.554 91.904 205.954 92.272 206.434 92.528C206.93 92.768 207.458 92.888 208.018 92.888C208.658 92.888 209.258 92.736 209.818 92.432C210.394 92.112 210.786 91.696 210.994 91.184L213.754 91.952C213.45 92.592 213.01 93.16 212.434 93.656C211.874 94.152 211.21 94.544 210.442 94.832C209.674 95.104 208.826 95.24 207.898 95.24ZM204.61 87.704H211.186C211.122 87.064 210.938 86.512 210.634 86.048C210.346 85.568 209.962 85.2 209.482 84.944C209.002 84.672 208.466 84.536 207.874 84.536C207.298 84.536 206.77 84.672 206.29 84.944C205.826 85.2 205.442 85.568 205.138 86.048C204.85 86.512 204.674 87.064 204.61 87.704ZM83.8734 120.28C83.8734 119.464 84.0974 118.752 84.5454 118.144C85.0094 117.52 85.6494 117.04 86.4654 116.704C87.2814 116.368 88.2174 116.2 89.2734 116.2C89.8014 116.2 90.3374 116.24 90.8814 116.32C91.4254 116.4 91.8974 116.528 92.2974 116.704V116.032C92.2974 115.232 92.0574 114.616 91.5774 114.184C91.1134 113.752 90.4174 113.536 89.4894 113.536C88.8014 113.536 88.1454 113.656 87.5214 113.896C86.8974 114.136 86.2414 114.488 85.5534 114.952L84.5214 112.84C85.3534 112.296 86.2014 111.888 87.0654 111.616C87.9454 111.344 88.8654 111.208 89.8254 111.208C91.6174 111.208 93.0094 111.656 94.0014 112.552C95.0094 113.448 95.5134 114.728 95.5134 116.392V120.4C95.5134 120.736 95.5694 120.976 95.6814 121.12C95.8094 121.264 96.0094 121.352 96.2814 121.384V124C95.9934 124.048 95.7294 124.088 95.4894 124.12C95.2654 124.152 95.0734 124.168 94.9134 124.168C94.2734 124.168 93.7854 124.024 93.4494 123.736C93.1294 123.448 92.9294 123.096 92.8494 122.68L92.7774 122.032C92.2334 122.736 91.5534 123.28 90.7374 123.664C89.9214 124.048 89.0894 124.24 88.2414 124.24C87.4094 124.24 86.6574 124.072 85.9854 123.736C85.3294 123.384 84.8094 122.912 84.4254 122.32C84.0574 121.712 83.8734 121.032 83.8734 120.28ZM91.6974 120.928C91.8734 120.736 92.0174 120.544 92.1294 120.352C92.2414 120.16 92.2974 119.984 92.2974 119.824V118.552C91.9134 118.392 91.4974 118.272 91.0494 118.192C90.6014 118.096 90.1774 118.048 89.7774 118.048C88.9454 118.048 88.2574 118.232 87.7134 118.6C87.1854 118.952 86.9214 119.424 86.9214 120.016C86.9214 120.336 87.0094 120.64 87.1854 120.928C87.3614 121.216 87.6174 121.448 87.9534 121.624C88.2894 121.8 88.6894 121.888 89.1534 121.888C89.6334 121.888 90.1054 121.8 90.5694 121.624C91.0334 121.432 91.4094 121.2 91.6974 120.928ZM110.207 124H106.991V116.944C106.991 115.936 106.815 115.2 106.463 114.736C106.111 114.272 105.623 114.04 104.999 114.04C104.567 114.04 104.127 114.152 103.679 114.376C103.247 114.6 102.855 114.912 102.503 115.312C102.151 115.696 101.895 116.144 101.735 116.656V124H98.5187V111.424H101.423V113.752C101.743 113.208 102.151 112.752 102.647 112.384C103.143 112 103.711 111.712 104.351 111.52C105.007 111.312 105.695 111.208 106.415 111.208C107.199 111.208 107.839 111.352 108.335 111.64C108.847 111.912 109.231 112.288 109.487 112.768C109.759 113.232 109.943 113.76 110.039 114.352C110.151 114.944 110.207 115.544 110.207 116.152V124ZM112.235 117.712C112.235 116.496 112.475 115.4 112.955 114.424C113.435 113.432 114.099 112.648 114.947 112.072C115.795 111.496 116.763 111.208 117.851 111.208C118.779 111.208 119.611 111.44 120.347 111.904C121.099 112.352 121.683 112.928 122.099 113.632V106.48H125.315V120.4C125.315 120.736 125.371 120.976 125.483 121.12C125.595 121.264 125.787 121.352 126.059 121.384V124C125.499 124.112 125.043 124.168 124.691 124.168C124.115 124.168 123.635 124.024 123.251 123.736C122.883 123.448 122.675 123.072 122.627 122.608L122.579 121.816C122.115 122.6 121.483 123.2 120.683 123.616C119.899 124.032 119.075 124.24 118.211 124.24C117.347 124.24 116.547 124.072 115.811 123.736C115.091 123.4 114.459 122.936 113.915 122.344C113.387 121.752 112.971 121.064 112.667 120.28C112.379 119.48 112.235 118.624 112.235 117.712ZM122.099 119.392V116.392C121.939 115.928 121.683 115.512 121.331 115.144C120.979 114.776 120.587 114.488 120.155 114.28C119.723 114.056 119.291 113.944 118.859 113.944C118.363 113.944 117.915 114.048 117.515 114.256C117.115 114.464 116.763 114.744 116.459 115.096C116.171 115.448 115.947 115.856 115.787 116.32C115.643 116.784 115.571 117.272 115.571 117.784C115.571 118.296 115.651 118.784 115.811 119.248C115.987 119.696 116.235 120.088 116.555 120.424C116.875 120.76 117.243 121.024 117.659 121.216C118.091 121.408 118.555 121.504 119.051 121.504C119.355 121.504 119.659 121.456 119.963 121.36C120.283 121.248 120.579 121.104 120.851 120.928C121.139 120.736 121.387 120.512 121.595 120.256C121.819 119.984 121.987 119.696 122.099 119.392Z" fill="#D1D8FF"/>
<path d="M6.096 124.24C5.024 124.24 4 124.064 3.024 123.712C2.048 123.36 1.208 122.84 0.504 122.152L1.656 120.064C2.408 120.672 3.144 121.12 3.864 121.408C4.6 121.696 5.304 121.84 5.976 121.84C6.6 121.84 7.096 121.728 7.464 121.504C7.848 121.28 8.04 120.944 8.04 120.496C8.04 120.192 7.936 119.96 7.728 119.8C7.52 119.624 7.216 119.472 6.816 119.344C6.432 119.216 5.96 119.072 5.4 118.912C4.472 118.608 3.696 118.312 3.072 118.024C2.448 117.736 1.976 117.376 1.656 116.944C1.352 116.496 1.2 115.928 1.2 115.24C1.2 114.408 1.408 113.696 1.824 113.104C2.256 112.496 2.848 112.024 3.6 111.688C4.368 111.352 5.264 111.184 6.288 111.184C7.184 111.184 8.032 111.328 8.832 111.616C9.632 111.888 10.36 112.336 11.016 112.96L9.72 115C9.08 114.504 8.472 114.144 7.896 113.92C7.32 113.68 6.736 113.56 6.144 113.56C5.808 113.56 5.488 113.6 5.184 113.68C4.896 113.76 4.656 113.896 4.464 114.088C4.288 114.264 4.2 114.52 4.2 114.856C4.2 115.16 4.28 115.4 4.44 115.576C4.616 115.736 4.872 115.88 5.208 116.008C5.56 116.136 5.984 116.28 6.48 116.44C7.488 116.728 8.336 117.024 9.024 117.328C9.728 117.632 10.256 118.008 10.608 118.456C10.96 118.888 11.136 119.488 11.136 120.256C11.136 121.504 10.68 122.48 9.768 123.184C8.856 123.888 7.632 124.24 6.096 124.24ZM13.3234 124V111.424H16.5394V124H13.3234ZM13.3234 109.672V106.48H16.5394V109.672H13.3234ZM38.9766 124H35.7606V116.944C35.7606 115.952 35.5846 115.224 35.2326 114.76C34.8966 114.28 34.4246 114.04 33.8166 114.04C33.1926 114.04 32.5926 114.288 32.0166 114.784C31.4566 115.264 31.0566 115.896 30.8166 116.68V124H27.6006V116.944C27.6006 115.936 27.4246 115.2 27.0726 114.736C26.7366 114.272 26.2646 114.04 25.6566 114.04C25.0326 114.04 24.4326 114.28 23.8566 114.76C23.2966 115.24 22.8966 115.872 22.6566 116.656V124H19.4406V111.424H22.3446V113.752C22.8246 112.936 23.4646 112.312 24.2646 111.88C25.0646 111.432 25.9846 111.208 27.0246 111.208C28.0646 111.208 28.8726 111.464 29.4486 111.976C30.0406 112.488 30.4166 113.12 30.5766 113.872C31.0886 113.008 31.7366 112.352 32.5206 111.904C33.3206 111.44 34.2166 111.208 35.2086 111.208C35.9926 111.208 36.6246 111.352 37.1046 111.64C37.6006 111.912 37.9846 112.288 38.2566 112.768C38.5286 113.232 38.7126 113.76 38.8086 114.352C38.9206 114.944 38.9766 115.544 38.9766 116.152V124ZM49.3125 124.24C48.3365 124.24 47.4725 124.024 46.7205 123.592C45.9845 123.144 45.4085 122.544 44.9925 121.792V129.112H41.7765V111.424H44.5845V113.584C45.0645 112.848 45.6725 112.272 46.4085 111.856C47.1445 111.424 47.9845 111.208 48.9285 111.208C49.7765 111.208 50.5525 111.376 51.2565 111.712C51.9765 112.048 52.6005 112.52 53.1285 113.128C53.6565 113.72 54.0645 114.408 54.3525 115.192C54.6565 115.96 54.8085 116.792 54.8085 117.688C54.8085 118.904 54.5685 120.008 54.0885 121C53.6245 121.992 52.9765 122.784 52.1445 123.376C51.3285 123.952 50.3845 124.24 49.3125 124.24ZM48.2325 121.504C48.7285 121.504 49.1765 121.4 49.5765 121.192C49.9765 120.984 50.3205 120.704 50.6085 120.352C50.9125 119.984 51.1365 119.576 51.2805 119.128C51.4405 118.664 51.5205 118.184 51.5205 117.688C51.5205 117.16 51.4325 116.672 51.2565 116.224C51.0965 115.776 50.8565 115.384 50.5365 115.048C50.2165 114.696 49.8405 114.424 49.4085 114.232C48.9925 114.04 48.5365 113.944 48.0405 113.944C47.7365 113.944 47.4245 114 47.1045 114.112C46.8005 114.208 46.5045 114.352 46.2165 114.544C45.9285 114.736 45.6725 114.96 45.4485 115.216C45.2405 115.472 45.0885 115.752 44.9925 116.056V119.008C45.1845 119.472 45.4405 119.896 45.7605 120.28C46.0965 120.664 46.4805 120.968 46.9125 121.192C47.3445 121.4 47.7845 121.504 48.2325 121.504ZM56.9634 106.48H60.1794V119.968C60.1794 120.544 60.2754 120.936 60.4674 121.144C60.6594 121.336 60.9234 121.432 61.2594 121.432C61.5154 121.432 61.7794 121.4 62.0514 121.336C62.3234 121.272 62.5634 121.192 62.7714 121.096L63.2034 123.544C62.7714 123.752 62.2674 123.912 61.6914 124.024C61.1154 124.136 60.5954 124.192 60.1314 124.192C59.1234 124.192 58.3394 123.928 57.7794 123.4C57.2354 122.856 56.9634 122.088 56.9634 121.096V106.48ZM70.4366 124.24C69.4286 124.24 68.5166 124.072 67.7006 123.736C66.8846 123.384 66.1886 122.912 65.6126 122.32C65.0366 121.712 64.5886 121.024 64.2686 120.256C63.9646 119.472 63.8126 118.648 63.8126 117.784C63.8126 116.584 64.0766 115.488 64.6046 114.496C65.1486 113.504 65.9166 112.712 66.9086 112.12C67.9166 111.512 69.1006 111.208 70.4606 111.208C71.8366 111.208 73.0126 111.512 73.9886 112.12C74.9646 112.712 75.7086 113.504 76.2206 114.496C76.7486 115.472 77.0126 116.528 77.0126 117.664C77.0126 117.856 77.0046 118.056 76.9886 118.264C76.9726 118.456 76.9566 118.616 76.9406 118.744H67.2206C67.2846 119.384 67.4686 119.944 67.7726 120.424C68.0926 120.904 68.4926 121.272 68.9726 121.528C69.4686 121.768 69.9966 121.888 70.5566 121.888C71.1966 121.888 71.7966 121.736 72.3566 121.432C72.9326 121.112 73.3246 120.696 73.5326 120.184L76.2926 120.952C75.9886 121.592 75.5486 122.16 74.9726 122.656C74.4126 123.152 73.7486 123.544 72.9806 123.832C72.2126 124.104 71.3646 124.24 70.4366 124.24ZM67.1486 116.704H73.7246C73.6606 116.064 73.4766 115.512 73.1726 115.048C72.8846 114.568 72.5006 114.2 72.0206 113.944C71.5406 113.672 71.0046 113.536 70.4126 113.536C69.8366 113.536 69.3086 113.672 68.8286 113.944C68.3646 114.2 67.9806 114.568 67.6766 115.048C67.3886 115.512 67.2126 116.064 67.1486 116.704ZM141.773 123.352C141.501 123.464 141.173 123.592 140.789 123.736C140.405 123.88 139.989 123.992 139.541 124.072C139.109 124.168 138.669 124.216 138.221 124.216C137.629 124.216 137.085 124.112 136.589 123.904C136.093 123.696 135.693 123.368 135.389 122.92C135.101 122.456 134.957 121.856 134.957 121.12V113.896H133.301V111.424H134.957V107.344H138.173V111.424H140.813V113.896H138.173V120.04C138.189 120.472 138.309 120.784 138.533 120.976C138.757 121.168 139.037 121.264 139.373 121.264C139.709 121.264 140.037 121.208 140.357 121.096C140.677 120.984 140.933 120.888 141.125 120.808L141.773 123.352ZM150.936 114.208C149.96 114.208 149.088 114.4 148.32 114.784C147.552 115.152 147 115.688 146.664 116.392V124H143.448V111.424H146.4V114.112C146.848 113.248 147.416 112.568 148.104 112.072C148.792 111.576 149.52 111.304 150.288 111.256C150.464 111.256 150.6 111.256 150.696 111.256C150.792 111.256 150.872 111.264 150.936 111.28V114.208ZM151.795 120.28C151.795 119.464 152.019 118.752 152.467 118.144C152.931 117.52 153.571 117.04 154.387 116.704C155.203 116.368 156.139 116.2 157.195 116.2C157.723 116.2 158.259 116.24 158.803 116.32C159.347 116.4 159.819 116.528 160.219 116.704V116.032C160.219 115.232 159.979 114.616 159.499 114.184C159.035 113.752 158.339 113.536 157.411 113.536C156.723 113.536 156.067 113.656 155.443 113.896C154.819 114.136 154.163 114.488 153.475 114.952L152.443 112.84C153.275 112.296 154.123 111.888 154.987 111.616C155.867 111.344 156.787 111.208 157.747 111.208C159.539 111.208 160.931 111.656 161.923 112.552C162.931 113.448 163.435 114.728 163.435 116.392V120.4C163.435 120.736 163.491 120.976 163.603 121.12C163.731 121.264 163.931 121.352 164.203 121.384V124C163.915 124.048 163.651 124.088 163.411 124.12C163.187 124.152 162.995 124.168 162.835 124.168C162.195 124.168 161.707 124.024 161.371 123.736C161.051 123.448 160.851 123.096 160.771 122.68L160.699 122.032C160.155 122.736 159.475 123.28 158.659 123.664C157.843 124.048 157.011 124.24 156.163 124.24C155.331 124.24 154.579 124.072 153.907 123.736C153.251 123.384 152.731 122.912 152.347 122.32C151.979 121.712 151.795 121.032 151.795 120.28ZM159.619 120.928C159.795 120.736 159.939 120.544 160.051 120.352C160.163 120.16 160.219 119.984 160.219 119.824V118.552C159.835 118.392 159.419 118.272 158.971 118.192C158.523 118.096 158.099 118.048 157.699 118.048C156.867 118.048 156.179 118.232 155.635 118.6C155.107 118.952 154.843 119.424 154.843 120.016C154.843 120.336 154.931 120.64 155.107 120.928C155.283 121.216 155.539 121.448 155.875 121.624C156.211 121.8 156.611 121.888 157.075 121.888C157.555 121.888 158.027 121.8 158.491 121.624C158.955 121.432 159.331 121.2 159.619 120.928ZM178.129 124H174.913V116.944C174.913 115.936 174.737 115.2 174.385 114.736C174.033 114.272 173.545 114.04 172.921 114.04C172.489 114.04 172.049 114.152 171.601 114.376C171.169 114.6 170.777 114.912 170.425 115.312C170.073 115.696 169.817 116.144 169.657 116.656V124H166.441V111.424H169.345V113.752C169.665 113.208 170.073 112.752 170.569 112.384C171.065 112 171.633 111.712 172.273 111.52C172.929 111.312 173.617 111.208 174.337 111.208C175.121 111.208 175.761 111.352 176.257 111.64C176.769 111.912 177.153 112.288 177.409 112.768C177.681 113.232 177.865 113.76 177.961 114.352C178.073 114.944 178.129 115.544 178.129 116.152V124ZM185.557 124.24C184.485 124.24 183.461 124.064 182.485 123.712C181.509 123.36 180.669 122.84 179.965 122.152L181.117 120.064C181.869 120.672 182.605 121.12 183.325 121.408C184.061 121.696 184.765 121.84 185.437 121.84C186.061 121.84 186.557 121.728 186.925 121.504C187.309 121.28 187.501 120.944 187.501 120.496C187.501 120.192 187.397 119.96 187.189 119.8C186.981 119.624 186.677 119.472 186.277 119.344C185.893 119.216 185.421 119.072 184.861 118.912C183.933 118.608 183.157 118.312 182.533 118.024C181.909 117.736 181.437 117.376 181.117 116.944C180.813 116.496 180.661 115.928 180.661 115.24C180.661 114.408 180.869 113.696 181.285 113.104C181.717 112.496 182.309 112.024 183.061 111.688C183.829 111.352 184.725 111.184 185.749 111.184C186.645 111.184 187.493 111.328 188.293 111.616C189.093 111.888 189.821 112.336 190.477 112.96L189.181 115C188.541 114.504 187.933 114.144 187.357 113.92C186.781 113.68 186.197 113.56 185.605 113.56C185.269 113.56 184.949 113.6 184.645 113.68C184.357 113.76 184.117 113.896 183.925 114.088C183.749 114.264 183.661 114.52 183.661 114.856C183.661 115.16 183.741 115.4 183.901 115.576C184.077 115.736 184.333 115.88 184.669 116.008C185.021 116.136 185.445 116.28 185.941 116.44C186.949 116.728 187.797 117.024 188.485 117.328C189.189 117.632 189.717 118.008 190.069 118.456C190.421 118.888 190.597 119.488 190.597 120.256C190.597 121.504 190.141 122.48 189.229 123.184C188.317 123.888 187.093 124.24 185.557 124.24ZM200.32 124.24C199.344 124.24 198.48 124.024 197.728 123.592C196.992 123.144 196.416 122.544 196 121.792V129.112H192.784V111.424H195.592V113.584C196.072 112.848 196.68 112.272 197.416 111.856C198.152 111.424 198.992 111.208 199.936 111.208C200.784 111.208 201.56 111.376 202.264 111.712C202.984 112.048 203.608 112.52 204.136 113.128C204.664 113.72 205.072 114.408 205.36 115.192C205.664 115.96 205.816 116.792 205.816 117.688C205.816 118.904 205.576 120.008 205.096 121C204.632 121.992 203.984 122.784 203.152 123.376C202.336 123.952 201.392 124.24 200.32 124.24ZM199.24 121.504C199.736 121.504 200.184 121.4 200.584 121.192C200.984 120.984 201.328 120.704 201.616 120.352C201.92 119.984 202.144 119.576 202.288 119.128C202.448 118.664 202.528 118.184 202.528 117.688C202.528 117.16 202.44 116.672 202.264 116.224C202.104 115.776 201.864 115.384 201.544 115.048C201.224 114.696 200.848 114.424 200.416 114.232C200 114.04 199.544 113.944 199.048 113.944C198.744 113.944 198.432 114 198.112 114.112C197.808 114.208 197.512 114.352 197.224 114.544C196.936 114.736 196.68 114.96 196.456 115.216C196.248 115.472 196.096 115.752 196 116.056V119.008C196.192 119.472 196.448 119.896 196.768 120.28C197.104 120.664 197.488 120.968 197.92 121.192C198.352 121.4 198.792 121.504 199.24 121.504ZM207.131 120.28C207.131 119.464 207.355 118.752 207.803 118.144C208.267 117.52 208.907 117.04 209.723 116.704C210.539 116.368 211.475 116.2 212.531 116.2C213.059 116.2 213.595 116.24 214.139 116.32C214.683 116.4 215.155 116.528 215.555 116.704V116.032C215.555 115.232 215.315 114.616 214.835 114.184C214.371 113.752 213.675 113.536 212.747 113.536C212.059 113.536 211.403 113.656 210.779 113.896C210.155 114.136 209.499 114.488 208.811 114.952L207.779 112.84C208.611 112.296 209.459 111.888 210.323 111.616C211.203 111.344 212.123 111.208 213.083 111.208C214.875 111.208 216.267 111.656 217.259 112.552C218.267 113.448 218.771 114.728 218.771 116.392V120.4C218.771 120.736 218.827 120.976 218.939 121.12C219.067 121.264 219.267 121.352 219.539 121.384V124C219.251 124.048 218.987 124.088 218.747 124.12C218.523 124.152 218.331 124.168 218.171 124.168C217.531 124.168 217.043 124.024 216.707 123.736C216.387 123.448 216.187 123.096 216.107 122.68L216.035 122.032C215.491 122.736 214.811 123.28 213.995 123.664C213.179 124.048 212.347 124.24 211.499 124.24C210.667 124.24 209.915 124.072 209.243 123.736C208.587 123.384 208.067 122.912 207.683 122.32C207.315 121.712 207.131 121.032 207.131 120.28ZM214.955 120.928C215.131 120.736 215.275 120.544 215.387 120.352C215.499 120.16 215.555 119.984 215.555 119.824V118.552C215.171 118.392 214.755 118.272 214.307 118.192C213.859 118.096 213.435 118.048 213.035 118.048C212.203 118.048 211.515 118.232 210.971 118.6C210.443 118.952 210.179 119.424 210.179 120.016C210.179 120.336 210.267 120.64 210.443 120.928C210.619 121.216 210.875 121.448 211.211 121.624C211.547 121.8 211.947 121.888 212.411 121.888C212.891 121.888 213.363 121.8 213.827 121.624C214.291 121.432 214.667 121.2 214.955 120.928ZM229.265 114.208C228.289 114.208 227.417 114.4 226.648 114.784C225.881 115.152 225.329 115.688 224.993 116.392V124H221.777V111.424H224.729V114.112C225.177 113.248 225.745 112.568 226.433 112.072C227.121 111.576 227.849 111.304 228.617 111.256C228.793 111.256 228.929 111.256 229.025 111.256C229.121 111.256 229.201 111.264 229.265 111.28V114.208ZM236.726 124.24C235.718 124.24 234.806 124.072 233.99 123.736C233.174 123.384 232.478 122.912 231.902 122.32C231.326 121.712 230.878 121.024 230.558 120.256C230.254 119.472 230.102 118.648 230.102 117.784C230.102 116.584 230.366 115.488 230.894 114.496C231.438 113.504 232.206 112.712 233.198 112.12C234.206 111.512 235.39 111.208 236.75 111.208C238.126 111.208 239.302 111.512 240.278 112.12C241.254 112.712 241.998 113.504 242.51 114.496C243.038 115.472 243.302 116.528 243.302 117.664C243.302 117.856 243.294 118.056 243.278 118.264C243.262 118.456 243.246 118.616 243.23 118.744H233.51C233.574 119.384 233.758 119.944 234.062 120.424C234.382 120.904 234.782 121.272 235.262 121.528C235.758 121.768 236.286 121.888 236.846 121.888C237.486 121.888 238.086 121.736 238.646 121.432C239.222 121.112 239.614 120.696 239.822 120.184L242.582 120.952C242.278 121.592 241.838 122.16 241.262 122.656C240.702 123.152 240.038 123.544 239.27 123.832C238.502 124.104 237.654 124.24 236.726 124.24ZM233.438 116.704H240.014C239.95 116.064 239.766 115.512 239.462 115.048C239.174 114.568 238.79 114.2 238.31 113.944C237.83 113.672 237.294 113.536 236.702 113.536C236.126 113.536 235.598 113.672 235.118 113.944C234.654 114.2 234.27 114.568 233.966 115.048C233.678 115.512 233.502 116.064 233.438 116.704ZM256.949 124H253.733V116.944C253.733 115.936 253.557 115.2 253.205 114.736C252.853 114.272 252.365 114.04 251.741 114.04C251.309 114.04 250.869 114.152 250.421 114.376C249.989 114.6 249.597 114.912 249.245 115.312C248.893 115.696 248.637 116.144 248.477 116.656V124H245.261V111.424H248.165V113.752C248.485 113.208 248.893 112.752 249.389 112.384C249.885 112 250.453 111.712 251.093 111.52C251.749 111.312 252.437 111.208 253.157 111.208C253.941 111.208 254.581 111.352 255.077 111.64C255.589 111.912 255.973 112.288 256.229 112.768C256.501 113.232 256.685 113.76 256.781 114.352C256.893 114.944 256.949 115.544 256.949 116.152V124ZM267.211 123.352C266.939 123.464 266.611 123.592 266.227 123.736C265.843 123.88 265.427 123.992 264.979 124.072C264.547 124.168 264.107 124.216 263.659 124.216C263.067 124.216 262.523 124.112 262.027 123.904C261.531 123.696 261.131 123.368 260.827 122.92C260.539 122.456 260.395 121.856 260.395 121.12V113.896H258.739V111.424H260.395V107.344H263.611V111.424H266.251V113.896H263.611V120.04C263.627 120.472 263.747 120.784 263.971 120.976C264.195 121.168 264.475 121.264 264.811 121.264C265.147 121.264 265.475 121.208 265.795 121.096C266.115 120.984 266.371 120.888 266.563 120.808L267.211 123.352Z" fill="#00BD7B"/>
<path d="M9.036 147.902C8.892 147.734 8.7 147.572 8.46 147.416C8.22 147.26 7.95 147.122 7.65 147.002C7.35 146.87 7.02 146.768 6.66 146.696C6.312 146.612 5.946 146.57 5.562 146.57C4.578 146.57 3.852 146.756 3.384 147.128C2.916 147.5 2.682 148.01 2.682 148.658C2.682 149.114 2.802 149.474 3.042 149.738C3.282 150.002 3.648 150.218 4.14 150.386C4.644 150.554 5.28 150.728 6.048 150.908C6.936 151.1 7.704 151.334 8.352 151.61C9 151.886 9.498 152.258 9.846 152.726C10.194 153.182 10.368 153.794 10.368 154.562C10.368 155.174 10.248 155.708 10.008 156.164C9.78 156.608 9.456 156.98 9.036 157.28C8.616 157.568 8.124 157.784 7.56 157.928C6.996 158.06 6.384 158.126 5.724 158.126C5.076 158.126 4.44 158.06 3.816 157.928C3.204 157.784 2.622 157.58 2.07 157.316C1.518 157.052 1.002 156.722 0.522 156.326L1.296 154.958C1.488 155.162 1.734 155.366 2.034 155.57C2.346 155.762 2.694 155.942 3.078 156.11C3.474 156.278 3.9 156.416 4.356 156.524C4.812 156.62 5.28 156.668 5.76 156.668C6.672 156.668 7.38 156.506 7.884 156.182C8.388 155.846 8.64 155.36 8.64 154.724C8.64 154.244 8.496 153.86 8.208 153.572C7.932 153.284 7.518 153.044 6.966 152.852C6.414 152.66 5.742 152.468 4.95 152.276C4.086 152.06 3.36 151.826 2.772 151.574C2.184 151.31 1.74 150.968 1.44 150.548C1.152 150.128 1.008 149.582 1.008 148.91C1.008 148.094 1.206 147.404 1.602 146.84C1.998 146.276 2.544 145.85 3.24 145.562C3.936 145.274 4.722 145.13 5.598 145.13C6.174 145.13 6.708 145.19 7.2 145.31C7.704 145.43 8.172 145.598 8.604 145.814C9.036 146.03 9.432 146.288 9.792 146.588L9.036 147.902ZM16.4048 158.18C15.6968 158.18 15.0488 158.054 14.4608 157.802C13.8848 157.538 13.3808 157.184 12.9488 156.74C12.5288 156.284 12.1988 155.762 11.9588 155.174C11.7308 154.586 11.6168 153.962 11.6168 153.302C11.6168 152.414 11.8208 151.604 12.2288 150.872C12.6368 150.14 13.2008 149.552 13.9208 149.108C14.6528 148.664 15.4868 148.442 16.4228 148.442C17.3708 148.442 18.1928 148.67 18.8888 149.126C19.5968 149.57 20.1428 150.158 20.5268 150.89C20.9228 151.61 21.1208 152.39 21.1208 153.23C21.1208 153.35 21.1148 153.47 21.1028 153.59C21.1028 153.698 21.0968 153.782 21.0848 153.842H13.2908C13.3388 154.454 13.5068 155 13.7948 155.48C14.0948 155.948 14.4788 156.32 14.9468 156.596C15.4148 156.86 15.9188 156.992 16.4588 156.992C17.0348 156.992 17.5748 156.848 18.0788 156.56C18.5948 156.272 18.9488 155.894 19.1408 155.426L20.5088 155.804C20.3048 156.26 19.9988 156.668 19.5908 157.028C19.1948 157.388 18.7208 157.67 18.1688 157.874C17.6288 158.078 17.0408 158.18 16.4048 158.18ZM13.2368 152.744H19.6448C19.5968 152.132 19.4228 151.592 19.1228 151.124C18.8228 150.656 18.4388 150.29 17.9708 150.026C17.5028 149.762 16.9868 149.63 16.4228 149.63C15.8708 149.63 15.3608 149.762 14.8928 150.026C14.4248 150.29 14.0408 150.656 13.7408 151.124C13.4528 151.592 13.2848 152.132 13.2368 152.744ZM27.0395 158.18C26.3315 158.18 25.6835 158.054 25.0955 157.802C24.5195 157.538 24.0155 157.184 23.5835 156.74C23.1635 156.284 22.8335 155.762 22.5935 155.174C22.3655 154.586 22.2515 153.962 22.2515 153.302C22.2515 152.414 22.4555 151.604 22.8635 150.872C23.2715 150.14 23.8355 149.552 24.5555 149.108C25.2875 148.664 26.1215 148.442 27.0575 148.442C28.0055 148.442 28.8275 148.67 29.5235 149.126C30.2315 149.57 30.7775 150.158 31.1615 150.89C31.5575 151.61 31.7555 152.39 31.7555 153.23C31.7555 153.35 31.7495 153.47 31.7375 153.59C31.7375 153.698 31.7315 153.782 31.7195 153.842H23.9255C23.9735 154.454 24.1415 155 24.4295 155.48C24.7295 155.948 25.1135 156.32 25.5815 156.596C26.0495 156.86 26.5535 156.992 27.0935 156.992C27.6695 156.992 28.2095 156.848 28.7135 156.56C29.2295 156.272 29.5835 155.894 29.7755 155.426L31.1435 155.804C30.9395 156.26 30.6335 156.668 30.2255 157.028C29.8295 157.388 29.3555 157.67 28.8035 157.874C28.2635 158.078 27.6755 158.18 27.0395 158.18ZM23.8715 152.744H30.2795C30.2315 152.132 30.0575 151.592 29.7575 151.124C29.4575 150.656 29.0735 150.29 28.6055 150.026C28.1375 149.762 27.6215 149.63 27.0575 149.63C26.5055 149.63 25.9955 149.762 25.5275 150.026C25.0595 150.29 24.6755 150.656 24.3755 151.124C24.0875 151.592 23.9195 152.132 23.8715 152.744ZM43.127 158.18C42.359 158.18 41.675 157.988 41.075 157.604C40.475 157.22 40.001 156.734 39.653 156.146V161.834H38.069V148.604H39.473V150.368C39.845 149.792 40.331 149.33 40.931 148.982C41.531 148.622 42.185 148.442 42.893 148.442C43.541 148.442 44.135 148.574 44.675 148.838C45.215 149.102 45.683 149.462 46.079 149.918C46.475 150.374 46.781 150.896 46.997 151.484C47.225 152.06 47.339 152.666 47.339 153.302C47.339 154.19 47.159 155.006 46.799 155.75C46.451 156.494 45.959 157.088 45.323 157.532C44.687 157.964 43.955 158.18 43.127 158.18ZM42.641 156.812C43.109 156.812 43.529 156.716 43.901 156.524C44.285 156.32 44.609 156.056 44.873 155.732C45.149 155.396 45.359 155.018 45.503 154.598C45.647 154.178 45.719 153.746 45.719 153.302C45.719 152.834 45.635 152.39 45.467 151.97C45.311 151.55 45.083 151.178 44.783 150.854C44.495 150.53 44.153 150.278 43.757 150.098C43.373 149.906 42.953 149.81 42.497 149.81C42.209 149.81 41.909 149.864 41.597 149.972C41.297 150.08 41.009 150.236 40.733 150.44C40.457 150.632 40.223 150.854 40.031 151.106C39.839 151.358 39.713 151.628 39.653 151.916V154.598C39.833 155.006 40.073 155.378 40.373 155.714C40.673 156.05 41.021 156.32 41.417 156.524C41.813 156.716 42.221 156.812 42.641 156.812ZM53.3879 158.18C52.6799 158.18 52.0379 158.054 51.4619 157.802C50.8859 157.538 50.3879 157.184 49.9679 156.74C49.5479 156.284 49.2239 155.762 48.9959 155.174C48.7679 154.586 48.6539 153.968 48.6539 153.32C48.6539 152.66 48.7679 152.036 48.9959 151.448C49.2239 150.86 49.5479 150.344 49.9679 149.9C50.3879 149.444 50.8859 149.09 51.4619 148.838C52.0499 148.574 52.6919 148.442 53.3879 148.442C54.0959 148.442 54.7379 148.574 55.3139 148.838C55.8899 149.09 56.3879 149.444 56.8079 149.9C57.2399 150.344 57.5699 150.86 57.7979 151.448C58.0259 152.036 58.1399 152.66 58.1399 153.32C58.1399 153.968 58.0259 154.586 57.7979 155.174C57.5699 155.762 57.2459 156.284 56.8259 156.74C56.4059 157.184 55.9019 157.538 55.3139 157.802C54.7379 158.054 54.0959 158.18 53.3879 158.18ZM50.2739 153.338C50.2739 153.986 50.4119 154.574 50.6879 155.102C50.9759 155.63 51.3539 156.05 51.8219 156.362C52.2899 156.662 52.8119 156.812 53.3879 156.812C53.9639 156.812 54.4859 156.656 54.9539 156.344C55.4339 156.032 55.8119 155.612 56.0879 155.084C56.3759 154.544 56.5199 153.95 56.5199 153.302C56.5199 152.654 56.3759 152.066 56.0879 151.538C55.8119 151.01 55.4339 150.59 54.9539 150.278C54.4859 149.966 53.9639 149.81 53.3879 149.81C52.8119 149.81 52.2899 149.972 51.8219 150.296C51.3539 150.608 50.9759 151.028 50.6879 151.556C50.4119 152.084 50.2739 152.678 50.2739 153.338ZM63.2812 158.18C62.5013 158.18 61.7693 158.054 61.0853 157.802C60.4013 157.538 59.8133 157.148 59.3213 156.632L59.9333 155.516C60.4733 156.02 61.0133 156.38 61.5533 156.596C62.0933 156.812 62.6453 156.92 63.2093 156.92C63.8573 156.92 64.3853 156.8 64.7933 156.56C65.2013 156.308 65.4053 155.942 65.4053 155.462C65.4053 155.114 65.2973 154.856 65.0813 154.688C64.8773 154.52 64.5833 154.382 64.1993 154.274C63.8153 154.154 63.3593 154.022 62.8313 153.878C62.1833 153.686 61.6373 153.482 61.1933 153.266C60.7493 153.05 60.4133 152.78 60.1853 152.456C59.9573 152.132 59.8433 151.724 59.8433 151.232C59.8433 150.632 59.9993 150.128 60.3113 149.72C60.6233 149.3 61.0493 148.982 61.5893 148.766C62.1413 148.55 62.7653 148.442 63.4613 148.442C64.1573 148.442 64.7873 148.55 65.3513 148.766C65.9153 148.982 66.4013 149.3 66.8093 149.72L66.0893 150.818C65.7173 150.434 65.3093 150.152 64.8653 149.972C64.4213 149.78 63.9233 149.684 63.3713 149.684C63.0473 149.684 62.7293 149.726 62.4173 149.81C62.1053 149.882 61.8473 150.02 61.6433 150.224C61.4393 150.416 61.3373 150.692 61.3373 151.052C61.3373 151.352 61.4153 151.592 61.5713 151.772C61.7393 151.94 61.9793 152.084 62.2913 152.204C62.6153 152.324 63.0053 152.456 63.4613 152.6C64.1693 152.804 64.7813 153.008 65.2973 153.212C65.8253 153.416 66.2333 153.68 66.5213 154.004C66.8093 154.328 66.9533 154.778 66.9533 155.354C66.9533 156.242 66.6173 156.938 65.9453 157.442C65.2733 157.934 64.3853 158.18 63.2812 158.18ZM73.7083 157.532C73.5763 157.592 73.3963 157.67 73.1683 157.766C72.9403 157.862 72.6763 157.946 72.3763 158.018C72.0763 158.09 71.7583 158.126 71.4223 158.126C71.0383 158.126 70.6843 158.06 70.3603 157.928C70.0363 157.784 69.7783 157.568 69.5863 157.28C69.3943 156.98 69.2983 156.608 69.2983 156.164V149.846H68.0203V148.604H69.2983V145.472H70.8823V148.604H72.9883V149.846H70.8823V155.678C70.9063 156.014 71.0203 156.266 71.2243 156.434C71.4283 156.59 71.6683 156.668 71.9443 156.668C72.2563 156.668 72.5443 156.614 72.8083 156.506C73.0723 156.398 73.2463 156.32 73.3303 156.272L73.7083 157.532ZM78.3984 158.18C77.6184 158.18 76.8864 158.054 76.2024 157.802C75.5184 157.538 74.9304 157.148 74.4384 156.632L75.0504 155.516C75.5904 156.02 76.1304 156.38 76.6704 156.596C77.2104 156.812 77.7624 156.92 78.3264 156.92C78.9744 156.92 79.5024 156.8 79.9104 156.56C80.3184 156.308 80.5224 155.942 80.5224 155.462C80.5224 155.114 80.4144 154.856 80.1984 154.688C79.9944 154.52 79.7004 154.382 79.3164 154.274C78.9324 154.154 78.4764 154.022 77.9484 153.878C77.3004 153.686 76.7544 153.482 76.3104 153.266C75.8664 153.05 75.5304 152.78 75.3024 152.456C75.0744 152.132 74.9604 151.724 74.9604 151.232C74.9604 150.632 75.1164 150.128 75.4284 149.72C75.7404 149.3 76.1664 148.982 76.7064 148.766C77.2584 148.55 77.8824 148.442 78.5784 148.442C79.2744 148.442 79.9044 148.55 80.4684 148.766C81.0324 148.982 81.5184 149.3 81.9264 149.72L81.2064 150.818C80.8344 150.434 80.4264 150.152 79.9824 149.972C79.5384 149.78 79.0404 149.684 78.4884 149.684C78.1644 149.684 77.8464 149.726 77.5344 149.81C77.2224 149.882 76.9644 150.02 76.7604 150.224C76.5564 150.416 76.4544 150.692 76.4544 151.052C76.4544 151.352 76.5324 151.592 76.6884 151.772C76.8564 151.94 77.0964 152.084 77.4084 152.204C77.7324 152.324 78.1224 152.456 78.5784 152.6C79.2864 152.804 79.8984 153.008 80.4144 153.212C80.9424 153.416 81.3504 153.68 81.6384 154.004C81.9264 154.328 82.0704 154.778 82.0704 155.354C82.0704 156.242 81.7344 156.938 81.0624 157.442C80.3904 157.934 79.5024 158.18 78.3984 158.18ZM89.0222 158V149.846H87.7442V148.604H89.0222V148.406C89.0222 147.638 89.1362 146.978 89.3642 146.426C89.6042 145.862 89.9402 145.43 90.3722 145.13C90.8042 144.83 91.3142 144.68 91.9022 144.68C92.2742 144.68 92.6402 144.734 93.0002 144.842C93.3602 144.938 93.6842 145.076 93.9722 145.256L93.5762 146.426C93.4082 146.306 93.1982 146.21 92.9462 146.138C92.7062 146.066 92.4662 146.03 92.2262 146.03C91.7102 146.03 91.3082 146.234 91.0202 146.642C90.7442 147.038 90.6062 147.608 90.6062 148.352V148.604H93.1082V149.846H90.6062V158H89.0222ZM99.6562 149.99C98.8642 150.002 98.1622 150.206 97.5502 150.602C96.9502 150.986 96.5242 151.52 96.2722 152.204V158H94.6882V148.604H96.1642V150.782C96.4882 150.134 96.9142 149.612 97.4422 149.216C97.9822 148.808 98.5462 148.58 99.1342 148.532C99.2542 148.532 99.3562 148.532 99.4402 148.532C99.5242 148.532 99.5962 148.538 99.6562 148.55V149.99ZM105.103 158.18C104.395 158.18 103.753 158.054 103.177 157.802C102.601 157.538 102.103 157.184 101.683 156.74C101.263 156.284 100.939 155.762 100.711 155.174C100.483 154.586 100.369 153.968 100.369 153.32C100.369 152.66 100.483 152.036 100.711 151.448C100.939 150.86 101.263 150.344 101.683 149.9C102.103 149.444 102.601 149.09 103.177 148.838C103.765 148.574 104.407 148.442 105.103 148.442C105.811 148.442 106.453 148.574 107.029 148.838C107.605 149.09 108.103 149.444 108.523 149.9C108.955 150.344 109.285 150.86 109.513 151.448C109.741 152.036 109.855 152.66 109.855 153.32C109.855 153.968 109.741 154.586 109.513 155.174C109.285 155.762 108.961 156.284 108.541 156.74C108.121 157.184 107.617 157.538 107.029 157.802C106.453 158.054 105.811 158.18 105.103 158.18ZM101.989 153.338C101.989 153.986 102.127 154.574 102.403 155.102C102.691 155.63 103.069 156.05 103.537 156.362C104.005 156.662 104.527 156.812 105.103 156.812C105.679 156.812 106.201 156.656 106.669 156.344C107.149 156.032 107.527 155.612 107.803 155.084C108.091 154.544 108.235 153.95 108.235 153.302C108.235 152.654 108.091 152.066 107.803 151.538C107.527 151.01 107.149 150.59 106.669 150.278C106.201 149.966 105.679 149.81 105.103 149.81C104.527 149.81 104.005 149.972 103.537 150.296C103.069 150.608 102.691 151.028 102.403 151.556C102.127 152.084 101.989 152.678 101.989 153.338ZM125.94 158H124.356V152.744C124.356 151.76 124.194 151.034 123.87 150.566C123.558 150.098 123.09 149.864 122.466 149.864C121.83 149.864 121.254 150.098 120.738 150.566C120.222 151.022 119.856 151.616 119.64 152.348V158H118.056V152.744C118.056 151.748 117.9 151.022 117.588 150.566C117.276 150.098 116.808 149.864 116.184 149.864C115.56 149.864 114.984 150.092 114.456 150.548C113.94 150.992 113.574 151.586 113.358 152.33V158H111.774V148.604H113.214V150.62C113.598 149.924 114.096 149.39 114.708 149.018C115.32 148.634 116.01 148.442 116.778 148.442C117.558 148.442 118.182 148.658 118.65 149.09C119.118 149.51 119.406 150.056 119.514 150.728C119.934 149.984 120.444 149.42 121.044 149.036C121.644 148.64 122.328 148.442 123.096 148.442C123.636 148.442 124.086 148.544 124.446 148.748C124.818 148.94 125.112 149.216 125.328 149.576C125.544 149.924 125.7 150.338 125.796 150.818C125.892 151.298 125.94 151.82 125.94 152.384V158ZM132.896 160.556C133.052 160.568 133.208 160.58 133.364 160.592C133.52 160.616 133.64 160.628 133.724 160.628C133.916 160.628 134.084 160.562 134.228 160.43C134.372 160.298 134.528 160.04 134.696 159.656C134.876 159.284 135.104 158.732 135.38 158L131.402 148.604H133.076L136.244 156.398L139.106 148.604H140.672L136.1 160.466C135.992 160.742 135.83 161 135.614 161.24C135.41 161.492 135.146 161.69 134.822 161.834C134.498 161.978 134.108 162.05 133.652 162.05C133.544 162.05 133.43 162.044 133.31 162.032C133.202 162.02 133.064 161.996 132.896 161.96V160.556ZM146.042 158.18C145.334 158.18 144.692 158.054 144.116 157.802C143.54 157.538 143.042 157.184 142.622 156.74C142.202 156.284 141.878 155.762 141.65 155.174C141.422 154.586 141.308 153.968 141.308 153.32C141.308 152.66 141.422 152.036 141.65 151.448C141.878 150.86 142.202 150.344 142.622 149.9C143.042 149.444 143.54 149.09 144.116 148.838C144.704 148.574 145.346 148.442 146.042 148.442C146.75 148.442 147.392 148.574 147.968 148.838C148.544 149.09 149.042 149.444 149.462 149.9C149.894 150.344 150.224 150.86 150.452 151.448C150.68 152.036 150.794 152.66 150.794 153.32C150.794 153.968 150.68 154.586 150.452 155.174C150.224 155.762 149.9 156.284 149.48 156.74C149.06 157.184 148.556 157.538 147.968 157.802C147.392 158.054 146.75 158.18 146.042 158.18ZM142.928 153.338C142.928 153.986 143.066 154.574 143.342 155.102C143.63 155.63 144.008 156.05 144.476 156.362C144.944 156.662 145.466 156.812 146.042 156.812C146.618 156.812 147.14 156.656 147.608 156.344C148.088 156.032 148.466 155.612 148.742 155.084C149.03 154.544 149.174 153.95 149.174 153.302C149.174 152.654 149.03 152.066 148.742 151.538C148.466 151.01 148.088 150.59 147.608 150.278C147.14 149.966 146.618 149.81 146.042 149.81C145.466 149.81 144.944 149.972 144.476 150.296C144.008 150.608 143.63 151.028 143.342 151.556C143.066 152.084 142.928 152.678 142.928 153.338ZM152.624 154.238V148.604H154.208V153.932C154.208 154.892 154.376 155.612 154.712 156.092C155.048 156.572 155.546 156.812 156.206 156.812C156.638 156.812 157.052 156.722 157.448 156.542C157.856 156.35 158.222 156.08 158.546 155.732C158.87 155.384 159.122 154.97 159.302 154.49V148.604H160.886V156.2C160.886 156.392 160.922 156.536 160.994 156.632C161.078 156.716 161.21 156.764 161.39 156.776V158C161.21 158.024 161.066 158.036 160.958 158.036C160.862 158.048 160.766 158.054 160.67 158.054C160.37 158.054 160.112 157.964 159.896 157.784C159.68 157.592 159.566 157.358 159.554 157.082L159.518 155.984C159.11 156.68 158.558 157.22 157.862 157.604C157.178 157.988 156.428 158.18 155.612 158.18C154.628 158.18 153.884 157.85 153.38 157.19C152.876 156.518 152.624 155.534 152.624 154.238ZM168.492 149.99C167.7 150.002 166.998 150.206 166.386 150.602C165.786 150.986 165.36 151.52 165.108 152.204V158H163.524V148.604H165V150.782C165.324 150.134 165.75 149.612 166.278 149.216C166.818 148.808 167.382 148.58 167.97 148.532C168.09 148.532 168.192 148.532 168.276 148.532C168.36 148.532 168.432 148.538 168.492 148.55V149.99ZM174.698 158V149.846H173.42V148.604H174.698V148.406C174.698 147.638 174.812 146.978 175.04 146.426C175.28 145.862 175.616 145.43 176.048 145.13C176.48 144.83 176.99 144.68 177.578 144.68C177.95 144.68 178.316 144.734 178.676 144.842C179.036 144.938 179.36 145.076 179.648 145.256L179.252 146.426C179.084 146.306 178.874 146.21 178.622 146.138C178.382 146.066 178.142 146.03 177.902 146.03C177.386 146.03 176.984 146.234 176.696 146.642C176.42 147.038 176.282 147.608 176.282 148.352V148.604H178.784V149.846H176.282V158H174.698ZM185.332 149.99C184.54 150.002 183.838 150.206 183.226 150.602C182.626 150.986 182.2 151.52 181.948 152.204V158H180.364V148.604H181.84V150.782C182.164 150.134 182.59 149.612 183.118 149.216C183.658 148.808 184.222 148.58 184.81 148.532C184.93 148.532 185.032 148.532 185.116 148.532C185.2 148.532 185.272 148.538 185.332 148.55V149.99ZM186.903 158V148.604H188.487V158H186.903ZM186.903 146.84V144.86H188.487V146.84H186.903ZM195.209 158.18C194.501 158.18 193.853 158.054 193.265 157.802C192.689 157.538 192.185 157.184 191.753 156.74C191.333 156.284 191.003 155.762 190.763 155.174C190.535 154.586 190.421 153.962 190.421 153.302C190.421 152.414 190.625 151.604 191.033 150.872C191.441 150.14 192.005 149.552 192.725 149.108C193.457 148.664 194.291 148.442 195.227 148.442C196.175 148.442 196.997 148.67 197.693 149.126C198.401 149.57 198.947 150.158 199.331 150.89C199.727 151.61 199.925 152.39 199.925 153.23C199.925 153.35 199.919 153.47 199.907 153.59C199.907 153.698 199.901 153.782 199.889 153.842H192.095C192.143 154.454 192.311 155 192.599 155.48C192.899 155.948 193.283 156.32 193.751 156.596C194.219 156.86 194.723 156.992 195.263 156.992C195.839 156.992 196.379 156.848 196.883 156.56C197.399 156.272 197.753 155.894 197.945 155.426L199.313 155.804C199.109 156.26 198.803 156.668 198.395 157.028C197.999 157.388 197.525 157.67 196.973 157.874C196.433 158.078 195.845 158.18 195.209 158.18ZM192.041 152.744H198.449C198.401 152.132 198.227 151.592 197.927 151.124C197.627 150.656 197.243 150.29 196.775 150.026C196.307 149.762 195.791 149.63 195.227 149.63C194.675 149.63 194.165 149.762 193.697 150.026C193.229 150.29 192.845 150.656 192.545 151.124C192.257 151.592 192.089 152.132 192.041 152.744ZM209.84 158H208.256V152.744C208.256 151.748 208.1 151.022 207.788 150.566C207.488 150.098 207.026 149.864 206.402 149.864C205.97 149.864 205.538 149.972 205.106 150.188C204.686 150.404 204.308 150.698 203.972 151.07C203.648 151.43 203.414 151.85 203.27 152.33V158H201.686V148.604H203.126V150.62C203.378 150.176 203.702 149.792 204.098 149.468C204.494 149.144 204.944 148.892 205.448 148.712C205.952 148.532 206.48 148.442 207.032 148.442C207.572 148.442 208.022 148.544 208.382 148.748C208.754 148.94 209.042 149.216 209.246 149.576C209.462 149.924 209.612 150.338 209.696 150.818C209.792 151.298 209.84 151.82 209.84 152.384V158ZM211.691 153.32C211.691 152.432 211.871 151.622 212.231 150.89C212.603 150.146 213.107 149.552 213.743 149.108C214.391 148.664 215.129 148.442 215.957 148.442C216.713 148.442 217.391 148.64 217.991 149.036C218.591 149.432 219.059 149.912 219.395 150.476V144.86H220.979V156.2C220.979 156.392 221.015 156.536 221.087 156.632C221.171 156.716 221.303 156.764 221.483 156.776V158C221.183 158.048 220.949 158.072 220.781 158.072C220.469 158.072 220.193 157.964 219.953 157.748C219.725 157.532 219.611 157.292 219.611 157.028V156.236C219.239 156.836 218.741 157.31 218.117 157.658C217.493 158.006 216.845 158.18 216.173 158.18C215.525 158.18 214.925 158.054 214.373 157.802C213.833 157.538 213.359 157.178 212.951 156.722C212.555 156.266 212.243 155.75 212.015 155.174C211.799 154.586 211.691 153.968 211.691 153.32ZM219.395 154.706V152.006C219.251 151.598 219.017 151.232 218.693 150.908C218.369 150.572 218.003 150.308 217.595 150.116C217.199 149.912 216.803 149.81 216.407 149.81C215.939 149.81 215.513 149.912 215.129 150.116C214.757 150.308 214.433 150.572 214.157 150.908C213.893 151.232 213.689 151.604 213.545 152.024C213.401 152.444 213.329 152.882 213.329 153.338C213.329 153.806 213.407 154.25 213.563 154.67C213.731 155.09 213.959 155.462 214.247 155.786C214.547 156.11 214.889 156.362 215.273 156.542C215.669 156.722 216.095 156.812 216.551 156.812C216.839 156.812 217.133 156.758 217.433 156.65C217.745 156.542 218.039 156.392 218.315 156.2C218.591 156.008 218.825 155.786 219.017 155.534C219.209 155.27 219.335 154.994 219.395 154.706ZM226.846 158.18C226.066 158.18 225.334 158.054 224.65 157.802C223.966 157.538 223.378 157.148 222.886 156.632L223.498 155.516C224.038 156.02 224.578 156.38 225.118 156.596C225.658 156.812 226.21 156.92 226.774 156.92C227.422 156.92 227.95 156.8 228.358 156.56C228.766 156.308 228.97 155.942 228.97 155.462C228.97 155.114 228.862 154.856 228.646 154.688C228.442 154.52 228.148 154.382 227.764 154.274C227.38 154.154 226.924 154.022 226.396 153.878C225.748 153.686 225.202 153.482 224.758 153.266C224.314 153.05 223.978 152.78 223.75 152.456C223.522 152.132 223.408 151.724 223.408 151.232C223.408 150.632 223.564 150.128 223.876 149.72C224.188 149.3 224.614 148.982 225.154 148.766C225.706 148.55 226.33 148.442 227.026 148.442C227.722 148.442 228.352 148.55 228.916 148.766C229.48 148.982 229.966 149.3 230.374 149.72L229.654 150.818C229.282 150.434 228.874 150.152 228.43 149.972C227.986 149.78 227.488 149.684 226.936 149.684C226.612 149.684 226.294 149.726 225.982 149.81C225.67 149.882 225.412 150.02 225.208 150.224C225.004 150.416 224.902 150.692 224.902 151.052C224.902 151.352 224.98 151.592 225.136 151.772C225.304 151.94 225.544 152.084 225.856 152.204C226.18 152.324 226.57 152.456 227.026 152.6C227.734 152.804 228.346 153.008 228.862 153.212C229.39 153.416 229.798 153.68 230.086 154.004C230.374 154.328 230.518 154.778 230.518 155.354C230.518 156.242 230.182 156.938 229.51 157.442C228.838 157.934 227.95 158.18 226.846 158.18ZM232.467 159.458L232.827 157.856H232.287V155.984H233.781V157.856L233.241 159.458H232.467ZM5.436 185.18C4.728 185.18 4.08 185.054 3.492 184.802C2.916 184.538 2.412 184.178 1.98 183.722C1.56 183.266 1.23 182.744 0.99 182.156C0.762 181.568 0.648 180.944 0.648 180.284C0.648 179.396 0.846 178.586 1.242 177.854C1.638 177.122 2.196 176.54 2.916 176.108C3.636 175.664 4.47 175.442 5.418 175.442C6.342 175.442 7.146 175.652 7.83 176.072C8.526 176.48 9.042 177.032 9.378 177.728L7.83 178.214C7.59 177.77 7.254 177.428 6.822 177.188C6.39 176.936 5.91 176.81 5.382 176.81C4.806 176.81 4.278 176.96 3.798 177.26C3.33 177.56 2.958 177.974 2.682 178.502C2.406 179.018 2.268 179.612 2.268 180.284C2.268 180.944 2.406 181.544 2.682 182.084C2.97 182.612 3.348 183.032 3.816 183.344C4.296 183.656 4.824 183.812 5.4 183.812C5.772 183.812 6.126 183.746 6.462 183.614C6.81 183.482 7.11 183.308 7.362 183.092C7.626 182.864 7.806 182.618 7.902 182.354L9.45 182.822C9.258 183.278 8.964 183.686 8.568 184.046C8.184 184.394 7.722 184.67 7.182 184.874C6.654 185.078 6.072 185.18 5.436 185.18ZM15.2609 185.18C14.5529 185.18 13.9109 185.054 13.3349 184.802C12.7589 184.538 12.2609 184.184 11.8409 183.74C11.4209 183.284 11.0969 182.762 10.8689 182.174C10.6409 181.586 10.5269 180.968 10.5269 180.32C10.5269 179.66 10.6409 179.036 10.8689 178.448C11.0969 177.86 11.4209 177.344 11.8409 176.9C12.2609 176.444 12.7589 176.09 13.3349 175.838C13.9229 175.574 14.5649 175.442 15.2609 175.442C15.9689 175.442 16.6109 175.574 17.1869 175.838C17.7629 176.09 18.2609 176.444 18.6809 176.9C19.1129 177.344 19.4429 177.86 19.6709 178.448C19.8989 179.036 20.0129 179.66 20.0129 180.32C20.0129 180.968 19.8989 181.586 19.6709 182.174C19.4429 182.762 19.1189 183.284 18.6989 183.74C18.2789 184.184 17.7749 184.538 17.1869 184.802C16.6109 185.054 15.9689 185.18 15.2609 185.18ZM12.1469 180.338C12.1469 180.986 12.2849 181.574 12.5609 182.102C12.8489 182.63 13.2269 183.05 13.6949 183.362C14.1629 183.662 14.6849 183.812 15.2609 183.812C15.8369 183.812 16.3589 183.656 16.8269 183.344C17.3069 183.032 17.6849 182.612 17.9609 182.084C18.2489 181.544 18.3929 180.95 18.3929 180.302C18.3929 179.654 18.2489 179.066 17.9609 178.538C17.6849 178.01 17.3069 177.59 16.8269 177.278C16.3589 176.966 15.8369 176.81 15.2609 176.81C14.6849 176.81 14.1629 176.972 13.6949 177.296C13.2269 177.608 12.8489 178.028 12.5609 178.556C12.2849 179.084 12.1469 179.678 12.1469 180.338ZM36.0983 185H34.5143V179.744C34.5143 178.76 34.3523 178.034 34.0283 177.566C33.7163 177.098 33.2483 176.864 32.6243 176.864C31.9883 176.864 31.4123 177.098 30.8963 177.566C30.3803 178.022 30.0143 178.616 29.7983 179.348V185H28.2143V179.744C28.2143 178.748 28.0583 178.022 27.7463 177.566C27.4343 177.098 26.9663 176.864 26.3423 176.864C25.7183 176.864 25.1423 177.092 24.6143 177.548C24.0983 177.992 23.7323 178.586 23.5163 179.33V185H21.9323V175.604H23.3723V177.62C23.7563 176.924 24.2543 176.39 24.8663 176.018C25.4783 175.634 26.1683 175.442 26.9363 175.442C27.7163 175.442 28.3403 175.658 28.8083 176.09C29.2763 176.51 29.5643 177.056 29.6723 177.728C30.0923 176.984 30.6023 176.42 31.2023 176.036C31.8023 175.64 32.4863 175.442 33.2543 175.442C33.7943 175.442 34.2443 175.544 34.6043 175.748C34.9763 175.94 35.2703 176.216 35.4863 176.576C35.7023 176.924 35.8583 177.338 35.9543 177.818C36.0503 178.298 36.0983 178.82 36.0983 179.384V185ZM52.7272 185H51.1432V179.744C51.1432 178.76 50.9812 178.034 50.6572 177.566C50.3452 177.098 49.8772 176.864 49.2532 176.864C48.6172 176.864 48.0412 177.098 47.5252 177.566C47.0092 178.022 46.6432 178.616 46.4272 179.348V185H44.8432V179.744C44.8432 178.748 44.6872 178.022 44.3752 177.566C44.0632 177.098 43.5952 176.864 42.9712 176.864C42.3472 176.864 41.7712 177.092 41.2432 177.548C40.7272 177.992 40.3612 178.586 40.1452 179.33V185H38.5612V175.604H40.0012V177.62C40.3852 176.924 40.8832 176.39 41.4952 176.018C42.1072 175.634 42.7972 175.442 43.5652 175.442C44.3452 175.442 44.9692 175.658 45.4372 176.09C45.9052 176.51 46.1932 177.056 46.3012 177.728C46.7212 176.984 47.2312 176.42 47.8312 176.036C48.4312 175.64 49.1152 175.442 49.8832 175.442C50.4232 175.442 50.8732 175.544 51.2332 175.748C51.6052 175.94 51.8992 176.216 52.1152 176.576C52.3312 176.924 52.4872 177.338 52.5832 177.818C52.6792 178.298 52.7272 178.82 52.7272 179.384V185ZM55.1001 181.238V175.604H56.6841V180.932C56.6841 181.892 56.8521 182.612 57.1881 183.092C57.5241 183.572 58.0221 183.812 58.6821 183.812C59.1141 183.812 59.5281 183.722 59.9241 183.542C60.3321 183.35 60.6981 183.08 61.0221 182.732C61.3461 182.384 61.5981 181.97 61.7781 181.49V175.604H63.3621V183.2C63.3621 183.392 63.3981 183.536 63.4701 183.632C63.5541 183.716 63.6861 183.764 63.8661 183.776V185C63.6861 185.024 63.5421 185.036 63.4341 185.036C63.3381 185.048 63.2421 185.054 63.1461 185.054C62.8461 185.054 62.5881 184.964 62.3721 184.784C62.1561 184.592 62.0421 184.358 62.0301 184.082L61.9941 182.984C61.5861 183.68 61.0341 184.22 60.3381 184.604C59.6541 184.988 58.9041 185.18 58.0881 185.18C57.1041 185.18 56.3601 184.85 55.8561 184.19C55.3521 183.518 55.1001 182.534 55.1001 181.238ZM74.1547 185H72.5707V179.744C72.5707 178.748 72.4147 178.022 72.1027 177.566C71.8027 177.098 71.3407 176.864 70.7167 176.864C70.2847 176.864 69.8527 176.972 69.4207 177.188C69.0007 177.404 68.6227 177.698 68.2867 178.07C67.9627 178.43 67.7287 178.85 67.5847 179.33V185H66.0007V175.604H67.4407V177.62C67.6927 177.176 68.0167 176.792 68.4127 176.468C68.8087 176.144 69.2587 175.892 69.7627 175.712C70.2667 175.532 70.7947 175.442 71.3467 175.442C71.8867 175.442 72.3367 175.544 72.6967 175.748C73.0687 175.94 73.3567 176.216 73.5607 176.576C73.7767 176.924 73.9267 177.338 74.0107 177.818C74.1067 178.298 74.1547 178.82 74.1547 179.384V185ZM76.6178 185V175.604H78.2018V185H76.6178ZM76.6178 173.84V171.86H78.2018V173.84H76.6178ZM85.6263 184.532C85.4943 184.592 85.3143 184.67 85.0863 184.766C84.8583 184.862 84.5943 184.946 84.2943 185.018C83.9943 185.09 83.6763 185.126 83.3403 185.126C82.9563 185.126 82.6023 185.06 82.2783 184.928C81.9543 184.784 81.6963 184.568 81.5043 184.28C81.3123 183.98 81.2163 183.608 81.2163 183.164V176.846H79.9383V175.604H81.2163V172.472H82.8003V175.604H84.9063V176.846H82.8003V182.678C82.8243 183.014 82.9383 183.266 83.1423 183.434C83.3463 183.59 83.5863 183.668 83.8623 183.668C84.1743 183.668 84.4623 183.614 84.7263 183.506C84.9903 183.398 85.1643 183.32 85.2483 183.272L85.6263 184.532ZM87.0944 185V175.604H88.6784V185H87.0944ZM87.0944 173.84V171.86H88.6784V173.84H87.0944ZM95.4008 185.18C94.6928 185.18 94.0448 185.054 93.4568 184.802C92.8808 184.538 92.3768 184.184 91.9448 183.74C91.5248 183.284 91.1948 182.762 90.9548 182.174C90.7268 181.586 90.6128 180.962 90.6128 180.302C90.6128 179.414 90.8168 178.604 91.2248 177.872C91.6328 177.14 92.1968 176.552 92.9168 176.108C93.6488 175.664 94.4828 175.442 95.4188 175.442C96.3668 175.442 97.1888 175.67 97.8848 176.126C98.5928 176.57 99.1388 177.158 99.5228 177.89C99.9188 178.61 100.117 179.39 100.117 180.23C100.117 180.35 100.111 180.47 100.099 180.59C100.099 180.698 100.093 180.782 100.081 180.842H92.2868C92.3348 181.454 92.5028 182 92.7908 182.48C93.0908 182.948 93.4748 183.32 93.9428 183.596C94.4108 183.86 94.9148 183.992 95.4548 183.992C96.0308 183.992 96.5708 183.848 97.0748 183.56C97.5908 183.272 97.9448 182.894 98.1368 182.426L99.5048 182.804C99.3008 183.26 98.9948 183.668 98.5868 184.028C98.1908 184.388 97.7168 184.67 97.1648 184.874C96.6248 185.078 96.0368 185.18 95.4008 185.18ZM92.2328 179.744H98.6408C98.5928 179.132 98.4188 178.592 98.1188 178.124C97.8188 177.656 97.4348 177.29 96.9668 177.026C96.4988 176.762 95.9828 176.63 95.4188 176.63C94.8668 176.63 94.3568 176.762 93.8888 177.026C93.4208 177.29 93.0368 177.656 92.7368 178.124C92.4488 178.592 92.2808 179.132 92.2328 179.744ZM105.1 185.18C104.32 185.18 103.588 185.054 102.904 184.802C102.22 184.538 101.632 184.148 101.14 183.632L101.752 182.516C102.292 183.02 102.832 183.38 103.372 183.596C103.912 183.812 104.464 183.92 105.028 183.92C105.676 183.92 106.204 183.8 106.612 183.56C107.02 183.308 107.224 182.942 107.224 182.462C107.224 182.114 107.116 181.856 106.9 181.688C106.696 181.52 106.402 181.382 106.018 181.274C105.634 181.154 105.178 181.022 104.65 180.878C104.002 180.686 103.456 180.482 103.012 180.266C102.568 180.05 102.232 179.78 102.004 179.456C101.776 179.132 101.662 178.724 101.662 178.232C101.662 177.632 101.818 177.128 102.13 176.72C102.442 176.3 102.868 175.982 103.408 175.766C103.96 175.55 104.584 175.442 105.28 175.442C105.976 175.442 106.606 175.55 107.17 175.766C107.734 175.982 108.22 176.3 108.628 176.72L107.908 177.818C107.536 177.434 107.128 177.152 106.684 176.972C106.24 176.78 105.742 176.684 105.19 176.684C104.866 176.684 104.548 176.726 104.236 176.81C103.924 176.882 103.666 177.02 103.462 177.224C103.258 177.416 103.156 177.692 103.156 178.052C103.156 178.352 103.234 178.592 103.39 178.772C103.558 178.94 103.798 179.084 104.11 179.204C104.434 179.324 104.824 179.456 105.28 179.6C105.988 179.804 106.6 180.008 107.116 180.212C107.644 180.416 108.052 180.68 108.34 181.004C108.628 181.328 108.772 181.778 108.772 182.354C108.772 183.242 108.436 183.938 107.764 184.442C107.092 184.934 106.204 185.18 105.1 185.18ZM110.721 186.458L111.081 184.856H110.541V182.984H112.035V184.856L111.495 186.458H110.721ZM118.278 182.282C118.278 181.682 118.446 181.166 118.782 180.734C119.13 180.29 119.604 179.948 120.204 179.708C120.804 179.468 121.5 179.348 122.292 179.348C122.712 179.348 123.156 179.384 123.624 179.456C124.092 179.516 124.506 179.612 124.866 179.744V179.06C124.866 178.34 124.65 177.776 124.218 177.368C123.786 176.948 123.174 176.738 122.382 176.738C121.866 176.738 121.368 176.834 120.888 177.026C120.42 177.206 119.922 177.47 119.394 177.818L118.818 176.702C119.43 176.282 120.042 175.97 120.654 175.766C121.266 175.55 121.902 175.442 122.562 175.442C123.762 175.442 124.71 175.778 125.406 176.45C126.102 177.11 126.45 178.034 126.45 179.222V183.2C126.45 183.392 126.486 183.536 126.558 183.632C126.642 183.716 126.774 183.764 126.954 183.776V185C126.798 185.024 126.66 185.042 126.54 185.054C126.432 185.066 126.342 185.072 126.27 185.072C125.898 185.072 125.616 184.97 125.424 184.766C125.244 184.562 125.142 184.346 125.118 184.118L125.082 183.524C124.674 184.052 124.14 184.46 123.48 184.748C122.82 185.036 122.166 185.18 121.518 185.18C120.894 185.18 120.336 185.054 119.844 184.802C119.352 184.538 118.968 184.19 118.692 183.758C118.416 183.314 118.278 182.822 118.278 182.282ZM124.398 182.948C124.542 182.78 124.656 182.612 124.74 182.444C124.824 182.264 124.866 182.114 124.866 181.994V180.824C124.494 180.68 124.104 180.572 123.696 180.5C123.288 180.416 122.886 180.374 122.49 180.374C121.686 180.374 121.032 180.536 120.528 180.86C120.036 181.172 119.79 181.604 119.79 182.156C119.79 182.456 119.868 182.75 120.024 183.038C120.192 183.314 120.432 183.542 120.744 183.722C121.068 183.902 121.464 183.992 121.932 183.992C122.424 183.992 122.892 183.896 123.336 183.704C123.78 183.5 124.134 183.248 124.398 182.948ZM137.137 185H135.553V179.744C135.553 178.748 135.397 178.022 135.085 177.566C134.785 177.098 134.323 176.864 133.699 176.864C133.267 176.864 132.835 176.972 132.403 177.188C131.983 177.404 131.605 177.698 131.269 178.07C130.945 178.43 130.711 178.85 130.567 179.33V185H128.983V175.604H130.423V177.62C130.675 177.176 130.999 176.792 131.395 176.468C131.791 176.144 132.241 175.892 132.745 175.712C133.249 175.532 133.777 175.442 134.329 175.442C134.869 175.442 135.319 175.544 135.679 175.748C136.051 175.94 136.339 176.216 136.543 176.576C136.759 176.924 136.909 177.338 136.993 177.818C137.089 178.298 137.137 178.82 137.137 179.384V185ZM138.988 180.32C138.988 179.432 139.168 178.622 139.528 177.89C139.9 177.146 140.404 176.552 141.04 176.108C141.688 175.664 142.426 175.442 143.254 175.442C144.01 175.442 144.688 175.64 145.288 176.036C145.888 176.432 146.356 176.912 146.692 177.476V171.86H148.276V183.2C148.276 183.392 148.312 183.536 148.384 183.632C148.468 183.716 148.6 183.764 148.78 183.776V185C148.48 185.048 148.246 185.072 148.078 185.072C147.766 185.072 147.49 184.964 147.25 184.748C147.022 184.532 146.908 184.292 146.908 184.028V183.236C146.536 183.836 146.038 184.31 145.414 184.658C144.79 185.006 144.142 185.18 143.47 185.18C142.822 185.18 142.222 185.054 141.67 184.802C141.13 184.538 140.656 184.178 140.248 183.722C139.852 183.266 139.54 182.75 139.312 182.174C139.096 181.586 138.988 180.968 138.988 180.32ZM146.692 181.706V179.006C146.548 178.598 146.314 178.232 145.99 177.908C145.666 177.572 145.3 177.308 144.892 177.116C144.496 176.912 144.1 176.81 143.704 176.81C143.236 176.81 142.81 176.912 142.426 177.116C142.054 177.308 141.73 177.572 141.454 177.908C141.19 178.232 140.986 178.604 140.842 179.024C140.698 179.444 140.626 179.882 140.626 180.338C140.626 180.806 140.704 181.25 140.86 181.67C141.028 182.09 141.256 182.462 141.544 182.786C141.844 183.11 142.186 183.362 142.57 183.542C142.966 183.722 143.392 183.812 143.848 183.812C144.136 183.812 144.43 183.758 144.73 183.65C145.042 183.542 145.336 183.392 145.612 183.2C145.888 183.008 146.122 182.786 146.314 182.534C146.506 182.27 146.632 181.994 146.692 181.706ZM160.333 184.532C160.201 184.592 160.021 184.67 159.793 184.766C159.565 184.862 159.301 184.946 159.001 185.018C158.701 185.09 158.383 185.126 158.047 185.126C157.663 185.126 157.309 185.06 156.985 184.928C156.661 184.784 156.403 184.568 156.211 184.28C156.019 183.98 155.923 183.608 155.923 183.164V176.846H154.645V175.604H155.923V172.472H157.507V175.604H159.613V176.846H157.507V182.678C157.531 183.014 157.645 183.266 157.849 183.434C158.053 183.59 158.293 183.668 158.569 183.668C158.881 183.668 159.169 183.614 159.433 183.506C159.697 183.398 159.871 183.32 159.955 183.272L160.333 184.532ZM169.955 185H168.371V179.744C168.371 178.784 168.197 178.064 167.849 177.584C167.513 177.104 167.027 176.864 166.391 176.864C165.983 176.864 165.569 176.972 165.149 177.188C164.741 177.404 164.381 177.698 164.069 178.07C163.757 178.43 163.529 178.85 163.385 179.33V185H161.801V171.86H163.385V177.62C163.757 176.948 164.261 176.42 164.897 176.036C165.545 175.64 166.241 175.442 166.985 175.442C167.549 175.442 168.017 175.544 168.389 175.748C168.773 175.94 169.079 176.216 169.307 176.576C169.535 176.936 169.697 177.356 169.793 177.836C169.901 178.304 169.955 178.82 169.955 179.384V185ZM176.577 185.18C175.869 185.18 175.221 185.054 174.633 184.802C174.057 184.538 173.553 184.184 173.121 183.74C172.701 183.284 172.371 182.762 172.131 182.174C171.903 181.586 171.789 180.962 171.789 180.302C171.789 179.414 171.993 178.604 172.401 177.872C172.809 177.14 173.373 176.552 174.093 176.108C174.825 175.664 175.659 175.442 176.595 175.442C177.543 175.442 178.365 175.67 179.061 176.126C179.769 176.57 180.315 177.158 180.699 177.89C181.095 178.61 181.293 179.39 181.293 180.23C181.293 180.35 181.287 180.47 181.275 180.59C181.275 180.698 181.269 180.782 181.257 180.842H173.463C173.511 181.454 173.679 182 173.967 182.48C174.267 182.948 174.651 183.32 175.119 183.596C175.587 183.86 176.091 183.992 176.631 183.992C177.207 183.992 177.747 183.848 178.251 183.56C178.767 183.272 179.121 182.894 179.313 182.426L180.681 182.804C180.477 183.26 180.171 183.668 179.763 184.028C179.367 184.388 178.893 184.67 178.341 184.874C177.801 185.078 177.213 185.18 176.577 185.18ZM173.409 179.744H179.817C179.769 179.132 179.595 178.592 179.295 178.124C178.995 177.656 178.611 177.29 178.143 177.026C177.675 176.762 177.159 176.63 176.595 176.63C176.043 176.63 175.533 176.762 175.065 177.026C174.597 177.29 174.213 177.656 173.913 178.124C173.625 178.592 173.457 179.132 173.409 179.744ZM192.466 184.532C192.334 184.592 192.154 184.67 191.926 184.766C191.698 184.862 191.434 184.946 191.134 185.018C190.834 185.09 190.516 185.126 190.18 185.126C189.796 185.126 189.442 185.06 189.118 184.928C188.794 184.784 188.536 184.568 188.344 184.28C188.152 183.98 188.056 183.608 188.056 183.164V176.846H186.778V175.604H188.056V172.472H189.64V175.604H191.746V176.846H189.64V182.678C189.664 183.014 189.778 183.266 189.982 183.434C190.186 183.59 190.426 183.668 190.702 183.668C191.014 183.668 191.302 183.614 191.566 183.506C191.83 183.398 192.004 183.32 192.088 183.272L192.466 184.532ZM202.088 185H200.504V179.744C200.504 178.784 200.33 178.064 199.982 177.584C199.646 177.104 199.16 176.864 198.524 176.864C198.116 176.864 197.702 176.972 197.282 177.188C196.874 177.404 196.514 177.698 196.202 178.07C195.89 178.43 195.662 178.85 195.518 179.33V185H193.934V171.86H195.518V177.62C195.89 176.948 196.394 176.42 197.03 176.036C197.678 175.64 198.374 175.442 199.118 175.442C199.682 175.442 200.15 175.544 200.522 175.748C200.906 175.94 201.212 176.216 201.44 176.576C201.668 176.936 201.83 177.356 201.926 177.836C202.034 178.304 202.088 178.82 202.088 179.384V185ZM204.551 185V175.604H206.135V185H204.551ZM204.551 173.84V171.86H206.135V173.84H204.551ZM216.854 185H215.27V179.744C215.27 178.748 215.114 178.022 214.802 177.566C214.502 177.098 214.04 176.864 213.416 176.864C212.984 176.864 212.552 176.972 212.12 177.188C211.7 177.404 211.322 177.698 210.986 178.07C210.662 178.43 210.428 178.85 210.284 179.33V185H208.7V175.604H210.14V177.62C210.392 177.176 210.716 176.792 211.112 176.468C211.508 176.144 211.958 175.892 212.462 175.712C212.966 175.532 213.494 175.442 214.046 175.442C214.586 175.442 215.036 175.544 215.396 175.748C215.768 175.94 216.056 176.216 216.26 176.576C216.476 176.924 216.626 177.338 216.71 177.818C216.806 178.298 216.854 178.82 216.854 179.384V185ZM223.061 185.108C222.425 185.108 221.837 184.982 221.297 184.73C220.769 184.466 220.313 184.112 219.929 183.668C219.545 183.212 219.245 182.696 219.029 182.12C218.825 181.544 218.723 180.944 218.723 180.32C218.723 179.66 218.825 179.036 219.029 178.448C219.245 177.86 219.545 177.344 219.929 176.9C220.325 176.444 220.787 176.09 221.315 175.838C221.843 175.574 222.431 175.442 223.079 175.442C223.859 175.442 224.537 175.634 225.113 176.018C225.701 176.402 226.193 176.888 226.589 177.476V175.604H227.993V184.892C227.993 185.78 227.777 186.53 227.345 187.142C226.925 187.754 226.349 188.216 225.617 188.528C224.897 188.852 224.093 189.014 223.205 189.014C222.149 189.014 221.285 188.828 220.613 188.456C219.941 188.084 219.383 187.58 218.939 186.944L219.857 186.134C220.229 186.686 220.709 187.1 221.297 187.376C221.897 187.652 222.533 187.79 223.205 187.79C223.781 187.79 224.309 187.682 224.789 187.466C225.281 187.262 225.671 186.944 225.959 186.512C226.259 186.08 226.409 185.54 226.409 184.892V183.236C226.061 183.812 225.581 184.268 224.969 184.604C224.369 184.94 223.733 185.108 223.061 185.108ZM223.547 183.812C223.883 183.812 224.207 183.752 224.519 183.632C224.831 183.512 225.119 183.356 225.383 183.164C225.647 182.96 225.869 182.732 226.049 182.48C226.229 182.228 226.349 181.97 226.409 181.706V179.006C226.241 178.574 226.001 178.196 225.689 177.872C225.377 177.536 225.023 177.278 224.627 177.098C224.231 176.906 223.823 176.81 223.403 176.81C222.923 176.81 222.491 176.912 222.107 177.116C221.735 177.32 221.417 177.596 221.153 177.944C220.889 178.28 220.685 178.658 220.541 179.078C220.397 179.498 220.325 179.924 220.325 180.356C220.325 180.824 220.409 181.268 220.577 181.688C220.745 182.096 220.973 182.462 221.261 182.786C221.549 183.11 221.891 183.362 222.287 183.542C222.683 183.722 223.103 183.812 223.547 183.812ZM233.771 185.18C232.991 185.18 232.259 185.054 231.575 184.802C230.891 184.538 230.303 184.148 229.811 183.632L230.423 182.516C230.963 183.02 231.503 183.38 232.043 183.596C232.583 183.812 233.135 183.92 233.699 183.92C234.347 183.92 234.875 183.8 235.283 183.56C235.691 183.308 235.895 182.942 235.895 182.462C235.895 182.114 235.787 181.856 235.571 181.688C235.367 181.52 235.073 181.382 234.689 181.274C234.305 181.154 233.849 181.022 233.321 180.878C232.673 180.686 232.127 180.482 231.683 180.266C231.239 180.05 230.903 179.78 230.675 179.456C230.447 179.132 230.333 178.724 230.333 178.232C230.333 177.632 230.489 177.128 230.801 176.72C231.113 176.3 231.539 175.982 232.079 175.766C232.631 175.55 233.255 175.442 233.951 175.442C234.647 175.442 235.277 175.55 235.841 175.766C236.405 175.982 236.891 176.3 237.299 176.72L236.579 177.818C236.207 177.434 235.799 177.152 235.355 176.972C234.911 176.78 234.413 176.684 233.861 176.684C233.537 176.684 233.219 176.726 232.907 176.81C232.595 176.882 232.337 177.02 232.133 177.224C231.929 177.416 231.827 177.692 231.827 178.052C231.827 178.352 231.905 178.592 232.061 178.772C232.229 178.94 232.469 179.084 232.781 179.204C233.105 179.324 233.495 179.456 233.951 179.6C234.659 179.804 235.271 180.008 235.787 180.212C236.315 180.416 236.723 180.68 237.011 181.004C237.299 181.328 237.443 181.778 237.443 182.354C237.443 183.242 237.107 183.938 236.435 184.442C235.763 184.934 234.875 185.18 233.771 185.18ZM243.831 187.556C243.987 187.568 244.143 187.58 244.299 187.592C244.455 187.616 244.575 187.628 244.659 187.628C244.851 187.628 245.019 187.562 245.163 187.43C245.307 187.298 245.463 187.04 245.631 186.656C245.811 186.284 246.039 185.732 246.315 185L242.337 175.604H244.011L247.179 183.398L250.041 175.604H251.607L247.035 187.466C246.927 187.742 246.765 188 246.549 188.24C246.345 188.492 246.081 188.69 245.757 188.834C245.433 188.978 245.043 189.05 244.587 189.05C244.479 189.05 244.365 189.044 244.245 189.032C244.137 189.02 243.999 188.996 243.831 188.96V187.556ZM256.978 185.18C256.27 185.18 255.628 185.054 255.052 184.802C254.476 184.538 253.978 184.184 253.558 183.74C253.138 183.284 252.814 182.762 252.586 182.174C252.358 181.586 252.244 180.968 252.244 180.32C252.244 179.66 252.358 179.036 252.586 178.448C252.814 177.86 253.138 177.344 253.558 176.9C253.978 176.444 254.476 176.09 255.052 175.838C255.64 175.574 256.282 175.442 256.978 175.442C257.686 175.442 258.328 175.574 258.904 175.838C259.48 176.09 259.978 176.444 260.398 176.9C260.83 177.344 261.16 177.86 261.388 178.448C261.616 179.036 261.73 179.66 261.73 180.32C261.73 180.968 261.616 181.586 261.388 182.174C261.16 182.762 260.836 183.284 260.416 183.74C259.996 184.184 259.492 184.538 258.904 184.802C258.328 185.054 257.686 185.18 256.978 185.18ZM253.864 180.338C253.864 180.986 254.002 181.574 254.278 182.102C254.566 182.63 254.944 183.05 255.412 183.362C255.88 183.662 256.402 183.812 256.978 183.812C257.554 183.812 258.076 183.656 258.544 183.344C259.024 183.032 259.402 182.612 259.678 182.084C259.966 181.544 260.11 180.95 260.11 180.302C260.11 179.654 259.966 179.066 259.678 178.538C259.402 178.01 259.024 177.59 258.544 177.278C258.076 176.966 257.554 176.81 256.978 176.81C256.402 176.81 255.88 176.972 255.412 177.296C254.944 177.608 254.566 178.028 254.278 178.556C254.002 179.084 253.864 179.678 253.864 180.338ZM263.559 181.238V175.604H265.143V180.932C265.143 181.892 265.311 182.612 265.647 183.092C265.983 183.572 266.481 183.812 267.141 183.812C267.573 183.812 267.987 183.722 268.383 183.542C268.791 183.35 269.157 183.08 269.481 182.732C269.805 182.384 270.057 181.97 270.237 181.49V175.604H271.821V183.2C271.821 183.392 271.857 183.536 271.929 183.632C272.013 183.716 272.145 183.764 272.325 183.776V185C272.145 185.024 272.001 185.036 271.893 185.036C271.797 185.048 271.701 185.054 271.605 185.054C271.305 185.054 271.047 184.964 270.831 184.784C270.615 184.592 270.501 184.358 270.489 184.082L270.453 182.984C270.045 183.68 269.493 184.22 268.797 184.604C268.113 184.988 267.363 185.18 266.547 185.18C265.563 185.18 264.819 184.85 264.315 184.19C263.811 183.518 263.559 182.534 263.559 181.238ZM1.782 212V203.846H0.504V202.604H1.782V202.406C1.782 201.638 1.896 200.978 2.124 200.426C2.364 199.862 2.7 199.43 3.132 199.13C3.564 198.83 4.074 198.68 4.662 198.68C5.034 198.68 5.4 198.734 5.76 198.842C6.12 198.938 6.444 199.076 6.732 199.256L6.336 200.426C6.168 200.306 5.958 200.21 5.706 200.138C5.466 200.066 5.226 200.03 4.986 200.03C4.47 200.03 4.068 200.234 3.78 200.642C3.504 201.038 3.366 201.608 3.366 202.352V202.604H5.868V203.846H3.366V212H1.782ZM11.3234 212.18C10.6154 212.18 9.97341 212.054 9.39741 211.802C8.82141 211.538 8.32341 211.184 7.90341 210.74C7.48341 210.284 7.15941 209.762 6.93141 209.174C6.70341 208.586 6.58941 207.968 6.58941 207.32C6.58941 206.66 6.70341 206.036 6.93141 205.448C7.15941 204.86 7.48341 204.344 7.90341 203.9C8.32341 203.444 8.82141 203.09 9.39741 202.838C9.98541 202.574 10.6274 202.442 11.3234 202.442C12.0314 202.442 12.6734 202.574 13.2494 202.838C13.8254 203.09 14.3234 203.444 14.7434 203.9C15.1754 204.344 15.5054 204.86 15.7334 205.448C15.9614 206.036 16.0754 206.66 16.0754 207.32C16.0754 207.968 15.9614 208.586 15.7334 209.174C15.5054 209.762 15.1814 210.284 14.7614 210.74C14.3414 211.184 13.8374 211.538 13.2494 211.802C12.6734 212.054 12.0314 212.18 11.3234 212.18ZM8.20941 207.338C8.20941 207.986 8.34741 208.574 8.62341 209.102C8.91141 209.63 9.28941 210.05 9.75741 210.362C10.2254 210.662 10.7474 210.812 11.3234 210.812C11.8994 210.812 12.4214 210.656 12.8894 210.344C13.3694 210.032 13.7474 209.612 14.0234 209.084C14.3114 208.544 14.4554 207.95 14.4554 207.302C14.4554 206.654 14.3114 206.066 14.0234 205.538C13.7474 205.01 13.3694 204.59 12.8894 204.278C12.4214 203.966 11.8994 203.81 11.3234 203.81C10.7474 203.81 10.2254 203.972 9.75741 204.296C9.28941 204.608 8.91141 205.028 8.62341 205.556C8.34741 206.084 8.20941 206.678 8.20941 207.338ZM18.0308 198.86H19.6148V209.57C19.6148 210.086 19.6868 210.404 19.8308 210.524C19.9748 210.644 20.1488 210.704 20.3528 210.704C20.6048 210.704 20.8448 210.68 21.0728 210.632C21.3008 210.572 21.4928 210.512 21.6488 210.452L21.9008 211.748C21.6368 211.856 21.3248 211.946 20.9648 212.018C20.6048 212.09 20.2868 212.126 20.0108 212.126C19.3988 212.126 18.9128 211.952 18.5528 211.604C18.2048 211.256 18.0308 210.77 18.0308 210.146V198.86ZM23.1812 198.86H24.7652V209.57C24.7652 210.086 24.8372 210.404 24.9812 210.524C25.1252 210.644 25.2992 210.704 25.5032 210.704C25.7552 210.704 25.9952 210.68 26.2232 210.632C26.4512 210.572 26.6432 210.512 26.7992 210.452L27.0512 211.748C26.7872 211.856 26.4752 211.946 26.1152 212.018C25.7552 212.09 25.4372 212.126 25.1612 212.126C24.5492 212.126 24.0632 211.952 23.7032 211.604C23.3552 211.256 23.1812 210.77 23.1812 210.146V198.86ZM32.3996 212.18C31.6916 212.18 31.0496 212.054 30.4736 211.802C29.8976 211.538 29.3996 211.184 28.9796 210.74C28.5596 210.284 28.2356 209.762 28.0076 209.174C27.7796 208.586 27.6656 207.968 27.6656 207.32C27.6656 206.66 27.7796 206.036 28.0076 205.448C28.2356 204.86 28.5596 204.344 28.9796 203.9C29.3996 203.444 29.8976 203.09 30.4736 202.838C31.0616 202.574 31.7036 202.442 32.3996 202.442C33.1076 202.442 33.7496 202.574 34.3256 202.838C34.9016 203.09 35.3996 203.444 35.8196 203.9C36.2516 204.344 36.5816 204.86 36.8096 205.448C37.0376 206.036 37.1516 206.66 37.1516 207.32C37.1516 207.968 37.0376 208.586 36.8096 209.174C36.5816 209.762 36.2576 210.284 35.8376 210.74C35.4176 211.184 34.9136 211.538 34.3256 211.802C33.7496 212.054 33.1076 212.18 32.3996 212.18ZM29.2856 207.338C29.2856 207.986 29.4236 208.574 29.6996 209.102C29.9876 209.63 30.3656 210.05 30.8336 210.362C31.3016 210.662 31.8236 210.812 32.3996 210.812C32.9756 210.812 33.4976 210.656 33.9656 210.344C34.4456 210.032 34.8236 209.612 35.0996 209.084C35.3876 208.544 35.5316 207.95 35.5316 207.302C35.5316 206.654 35.3876 206.066 35.0996 205.538C34.8236 205.01 34.4456 204.59 33.9656 204.278C33.4976 203.966 32.9756 203.81 32.3996 203.81C31.8236 203.81 31.3016 203.972 30.8336 204.296C30.3656 204.608 29.9876 205.028 29.6996 205.556C29.4236 206.084 29.2856 206.678 29.2856 207.338ZM50.5266 202.604H52.0566L48.0606 212H46.6746L44.8566 207.572L43.0566 212H41.6706L37.6746 202.604H39.1866L42.4266 210.434L43.9386 206.582L42.3546 202.622H43.7406L44.8566 205.61L45.9726 202.622H47.3586L45.7926 206.582L47.3046 210.434L50.5266 202.604ZM52.0934 212V209.984H53.4254V212H52.0934ZM69.3339 200.66H64.9239V212H63.3039V200.66H58.8939V199.22H69.3339V200.66ZM79.0765 212H77.4925V206.744C77.4925 205.784 77.3185 205.064 76.9705 204.584C76.6345 204.104 76.1485 203.864 75.5125 203.864C75.1045 203.864 74.6905 203.972 74.2705 204.188C73.8625 204.404 73.5025 204.698 73.1905 205.07C72.8785 205.43 72.6505 205.85 72.5065 206.33V212H70.9225V198.86H72.5065V204.62C72.8785 203.948 73.3825 203.42 74.0185 203.036C74.6665 202.64 75.3625 202.442 76.1065 202.442C76.6705 202.442 77.1385 202.544 77.5105 202.748C77.8945 202.94 78.2005 203.216 78.4285 203.576C78.6565 203.936 78.8185 204.356 78.9145 204.836C79.0225 205.304 79.0765 205.82 79.0765 206.384V212ZM80.8017 209.282C80.8017 208.682 80.9697 208.166 81.3057 207.734C81.6537 207.29 82.1277 206.948 82.7277 206.708C83.3277 206.468 84.0237 206.348 84.8157 206.348C85.2357 206.348 85.6797 206.384 86.1477 206.456C86.6157 206.516 87.0297 206.612 87.3897 206.744V206.06C87.3897 205.34 87.1737 204.776 86.7417 204.368C86.3097 203.948 85.6977 203.738 84.9057 203.738C84.3897 203.738 83.8917 203.834 83.4117 204.026C82.9437 204.206 82.4457 204.47 81.9177 204.818L81.3417 203.702C81.9537 203.282 82.5657 202.97 83.1777 202.766C83.7897 202.55 84.4257 202.442 85.0857 202.442C86.2857 202.442 87.2337 202.778 87.9297 203.45C88.6257 204.11 88.9737 205.034 88.9737 206.222V210.2C88.9737 210.392 89.0097 210.536 89.0817 210.632C89.1657 210.716 89.2977 210.764 89.4777 210.776V212C89.3217 212.024 89.1837 212.042 89.0637 212.054C88.9557 212.066 88.8657 212.072 88.7937 212.072C88.4217 212.072 88.1397 211.97 87.9477 211.766C87.7677 211.562 87.6657 211.346 87.6417 211.118L87.6057 210.524C87.1977 211.052 86.6637 211.46 86.0037 211.748C85.3437 212.036 84.6897 212.18 84.0417 212.18C83.4177 212.18 82.8597 212.054 82.3677 211.802C81.8757 211.538 81.4917 211.19 81.2157 210.758C80.9397 210.314 80.8017 209.822 80.8017 209.282ZM86.9217 209.948C87.0657 209.78 87.1797 209.612 87.2637 209.444C87.3477 209.264 87.3897 209.114 87.3897 208.994V207.824C87.0177 207.68 86.6277 207.572 86.2197 207.5C85.8117 207.416 85.4097 207.374 85.0137 207.374C84.2097 207.374 83.5557 207.536 83.0517 207.86C82.5597 208.172 82.3137 208.604 82.3137 209.156C82.3137 209.456 82.3917 209.75 82.5477 210.038C82.7157 210.314 82.9557 210.542 83.2677 210.722C83.5917 210.902 83.9877 210.992 84.4557 210.992C84.9477 210.992 85.4157 210.896 85.8597 210.704C86.3037 210.5 86.6577 210.248 86.9217 209.948ZM96.2962 211.532C96.1642 211.592 95.9842 211.67 95.7562 211.766C95.5282 211.862 95.2642 211.946 94.9642 212.018C94.6642 212.09 94.3462 212.126 94.0102 212.126C93.6262 212.126 93.2722 212.06 92.9482 211.928C92.6242 211.784 92.3662 211.568 92.1742 211.28C91.9822 210.98 91.8862 210.608 91.8862 210.164V203.846H90.6082V202.604H91.8862V199.472H93.4702V202.604H95.5762V203.846H93.4702V209.678C93.4942 210.014 93.6082 210.266 93.8122 210.434C94.0162 210.59 94.2562 210.668 94.5322 210.668C94.8442 210.668 95.1322 210.614 95.3962 210.506C95.6602 210.398 95.8342 210.32 95.9182 210.272L96.2962 211.532ZM96.8151 202.982L97.1751 200.912H96.6351V198.86H98.1291V200.912L97.5891 202.982H96.8151ZM102.393 212.18C101.613 212.18 100.881 212.054 100.197 211.802C99.5126 211.538 98.9246 211.148 98.4326 210.632L99.0446 209.516C99.5846 210.02 100.125 210.38 100.665 210.596C101.205 210.812 101.757 210.92 102.321 210.92C102.969 210.92 103.497 210.8 103.905 210.56C104.313 210.308 104.517 209.942 104.517 209.462C104.517 209.114 104.409 208.856 104.193 208.688C103.989 208.52 103.695 208.382 103.311 208.274C102.927 208.154 102.471 208.022 101.943 207.878C101.295 207.686 100.749 207.482 100.305 207.266C99.8606 207.05 99.5246 206.78 99.2966 206.456C99.0686 206.132 98.9546 205.724 98.9546 205.232C98.9546 204.632 99.1106 204.128 99.4226 203.72C99.7346 203.3 100.161 202.982 100.701 202.766C101.253 202.55 101.877 202.442 102.573 202.442C103.269 202.442 103.899 202.55 104.463 202.766C105.027 202.982 105.513 203.3 105.921 203.72L105.201 204.818C104.829 204.434 104.421 204.152 103.977 203.972C103.533 203.78 103.035 203.684 102.483 203.684C102.159 203.684 101.841 203.726 101.529 203.81C101.217 203.882 100.959 204.02 100.755 204.224C100.551 204.416 100.449 204.692 100.449 205.052C100.449 205.352 100.527 205.592 100.683 205.772C100.851 205.94 101.091 206.084 101.403 206.204C101.727 206.324 102.117 206.456 102.573 206.6C103.281 206.804 103.893 207.008 104.409 207.212C104.937 207.416 105.345 207.68 105.633 208.004C105.921 208.328 106.065 208.778 106.065 209.354C106.065 210.242 105.729 210.938 105.057 211.442C104.385 211.934 103.497 212.18 102.393 212.18ZM112.512 212V202.604H114.096V212H112.512ZM112.512 200.84V198.86H114.096V200.84H112.512ZM121.521 211.532C121.389 211.592 121.209 211.67 120.981 211.766C120.753 211.862 120.489 211.946 120.189 212.018C119.889 212.09 119.571 212.126 119.235 212.126C118.851 212.126 118.497 212.06 118.173 211.928C117.849 211.784 117.591 211.568 117.399 211.28C117.207 210.98 117.111 210.608 117.111 210.164V203.846H115.833V202.604H117.111V199.472H118.695V202.604H120.801V203.846H118.695V209.678C118.719 210.014 118.833 210.266 119.037 210.434C119.241 210.59 119.481 210.668 119.757 210.668C120.069 210.668 120.357 210.614 120.621 210.506C120.885 210.398 121.059 210.32 121.143 210.272L121.521 211.532ZM122.863 212V209.984H124.195V212H122.863Z" fill="#7883BE"/>
</svg>
