<svg width="310" height="235" viewBox="0 0 310 235" fill="none" xmlns="http://www.w3.org/2000/svg">
<rect width="310" height="235" fill="#121526"/>
<path d="M12 21C12 20.45 11.55 20 11 20C10.45 20 10 20.45 10 21V24H8C5.79375 24 4 25.7937 4 28V46C4 48.2062 5.79375 50 8 50H18.0875C17.7937 49.3625 17.5562 48.6938 17.375 48H8C6.89375 48 6 47.1063 6 46V32H32V28C32 25.7937 30.2062 24 28 24H26V21C26 20.45 25.55 20 25 20C24.45 20 24 20.45 24 21V24H12V21ZM8 26H28C29.1063 26 30 26.8938 30 28V30H6V28C6 26.8938 6.89375 26 8 26ZM22 45C22 41.1313 25.1313 38 29 38C32.8687 38 36 41.1313 36 45C36 48.8687 32.8687 52 29 52C25.1313 52 22 48.8687 22 45ZM38 45C38 40.0312 33.9688 36 29 36C24.0312 36 20 40.0312 20 45C20 49.9688 24.0312 54 29 54C33.9688 54 38 49.9688 38 45ZM30 41C30 40.45 29.55 40 29 40C28.45 40 28 40.45 28 41V44H25C24.45 44 24 44.45 24 45C24 45.55 24.45 46 25 46H28V49C28 49.55 28.45 50 29 50C29.55 50 30 49.55 30 49V46H33C33.55 46 34 45.55 34 45C34 44.45 33.55 44 33 44H30V41Z" fill="#00BD7B"/>
<path d="M0.744 86.36C0.744 85.32 0.928 84.304 1.296 83.312C1.68 82.304 2.232 81.392 2.952 80.576C3.672 79.744 4.552 79.088 5.592 78.608C6.632 78.112 7.816 77.864 9.144 77.864C10.712 77.864 12.064 78.208 13.2 78.896C14.352 79.584 15.208 80.48 15.768 81.584L13.224 83.336C12.936 82.696 12.56 82.192 12.096 81.824C11.632 81.44 11.136 81.176 10.608 81.032C10.08 80.872 9.56 80.792 9.048 80.792C8.216 80.792 7.488 80.96 6.864 81.296C6.256 81.632 5.744 82.072 5.328 82.616C4.912 83.16 4.6 83.768 4.392 84.44C4.2 85.112 4.104 85.784 4.104 86.456C4.104 87.208 4.224 87.936 4.464 88.64C4.704 89.328 5.04 89.944 5.472 90.488C5.92 91.016 6.448 91.44 7.056 91.76C7.68 92.064 8.36 92.216 9.096 92.216C9.624 92.216 10.16 92.128 10.704 91.952C11.248 91.776 11.752 91.496 12.216 91.112C12.68 90.728 13.04 90.232 13.296 89.624L16.008 91.184C15.672 92.032 15.12 92.752 14.352 93.344C13.6 93.936 12.752 94.384 11.808 94.688C10.864 94.992 9.928 95.144 9 95.144C7.784 95.144 6.672 94.896 5.664 94.4C4.656 93.888 3.784 93.216 3.048 92.384C2.328 91.536 1.76 90.592 1.344 89.552C0.944 88.496 0.744 87.432 0.744 86.36ZM25.4051 85.208C24.4291 85.208 23.5571 85.4 22.7891 85.784C22.0211 86.152 21.4691 86.688 21.1331 87.392V95H17.9171V82.424H20.8691V85.112C21.3171 84.248 21.8851 83.568 22.5731 83.072C23.2611 82.576 23.9891 82.304 24.7571 82.256C24.9331 82.256 25.0691 82.256 25.1651 82.256C25.2611 82.256 25.3411 82.264 25.4051 82.28V85.208ZM32.8663 95.24C31.8583 95.24 30.9463 95.072 30.1303 94.736C29.3143 94.384 28.6183 93.912 28.0423 93.32C27.4663 92.712 27.0183 92.024 26.6983 91.256C26.3943 90.472 26.2423 89.648 26.2423 88.784C26.2423 87.584 26.5063 86.488 27.0343 85.496C27.5783 84.504 28.3463 83.712 29.3383 83.12C30.3463 82.512 31.5303 82.208 32.8903 82.208C34.2663 82.208 35.4423 82.512 36.4183 83.12C37.3943 83.712 38.1383 84.504 38.6503 85.496C39.1783 86.472 39.4423 87.528 39.4423 88.664C39.4423 88.856 39.4343 89.056 39.4183 89.264C39.4023 89.456 39.3863 89.616 39.3703 89.744H29.6503C29.7143 90.384 29.8983 90.944 30.2023 91.424C30.5223 91.904 30.9223 92.272 31.4023 92.528C31.8983 92.768 32.4263 92.888 32.9863 92.888C33.6263 92.888 34.2263 92.736 34.7863 92.432C35.3623 92.112 35.7543 91.696 35.9623 91.184L38.7223 91.952C38.4183 92.592 37.9783 93.16 37.4023 93.656C36.8423 94.152 36.1783 94.544 35.4103 94.832C34.6423 95.104 33.7943 95.24 32.8663 95.24ZM29.5783 87.704H36.1543C36.0903 87.064 35.9063 86.512 35.6023 86.048C35.3143 85.568 34.9303 85.2 34.4503 84.944C33.9703 84.672 33.4343 84.536 32.8423 84.536C32.2663 84.536 31.7383 84.672 31.2583 84.944C30.7943 85.2 30.4103 85.568 30.1063 86.048C29.8183 86.512 29.6423 87.064 29.5783 87.704ZM40.5375 91.28C40.5375 90.464 40.7615 89.752 41.2095 89.144C41.6735 88.52 42.3135 88.04 43.1295 87.704C43.9455 87.368 44.8815 87.2 45.9375 87.2C46.4655 87.2 47.0015 87.24 47.5455 87.32C48.0895 87.4 48.5615 87.528 48.9615 87.704V87.032C48.9615 86.232 48.7215 85.616 48.2415 85.184C47.7775 84.752 47.0815 84.536 46.1535 84.536C45.4655 84.536 44.8095 84.656 44.1855 84.896C43.5615 85.136 42.9055 85.488 42.2175 85.952L41.1855 83.84C42.0175 83.296 42.8655 82.888 43.7295 82.616C44.6095 82.344 45.5295 82.208 46.4895 82.208C48.2815 82.208 49.6735 82.656 50.6655 83.552C51.6735 84.448 52.1775 85.728 52.1775 87.392V91.4C52.1775 91.736 52.2335 91.976 52.3455 92.12C52.4735 92.264 52.6735 92.352 52.9455 92.384V95C52.6575 95.048 52.3935 95.088 52.1535 95.12C51.9295 95.152 51.7375 95.168 51.5775 95.168C50.9375 95.168 50.4495 95.024 50.1135 94.736C49.7935 94.448 49.5935 94.096 49.5135 93.68L49.4415 93.032C48.8975 93.736 48.2175 94.28 47.4015 94.664C46.5855 95.048 45.7535 95.24 44.9055 95.24C44.0735 95.24 43.3215 95.072 42.6495 94.736C41.9935 94.384 41.4735 93.912 41.0895 93.32C40.7215 92.712 40.5375 92.032 40.5375 91.28ZM48.3615 91.928C48.5375 91.736 48.6815 91.544 48.7935 91.352C48.9055 91.16 48.9615 90.984 48.9615 90.824V89.552C48.5775 89.392 48.1615 89.272 47.7135 89.192C47.2655 89.096 46.8415 89.048 46.4415 89.048C45.6095 89.048 44.9215 89.232 44.3775 89.6C43.8495 89.952 43.5855 90.424 43.5855 91.016C43.5855 91.336 43.6735 91.64 43.8495 91.928C44.0255 92.216 44.2815 92.448 44.6175 92.624C44.9535 92.8 45.3535 92.888 45.8175 92.888C46.2975 92.888 46.7695 92.8 47.2335 92.624C47.6975 92.432 48.0735 92.2 48.3615 91.928ZM62.6016 94.352C62.3296 94.464 62.0016 94.592 61.6176 94.736C61.2336 94.88 60.8176 94.992 60.3696 95.072C59.9376 95.168 59.4976 95.216 59.0496 95.216C58.4576 95.216 57.9136 95.112 57.4176 94.904C56.9216 94.696 56.5216 94.368 56.2176 93.92C55.9296 93.456 55.7856 92.856 55.7856 92.12V84.896H54.1296V82.424H55.7856V78.344H59.0016V82.424H61.6416V84.896H59.0016V91.04C59.0176 91.472 59.1376 91.784 59.3616 91.976C59.5856 92.168 59.8656 92.264 60.2016 92.264C60.5376 92.264 60.8656 92.208 61.1856 92.096C61.5056 91.984 61.7616 91.888 61.9536 91.808L62.6016 94.352ZM69.9679 95.24C68.9599 95.24 68.0479 95.072 67.2319 94.736C66.4159 94.384 65.7199 93.912 65.1439 93.32C64.5679 92.712 64.1199 92.024 63.7999 91.256C63.4959 90.472 63.3439 89.648 63.3439 88.784C63.3439 87.584 63.6079 86.488 64.1359 85.496C64.6799 84.504 65.4479 83.712 66.4399 83.12C67.4479 82.512 68.6319 82.208 69.9919 82.208C71.3679 82.208 72.5439 82.512 73.5199 83.12C74.4959 83.712 75.2399 84.504 75.7519 85.496C76.2799 86.472 76.5439 87.528 76.5439 88.664C76.5439 88.856 76.5359 89.056 76.5199 89.264C76.5039 89.456 76.4879 89.616 76.4719 89.744H66.7519C66.8159 90.384 66.9999 90.944 67.3039 91.424C67.6239 91.904 68.0239 92.272 68.5039 92.528C68.9999 92.768 69.5279 92.888 70.0879 92.888C70.7279 92.888 71.3279 92.736 71.8879 92.432C72.4639 92.112 72.8559 91.696 73.0639 91.184L75.8239 91.952C75.5199 92.592 75.0799 93.16 74.5039 93.656C73.9439 94.152 73.2799 94.544 72.5119 94.832C71.7439 95.104 70.8959 95.24 69.9679 95.24ZM66.6799 87.704H73.2559C73.1919 87.064 73.0079 86.512 72.7039 86.048C72.4159 85.568 72.0319 85.2 71.5519 84.944C71.0719 84.672 70.5359 84.536 69.9439 84.536C69.3679 84.536 68.8399 84.672 68.3599 84.944C67.8959 85.2 67.5119 85.568 67.2079 86.048C66.9199 86.512 66.7439 87.064 66.6799 87.704ZM167.443 95V85.544H165.787V83.096H167.443V82.328C167.443 81.288 167.611 80.392 167.947 79.64C168.299 78.872 168.787 78.28 169.411 77.864C170.051 77.448 170.795 77.24 171.643 77.24C172.155 77.24 172.667 77.304 173.179 77.432C173.707 77.56 174.227 77.744 174.739 77.984L174.091 80.408C173.851 80.28 173.571 80.176 173.251 80.096C172.931 80 172.627 79.952 172.339 79.952C171.795 79.952 171.379 80.144 171.091 80.528C170.803 80.912 170.659 81.472 170.659 82.208V83.096H173.731V85.544H170.659V95H167.443ZM181.202 95.24C180.178 95.24 179.258 95.072 178.442 94.736C177.626 94.384 176.93 93.904 176.354 93.296C175.794 92.688 175.362 91.992 175.058 91.208C174.754 90.424 174.602 89.6 174.602 88.736C174.602 87.856 174.754 87.024 175.058 86.24C175.362 85.456 175.794 84.76 176.354 84.152C176.93 83.544 177.626 83.072 178.442 82.736C179.258 82.384 180.178 82.208 181.202 82.208C182.226 82.208 183.138 82.384 183.938 82.736C184.754 83.072 185.45 83.544 186.026 84.152C186.602 84.76 187.034 85.456 187.322 86.24C187.626 87.024 187.778 87.856 187.778 88.736C187.778 89.6 187.626 90.424 187.322 91.208C187.034 91.992 186.602 92.688 186.026 93.296C185.466 93.904 184.778 94.384 183.962 94.736C183.146 95.072 182.226 95.24 181.202 95.24ZM177.914 88.736C177.914 89.472 178.058 90.128 178.346 90.704C178.634 91.264 179.026 91.704 179.522 92.024C180.018 92.344 180.578 92.504 181.202 92.504C181.81 92.504 182.362 92.344 182.858 92.024C183.354 91.688 183.746 91.24 184.034 90.68C184.338 90.104 184.49 89.448 184.49 88.712C184.49 87.992 184.338 87.344 184.034 86.768C183.746 86.192 183.354 85.744 182.858 85.424C182.362 85.104 181.81 84.944 181.202 84.944C180.578 84.944 180.018 85.112 179.522 85.448C179.026 85.768 178.634 86.216 178.346 86.792C178.058 87.352 177.914 88 177.914 88.736ZM197.436 85.208C196.46 85.208 195.588 85.4 194.82 85.784C194.052 86.152 193.5 86.688 193.164 87.392V95H189.948V82.424H192.9V85.112C193.348 84.248 193.916 83.568 194.604 83.072C195.292 82.576 196.02 82.304 196.788 82.256C196.964 82.256 197.1 82.256 197.196 82.256C197.292 82.256 197.372 82.264 197.436 82.28V85.208ZM210.264 95.24C209.24 95.24 208.32 95.072 207.504 94.736C206.688 94.384 205.992 93.904 205.416 93.296C204.856 92.688 204.424 91.992 204.12 91.208C203.816 90.424 203.664 89.6 203.664 88.736C203.664 87.856 203.816 87.024 204.12 86.24C204.424 85.456 204.856 84.76 205.416 84.152C205.992 83.544 206.688 83.072 207.504 82.736C208.32 82.384 209.24 82.208 210.264 82.208C211.288 82.208 212.2 82.384 213 82.736C213.816 83.072 214.512 83.544 215.088 84.152C215.664 84.76 216.096 85.456 216.384 86.24C216.688 87.024 216.84 87.856 216.84 88.736C216.84 89.6 216.688 90.424 216.384 91.208C216.096 91.992 215.664 92.688 215.088 93.296C214.528 93.904 213.84 94.384 213.024 94.736C212.208 95.072 211.288 95.24 210.264 95.24ZM206.976 88.736C206.976 89.472 207.12 90.128 207.408 90.704C207.696 91.264 208.088 91.704 208.584 92.024C209.08 92.344 209.64 92.504 210.264 92.504C210.872 92.504 211.424 92.344 211.92 92.024C212.416 91.688 212.808 91.24 213.096 90.68C213.4 90.104 213.552 89.448 213.552 88.712C213.552 87.992 213.4 87.344 213.096 86.768C212.808 86.192 212.416 85.744 211.92 85.424C211.424 85.104 210.872 84.944 210.264 84.944C209.64 84.944 209.08 85.112 208.584 85.448C208.088 85.768 207.696 86.216 207.408 86.792C207.12 87.352 206.976 88 206.976 88.736ZM226.359 94.352C226.087 94.464 225.759 94.592 225.375 94.736C224.991 94.88 224.575 94.992 224.127 95.072C223.695 95.168 223.255 95.216 222.807 95.216C222.215 95.216 221.671 95.112 221.175 94.904C220.679 94.696 220.279 94.368 219.975 93.92C219.687 93.456 219.543 92.856 219.543 92.12V84.896H217.887V82.424H219.543V78.344H222.759V82.424H225.399V84.896H222.759V91.04C222.775 91.472 222.895 91.784 223.119 91.976C223.343 92.168 223.623 92.264 223.959 92.264C224.295 92.264 224.623 92.208 224.943 92.096C225.263 91.984 225.519 91.888 225.711 91.808L226.359 94.352ZM239.722 95H236.506V87.944C236.506 86.968 236.314 86.24 235.93 85.76C235.562 85.28 235.05 85.04 234.394 85.04C234.01 85.04 233.602 85.152 233.17 85.376C232.738 85.6 232.346 85.912 231.994 86.312C231.658 86.696 231.41 87.144 231.25 87.656V95H228.034V77.48H231.25V84.752C231.714 83.952 232.346 83.328 233.146 82.88C233.946 82.432 234.818 82.208 235.762 82.208C236.578 82.208 237.242 82.352 237.754 82.64C238.266 82.912 238.666 83.288 238.954 83.768C239.242 84.232 239.442 84.76 239.554 85.352C239.666 85.928 239.722 86.528 239.722 87.152V95ZM248.351 95.24C247.343 95.24 246.431 95.072 245.615 94.736C244.799 94.384 244.103 93.912 243.527 93.32C242.951 92.712 242.503 92.024 242.183 91.256C241.879 90.472 241.727 89.648 241.727 88.784C241.727 87.584 241.991 86.488 242.519 85.496C243.063 84.504 243.831 83.712 244.823 83.12C245.831 82.512 247.015 82.208 248.375 82.208C249.751 82.208 250.927 82.512 251.903 83.12C252.879 83.712 253.623 84.504 254.135 85.496C254.663 86.472 254.927 87.528 254.927 88.664C254.927 88.856 254.919 89.056 254.903 89.264C254.887 89.456 254.871 89.616 254.855 89.744H245.135C245.199 90.384 245.383 90.944 245.687 91.424C246.007 91.904 246.407 92.272 246.887 92.528C247.383 92.768 247.911 92.888 248.471 92.888C249.111 92.888 249.711 92.736 250.271 92.432C250.847 92.112 251.239 91.696 251.447 91.184L254.207 91.952C253.903 92.592 253.463 93.16 252.887 93.656C252.327 94.152 251.663 94.544 250.895 94.832C250.127 95.104 249.279 95.24 248.351 95.24ZM245.063 87.704H251.639C251.575 87.064 251.391 86.512 251.087 86.048C250.799 85.568 250.415 85.2 249.935 84.944C249.455 84.672 248.919 84.536 248.327 84.536C247.751 84.536 247.223 84.672 246.743 84.944C246.279 85.2 245.895 85.568 245.591 86.048C245.303 86.512 245.127 87.064 245.063 87.704ZM264.374 85.208C263.398 85.208 262.526 85.4 261.758 85.784C260.99 86.152 260.438 86.688 260.102 87.392V95H256.886V82.424H259.838V85.112C260.286 84.248 260.854 83.568 261.542 83.072C262.23 82.576 262.958 82.304 263.726 82.256C263.902 82.256 264.038 82.256 264.134 82.256C264.23 82.256 264.31 82.264 264.374 82.28V85.208ZM270.799 95.24C269.727 95.24 268.703 95.064 267.727 94.712C266.751 94.36 265.911 93.84 265.207 93.152L266.359 91.064C267.111 91.672 267.847 92.12 268.567 92.408C269.303 92.696 270.007 92.84 270.679 92.84C271.303 92.84 271.799 92.728 272.167 92.504C272.551 92.28 272.743 91.944 272.743 91.496C272.743 91.192 272.639 90.96 272.431 90.8C272.223 90.624 271.919 90.472 271.519 90.344C271.135 90.216 270.663 90.072 270.103 89.912C269.175 89.608 268.399 89.312 267.775 89.024C267.151 88.736 266.679 88.376 266.359 87.944C266.055 87.496 265.903 86.928 265.903 86.24C265.903 85.408 266.111 84.696 266.527 84.104C266.959 83.496 267.551 83.024 268.303 82.688C269.071 82.352 269.967 82.184 270.991 82.184C271.887 82.184 272.735 82.328 273.535 82.616C274.335 82.888 275.063 83.336 275.719 83.96L274.423 86C273.783 85.504 273.175 85.144 272.599 84.92C272.023 84.68 271.439 84.56 270.847 84.56C270.511 84.56 270.191 84.6 269.887 84.68C269.599 84.76 269.359 84.896 269.167 85.088C268.991 85.264 268.903 85.52 268.903 85.856C268.903 86.16 268.983 86.4 269.143 86.576C269.319 86.736 269.575 86.88 269.911 87.008C270.263 87.136 270.687 87.28 271.183 87.44C272.191 87.728 273.039 88.024 273.727 88.328C274.431 88.632 274.959 89.008 275.311 89.456C275.663 89.888 275.839 90.488 275.839 91.256C275.839 92.504 275.383 93.48 274.471 94.184C273.559 94.888 272.335 95.24 270.799 95.24ZM9 123.352C8.728 123.464 8.4 123.592 8.016 123.736C7.632 123.88 7.216 123.992 6.768 124.072C6.336 124.168 5.896 124.216 5.448 124.216C4.856 124.216 4.312 124.112 3.816 123.904C3.32 123.696 2.92 123.368 2.616 122.92C2.328 122.456 2.184 121.856 2.184 121.12V113.896H0.528V111.424H2.184V107.344H5.4V111.424H8.04V113.896H5.4V120.04C5.416 120.472 5.536 120.784 5.76 120.976C5.984 121.168 6.264 121.264 6.6 121.264C6.936 121.264 7.264 121.208 7.584 121.096C7.904 120.984 8.16 120.888 8.352 120.808L9 123.352ZM16.3423 124.24C15.3183 124.24 14.3983 124.072 13.5823 123.736C12.7663 123.384 12.0703 122.904 11.4943 122.296C10.9343 121.688 10.5023 120.992 10.1983 120.208C9.89431 119.424 9.74231 118.6 9.74231 117.736C9.74231 116.856 9.89431 116.024 10.1983 115.24C10.5023 114.456 10.9343 113.76 11.4943 113.152C12.0703 112.544 12.7663 112.072 13.5823 111.736C14.3983 111.384 15.3183 111.208 16.3423 111.208C17.3663 111.208 18.2783 111.384 19.0783 111.736C19.8943 112.072 20.5903 112.544 21.1663 113.152C21.7423 113.76 22.1743 114.456 22.4623 115.24C22.7663 116.024 22.9183 116.856 22.9183 117.736C22.9183 118.6 22.7663 119.424 22.4623 120.208C22.1743 120.992 21.7423 121.688 21.1663 122.296C20.6063 122.904 19.9183 123.384 19.1023 123.736C18.2863 124.072 17.3663 124.24 16.3423 124.24ZM13.0543 117.736C13.0543 118.472 13.1983 119.128 13.4863 119.704C13.7743 120.264 14.1663 120.704 14.6623 121.024C15.1583 121.344 15.7183 121.504 16.3423 121.504C16.9503 121.504 17.5023 121.344 17.9983 121.024C18.4943 120.688 18.8863 120.24 19.1743 119.68C19.4783 119.104 19.6303 118.448 19.6303 117.712C19.6303 116.992 19.4783 116.344 19.1743 115.768C18.8863 115.192 18.4943 114.744 17.9983 114.424C17.5023 114.104 16.9503 113.944 16.3423 113.944C15.7183 113.944 15.1583 114.112 14.6623 114.448C14.1663 114.768 13.7743 115.216 13.4863 115.792C13.1983 116.352 13.0543 117 13.0543 117.736ZM38.3906 124.24C37.4146 124.24 36.5506 124.024 35.7986 123.592C35.0626 123.144 34.4866 122.544 34.0706 121.792V129.112H30.8546V111.424H33.6626V113.584C34.1426 112.848 34.7506 112.272 35.4866 111.856C36.2226 111.424 37.0626 111.208 38.0066 111.208C38.8546 111.208 39.6306 111.376 40.3346 111.712C41.0546 112.048 41.6786 112.52 42.2066 113.128C42.7346 113.72 43.1426 114.408 43.4306 115.192C43.7346 115.96 43.8866 116.792 43.8866 117.688C43.8866 118.904 43.6466 120.008 43.1666 121C42.7026 121.992 42.0546 122.784 41.2226 123.376C40.4066 123.952 39.4626 124.24 38.3906 124.24ZM37.3106 121.504C37.8066 121.504 38.2546 121.4 38.6546 121.192C39.0546 120.984 39.3986 120.704 39.6866 120.352C39.9906 119.984 40.2146 119.576 40.3586 119.128C40.5186 118.664 40.5986 118.184 40.5986 117.688C40.5986 117.16 40.5106 116.672 40.3346 116.224C40.1746 115.776 39.9346 115.384 39.6146 115.048C39.2946 114.696 38.9186 114.424 38.4866 114.232C38.0706 114.04 37.6146 113.944 37.1186 113.944C36.8146 113.944 36.5026 114 36.1826 114.112C35.8786 114.208 35.5826 114.352 35.2946 114.544C35.0066 114.736 34.7506 114.96 34.5266 115.216C34.3186 115.472 34.1666 115.752 34.0706 116.056V119.008C34.2626 119.472 34.5186 119.896 34.8386 120.28C35.1746 120.664 35.5586 120.968 35.9906 121.192C36.4226 121.4 36.8626 121.504 37.3106 121.504ZM45.2016 120.28C45.2016 119.464 45.4256 118.752 45.8736 118.144C46.3376 117.52 46.9776 117.04 47.7936 116.704C48.6096 116.368 49.5456 116.2 50.6016 116.2C51.1296 116.2 51.6656 116.24 52.2096 116.32C52.7536 116.4 53.2256 116.528 53.6256 116.704V116.032C53.6256 115.232 53.3856 114.616 52.9056 114.184C52.4416 113.752 51.7456 113.536 50.8176 113.536C50.1296 113.536 49.4736 113.656 48.8496 113.896C48.2256 114.136 47.5696 114.488 46.8816 114.952L45.8496 112.84C46.6816 112.296 47.5296 111.888 48.3936 111.616C49.2736 111.344 50.1936 111.208 51.1536 111.208C52.9456 111.208 54.3376 111.656 55.3296 112.552C56.3376 113.448 56.8416 114.728 56.8416 116.392V120.4C56.8416 120.736 56.8976 120.976 57.0096 121.12C57.1376 121.264 57.3376 121.352 57.6096 121.384V124C57.3216 124.048 57.0576 124.088 56.8176 124.12C56.5936 124.152 56.4016 124.168 56.2416 124.168C55.6016 124.168 55.1136 124.024 54.7776 123.736C54.4576 123.448 54.2576 123.096 54.1776 122.68L54.1056 122.032C53.5616 122.736 52.8816 123.28 52.0656 123.664C51.2496 124.048 50.4176 124.24 49.5696 124.24C48.7376 124.24 47.9856 124.072 47.3136 123.736C46.6576 123.384 46.1376 122.912 45.7536 122.32C45.3856 121.712 45.2016 121.032 45.2016 120.28ZM53.0256 120.928C53.2016 120.736 53.3456 120.544 53.4576 120.352C53.5696 120.16 53.6256 119.984 53.6256 119.824V118.552C53.2416 118.392 52.8256 118.272 52.3776 118.192C51.9296 118.096 51.5056 118.048 51.1056 118.048C50.2736 118.048 49.5856 118.232 49.0416 118.6C48.5136 118.952 48.2496 119.424 48.2496 120.016C48.2496 120.336 48.3376 120.64 48.5136 120.928C48.6896 121.216 48.9456 121.448 49.2816 121.624C49.6176 121.8 50.0176 121.888 50.4816 121.888C50.9616 121.888 51.4336 121.8 51.8976 121.624C52.3616 121.432 52.7376 121.2 53.0256 120.928ZM67.3348 114.208C66.3588 114.208 65.4868 114.4 64.7188 114.784C63.9508 115.152 63.3988 115.688 63.0628 116.392V124H59.8468V111.424H62.7988V114.112C63.2468 113.248 63.8148 112.568 64.5028 112.072C65.1908 111.576 65.9188 111.304 66.6868 111.256C66.8628 111.256 66.9988 111.256 67.0948 111.256C67.1908 111.256 67.2708 111.264 67.3348 111.28V114.208ZM76.6641 123.352C76.3921 123.464 76.0641 123.592 75.6801 123.736C75.2961 123.88 74.8801 123.992 74.4321 124.072C74.0001 124.168 73.5601 124.216 73.1121 124.216C72.5201 124.216 71.9761 124.112 71.4801 123.904C70.9841 123.696 70.5841 123.368 70.2801 122.92C69.9921 122.456 69.8481 121.856 69.8481 121.12V113.896H68.1921V111.424H69.8481V107.344H73.0641V111.424H75.7041V113.896H73.0641V120.04C73.0801 120.472 73.2001 120.784 73.4241 120.976C73.6481 121.168 73.9281 121.264 74.2641 121.264C74.6001 121.264 74.9281 121.208 75.2481 121.096C75.5681 120.984 75.8241 120.888 76.0161 120.808L76.6641 123.352ZM78.339 124V111.424H81.555V124H78.339ZM78.339 109.672V106.48H81.555V109.672H78.339ZM90.3122 124.24C89.2882 124.24 88.3682 124.072 87.5522 123.736C86.7362 123.384 86.0402 122.904 85.4642 122.296C84.8882 121.672 84.4402 120.968 84.1202 120.184C83.8162 119.4 83.6642 118.576 83.6642 117.712C83.6642 116.528 83.9282 115.448 84.4562 114.472C85.0002 113.48 85.7682 112.688 86.7602 112.096C87.7522 111.504 88.9282 111.208 90.2882 111.208C91.6482 111.208 92.8162 111.504 93.7922 112.096C94.7682 112.688 95.4962 113.464 95.9762 114.424L92.8322 115.384C92.5602 114.92 92.2002 114.568 91.7522 114.328C91.3042 114.072 90.8082 113.944 90.2642 113.944C89.6562 113.944 89.0962 114.104 88.5842 114.424C88.0882 114.728 87.6962 115.168 87.4082 115.744C87.1202 116.304 86.9762 116.96 86.9762 117.712C86.9762 118.448 87.1202 119.104 87.4082 119.68C87.7122 120.24 88.1122 120.688 88.6082 121.024C89.1042 121.344 89.6562 121.504 90.2642 121.504C90.6482 121.504 91.0082 121.44 91.3442 121.312C91.6962 121.184 92.0082 121.008 92.2802 120.784C92.5522 120.56 92.7522 120.304 92.8802 120.016L96.0242 120.976C95.7362 121.6 95.3122 122.16 94.7522 122.656C94.2082 123.152 93.5602 123.544 92.8082 123.832C92.0722 124.104 91.2402 124.24 90.3122 124.24ZM98.0031 124V111.424H101.219V124H98.0031ZM98.0031 109.672V106.48H101.219V109.672H98.0031ZM111.656 124.24C110.68 124.24 109.816 124.024 109.064 123.592C108.328 123.144 107.752 122.544 107.336 121.792V129.112H104.12V111.424H106.928V113.584C107.408 112.848 108.016 112.272 108.752 111.856C109.488 111.424 110.328 111.208 111.272 111.208C112.12 111.208 112.896 111.376 113.6 111.712C114.32 112.048 114.944 112.52 115.472 113.128C116 113.72 116.408 114.408 116.696 115.192C117 115.96 117.152 116.792 117.152 117.688C117.152 118.904 116.912 120.008 116.432 121C115.968 121.992 115.32 122.784 114.488 123.376C113.672 123.952 112.728 124.24 111.656 124.24ZM110.576 121.504C111.072 121.504 111.52 121.4 111.92 121.192C112.32 120.984 112.664 120.704 112.952 120.352C113.256 119.984 113.48 119.576 113.624 119.128C113.784 118.664 113.864 118.184 113.864 117.688C113.864 117.16 113.776 116.672 113.6 116.224C113.44 115.776 113.2 115.384 112.88 115.048C112.56 114.696 112.184 114.424 111.752 114.232C111.336 114.04 110.88 113.944 110.384 113.944C110.08 113.944 109.768 114 109.448 114.112C109.144 114.208 108.848 114.352 108.56 114.544C108.272 114.736 108.016 114.96 107.792 115.216C107.584 115.472 107.432 115.752 107.336 116.056V119.008C107.528 119.472 107.784 119.896 108.104 120.28C108.44 120.664 108.824 120.968 109.256 121.192C109.688 121.4 110.128 121.504 110.576 121.504ZM118.467 120.28C118.467 119.464 118.691 118.752 119.139 118.144C119.603 117.52 120.243 117.04 121.059 116.704C121.875 116.368 122.811 116.2 123.867 116.2C124.395 116.2 124.931 116.24 125.475 116.32C126.019 116.4 126.491 116.528 126.891 116.704V116.032C126.891 115.232 126.651 114.616 126.171 114.184C125.707 113.752 125.011 113.536 124.083 113.536C123.395 113.536 122.739 113.656 122.115 113.896C121.491 114.136 120.835 114.488 120.147 114.952L119.115 112.84C119.947 112.296 120.795 111.888 121.659 111.616C122.539 111.344 123.459 111.208 124.419 111.208C126.211 111.208 127.603 111.656 128.595 112.552C129.603 113.448 130.107 114.728 130.107 116.392V120.4C130.107 120.736 130.163 120.976 130.275 121.12C130.403 121.264 130.603 121.352 130.875 121.384V124C130.587 124.048 130.323 124.088 130.083 124.12C129.859 124.152 129.667 124.168 129.507 124.168C128.867 124.168 128.379 124.024 128.043 123.736C127.723 123.448 127.523 123.096 127.443 122.68L127.371 122.032C126.827 122.736 126.147 123.28 125.331 123.664C124.515 124.048 123.683 124.24 122.835 124.24C122.003 124.24 121.251 124.072 120.579 123.736C119.923 123.384 119.403 122.912 119.019 122.32C118.651 121.712 118.467 121.032 118.467 120.28ZM126.291 120.928C126.467 120.736 126.611 120.544 126.723 120.352C126.835 120.16 126.891 119.984 126.891 119.824V118.552C126.507 118.392 126.091 118.272 125.643 118.192C125.195 118.096 124.771 118.048 124.371 118.048C123.539 118.048 122.851 118.232 122.307 118.6C121.779 118.952 121.515 119.424 121.515 120.016C121.515 120.336 121.603 120.64 121.779 120.928C121.955 121.216 122.211 121.448 122.547 121.624C122.883 121.8 123.283 121.888 123.747 121.888C124.227 121.888 124.699 121.8 125.163 121.624C125.627 121.432 126.003 121.2 126.291 120.928ZM140.531 123.352C140.259 123.464 139.931 123.592 139.547 123.736C139.163 123.88 138.747 123.992 138.299 124.072C137.867 124.168 137.427 124.216 136.979 124.216C136.387 124.216 135.843 124.112 135.347 123.904C134.851 123.696 134.451 123.368 134.147 122.92C133.859 122.456 133.715 121.856 133.715 121.12V113.896H132.059V111.424H133.715V107.344H136.931V111.424H139.571V113.896H136.931V120.04C136.947 120.472 137.067 120.784 137.291 120.976C137.515 121.168 137.795 121.264 138.131 121.264C138.467 121.264 138.795 121.208 139.115 121.096C139.435 120.984 139.691 120.888 139.883 120.808L140.531 123.352ZM147.898 124.24C146.89 124.24 145.978 124.072 145.162 123.736C144.346 123.384 143.65 122.912 143.074 122.32C142.498 121.712 142.05 121.024 141.73 120.256C141.426 119.472 141.274 118.648 141.274 117.784C141.274 116.584 141.538 115.488 142.066 114.496C142.61 113.504 143.378 112.712 144.37 112.12C145.378 111.512 146.562 111.208 147.922 111.208C149.298 111.208 150.474 111.512 151.45 112.12C152.426 112.712 153.17 113.504 153.682 114.496C154.21 115.472 154.474 116.528 154.474 117.664C154.474 117.856 154.466 118.056 154.45 118.264C154.434 118.456 154.418 118.616 154.402 118.744H144.682C144.746 119.384 144.93 119.944 145.234 120.424C145.554 120.904 145.954 121.272 146.434 121.528C146.93 121.768 147.458 121.888 148.018 121.888C148.658 121.888 149.258 121.736 149.818 121.432C150.394 121.112 150.786 120.696 150.994 120.184L153.754 120.952C153.45 121.592 153.01 122.16 152.434 122.656C151.874 123.152 151.21 123.544 150.442 123.832C149.674 124.104 148.826 124.24 147.898 124.24ZM144.61 116.704H151.186C151.122 116.064 150.938 115.512 150.634 115.048C150.346 114.568 149.962 114.2 149.482 113.944C149.002 113.672 148.466 113.536 147.874 113.536C147.298 113.536 146.77 113.672 146.29 113.944C145.826 114.2 145.442 114.568 145.138 115.048C144.85 115.512 144.674 116.064 144.61 116.704ZM162.198 124V111.424H165.414V124H162.198ZM162.198 109.672V106.48H165.414V109.672H162.198ZM180.004 124H176.788V116.944C176.788 115.936 176.612 115.2 176.26 114.736C175.908 114.272 175.42 114.04 174.796 114.04C174.364 114.04 173.924 114.152 173.476 114.376C173.044 114.6 172.652 114.912 172.3 115.312C171.948 115.696 171.692 116.144 171.532 116.656V124H168.316V111.424H171.22V113.752C171.54 113.208 171.948 112.752 172.444 112.384C172.94 112 173.508 111.712 174.148 111.52C174.804 111.312 175.492 111.208 176.212 111.208C176.996 111.208 177.636 111.352 178.132 111.64C178.644 111.912 179.028 112.288 179.284 112.768C179.556 113.232 179.74 113.76 179.836 114.352C179.948 114.944 180.004 115.544 180.004 116.152V124Z" fill="#D1D8FF"/>
<path d="M90.1007 95.24C89.0927 95.24 88.1807 95.072 87.3647 94.736C86.5487 94.384 85.8527 93.912 85.2767 93.32C84.7007 92.712 84.2527 92.024 83.9327 91.256C83.6287 90.472 83.4767 89.648 83.4767 88.784C83.4767 87.584 83.7407 86.488 84.2687 85.496C84.8127 84.504 85.5807 83.712 86.5727 83.12C87.5807 82.512 88.7647 82.208 90.1247 82.208C91.5007 82.208 92.6767 82.512 93.6527 83.12C94.6287 83.712 95.3727 84.504 95.8847 85.496C96.4127 86.472 96.6767 87.528 96.6767 88.664C96.6767 88.856 96.6687 89.056 96.6527 89.264C96.6367 89.456 96.6207 89.616 96.6047 89.744H86.8847C86.9487 90.384 87.1327 90.944 87.4367 91.424C87.7567 91.904 88.1567 92.272 88.6367 92.528C89.1327 92.768 89.6607 92.888 90.2207 92.888C90.8607 92.888 91.4607 92.736 92.0207 92.432C92.5967 92.112 92.9887 91.696 93.1967 91.184L95.9567 91.952C95.6527 92.592 95.2127 93.16 94.6367 93.656C94.0767 94.152 93.4127 94.544 92.6447 94.832C91.8767 95.104 91.0287 95.24 90.1007 95.24ZM86.8127 87.704H93.3887C93.3247 87.064 93.1407 86.512 92.8367 86.048C92.5487 85.568 92.1647 85.2 91.6847 84.944C91.2047 84.672 90.6687 84.536 90.0767 84.536C89.5007 84.536 88.9727 84.672 88.4927 84.944C88.0287 85.2 87.6447 85.568 87.3407 86.048C87.0527 86.512 86.8767 87.064 86.8127 87.704ZM101.668 95L97.0363 82.424H100.372L103.54 92.072L106.732 82.424H109.78L105.172 95H101.668ZM116.89 95.24C115.882 95.24 114.97 95.072 114.154 94.736C113.338 94.384 112.642 93.912 112.066 93.32C111.49 92.712 111.042 92.024 110.722 91.256C110.418 90.472 110.266 89.648 110.266 88.784C110.266 87.584 110.53 86.488 111.058 85.496C111.602 84.504 112.37 83.712 113.362 83.12C114.37 82.512 115.554 82.208 116.914 82.208C118.29 82.208 119.466 82.512 120.442 83.12C121.418 83.712 122.162 84.504 122.674 85.496C123.202 86.472 123.466 87.528 123.466 88.664C123.466 88.856 123.458 89.056 123.442 89.264C123.426 89.456 123.41 89.616 123.394 89.744H113.674C113.738 90.384 113.922 90.944 114.226 91.424C114.546 91.904 114.946 92.272 115.426 92.528C115.922 92.768 116.45 92.888 117.01 92.888C117.65 92.888 118.25 92.736 118.81 92.432C119.386 92.112 119.778 91.696 119.986 91.184L122.746 91.952C122.442 92.592 122.002 93.16 121.426 93.656C120.866 94.152 120.202 94.544 119.434 94.832C118.666 95.104 117.818 95.24 116.89 95.24ZM113.602 87.704H120.178C120.114 87.064 119.93 86.512 119.626 86.048C119.338 85.568 118.954 85.2 118.474 84.944C117.994 84.672 117.458 84.536 116.866 84.536C116.29 84.536 115.762 84.672 115.282 84.944C114.818 85.2 114.434 85.568 114.13 86.048C113.842 86.512 113.666 87.064 113.602 87.704ZM137.113 95H133.897V87.944C133.897 86.936 133.721 86.2 133.369 85.736C133.017 85.272 132.529 85.04 131.905 85.04C131.473 85.04 131.033 85.152 130.585 85.376C130.153 85.6 129.761 85.912 129.409 86.312C129.057 86.696 128.801 87.144 128.641 87.656V95H125.425V82.424H128.329V84.752C128.649 84.208 129.057 83.752 129.553 83.384C130.049 83 130.617 82.712 131.257 82.52C131.913 82.312 132.601 82.208 133.321 82.208C134.105 82.208 134.745 82.352 135.241 82.64C135.753 82.912 136.137 83.288 136.393 83.768C136.665 84.232 136.849 84.76 136.945 85.352C137.057 85.944 137.113 86.544 137.113 87.152V95ZM147.375 94.352C147.103 94.464 146.775 94.592 146.391 94.736C146.007 94.88 145.591 94.992 145.143 95.072C144.711 95.168 144.271 95.216 143.823 95.216C143.231 95.216 142.687 95.112 142.191 94.904C141.695 94.696 141.295 94.368 140.991 93.92C140.703 93.456 140.559 92.856 140.559 92.12V84.896H138.903V82.424H140.559V78.344H143.775V82.424H146.415V84.896H143.775V91.04C143.791 91.472 143.911 91.784 144.135 91.976C144.359 92.168 144.639 92.264 144.975 92.264C145.311 92.264 145.639 92.208 145.959 92.096C146.279 91.984 146.535 91.888 146.727 91.808L147.375 94.352ZM153.682 95.24C152.61 95.24 151.586 95.064 150.61 94.712C149.634 94.36 148.794 93.84 148.09 93.152L149.242 91.064C149.994 91.672 150.73 92.12 151.45 92.408C152.186 92.696 152.89 92.84 153.562 92.84C154.186 92.84 154.682 92.728 155.05 92.504C155.434 92.28 155.626 91.944 155.626 91.496C155.626 91.192 155.522 90.96 155.314 90.8C155.106 90.624 154.802 90.472 154.402 90.344C154.018 90.216 153.546 90.072 152.986 89.912C152.058 89.608 151.282 89.312 150.658 89.024C150.034 88.736 149.562 88.376 149.242 87.944C148.938 87.496 148.786 86.928 148.786 86.24C148.786 85.408 148.994 84.696 149.41 84.104C149.842 83.496 150.434 83.024 151.186 82.688C151.954 82.352 152.85 82.184 153.874 82.184C154.77 82.184 155.618 82.328 156.418 82.616C157.218 82.888 157.946 83.336 158.602 83.96L157.306 86C156.666 85.504 156.058 85.144 155.482 84.92C154.906 84.68 154.322 84.56 153.73 84.56C153.394 84.56 153.074 84.6 152.77 84.68C152.482 84.76 152.242 84.896 152.05 85.088C151.874 85.264 151.786 85.52 151.786 85.856C151.786 86.16 151.866 86.4 152.026 86.576C152.202 86.736 152.458 86.88 152.794 87.008C153.146 87.136 153.57 87.28 154.066 87.44C155.074 87.728 155.922 88.024 156.61 88.328C157.314 88.632 157.842 89.008 158.194 89.456C158.546 89.888 158.722 90.488 158.722 91.256C158.722 92.504 158.266 93.48 157.354 94.184C156.442 94.888 155.218 95.24 153.682 95.24Z" fill="#00BD7B"/>
<path d="M0.702 151.52C0.702 150.74 0.834 149.978 1.098 149.234C1.374 148.478 1.77 147.794 2.286 147.182C2.814 146.558 3.456 146.066 4.212 145.706C4.968 145.334 5.826 145.148 6.786 145.148C7.926 145.148 8.904 145.412 9.72 145.94C10.536 146.456 11.142 147.122 11.538 147.938L10.26 148.766C10.008 148.226 9.684 147.8 9.288 147.488C8.904 147.164 8.484 146.936 8.028 146.804C7.584 146.672 7.146 146.606 6.714 146.606C6.006 146.606 5.376 146.75 4.824 147.038C4.284 147.326 3.828 147.71 3.456 148.19C3.084 148.67 2.802 149.21 2.61 149.81C2.43 150.398 2.34 150.992 2.34 151.592C2.34 152.252 2.448 152.888 2.664 153.5C2.892 154.112 3.204 154.652 3.6 155.12C3.996 155.588 4.464 155.96 5.004 156.236C5.544 156.512 6.132 156.65 6.768 156.65C7.212 156.65 7.668 156.572 8.136 156.416C8.604 156.26 9.042 156.02 9.45 155.696C9.858 155.36 10.182 154.928 10.422 154.4L11.772 155.138C11.508 155.774 11.1 156.314 10.548 156.758C9.996 157.202 9.378 157.538 8.694 157.766C8.022 157.994 7.356 158.108 6.696 158.108C5.82 158.108 5.016 157.922 4.284 157.55C3.552 157.166 2.916 156.662 2.376 156.038C1.848 155.402 1.434 154.694 1.134 153.914C0.846 153.122 0.702 152.324 0.702 151.52ZM18.5155 149.99C17.7235 150.002 17.0215 150.206 16.4095 150.602C15.8095 150.986 15.3835 151.52 15.1315 152.204V158H13.5475V148.604H15.0235V150.782C15.3475 150.134 15.7735 149.612 16.3015 149.216C16.8415 148.808 17.4055 148.58 17.9935 148.532C18.1135 148.532 18.2155 148.532 18.2995 148.532C18.3835 148.532 18.4555 148.538 18.5155 148.55V149.99ZM24.0161 158.18C23.3081 158.18 22.6601 158.054 22.0721 157.802C21.4961 157.538 20.9921 157.184 20.5601 156.74C20.1401 156.284 19.8101 155.762 19.5701 155.174C19.3421 154.586 19.2281 153.962 19.2281 153.302C19.2281 152.414 19.4321 151.604 19.8401 150.872C20.2481 150.14 20.8121 149.552 21.5321 149.108C22.2641 148.664 23.0981 148.442 24.0341 148.442C24.9821 148.442 25.8041 148.67 26.5001 149.126C27.2081 149.57 27.7541 150.158 28.1381 150.89C28.5341 151.61 28.7321 152.39 28.7321 153.23C28.7321 153.35 28.7261 153.47 28.7141 153.59C28.7141 153.698 28.7081 153.782 28.6961 153.842H20.9021C20.9501 154.454 21.1181 155 21.4061 155.48C21.7061 155.948 22.0901 156.32 22.5581 156.596C23.0261 156.86 23.5301 156.992 24.0701 156.992C24.6461 156.992 25.1861 156.848 25.6901 156.56C26.2061 156.272 26.5601 155.894 26.7521 155.426L28.1201 155.804C27.9161 156.26 27.6101 156.668 27.2021 157.028C26.8061 157.388 26.3321 157.67 25.7801 157.874C25.2401 158.078 24.6521 158.18 24.0161 158.18ZM20.8481 152.744H27.2561C27.2081 152.132 27.0341 151.592 26.7341 151.124C26.4341 150.656 26.0501 150.29 25.5821 150.026C25.1141 149.762 24.5981 149.63 24.0341 149.63C23.4821 149.63 22.9721 149.762 22.5041 150.026C22.0361 150.29 21.6521 150.656 21.3521 151.124C21.0641 151.592 20.8961 152.132 20.8481 152.744ZM29.7548 155.282C29.7548 154.682 29.9228 154.166 30.2588 153.734C30.6068 153.29 31.0808 152.948 31.6808 152.708C32.2808 152.468 32.9768 152.348 33.7688 152.348C34.1888 152.348 34.6328 152.384 35.1008 152.456C35.5688 152.516 35.9828 152.612 36.3428 152.744V152.06C36.3428 151.34 36.1268 150.776 35.6948 150.368C35.2628 149.948 34.6508 149.738 33.8588 149.738C33.3428 149.738 32.8448 149.834 32.3648 150.026C31.8968 150.206 31.3988 150.47 30.8708 150.818L30.2948 149.702C30.9068 149.282 31.5188 148.97 32.1308 148.766C32.7428 148.55 33.3788 148.442 34.0388 148.442C35.2388 148.442 36.1868 148.778 36.8828 149.45C37.5788 150.11 37.9268 151.034 37.9268 152.222V156.2C37.9268 156.392 37.9628 156.536 38.0348 156.632C38.1188 156.716 38.2508 156.764 38.4308 156.776V158C38.2748 158.024 38.1368 158.042 38.0168 158.054C37.9088 158.066 37.8188 158.072 37.7468 158.072C37.3748 158.072 37.0928 157.97 36.9008 157.766C36.7208 157.562 36.6188 157.346 36.5948 157.118L36.5588 156.524C36.1508 157.052 35.6168 157.46 34.9568 157.748C34.2968 158.036 33.6428 158.18 32.9948 158.18C32.3708 158.18 31.8128 158.054 31.3208 157.802C30.8288 157.538 30.4448 157.19 30.1688 156.758C29.8928 156.314 29.7548 155.822 29.7548 155.282ZM35.8748 155.948C36.0188 155.78 36.1328 155.612 36.2168 155.444C36.3008 155.264 36.3428 155.114 36.3428 154.994V153.824C35.9708 153.68 35.5808 153.572 35.1728 153.5C34.7648 153.416 34.3628 153.374 33.9668 153.374C33.1628 153.374 32.5088 153.536 32.0048 153.86C31.5128 154.172 31.2668 154.604 31.2668 155.156C31.2668 155.456 31.3448 155.75 31.5008 156.038C31.6688 156.314 31.9088 156.542 32.2208 156.722C32.5448 156.902 32.9408 156.992 33.4088 156.992C33.9008 156.992 34.3688 156.896 34.8128 156.704C35.2568 156.5 35.6108 156.248 35.8748 155.948ZM45.2493 157.532C45.1173 157.592 44.9373 157.67 44.7093 157.766C44.4813 157.862 44.2173 157.946 43.9173 158.018C43.6173 158.09 43.2993 158.126 42.9633 158.126C42.5793 158.126 42.2253 158.06 41.9013 157.928C41.5773 157.784 41.3193 157.568 41.1273 157.28C40.9353 156.98 40.8393 156.608 40.8393 156.164V149.846H39.5613V148.604H40.8393V145.472H42.4233V148.604H44.5293V149.846H42.4233V155.678C42.4473 156.014 42.5613 156.266 42.7653 156.434C42.9693 156.59 43.2093 156.668 43.4853 156.668C43.7973 156.668 44.0853 156.614 44.3493 156.506C44.6133 156.398 44.7873 156.32 44.8713 156.272L45.2493 157.532ZM50.7524 158.18C50.0444 158.18 49.3964 158.054 48.8084 157.802C48.2324 157.538 47.7284 157.184 47.2964 156.74C46.8764 156.284 46.5464 155.762 46.3064 155.174C46.0784 154.586 45.9644 153.962 45.9644 153.302C45.9644 152.414 46.1684 151.604 46.5764 150.872C46.9844 150.14 47.5484 149.552 48.2684 149.108C49.0004 148.664 49.8344 148.442 50.7704 148.442C51.7184 148.442 52.5404 148.67 53.2364 149.126C53.9444 149.57 54.4904 150.158 54.8744 150.89C55.2704 151.61 55.4684 152.39 55.4684 153.23C55.4684 153.35 55.4624 153.47 55.4504 153.59C55.4504 153.698 55.4444 153.782 55.4324 153.842H47.6384C47.6864 154.454 47.8544 155 48.1424 155.48C48.4424 155.948 48.8264 156.32 49.2944 156.596C49.7624 156.86 50.2664 156.992 50.8064 156.992C51.3824 156.992 51.9224 156.848 52.4264 156.56C52.9424 156.272 53.2964 155.894 53.4884 155.426L54.8564 155.804C54.6524 156.26 54.3464 156.668 53.9384 157.028C53.5424 157.388 53.0684 157.67 52.5164 157.874C51.9764 158.078 51.3884 158.18 50.7524 158.18ZM47.5844 152.744H53.9924C53.9444 152.132 53.7704 151.592 53.4704 151.124C53.1704 150.656 52.7864 150.29 52.3184 150.026C51.8504 149.762 51.3344 149.63 50.7704 149.63C50.2184 149.63 49.7084 149.762 49.2404 150.026C48.7724 150.29 48.3884 150.656 48.0884 151.124C47.8004 151.592 47.6324 152.132 47.5844 152.744ZM61.0439 155.282C61.0439 154.682 61.2119 154.166 61.5479 153.734C61.8959 153.29 62.3699 152.948 62.9699 152.708C63.5699 152.468 64.2659 152.348 65.0579 152.348C65.4779 152.348 65.9219 152.384 66.3899 152.456C66.8579 152.516 67.2719 152.612 67.6319 152.744V152.06C67.6319 151.34 67.4159 150.776 66.9839 150.368C66.5519 149.948 65.9399 149.738 65.1479 149.738C64.6319 149.738 64.1339 149.834 63.6539 150.026C63.1859 150.206 62.6879 150.47 62.1599 150.818L61.5839 149.702C62.1959 149.282 62.8079 148.97 63.4199 148.766C64.0319 148.55 64.6679 148.442 65.3279 148.442C66.5279 148.442 67.4759 148.778 68.1719 149.45C68.8679 150.11 69.2159 151.034 69.2159 152.222V156.2C69.2159 156.392 69.2519 156.536 69.3239 156.632C69.4079 156.716 69.5399 156.764 69.7199 156.776V158C69.5639 158.024 69.4259 158.042 69.3059 158.054C69.1979 158.066 69.1079 158.072 69.0359 158.072C68.6639 158.072 68.3819 157.97 68.1899 157.766C68.0099 157.562 67.9079 157.346 67.8839 157.118L67.8479 156.524C67.4399 157.052 66.9059 157.46 66.2459 157.748C65.5859 158.036 64.9319 158.18 64.2839 158.18C63.6599 158.18 63.1019 158.054 62.6099 157.802C62.1179 157.538 61.7339 157.19 61.4579 156.758C61.1819 156.314 61.0439 155.822 61.0439 155.282ZM67.1639 155.948C67.3079 155.78 67.4219 155.612 67.5059 155.444C67.5899 155.264 67.6319 155.114 67.6319 154.994V153.824C67.2599 153.68 66.8699 153.572 66.4619 153.5C66.0539 153.416 65.6519 153.374 65.2559 153.374C64.4519 153.374 63.7979 153.536 63.2939 153.86C62.8019 154.172 62.5559 154.604 62.5559 155.156C62.5559 155.456 62.6339 155.75 62.7899 156.038C62.9579 156.314 63.1979 156.542 63.5099 156.722C63.8339 156.902 64.2299 156.992 64.6979 156.992C65.1899 156.992 65.6579 156.896 66.1019 156.704C66.5459 156.5 66.8999 156.248 67.1639 155.948ZM81.1254 158.18C80.3934 158.18 79.7274 158 79.1274 157.64C78.5274 157.28 78.0534 156.812 77.7054 156.236V158H76.3014V144.86H77.8854V150.476C78.2814 149.864 78.7674 149.372 79.3434 149C79.9194 148.628 80.5914 148.442 81.3594 148.442C82.0074 148.442 82.5894 148.58 83.1054 148.856C83.6214 149.12 84.0594 149.486 84.4194 149.954C84.7914 150.41 85.0734 150.932 85.2654 151.52C85.4694 152.096 85.5714 152.702 85.5714 153.338C85.5714 153.998 85.4574 154.622 85.2294 155.21C85.0134 155.786 84.7014 156.302 84.2934 156.758C83.8854 157.202 83.4114 157.55 82.8714 157.802C82.3434 158.054 81.7614 158.18 81.1254 158.18ZM80.7294 156.812C81.1974 156.812 81.6294 156.716 82.0254 156.524C82.4214 156.332 82.7634 156.074 83.0514 155.75C83.3394 155.426 83.5614 155.054 83.7174 154.634C83.8734 154.214 83.9514 153.782 83.9514 153.338C83.9514 152.726 83.8194 152.15 83.5554 151.61C83.3034 151.07 82.9434 150.638 82.4754 150.314C82.0194 149.978 81.4854 149.81 80.8734 149.81C80.4294 149.81 80.0154 149.912 79.6314 150.116C79.2474 150.32 78.9054 150.59 78.6054 150.926C78.3174 151.25 78.0774 151.61 77.8854 152.006V154.724C77.9454 155.024 78.0714 155.3 78.2634 155.552C78.4554 155.804 78.6894 156.026 78.9654 156.218C79.2414 156.398 79.5294 156.542 79.8294 156.65C80.1414 156.758 80.4414 156.812 80.7294 156.812ZM91.6203 158.18C90.9123 158.18 90.2703 158.054 89.6943 157.802C89.1183 157.538 88.6203 157.184 88.2003 156.74C87.7803 156.284 87.4563 155.762 87.2283 155.174C87.0003 154.586 86.8863 153.968 86.8863 153.32C86.8863 152.66 87.0003 152.036 87.2283 151.448C87.4563 150.86 87.7803 150.344 88.2003 149.9C88.6203 149.444 89.1183 149.09 89.6943 148.838C90.2823 148.574 90.9243 148.442 91.6203 148.442C92.3283 148.442 92.9703 148.574 93.5463 148.838C94.1223 149.09 94.6203 149.444 95.0403 149.9C95.4723 150.344 95.8023 150.86 96.0303 151.448C96.2583 152.036 96.3723 152.66 96.3723 153.32C96.3723 153.968 96.2583 154.586 96.0303 155.174C95.8023 155.762 95.4783 156.284 95.0583 156.74C94.6383 157.184 94.1343 157.538 93.5463 157.802C92.9703 158.054 92.3283 158.18 91.6203 158.18ZM88.5063 153.338C88.5063 153.986 88.6443 154.574 88.9203 155.102C89.2083 155.63 89.5863 156.05 90.0543 156.362C90.5223 156.662 91.0443 156.812 91.6203 156.812C92.1963 156.812 92.7183 156.656 93.1863 156.344C93.6663 156.032 94.0443 155.612 94.3203 155.084C94.6083 154.544 94.7523 153.95 94.7523 153.302C94.7523 152.654 94.6083 152.066 94.3203 151.538C94.0443 151.01 93.6663 150.59 93.1863 150.278C92.7183 149.966 92.1963 149.81 91.6203 149.81C91.0443 149.81 90.5223 149.972 90.0543 150.296C89.5863 150.608 89.2083 151.028 88.9203 151.556C88.6443 152.084 88.5063 152.678 88.5063 153.338ZM102.396 158.18C101.688 158.18 101.046 158.054 100.47 157.802C99.8937 157.538 99.3957 157.184 98.9757 156.74C98.5557 156.284 98.2317 155.762 98.0037 155.174C97.7757 154.586 97.6617 153.968 97.6617 153.32C97.6617 152.66 97.7757 152.036 98.0037 151.448C98.2317 150.86 98.5557 150.344 98.9757 149.9C99.3957 149.444 99.8937 149.09 100.47 148.838C101.058 148.574 101.7 148.442 102.396 148.442C103.104 148.442 103.746 148.574 104.322 148.838C104.898 149.09 105.396 149.444 105.816 149.9C106.248 150.344 106.578 150.86 106.806 151.448C107.034 152.036 107.148 152.66 107.148 153.32C107.148 153.968 107.034 154.586 106.806 155.174C106.578 155.762 106.254 156.284 105.834 156.74C105.414 157.184 104.91 157.538 104.322 157.802C103.746 158.054 103.104 158.18 102.396 158.18ZM99.2817 153.338C99.2817 153.986 99.4197 154.574 99.6957 155.102C99.9837 155.63 100.362 156.05 100.83 156.362C101.298 156.662 101.82 156.812 102.396 156.812C102.972 156.812 103.494 156.656 103.962 156.344C104.442 156.032 104.82 155.612 105.096 155.084C105.384 154.544 105.528 153.95 105.528 153.302C105.528 152.654 105.384 152.066 105.096 151.538C104.82 151.01 104.442 150.59 103.962 150.278C103.494 149.966 102.972 149.81 102.396 149.81C101.82 149.81 101.298 149.972 100.83 150.296C100.362 150.608 99.9837 151.028 99.6957 151.556C99.4197 152.084 99.2817 152.678 99.2817 153.338ZM115.691 158L112.433 153.428L110.651 155.102V158H109.067V144.86H110.651V153.446L115.511 148.622H117.221L113.477 152.51L117.401 158H115.691ZM127.481 158.18C126.773 158.18 126.125 158.054 125.537 157.802C124.961 157.538 124.457 157.178 124.025 156.722C123.605 156.266 123.275 155.744 123.035 155.156C122.807 154.568 122.693 153.944 122.693 153.284C122.693 152.396 122.891 151.586 123.287 150.854C123.683 150.122 124.241 149.54 124.961 149.108C125.681 148.664 126.515 148.442 127.463 148.442C128.387 148.442 129.191 148.652 129.875 149.072C130.571 149.48 131.087 150.032 131.423 150.728L129.875 151.214C129.635 150.77 129.299 150.428 128.867 150.188C128.435 149.936 127.955 149.81 127.427 149.81C126.851 149.81 126.323 149.96 125.843 150.26C125.375 150.56 125.003 150.974 124.727 151.502C124.451 152.018 124.313 152.612 124.313 153.284C124.313 153.944 124.451 154.544 124.727 155.084C125.015 155.612 125.393 156.032 125.861 156.344C126.341 156.656 126.869 156.812 127.445 156.812C127.817 156.812 128.171 156.746 128.507 156.614C128.855 156.482 129.155 156.308 129.407 156.092C129.671 155.864 129.851 155.618 129.947 155.354L131.495 155.822C131.303 156.278 131.009 156.686 130.613 157.046C130.229 157.394 129.767 157.67 129.227 157.874C128.699 158.078 128.117 158.18 127.481 158.18ZM133.326 144.86H134.91V155.57C134.91 156.086 134.982 156.404 135.126 156.524C135.27 156.644 135.444 156.704 135.648 156.704C135.9 156.704 136.14 156.68 136.368 156.632C136.596 156.572 136.788 156.512 136.944 156.452L137.196 157.748C136.932 157.856 136.62 157.946 136.26 158.018C135.9 158.09 135.582 158.126 135.306 158.126C134.694 158.126 134.208 157.952 133.848 157.604C133.5 157.256 133.326 156.77 133.326 156.146V144.86ZM138.35 154.238V148.604H139.934V153.932C139.934 154.892 140.102 155.612 140.438 156.092C140.774 156.572 141.272 156.812 141.932 156.812C142.364 156.812 142.778 156.722 143.174 156.542C143.582 156.35 143.948 156.08 144.272 155.732C144.596 155.384 144.848 154.97 145.028 154.49V148.604H146.612V156.2C146.612 156.392 146.648 156.536 146.72 156.632C146.804 156.716 146.936 156.764 147.116 156.776V158C146.936 158.024 146.792 158.036 146.684 158.036C146.588 158.048 146.492 158.054 146.396 158.054C146.096 158.054 145.838 157.964 145.622 157.784C145.406 157.592 145.292 157.358 145.28 157.082L145.244 155.984C144.836 156.68 144.284 157.22 143.588 157.604C142.904 157.988 142.154 158.18 141.338 158.18C140.354 158.18 139.61 157.85 139.106 157.19C138.602 156.518 138.35 155.534 138.35 154.238ZM154.075 158.18C153.343 158.18 152.677 158 152.077 157.64C151.477 157.28 151.003 156.812 150.655 156.236V158H149.251V144.86H150.835V150.476C151.231 149.864 151.717 149.372 152.293 149C152.869 148.628 153.541 148.442 154.309 148.442C154.957 148.442 155.539 148.58 156.055 148.856C156.571 149.12 157.009 149.486 157.369 149.954C157.741 150.41 158.023 150.932 158.215 151.52C158.419 152.096 158.521 152.702 158.521 153.338C158.521 153.998 158.407 154.622 158.179 155.21C157.963 155.786 157.651 156.302 157.243 156.758C156.835 157.202 156.361 157.55 155.821 157.802C155.293 158.054 154.711 158.18 154.075 158.18ZM153.679 156.812C154.147 156.812 154.579 156.716 154.975 156.524C155.371 156.332 155.713 156.074 156.001 155.75C156.289 155.426 156.511 155.054 156.667 154.634C156.823 154.214 156.901 153.782 156.901 153.338C156.901 152.726 156.769 152.15 156.505 151.61C156.253 151.07 155.893 150.638 155.425 150.314C154.969 149.978 154.435 149.81 153.823 149.81C153.379 149.81 152.965 149.912 152.581 150.116C152.197 150.32 151.855 150.59 151.555 150.926C151.267 151.25 151.027 151.61 150.835 152.006V154.724C150.895 155.024 151.021 155.3 151.213 155.552C151.405 155.804 151.639 156.026 151.915 156.218C152.191 156.398 152.479 156.542 152.779 156.65C153.091 156.758 153.391 156.812 153.679 156.812ZM160.34 158V155.984H161.672V158H160.34ZM174.093 158.09C173.193 158.09 172.377 157.91 171.645 157.55C170.913 157.19 170.277 156.704 169.737 156.092C169.209 155.468 168.801 154.772 168.513 154.004C168.225 153.224 168.081 152.426 168.081 151.61C168.081 150.758 168.231 149.948 168.531 149.18C168.843 148.4 169.269 147.71 169.809 147.11C170.361 146.498 171.003 146.018 171.735 145.67C172.467 145.31 173.265 145.13 174.129 145.13C175.029 145.13 175.845 145.316 176.577 145.688C177.309 146.06 177.939 146.558 178.467 147.182C178.995 147.806 179.403 148.502 179.691 149.27C179.979 150.038 180.123 150.824 180.123 151.628C180.123 152.48 179.973 153.296 179.673 154.076C179.373 154.844 178.947 155.534 178.395 156.146C177.855 156.746 177.219 157.22 176.487 157.568C175.755 157.916 174.957 158.09 174.093 158.09ZM169.719 151.61C169.719 152.258 169.821 152.888 170.025 153.5C170.241 154.1 170.541 154.634 170.925 155.102C171.309 155.57 171.771 155.942 172.311 156.218C172.851 156.494 173.451 156.632 174.111 156.632C174.795 156.632 175.407 156.488 175.947 156.2C176.487 155.912 176.943 155.528 177.315 155.048C177.699 154.568 177.987 154.028 178.179 153.428C178.383 152.828 178.485 152.222 178.485 151.61C178.485 150.962 178.377 150.338 178.161 149.738C177.957 149.138 177.657 148.604 177.261 148.136C176.877 147.656 176.415 147.284 175.875 147.02C175.347 146.744 174.759 146.606 174.111 146.606C173.427 146.606 172.815 146.75 172.275 147.038C171.735 147.314 171.273 147.692 170.889 148.172C170.517 148.652 170.229 149.192 170.025 149.792C169.821 150.38 169.719 150.986 169.719 151.61ZM187.002 149.99C186.21 150.002 185.508 150.206 184.896 150.602C184.296 150.986 183.87 151.52 183.618 152.204V158H182.034V148.604H183.51V150.782C183.834 150.134 184.26 149.612 184.788 149.216C185.328 148.808 185.892 148.58 186.48 148.532C186.6 148.532 186.702 148.532 186.786 148.532C186.87 148.532 186.942 148.538 187.002 148.55V149.99ZM192.141 158.108C191.505 158.108 190.917 157.982 190.377 157.73C189.849 157.466 189.393 157.112 189.009 156.668C188.625 156.212 188.325 155.696 188.109 155.12C187.905 154.544 187.803 153.944 187.803 153.32C187.803 152.66 187.905 152.036 188.109 151.448C188.325 150.86 188.625 150.344 189.009 149.9C189.405 149.444 189.867 149.09 190.395 148.838C190.923 148.574 191.511 148.442 192.159 148.442C192.939 148.442 193.617 148.634 194.193 149.018C194.781 149.402 195.273 149.888 195.669 150.476V148.604H197.073V157.892C197.073 158.78 196.857 159.53 196.425 160.142C196.005 160.754 195.429 161.216 194.697 161.528C193.977 161.852 193.173 162.014 192.285 162.014C191.229 162.014 190.365 161.828 189.693 161.456C189.021 161.084 188.463 160.58 188.019 159.944L188.937 159.134C189.309 159.686 189.789 160.1 190.377 160.376C190.977 160.652 191.613 160.79 192.285 160.79C192.861 160.79 193.389 160.682 193.869 160.466C194.361 160.262 194.751 159.944 195.039 159.512C195.339 159.08 195.489 158.54 195.489 157.892V156.236C195.141 156.812 194.661 157.268 194.049 157.604C193.449 157.94 192.813 158.108 192.141 158.108ZM192.627 156.812C192.963 156.812 193.287 156.752 193.599 156.632C193.911 156.512 194.199 156.356 194.463 156.164C194.727 155.96 194.949 155.732 195.129 155.48C195.309 155.228 195.429 154.97 195.489 154.706V152.006C195.321 151.574 195.081 151.196 194.769 150.872C194.457 150.536 194.103 150.278 193.707 150.098C193.311 149.906 192.903 149.81 192.483 149.81C192.003 149.81 191.571 149.912 191.187 150.116C190.815 150.32 190.497 150.596 190.233 150.944C189.969 151.28 189.765 151.658 189.621 152.078C189.477 152.498 189.405 152.924 189.405 153.356C189.405 153.824 189.489 154.268 189.657 154.688C189.825 155.096 190.053 155.462 190.341 155.786C190.629 156.11 190.971 156.362 191.367 156.542C191.763 156.722 192.183 156.812 192.627 156.812ZM198.892 155.282C198.892 154.682 199.06 154.166 199.396 153.734C199.744 153.29 200.218 152.948 200.818 152.708C201.418 152.468 202.114 152.348 202.906 152.348C203.326 152.348 203.77 152.384 204.238 152.456C204.706 152.516 205.12 152.612 205.48 152.744V152.06C205.48 151.34 205.264 150.776 204.832 150.368C204.4 149.948 203.788 149.738 202.996 149.738C202.48 149.738 201.982 149.834 201.502 150.026C201.034 150.206 200.536 150.47 200.008 150.818L199.432 149.702C200.044 149.282 200.656 148.97 201.268 148.766C201.88 148.55 202.516 148.442 203.176 148.442C204.376 148.442 205.324 148.778 206.02 149.45C206.716 150.11 207.064 151.034 207.064 152.222V156.2C207.064 156.392 207.1 156.536 207.172 156.632C207.256 156.716 207.388 156.764 207.568 156.776V158C207.412 158.024 207.274 158.042 207.154 158.054C207.046 158.066 206.956 158.072 206.884 158.072C206.512 158.072 206.23 157.97 206.038 157.766C205.858 157.562 205.756 157.346 205.732 157.118L205.696 156.524C205.288 157.052 204.754 157.46 204.094 157.748C203.434 158.036 202.78 158.18 202.132 158.18C201.508 158.18 200.95 158.054 200.458 157.802C199.966 157.538 199.582 157.19 199.306 156.758C199.03 156.314 198.892 155.822 198.892 155.282ZM205.012 155.948C205.156 155.78 205.27 155.612 205.354 155.444C205.438 155.264 205.48 155.114 205.48 154.994V153.824C205.108 153.68 204.718 153.572 204.31 153.5C203.902 153.416 203.5 153.374 203.104 153.374C202.3 153.374 201.646 153.536 201.142 153.86C200.65 154.172 200.404 154.604 200.404 155.156C200.404 155.456 200.482 155.75 200.638 156.038C200.806 156.314 201.046 156.542 201.358 156.722C201.682 156.902 202.078 156.992 202.546 156.992C203.038 156.992 203.506 156.896 203.95 156.704C204.394 156.5 204.748 156.248 205.012 155.948ZM217.75 158H216.166V152.744C216.166 151.748 216.01 151.022 215.698 150.566C215.398 150.098 214.936 149.864 214.312 149.864C213.88 149.864 213.448 149.972 213.016 150.188C212.596 150.404 212.218 150.698 211.882 151.07C211.558 151.43 211.324 151.85 211.18 152.33V158H209.596V148.604H211.036V150.62C211.288 150.176 211.612 149.792 212.008 149.468C212.404 149.144 212.854 148.892 213.358 148.712C213.862 148.532 214.39 148.442 214.942 148.442C215.482 148.442 215.932 148.544 216.292 148.748C216.664 148.94 216.952 149.216 217.156 149.576C217.372 149.924 217.522 150.338 217.606 150.818C217.702 151.298 217.75 151.82 217.75 152.384V158ZM220.214 158V148.604H221.798V158H220.214ZM220.214 146.84V144.86H221.798V146.84H220.214ZM223.624 156.974L229.546 149.756H223.786V148.604H231.328V149.63L225.442 156.848H231.346V158H223.624V156.974ZM237.221 158.18C236.513 158.18 235.865 158.054 235.277 157.802C234.701 157.538 234.197 157.184 233.765 156.74C233.345 156.284 233.015 155.762 232.775 155.174C232.547 154.586 232.433 153.962 232.433 153.302C232.433 152.414 232.637 151.604 233.045 150.872C233.453 150.14 234.017 149.552 234.737 149.108C235.469 148.664 236.303 148.442 237.239 148.442C238.187 148.442 239.009 148.67 239.705 149.126C240.413 149.57 240.959 150.158 241.343 150.89C241.739 151.61 241.937 152.39 241.937 153.23C241.937 153.35 241.931 153.47 241.919 153.59C241.919 153.698 241.913 153.782 241.901 153.842H234.107C234.155 154.454 234.323 155 234.611 155.48C234.911 155.948 235.295 156.32 235.763 156.596C236.231 156.86 236.735 156.992 237.275 156.992C237.851 156.992 238.391 156.848 238.895 156.56C239.411 156.272 239.765 155.894 239.957 155.426L241.325 155.804C241.121 156.26 240.815 156.668 240.407 157.028C240.011 157.388 239.537 157.67 238.985 157.874C238.445 158.078 237.857 158.18 237.221 158.18ZM234.053 152.744H240.461C240.413 152.132 240.239 151.592 239.939 151.124C239.639 150.656 239.255 150.29 238.787 150.026C238.319 149.762 237.803 149.63 237.239 149.63C236.687 149.63 236.177 149.762 235.709 150.026C235.241 150.29 234.857 150.656 234.557 151.124C234.269 151.592 234.101 152.132 234.053 152.744ZM247.513 155.282C247.513 154.682 247.681 154.166 248.017 153.734C248.365 153.29 248.839 152.948 249.439 152.708C250.039 152.468 250.735 152.348 251.527 152.348C251.947 152.348 252.391 152.384 252.859 152.456C253.327 152.516 253.741 152.612 254.101 152.744V152.06C254.101 151.34 253.885 150.776 253.453 150.368C253.021 149.948 252.409 149.738 251.617 149.738C251.101 149.738 250.603 149.834 250.123 150.026C249.655 150.206 249.157 150.47 248.629 150.818L248.053 149.702C248.665 149.282 249.277 148.97 249.889 148.766C250.501 148.55 251.137 148.442 251.797 148.442C252.997 148.442 253.945 148.778 254.641 149.45C255.337 150.11 255.685 151.034 255.685 152.222V156.2C255.685 156.392 255.721 156.536 255.793 156.632C255.877 156.716 256.009 156.764 256.189 156.776V158C256.033 158.024 255.895 158.042 255.775 158.054C255.667 158.066 255.577 158.072 255.505 158.072C255.133 158.072 254.851 157.97 254.659 157.766C254.479 157.562 254.377 157.346 254.353 157.118L254.317 156.524C253.909 157.052 253.375 157.46 252.715 157.748C252.055 158.036 251.401 158.18 250.753 158.18C250.129 158.18 249.571 158.054 249.079 157.802C248.587 157.538 248.203 157.19 247.927 156.758C247.651 156.314 247.513 155.822 247.513 155.282ZM253.633 155.948C253.777 155.78 253.891 155.612 253.975 155.444C254.059 155.264 254.101 155.114 254.101 154.994V153.824C253.729 153.68 253.339 153.572 252.931 153.5C252.523 153.416 252.121 153.374 251.725 153.374C250.921 153.374 250.267 153.536 249.763 153.86C249.271 154.172 249.025 154.604 249.025 155.156C249.025 155.456 249.103 155.75 249.259 156.038C249.427 156.314 249.667 156.542 249.979 156.722C250.303 156.902 250.699 156.992 251.167 156.992C251.659 156.992 252.127 156.896 252.571 156.704C253.015 156.5 253.369 156.248 253.633 155.948ZM6.336 185.18C5.568 185.18 4.884 184.988 4.284 184.604C3.684 184.22 3.21 183.734 2.862 183.146V188.834H1.278V175.604H2.682V177.368C3.054 176.792 3.54 176.33 4.14 175.982C4.74 175.622 5.394 175.442 6.102 175.442C6.75 175.442 7.344 175.574 7.884 175.838C8.424 176.102 8.892 176.462 9.288 176.918C9.684 177.374 9.99 177.896 10.206 178.484C10.434 179.06 10.548 179.666 10.548 180.302C10.548 181.19 10.368 182.006 10.008 182.75C9.66 183.494 9.168 184.088 8.532 184.532C7.896 184.964 7.164 185.18 6.336 185.18ZM5.85 183.812C6.318 183.812 6.738 183.716 7.11 183.524C7.494 183.32 7.818 183.056 8.082 182.732C8.358 182.396 8.568 182.018 8.712 181.598C8.856 181.178 8.928 180.746 8.928 180.302C8.928 179.834 8.844 179.39 8.676 178.97C8.52 178.55 8.292 178.178 7.992 177.854C7.704 177.53 7.362 177.278 6.966 177.098C6.582 176.906 6.162 176.81 5.706 176.81C5.418 176.81 5.118 176.864 4.806 176.972C4.506 177.08 4.218 177.236 3.942 177.44C3.666 177.632 3.432 177.854 3.24 178.106C3.048 178.358 2.922 178.628 2.862 178.916V181.598C3.042 182.006 3.282 182.378 3.582 182.714C3.882 183.05 4.23 183.32 4.626 183.524C5.022 183.716 5.43 183.812 5.85 183.812ZM17.4608 176.99C16.6688 177.002 15.9668 177.206 15.3548 177.602C14.7548 177.986 14.3288 178.52 14.0768 179.204V185H12.4928V175.604H13.9688V177.782C14.2928 177.134 14.7188 176.612 15.2468 176.216C15.7868 175.808 16.3508 175.58 16.9388 175.532C17.0588 175.532 17.1608 175.532 17.2448 175.532C17.3288 175.532 17.4008 175.538 17.4608 175.55V176.99ZM22.9074 185.18C22.1994 185.18 21.5574 185.054 20.9814 184.802C20.4054 184.538 19.9074 184.184 19.4874 183.74C19.0674 183.284 18.7434 182.762 18.5154 182.174C18.2874 181.586 18.1734 180.968 18.1734 180.32C18.1734 179.66 18.2874 179.036 18.5154 178.448C18.7434 177.86 19.0674 177.344 19.4874 176.9C19.9074 176.444 20.4054 176.09 20.9814 175.838C21.5694 175.574 22.2114 175.442 22.9074 175.442C23.6154 175.442 24.2574 175.574 24.8334 175.838C25.4094 176.09 25.9074 176.444 26.3274 176.9C26.7594 177.344 27.0894 177.86 27.3174 178.448C27.5454 179.036 27.6594 179.66 27.6594 180.32C27.6594 180.968 27.5454 181.586 27.3174 182.174C27.0894 182.762 26.7654 183.284 26.3454 183.74C25.9254 184.184 25.4214 184.538 24.8334 184.802C24.2574 185.054 23.6154 185.18 22.9074 185.18ZM19.7934 180.338C19.7934 180.986 19.9314 181.574 20.2074 182.102C20.4954 182.63 20.8734 183.05 21.3414 183.362C21.8094 183.662 22.3314 183.812 22.9074 183.812C23.4834 183.812 24.0054 183.656 24.4734 183.344C24.9534 183.032 25.3314 182.612 25.6074 182.084C25.8954 181.544 26.0394 180.95 26.0394 180.302C26.0394 179.654 25.8954 179.066 25.6074 178.538C25.3314 178.01 24.9534 177.59 24.4734 177.278C24.0054 176.966 23.4834 176.81 22.9074 176.81C22.3314 176.81 21.8094 176.972 21.3414 177.296C20.8734 177.608 20.4954 178.028 20.2074 178.556C19.9314 179.084 19.7934 179.678 19.7934 180.338ZM34.2982 184.532C34.1662 184.592 33.9862 184.67 33.7582 184.766C33.5302 184.862 33.2662 184.946 32.9662 185.018C32.6662 185.09 32.3482 185.126 32.0122 185.126C31.6282 185.126 31.2742 185.06 30.9502 184.928C30.6262 184.784 30.3682 184.568 30.1762 184.28C29.9842 183.98 29.8882 183.608 29.8882 183.164V176.846H28.6102V175.604H29.8882V172.472H31.4722V175.604H33.5782V176.846H31.4722V182.678C31.4962 183.014 31.6102 183.266 31.8142 183.434C32.0182 183.59 32.2582 183.668 32.5342 183.668C32.8462 183.668 33.1342 183.614 33.3982 183.506C33.6622 183.398 33.8362 183.32 33.9202 183.272L34.2982 184.532ZM39.8012 185.18C39.0932 185.18 38.4452 185.054 37.8572 184.802C37.2812 184.538 36.7772 184.184 36.3452 183.74C35.9252 183.284 35.5952 182.762 35.3552 182.174C35.1272 181.586 35.0132 180.962 35.0132 180.302C35.0132 179.414 35.2172 178.604 35.6252 177.872C36.0332 177.14 36.5972 176.552 37.3172 176.108C38.0492 175.664 38.8832 175.442 39.8192 175.442C40.7672 175.442 41.5892 175.67 42.2852 176.126C42.9932 176.57 43.5392 177.158 43.9232 177.89C44.3192 178.61 44.5172 179.39 44.5172 180.23C44.5172 180.35 44.5112 180.47 44.4992 180.59C44.4992 180.698 44.4932 180.782 44.4812 180.842H36.6872C36.7352 181.454 36.9032 182 37.1912 182.48C37.4912 182.948 37.8752 183.32 38.3432 183.596C38.8112 183.86 39.3152 183.992 39.8552 183.992C40.4312 183.992 40.9712 183.848 41.4752 183.56C41.9912 183.272 42.3452 182.894 42.5372 182.426L43.9052 182.804C43.7012 183.26 43.3952 183.668 42.9872 184.028C42.5912 184.388 42.1172 184.67 41.5652 184.874C41.0252 185.078 40.4372 185.18 39.8012 185.18ZM36.6332 179.744H43.0412C42.9932 179.132 42.8192 178.592 42.5192 178.124C42.2192 177.656 41.8352 177.29 41.3672 177.026C40.8992 176.762 40.3832 176.63 39.8192 176.63C39.2672 176.63 38.7572 176.762 38.2892 177.026C37.8212 177.29 37.4372 177.656 37.1372 178.124C36.8492 178.592 36.6812 179.132 36.6332 179.744ZM49.5 185.18C48.72 185.18 47.988 185.054 47.304 184.802C46.62 184.538 46.032 184.148 45.54 183.632L46.152 182.516C46.692 183.02 47.232 183.38 47.772 183.596C48.312 183.812 48.864 183.92 49.428 183.92C50.076 183.92 50.604 183.8 51.012 183.56C51.42 183.308 51.624 182.942 51.624 182.462C51.624 182.114 51.516 181.856 51.3 181.688C51.096 181.52 50.802 181.382 50.418 181.274C50.034 181.154 49.578 181.022 49.05 180.878C48.402 180.686 47.856 180.482 47.412 180.266C46.968 180.05 46.632 179.78 46.404 179.456C46.176 179.132 46.062 178.724 46.062 178.232C46.062 177.632 46.218 177.128 46.53 176.72C46.842 176.3 47.268 175.982 47.808 175.766C48.36 175.55 48.984 175.442 49.68 175.442C50.376 175.442 51.006 175.55 51.57 175.766C52.134 175.982 52.62 176.3 53.028 176.72L52.308 177.818C51.936 177.434 51.528 177.152 51.084 176.972C50.64 176.78 50.142 176.684 49.59 176.684C49.266 176.684 48.948 176.726 48.636 176.81C48.324 176.882 48.066 177.02 47.862 177.224C47.658 177.416 47.556 177.692 47.556 178.052C47.556 178.352 47.634 178.592 47.79 178.772C47.958 178.94 48.198 179.084 48.51 179.204C48.834 179.324 49.224 179.456 49.68 179.6C50.388 179.804 51 180.008 51.516 180.212C52.044 180.416 52.452 180.68 52.74 181.004C53.028 181.328 53.172 181.778 53.172 182.354C53.172 183.242 52.836 183.938 52.164 184.442C51.492 184.934 50.604 185.18 49.5 185.18ZM59.9271 184.532C59.7951 184.592 59.6151 184.67 59.3871 184.766C59.1591 184.862 58.8951 184.946 58.5951 185.018C58.2951 185.09 57.9771 185.126 57.6411 185.126C57.2571 185.126 56.9031 185.06 56.5791 184.928C56.2551 184.784 55.9971 184.568 55.8051 184.28C55.6131 183.98 55.5171 183.608 55.5171 183.164V176.846H54.2391V175.604H55.5171V172.472H57.1011V175.604H59.2071V176.846H57.1011V182.678C57.1251 183.014 57.2391 183.266 57.4431 183.434C57.6471 183.59 57.8871 183.668 58.1631 183.668C58.4751 183.668 58.7631 183.614 59.0271 183.506C59.2911 183.398 59.4651 183.32 59.5491 183.272L59.9271 184.532ZM61.2692 185V182.984H62.6012V185H61.2692ZM75.0226 185.09C74.1226 185.09 73.3066 184.91 72.5746 184.55C71.8426 184.19 71.2066 183.704 70.6666 183.092C70.1386 182.468 69.7306 181.772 69.4426 181.004C69.1546 180.224 69.0106 179.426 69.0106 178.61C69.0106 177.758 69.1606 176.948 69.4606 176.18C69.7726 175.4 70.1986 174.71 70.7386 174.11C71.2906 173.498 71.9326 173.018 72.6646 172.67C73.3966 172.31 74.1946 172.13 75.0586 172.13C75.9586 172.13 76.7746 172.316 77.5066 172.688C78.2386 173.06 78.8686 173.558 79.3966 174.182C79.9246 174.806 80.3326 175.502 80.6206 176.27C80.9086 177.038 81.0526 177.824 81.0526 178.628C81.0526 179.48 80.9026 180.296 80.6026 181.076C80.3026 181.844 79.8766 182.534 79.3246 183.146C78.7846 183.746 78.1486 184.22 77.4166 184.568C76.6846 184.916 75.8866 185.09 75.0226 185.09ZM70.6486 178.61C70.6486 179.258 70.7506 179.888 70.9546 180.5C71.1706 181.1 71.4706 181.634 71.8546 182.102C72.2386 182.57 72.7006 182.942 73.2406 183.218C73.7806 183.494 74.3806 183.632 75.0406 183.632C75.7246 183.632 76.3366 183.488 76.8766 183.2C77.4166 182.912 77.8726 182.528 78.2446 182.048C78.6286 181.568 78.9166 181.028 79.1086 180.428C79.3126 179.828 79.4146 179.222 79.4146 178.61C79.4146 177.962 79.3066 177.338 79.0906 176.738C78.8866 176.138 78.5866 175.604 78.1906 175.136C77.8066 174.656 77.3446 174.284 76.8046 174.02C76.2766 173.744 75.6886 173.606 75.0406 173.606C74.3566 173.606 73.7446 173.75 73.2046 174.038C72.6646 174.314 72.2026 174.692 71.8186 175.172C71.4466 175.652 71.1586 176.192 70.9546 176.792C70.7506 177.38 70.6486 177.986 70.6486 178.61ZM87.9315 176.99C87.1395 177.002 86.4375 177.206 85.8255 177.602C85.2255 177.986 84.7995 178.52 84.5475 179.204V185H82.9635V175.604H84.4395V177.782C84.7635 177.134 85.1895 176.612 85.7175 176.216C86.2575 175.808 86.8215 175.58 87.4095 175.532C87.5295 175.532 87.6315 175.532 87.7155 175.532C87.7995 175.532 87.8715 175.538 87.9315 175.55V176.99ZM97.3775 185.108C96.7415 185.108 96.1535 184.982 95.6135 184.73C95.0855 184.466 94.6295 184.112 94.2455 183.668C93.8615 183.212 93.5615 182.696 93.3455 182.12C93.1415 181.544 93.0395 180.944 93.0395 180.32C93.0395 179.66 93.1415 179.036 93.3455 178.448C93.5615 177.86 93.8615 177.344 94.2455 176.9C94.6415 176.444 95.1035 176.09 95.6315 175.838C96.1595 175.574 96.7475 175.442 97.3955 175.442C98.1755 175.442 98.8535 175.634 99.4295 176.018C100.017 176.402 100.509 176.888 100.905 177.476V175.604H102.309V184.892C102.309 185.78 102.093 186.53 101.661 187.142C101.241 187.754 100.665 188.216 99.9335 188.528C99.2135 188.852 98.4095 189.014 97.5215 189.014C96.4655 189.014 95.6015 188.828 94.9295 188.456C94.2575 188.084 93.6995 187.58 93.2555 186.944L94.1735 186.134C94.5455 186.686 95.0255 187.1 95.6135 187.376C96.2135 187.652 96.8495 187.79 97.5215 187.79C98.0975 187.79 98.6255 187.682 99.1055 187.466C99.5975 187.262 99.9875 186.944 100.275 186.512C100.575 186.08 100.725 185.54 100.725 184.892V183.236C100.377 183.812 99.8975 184.268 99.2855 184.604C98.6855 184.94 98.0495 185.108 97.3775 185.108ZM97.8635 183.812C98.1995 183.812 98.5235 183.752 98.8355 183.632C99.1475 183.512 99.4355 183.356 99.6995 183.164C99.9635 182.96 100.185 182.732 100.365 182.48C100.545 182.228 100.665 181.97 100.725 181.706V179.006C100.557 178.574 100.317 178.196 100.005 177.872C99.6935 177.536 99.3395 177.278 98.9435 177.098C98.5475 176.906 98.1395 176.81 97.7195 176.81C97.2395 176.81 96.8075 176.912 96.4235 177.116C96.0515 177.32 95.7335 177.596 95.4695 177.944C95.2055 178.28 95.0015 178.658 94.8575 179.078C94.7135 179.498 94.6415 179.924 94.6415 180.356C94.6415 180.824 94.7255 181.268 94.8935 181.688C95.0615 182.096 95.2895 182.462 95.5775 182.786C95.8655 183.11 96.2075 183.362 96.6035 183.542C96.9995 183.722 97.4195 183.812 97.8635 183.812ZM109.024 185.18C108.316 185.18 107.668 185.054 107.08 184.802C106.504 184.538 106 184.184 105.568 183.74C105.148 183.284 104.818 182.762 104.578 182.174C104.35 181.586 104.236 180.962 104.236 180.302C104.236 179.414 104.44 178.604 104.848 177.872C105.256 177.14 105.82 176.552 106.54 176.108C107.272 175.664 108.106 175.442 109.042 175.442C109.99 175.442 110.812 175.67 111.508 176.126C112.216 176.57 112.762 177.158 113.146 177.89C113.542 178.61 113.74 179.39 113.74 180.23C113.74 180.35 113.734 180.47 113.722 180.59C113.722 180.698 113.716 180.782 113.704 180.842H105.91C105.958 181.454 106.126 182 106.414 182.48C106.714 182.948 107.098 183.32 107.566 183.596C108.034 183.86 108.538 183.992 109.078 183.992C109.654 183.992 110.194 183.848 110.698 183.56C111.214 183.272 111.568 182.894 111.76 182.426L113.128 182.804C112.924 183.26 112.618 183.668 112.21 184.028C111.814 184.388 111.34 184.67 110.788 184.874C110.248 185.078 109.66 185.18 109.024 185.18ZM105.856 179.744H112.264C112.216 179.132 112.042 178.592 111.742 178.124C111.442 177.656 111.058 177.29 110.59 177.026C110.122 176.762 109.606 176.63 109.042 176.63C108.49 176.63 107.98 176.762 107.512 177.026C107.044 177.29 106.66 177.656 106.36 178.124C106.072 178.592 105.904 179.132 105.856 179.744ZM120.273 184.532C120.141 184.592 119.961 184.67 119.733 184.766C119.505 184.862 119.241 184.946 118.941 185.018C118.641 185.09 118.323 185.126 117.987 185.126C117.603 185.126 117.249 185.06 116.925 184.928C116.601 184.784 116.343 184.568 116.151 184.28C115.959 183.98 115.863 183.608 115.863 183.164V176.846H114.585V175.604H115.863V172.472H117.447V175.604H119.553V176.846H117.447V182.678C117.471 183.014 117.585 183.266 117.789 183.434C117.993 183.59 118.233 183.668 118.509 183.668C118.821 183.668 119.109 183.614 119.373 183.506C119.637 183.398 119.811 183.32 119.895 183.272L120.273 184.532ZM131.154 184.532C131.022 184.592 130.842 184.67 130.614 184.766C130.386 184.862 130.122 184.946 129.822 185.018C129.522 185.09 129.204 185.126 128.868 185.126C128.484 185.126 128.13 185.06 127.806 184.928C127.482 184.784 127.224 184.568 127.032 184.28C126.84 183.98 126.744 183.608 126.744 183.164V176.846H125.466V175.604H126.744V172.472H128.328V175.604H130.434V176.846H128.328V182.678C128.352 183.014 128.466 183.266 128.67 183.434C128.874 183.59 129.114 183.668 129.39 183.668C129.702 183.668 129.99 183.614 130.254 183.506C130.518 183.398 130.692 183.32 130.776 183.272L131.154 184.532ZM140.776 185H139.192V179.744C139.192 178.784 139.018 178.064 138.67 177.584C138.334 177.104 137.848 176.864 137.212 176.864C136.804 176.864 136.39 176.972 135.97 177.188C135.562 177.404 135.202 177.698 134.89 178.07C134.578 178.43 134.35 178.85 134.206 179.33V185H132.622V171.86H134.206V177.62C134.578 176.948 135.082 176.42 135.718 176.036C136.366 175.64 137.062 175.442 137.806 175.442C138.37 175.442 138.838 175.544 139.21 175.748C139.594 175.94 139.9 176.216 140.128 176.576C140.356 176.936 140.518 177.356 140.614 177.836C140.722 178.304 140.776 178.82 140.776 179.384V185ZM147.397 185.18C146.689 185.18 146.041 185.054 145.453 184.802C144.877 184.538 144.373 184.184 143.941 183.74C143.521 183.284 143.191 182.762 142.951 182.174C142.723 181.586 142.609 180.962 142.609 180.302C142.609 179.414 142.813 178.604 143.221 177.872C143.629 177.14 144.193 176.552 144.913 176.108C145.645 175.664 146.479 175.442 147.415 175.442C148.363 175.442 149.185 175.67 149.881 176.126C150.589 176.57 151.135 177.158 151.519 177.89C151.915 178.61 152.113 179.39 152.113 180.23C152.113 180.35 152.107 180.47 152.095 180.59C152.095 180.698 152.089 180.782 152.077 180.842H144.283C144.331 181.454 144.499 182 144.787 182.48C145.087 182.948 145.471 183.32 145.939 183.596C146.407 183.86 146.911 183.992 147.451 183.992C148.027 183.992 148.567 183.848 149.071 183.56C149.587 183.272 149.941 182.894 150.133 182.426L151.501 182.804C151.297 183.26 150.991 183.668 150.583 184.028C150.187 184.388 149.713 184.67 149.161 184.874C148.621 185.078 148.033 185.18 147.397 185.18ZM144.229 179.744H150.637C150.589 179.132 150.415 178.592 150.115 178.124C149.815 177.656 149.431 177.29 148.963 177.026C148.495 176.762 147.979 176.63 147.415 176.63C146.863 176.63 146.353 176.762 145.885 177.026C145.417 177.29 145.033 177.656 144.733 178.124C144.445 178.592 144.277 179.132 144.229 179.744ZM162.17 185.108C161.534 185.108 160.946 184.982 160.406 184.73C159.878 184.466 159.422 184.112 159.038 183.668C158.654 183.212 158.354 182.696 158.138 182.12C157.934 181.544 157.832 180.944 157.832 180.32C157.832 179.66 157.934 179.036 158.138 178.448C158.354 177.86 158.654 177.344 159.038 176.9C159.434 176.444 159.896 176.09 160.424 175.838C160.952 175.574 161.54 175.442 162.188 175.442C162.968 175.442 163.646 175.634 164.222 176.018C164.81 176.402 165.302 176.888 165.698 177.476V175.604H167.102V184.892C167.102 185.78 166.886 186.53 166.454 187.142C166.034 187.754 165.458 188.216 164.726 188.528C164.006 188.852 163.202 189.014 162.314 189.014C161.258 189.014 160.394 188.828 159.722 188.456C159.05 188.084 158.492 187.58 158.048 186.944L158.966 186.134C159.338 186.686 159.818 187.1 160.406 187.376C161.006 187.652 161.642 187.79 162.314 187.79C162.89 187.79 163.418 187.682 163.898 187.466C164.39 187.262 164.78 186.944 165.068 186.512C165.368 186.08 165.518 185.54 165.518 184.892V183.236C165.17 183.812 164.69 184.268 164.078 184.604C163.478 184.94 162.842 185.108 162.17 185.108ZM162.656 183.812C162.992 183.812 163.316 183.752 163.628 183.632C163.94 183.512 164.228 183.356 164.492 183.164C164.756 182.96 164.978 182.732 165.158 182.48C165.338 182.228 165.458 181.97 165.518 181.706V179.006C165.35 178.574 165.11 178.196 164.798 177.872C164.486 177.536 164.132 177.278 163.736 177.098C163.34 176.906 162.932 176.81 162.512 176.81C162.032 176.81 161.6 176.912 161.216 177.116C160.844 177.32 160.526 177.596 160.262 177.944C159.998 178.28 159.794 178.658 159.65 179.078C159.506 179.498 159.434 179.924 159.434 180.356C159.434 180.824 159.518 181.268 159.686 181.688C159.854 182.096 160.082 182.462 160.37 182.786C160.658 183.11 161 183.362 161.396 183.542C161.792 183.722 162.212 183.812 162.656 183.812ZM168.921 182.282C168.921 181.682 169.089 181.166 169.425 180.734C169.773 180.29 170.247 179.948 170.847 179.708C171.447 179.468 172.143 179.348 172.935 179.348C173.355 179.348 173.799 179.384 174.267 179.456C174.735 179.516 175.149 179.612 175.509 179.744V179.06C175.509 178.34 175.293 177.776 174.861 177.368C174.429 176.948 173.817 176.738 173.025 176.738C172.509 176.738 172.011 176.834 171.531 177.026C171.063 177.206 170.565 177.47 170.037 177.818L169.461 176.702C170.073 176.282 170.685 175.97 171.297 175.766C171.909 175.55 172.545 175.442 173.205 175.442C174.405 175.442 175.353 175.778 176.049 176.45C176.745 177.11 177.093 178.034 177.093 179.222V183.2C177.093 183.392 177.129 183.536 177.201 183.632C177.285 183.716 177.417 183.764 177.597 183.776V185C177.441 185.024 177.303 185.042 177.183 185.054C177.075 185.066 176.985 185.072 176.913 185.072C176.541 185.072 176.259 184.97 176.067 184.766C175.887 184.562 175.785 184.346 175.761 184.118L175.725 183.524C175.317 184.052 174.783 184.46 174.123 184.748C173.463 185.036 172.809 185.18 172.161 185.18C171.537 185.18 170.979 185.054 170.487 184.802C169.995 184.538 169.611 184.19 169.335 183.758C169.059 183.314 168.921 182.822 168.921 182.282ZM175.041 182.948C175.185 182.78 175.299 182.612 175.383 182.444C175.467 182.264 175.509 182.114 175.509 181.994V180.824C175.137 180.68 174.747 180.572 174.339 180.5C173.931 180.416 173.529 180.374 173.133 180.374C172.329 180.374 171.675 180.536 171.171 180.86C170.679 181.172 170.433 181.604 170.433 182.156C170.433 182.456 170.511 182.75 170.667 183.038C170.835 183.314 171.075 183.542 171.387 183.722C171.711 183.902 172.107 183.992 172.575 183.992C173.067 183.992 173.535 183.896 173.979 183.704C174.423 183.5 174.777 183.248 175.041 182.948ZM187.78 185H186.196V179.744C186.196 178.748 186.04 178.022 185.728 177.566C185.428 177.098 184.966 176.864 184.342 176.864C183.91 176.864 183.478 176.972 183.046 177.188C182.626 177.404 182.248 177.698 181.912 178.07C181.588 178.43 181.354 178.85 181.21 179.33V185H179.626V175.604H181.066V177.62C181.318 177.176 181.642 176.792 182.038 176.468C182.434 176.144 182.884 175.892 183.388 175.712C183.892 175.532 184.42 175.442 184.972 175.442C185.512 175.442 185.962 175.544 186.322 175.748C186.694 175.94 186.982 176.216 187.186 176.576C187.402 176.924 187.552 177.338 187.636 177.818C187.732 178.298 187.78 178.82 187.78 179.384V185ZM193.987 185.108C193.351 185.108 192.763 184.982 192.223 184.73C191.695 184.466 191.239 184.112 190.855 183.668C190.471 183.212 190.171 182.696 189.955 182.12C189.751 181.544 189.649 180.944 189.649 180.32C189.649 179.66 189.751 179.036 189.955 178.448C190.171 177.86 190.471 177.344 190.855 176.9C191.251 176.444 191.713 176.09 192.241 175.838C192.769 175.574 193.357 175.442 194.005 175.442C194.785 175.442 195.463 175.634 196.039 176.018C196.627 176.402 197.119 176.888 197.515 177.476V175.604H198.919V184.892C198.919 185.78 198.703 186.53 198.271 187.142C197.851 187.754 197.275 188.216 196.543 188.528C195.823 188.852 195.019 189.014 194.131 189.014C193.075 189.014 192.211 188.828 191.539 188.456C190.867 188.084 190.309 187.58 189.865 186.944L190.783 186.134C191.155 186.686 191.635 187.1 192.223 187.376C192.823 187.652 193.459 187.79 194.131 187.79C194.707 187.79 195.235 187.682 195.715 187.466C196.207 187.262 196.597 186.944 196.885 186.512C197.185 186.08 197.335 185.54 197.335 184.892V183.236C196.987 183.812 196.507 184.268 195.895 184.604C195.295 184.94 194.659 185.108 193.987 185.108ZM194.473 183.812C194.809 183.812 195.133 183.752 195.445 183.632C195.757 183.512 196.045 183.356 196.309 183.164C196.573 182.96 196.795 182.732 196.975 182.48C197.155 182.228 197.275 181.97 197.335 181.706V179.006C197.167 178.574 196.927 178.196 196.615 177.872C196.303 177.536 195.949 177.278 195.553 177.098C195.157 176.906 194.749 176.81 194.329 176.81C193.849 176.81 193.417 176.912 193.033 177.116C192.661 177.32 192.343 177.596 192.079 177.944C191.815 178.28 191.611 178.658 191.467 179.078C191.323 179.498 191.251 179.924 191.251 180.356C191.251 180.824 191.335 181.268 191.503 181.688C191.671 182.096 191.899 182.462 192.187 182.786C192.475 183.11 192.817 183.362 193.213 183.542C193.609 183.722 194.029 183.812 194.473 183.812ZM210.888 184.532C210.756 184.592 210.576 184.67 210.348 184.766C210.12 184.862 209.856 184.946 209.556 185.018C209.256 185.09 208.938 185.126 208.602 185.126C208.218 185.126 207.864 185.06 207.54 184.928C207.216 184.784 206.958 184.568 206.766 184.28C206.574 183.98 206.478 183.608 206.478 183.164V176.846H205.2V175.604H206.478V172.472H208.062V175.604H210.168V176.846H208.062V182.678C208.086 183.014 208.2 183.266 208.404 183.434C208.608 183.59 208.848 183.668 209.124 183.668C209.436 183.668 209.724 183.614 209.988 183.506C210.252 183.398 210.426 183.32 210.51 183.272L210.888 184.532ZM216.337 185.18C215.629 185.18 214.987 185.054 214.411 184.802C213.835 184.538 213.337 184.184 212.917 183.74C212.497 183.284 212.173 182.762 211.945 182.174C211.717 181.586 211.603 180.968 211.603 180.32C211.603 179.66 211.717 179.036 211.945 178.448C212.173 177.86 212.497 177.344 212.917 176.9C213.337 176.444 213.835 176.09 214.411 175.838C214.999 175.574 215.641 175.442 216.337 175.442C217.045 175.442 217.687 175.574 218.263 175.838C218.839 176.09 219.337 176.444 219.757 176.9C220.189 177.344 220.519 177.86 220.747 178.448C220.975 179.036 221.089 179.66 221.089 180.32C221.089 180.968 220.975 181.586 220.747 182.174C220.519 182.762 220.195 183.284 219.775 183.74C219.355 184.184 218.851 184.538 218.263 184.802C217.687 185.054 217.045 185.18 216.337 185.18ZM213.223 180.338C213.223 180.986 213.361 181.574 213.637 182.102C213.925 182.63 214.303 183.05 214.771 183.362C215.239 183.662 215.761 183.812 216.337 183.812C216.913 183.812 217.435 183.656 217.903 183.344C218.383 183.032 218.761 182.612 219.037 182.084C219.325 181.544 219.469 180.95 219.469 180.302C219.469 179.654 219.325 179.066 219.037 178.538C218.761 178.01 218.383 177.59 217.903 177.278C217.435 176.966 216.913 176.81 216.337 176.81C215.761 176.81 215.239 176.972 214.771 177.296C214.303 177.608 213.925 178.028 213.637 178.556C213.361 179.084 213.223 179.678 213.223 180.338ZM226.752 185.108C226.116 185.108 225.528 184.982 224.988 184.73C224.46 184.466 224.004 184.112 223.62 183.668C223.236 183.212 222.936 182.696 222.72 182.12C222.516 181.544 222.414 180.944 222.414 180.32C222.414 179.66 222.516 179.036 222.72 178.448C222.936 177.86 223.236 177.344 223.62 176.9C224.016 176.444 224.478 176.09 225.006 175.838C225.534 175.574 226.122 175.442 226.77 175.442C227.55 175.442 228.228 175.634 228.804 176.018C229.392 176.402 229.884 176.888 230.28 177.476V175.604H231.684V184.892C231.684 185.78 231.468 186.53 231.036 187.142C230.616 187.754 230.04 188.216 229.308 188.528C228.588 188.852 227.784 189.014 226.896 189.014C225.84 189.014 224.976 188.828 224.304 188.456C223.632 188.084 223.074 187.58 222.63 186.944L223.548 186.134C223.92 186.686 224.4 187.1 224.988 187.376C225.588 187.652 226.224 187.79 226.896 187.79C227.472 187.79 228 187.682 228.48 187.466C228.972 187.262 229.362 186.944 229.65 186.512C229.95 186.08 230.1 185.54 230.1 184.892V183.236C229.752 183.812 229.272 184.268 228.66 184.604C228.06 184.94 227.424 185.108 226.752 185.108ZM227.238 183.812C227.574 183.812 227.898 183.752 228.21 183.632C228.522 183.512 228.81 183.356 229.074 183.164C229.338 182.96 229.56 182.732 229.74 182.48C229.92 182.228 230.04 181.97 230.1 181.706V179.006C229.932 178.574 229.692 178.196 229.38 177.872C229.068 177.536 228.714 177.278 228.318 177.098C227.922 176.906 227.514 176.81 227.094 176.81C226.614 176.81 226.182 176.912 225.798 177.116C225.426 177.32 225.108 177.596 224.844 177.944C224.58 178.28 224.376 178.658 224.232 179.078C224.088 179.498 224.016 179.924 224.016 180.356C224.016 180.824 224.1 181.268 224.268 181.688C224.436 182.096 224.664 182.462 224.952 182.786C225.24 183.11 225.582 183.362 225.978 183.542C226.374 183.722 226.794 183.812 227.238 183.812ZM238.399 185.18C237.691 185.18 237.043 185.054 236.455 184.802C235.879 184.538 235.375 184.184 234.943 183.74C234.523 183.284 234.193 182.762 233.953 182.174C233.725 181.586 233.611 180.962 233.611 180.302C233.611 179.414 233.815 178.604 234.223 177.872C234.631 177.14 235.195 176.552 235.915 176.108C236.647 175.664 237.481 175.442 238.417 175.442C239.365 175.442 240.187 175.67 240.883 176.126C241.591 176.57 242.137 177.158 242.521 177.89C242.917 178.61 243.115 179.39 243.115 180.23C243.115 180.35 243.109 180.47 243.097 180.59C243.097 180.698 243.091 180.782 243.079 180.842H235.285C235.333 181.454 235.501 182 235.789 182.48C236.089 182.948 236.473 183.32 236.941 183.596C237.409 183.86 237.913 183.992 238.453 183.992C239.029 183.992 239.569 183.848 240.073 183.56C240.589 183.272 240.943 182.894 241.135 182.426L242.503 182.804C242.299 183.26 241.993 183.668 241.585 184.028C241.189 184.388 240.715 184.67 240.163 184.874C239.623 185.078 239.035 185.18 238.399 185.18ZM235.231 179.744H241.639C241.591 179.132 241.417 178.592 241.117 178.124C240.817 177.656 240.433 177.29 239.965 177.026C239.497 176.762 238.981 176.63 238.417 176.63C237.865 176.63 237.355 176.762 236.887 177.026C236.419 177.29 236.035 177.656 235.735 178.124C235.447 178.592 235.279 179.132 235.231 179.744ZM249.648 184.532C249.516 184.592 249.336 184.67 249.108 184.766C248.88 184.862 248.616 184.946 248.316 185.018C248.016 185.09 247.698 185.126 247.362 185.126C246.978 185.126 246.624 185.06 246.3 184.928C245.976 184.784 245.718 184.568 245.526 184.28C245.334 183.98 245.238 183.608 245.238 183.164V176.846H243.96V175.604H245.238V172.472H246.822V175.604H248.928V176.846H246.822V182.678C246.846 183.014 246.96 183.266 247.164 183.434C247.368 183.59 247.608 183.668 247.884 183.668C248.196 183.668 248.484 183.614 248.748 183.506C249.012 183.398 249.186 183.32 249.27 183.272L249.648 184.532ZM259.27 185H257.686V179.744C257.686 178.784 257.512 178.064 257.164 177.584C256.828 177.104 256.342 176.864 255.706 176.864C255.298 176.864 254.884 176.972 254.464 177.188C254.056 177.404 253.696 177.698 253.384 178.07C253.072 178.43 252.844 178.85 252.7 179.33V185H251.116V171.86H252.7V177.62C253.072 176.948 253.576 176.42 254.212 176.036C254.86 175.64 255.556 175.442 256.3 175.442C256.864 175.442 257.332 175.544 257.704 175.748C258.088 175.94 258.394 176.216 258.622 176.576C258.85 176.936 259.012 177.356 259.108 177.836C259.216 178.304 259.27 178.82 259.27 179.384V185ZM265.891 185.18C265.183 185.18 264.535 185.054 263.947 184.802C263.371 184.538 262.867 184.184 262.435 183.74C262.015 183.284 261.685 182.762 261.445 182.174C261.217 181.586 261.103 180.962 261.103 180.302C261.103 179.414 261.307 178.604 261.715 177.872C262.123 177.14 262.687 176.552 263.407 176.108C264.139 175.664 264.973 175.442 265.909 175.442C266.857 175.442 267.679 175.67 268.375 176.126C269.083 176.57 269.629 177.158 270.013 177.89C270.409 178.61 270.607 179.39 270.607 180.23C270.607 180.35 270.601 180.47 270.589 180.59C270.589 180.698 270.583 180.782 270.571 180.842H262.777C262.825 181.454 262.993 182 263.281 182.48C263.581 182.948 263.965 183.32 264.433 183.596C264.901 183.86 265.405 183.992 265.945 183.992C266.521 183.992 267.061 183.848 267.565 183.56C268.081 183.272 268.435 182.894 268.627 182.426L269.995 182.804C269.791 183.26 269.485 183.668 269.077 184.028C268.681 184.388 268.207 184.67 267.655 184.874C267.115 185.078 266.527 185.18 265.891 185.18ZM262.723 179.744H269.131C269.083 179.132 268.909 178.592 268.609 178.124C268.309 177.656 267.925 177.29 267.457 177.026C266.989 176.762 266.473 176.63 265.909 176.63C265.357 176.63 264.847 176.762 264.379 177.026C263.911 177.29 263.527 177.656 263.227 178.124C262.939 178.592 262.771 179.132 262.723 179.744ZM277.336 176.99C276.544 177.002 275.842 177.206 275.23 177.602C274.63 177.986 274.204 178.52 273.952 179.204V185H272.368V175.604H273.844V177.782C274.168 177.134 274.594 176.612 275.122 176.216C275.662 175.808 276.226 175.58 276.814 175.532C276.934 175.532 277.036 175.532 277.12 175.532C277.204 175.532 277.276 175.538 277.336 175.55V176.99ZM1.782 212V203.846H0.504V202.604H1.782V202.406C1.782 201.638 1.896 200.978 2.124 200.426C2.364 199.862 2.7 199.43 3.132 199.13C3.564 198.83 4.074 198.68 4.662 198.68C5.034 198.68 5.4 198.734 5.76 198.842C6.12 198.938 6.444 199.076 6.732 199.256L6.336 200.426C6.168 200.306 5.958 200.21 5.706 200.138C5.466 200.066 5.226 200.03 4.986 200.03C4.47 200.03 4.068 200.234 3.78 200.642C3.504 201.038 3.366 201.608 3.366 202.352V202.604H5.868V203.846H3.366V212H1.782ZM11.3234 212.18C10.6154 212.18 9.97341 212.054 9.39741 211.802C8.82141 211.538 8.32341 211.184 7.90341 210.74C7.48341 210.284 7.15941 209.762 6.93141 209.174C6.70341 208.586 6.58941 207.968 6.58941 207.32C6.58941 206.66 6.70341 206.036 6.93141 205.448C7.15941 204.86 7.48341 204.344 7.90341 203.9C8.32341 203.444 8.82141 203.09 9.39741 202.838C9.98541 202.574 10.6274 202.442 11.3234 202.442C12.0314 202.442 12.6734 202.574 13.2494 202.838C13.8254 203.09 14.3234 203.444 14.7434 203.9C15.1754 204.344 15.5054 204.86 15.7334 205.448C15.9614 206.036 16.0754 206.66 16.0754 207.32C16.0754 207.968 15.9614 208.586 15.7334 209.174C15.5054 209.762 15.1814 210.284 14.7614 210.74C14.3414 211.184 13.8374 211.538 13.2494 211.802C12.6734 212.054 12.0314 212.18 11.3234 212.18ZM8.20941 207.338C8.20941 207.986 8.34741 208.574 8.62341 209.102C8.91141 209.63 9.28941 210.05 9.75741 210.362C10.2254 210.662 10.7474 210.812 11.3234 210.812C11.8994 210.812 12.4214 210.656 12.8894 210.344C13.3694 210.032 13.7474 209.612 14.0234 209.084C14.3114 208.544 14.4554 207.95 14.4554 207.302C14.4554 206.654 14.3114 206.066 14.0234 205.538C13.7474 205.01 13.3694 204.59 12.8894 204.278C12.4214 203.966 11.8994 203.81 11.3234 203.81C10.7474 203.81 10.2254 203.972 9.75741 204.296C9.28941 204.608 8.91141 205.028 8.62341 205.556C8.34741 206.084 8.20941 206.678 8.20941 207.338ZM22.9628 203.99C22.1708 204.002 21.4688 204.206 20.8568 204.602C20.2568 204.986 19.8308 205.52 19.5788 206.204V212H17.9948V202.604H19.4708V204.782C19.7948 204.134 20.2208 203.612 20.7488 203.216C21.2888 202.808 21.8528 202.58 22.4408 202.532C22.5608 202.532 22.6628 202.532 22.7468 202.532C22.8308 202.532 22.9028 202.538 22.9628 202.55V203.99ZM27.9267 209.282C27.9267 208.682 28.0947 208.166 28.4307 207.734C28.7787 207.29 29.2527 206.948 29.8527 206.708C30.4527 206.468 31.1487 206.348 31.9407 206.348C32.3607 206.348 32.8047 206.384 33.2727 206.456C33.7407 206.516 34.1547 206.612 34.5147 206.744V206.06C34.5147 205.34 34.2987 204.776 33.8667 204.368C33.4347 203.948 32.8227 203.738 32.0307 203.738C31.5147 203.738 31.0167 203.834 30.5367 204.026C30.0687 204.206 29.5707 204.47 29.0427 204.818L28.4667 203.702C29.0787 203.282 29.6907 202.97 30.3027 202.766C30.9147 202.55 31.5507 202.442 32.2107 202.442C33.4107 202.442 34.3587 202.778 35.0547 203.45C35.7507 204.11 36.0987 205.034 36.0987 206.222V210.2C36.0987 210.392 36.1347 210.536 36.2067 210.632C36.2907 210.716 36.4227 210.764 36.6027 210.776V212C36.4467 212.024 36.3087 212.042 36.1887 212.054C36.0807 212.066 35.9907 212.072 35.9187 212.072C35.5467 212.072 35.2647 211.97 35.0727 211.766C34.8927 211.562 34.7907 211.346 34.7667 211.118L34.7307 210.524C34.3227 211.052 33.7887 211.46 33.1287 211.748C32.4687 212.036 31.8147 212.18 31.1667 212.18C30.5427 212.18 29.9847 212.054 29.4927 211.802C29.0007 211.538 28.6167 211.19 28.3407 210.758C28.0647 210.314 27.9267 209.822 27.9267 209.282ZM34.0467 209.948C34.1907 209.78 34.3047 209.612 34.3887 209.444C34.4727 209.264 34.5147 209.114 34.5147 208.994V207.824C34.1427 207.68 33.7527 207.572 33.3447 207.5C32.9367 207.416 32.5347 207.374 32.1387 207.374C31.3347 207.374 30.6807 207.536 30.1767 207.86C29.6847 208.172 29.4387 208.604 29.4387 209.156C29.4387 209.456 29.5167 209.75 29.6727 210.038C29.8407 210.314 30.0807 210.542 30.3927 210.722C30.7167 210.902 31.1127 210.992 31.5807 210.992C32.0727 210.992 32.5407 210.896 32.9847 210.704C33.4287 210.5 33.7827 210.248 34.0467 209.948ZM51.3383 212H49.7543V206.744C49.7543 205.748 49.5983 205.022 49.2863 204.566C48.9863 204.098 48.5243 203.864 47.9003 203.864C47.4683 203.864 47.0363 203.972 46.6043 204.188C46.1843 204.404 45.8063 204.698 45.4703 205.07C45.1463 205.43 44.9123 205.85 44.7683 206.33V212H43.1843V202.604H44.6243V204.62C44.8763 204.176 45.2003 203.792 45.5963 203.468C45.9923 203.144 46.4423 202.892 46.9463 202.712C47.4503 202.532 47.9783 202.442 48.5303 202.442C49.0703 202.442 49.5203 202.544 49.8803 202.748C50.2523 202.94 50.5403 203.216 50.7443 203.576C50.9603 203.924 51.1103 204.338 51.1943 204.818C51.2903 205.298 51.3383 205.82 51.3383 206.384V212ZM53.8014 212V202.604H55.3854V212H53.8014ZM53.8014 200.84V198.86H55.3854V200.84H53.8014ZM61.6939 212.108C61.0579 212.108 60.4699 211.982 59.9299 211.73C59.4019 211.466 58.9459 211.112 58.5619 210.668C58.1779 210.212 57.8779 209.696 57.6619 209.12C57.4579 208.544 57.3559 207.944 57.3559 207.32C57.3559 206.66 57.4579 206.036 57.6619 205.448C57.8779 204.86 58.1779 204.344 58.5619 203.9C58.9579 203.444 59.4199 203.09 59.9479 202.838C60.4759 202.574 61.0639 202.442 61.7119 202.442C62.4919 202.442 63.1699 202.634 63.7459 203.018C64.3339 203.402 64.8259 203.888 65.2219 204.476V202.604H66.6259V211.892C66.6259 212.78 66.4099 213.53 65.9779 214.142C65.5579 214.754 64.9819 215.216 64.2499 215.528C63.5299 215.852 62.7259 216.014 61.8379 216.014C60.7819 216.014 59.9179 215.828 59.2459 215.456C58.5739 215.084 58.0159 214.58 57.5719 213.944L58.4899 213.134C58.8619 213.686 59.3419 214.1 59.9299 214.376C60.5299 214.652 61.1659 214.79 61.8379 214.79C62.4139 214.79 62.9419 214.682 63.4219 214.466C63.9139 214.262 64.3039 213.944 64.5919 213.512C64.8919 213.08 65.0419 212.54 65.0419 211.892V210.236C64.6939 210.812 64.2139 211.268 63.6019 211.604C63.0019 211.94 62.3659 212.108 61.6939 212.108ZM62.1799 210.812C62.5159 210.812 62.8399 210.752 63.1519 210.632C63.4639 210.512 63.7519 210.356 64.0159 210.164C64.2799 209.96 64.5019 209.732 64.6819 209.48C64.8619 209.228 64.9819 208.97 65.0419 208.706V206.006C64.8739 205.574 64.6339 205.196 64.3219 204.872C64.0099 204.536 63.6559 204.278 63.2599 204.098C62.8639 203.906 62.4559 203.81 62.0359 203.81C61.5559 203.81 61.1239 203.912 60.7399 204.116C60.3679 204.32 60.0499 204.596 59.7859 204.944C59.5219 205.28 59.3179 205.658 59.1739 206.078C59.0299 206.498 58.9579 206.924 58.9579 207.356C58.9579 207.824 59.0419 208.268 59.2099 208.688C59.3779 209.096 59.6059 209.462 59.8939 209.786C60.1819 210.11 60.5239 210.362 60.9199 210.542C61.3159 210.722 61.7359 210.812 62.1799 210.812ZM77.3363 212H75.7523V206.744C75.7523 205.784 75.5783 205.064 75.2303 204.584C74.8943 204.104 74.4083 203.864 73.7723 203.864C73.3643 203.864 72.9503 203.972 72.5303 204.188C72.1223 204.404 71.7623 204.698 71.4503 205.07C71.1383 205.43 70.9103 205.85 70.7663 206.33V212H69.1823V198.86H70.7663V204.62C71.1383 203.948 71.6423 203.42 72.2783 203.036C72.9263 202.64 73.6223 202.442 74.3663 202.442C74.9303 202.442 75.3983 202.544 75.7703 202.748C76.1543 202.94 76.4603 203.216 76.6883 203.576C76.9163 203.936 77.0783 204.356 77.1743 204.836C77.2823 205.304 77.3363 205.82 77.3363 206.384V212ZM84.5716 211.532C84.4396 211.592 84.2596 211.67 84.0316 211.766C83.8036 211.862 83.5396 211.946 83.2396 212.018C82.9396 212.09 82.6216 212.126 82.2856 212.126C81.9016 212.126 81.5476 212.06 81.2236 211.928C80.8996 211.784 80.6416 211.568 80.4496 211.28C80.2576 210.98 80.1616 210.608 80.1616 210.164V203.846H78.8836V202.604H80.1616V199.472H81.7456V202.604H83.8516V203.846H81.7456V209.678C81.7696 210.014 81.8836 210.266 82.0876 210.434C82.2916 210.59 82.5316 210.668 82.8076 210.668C83.1196 210.668 83.4076 210.614 83.6716 210.506C83.9356 210.398 84.1096 210.32 84.1936 210.272L84.5716 211.532ZM94.6965 212.18C93.9885 212.18 93.3465 212.054 92.7705 211.802C92.1945 211.538 91.6965 211.184 91.2765 210.74C90.8565 210.284 90.5325 209.762 90.3045 209.174C90.0765 208.586 89.9625 207.968 89.9625 207.32C89.9625 206.66 90.0765 206.036 90.3045 205.448C90.5325 204.86 90.8565 204.344 91.2765 203.9C91.6965 203.444 92.1945 203.09 92.7705 202.838C93.3585 202.574 94.0005 202.442 94.6965 202.442C95.4045 202.442 96.0465 202.574 96.6225 202.838C97.1985 203.09 97.6965 203.444 98.1165 203.9C98.5485 204.344 98.8785 204.86 99.1065 205.448C99.3345 206.036 99.4485 206.66 99.4485 207.32C99.4485 207.968 99.3345 208.586 99.1065 209.174C98.8785 209.762 98.5545 210.284 98.1345 210.74C97.7145 211.184 97.2105 211.538 96.6225 211.802C96.0465 212.054 95.4045 212.18 94.6965 212.18ZM91.5825 207.338C91.5825 207.986 91.7205 208.574 91.9965 209.102C92.2845 209.63 92.6625 210.05 93.1305 210.362C93.5985 210.662 94.1205 210.812 94.6965 210.812C95.2725 210.812 95.7945 210.656 96.2625 210.344C96.7425 210.032 97.1205 209.612 97.3965 209.084C97.6845 208.544 97.8285 207.95 97.8285 207.302C97.8285 206.654 97.6845 206.066 97.3965 205.538C97.1205 205.01 96.7425 204.59 96.2625 204.278C95.7945 203.966 95.2725 203.81 94.6965 203.81C94.1205 203.81 93.5985 203.972 93.1305 204.296C92.6625 204.608 92.2845 205.028 91.9965 205.556C91.7205 206.084 91.5825 206.678 91.5825 207.338ZM101.714 212V203.846H100.436V202.604H101.714V202.406C101.714 201.638 101.828 200.978 102.056 200.426C102.296 199.862 102.632 199.43 103.064 199.13C103.496 198.83 104.006 198.68 104.594 198.68C104.966 198.68 105.332 198.734 105.692 198.842C106.052 198.938 106.376 199.076 106.664 199.256L106.268 200.426C106.1 200.306 105.89 200.21 105.638 200.138C105.398 200.066 105.158 200.03 104.918 200.03C104.402 200.03 104 200.234 103.712 200.642C103.436 201.038 103.298 201.608 103.298 202.352V202.604H105.8V203.846H103.298V212H101.714ZM111.78 212V199.22H116.208C117.576 199.22 118.716 199.508 119.628 200.084C120.552 200.648 121.242 201.416 121.698 202.388C122.154 203.348 122.382 204.416 122.382 205.592C122.382 206.888 122.13 208.016 121.626 208.976C121.122 209.936 120.408 210.68 119.484 211.208C118.56 211.736 117.468 212 116.208 212H111.78ZM120.744 205.592C120.744 204.632 120.564 203.78 120.204 203.036C119.856 202.292 119.346 201.71 118.674 201.29C118.002 200.87 117.18 200.66 116.208 200.66H113.4V210.56H116.208C117.192 210.56 118.02 210.344 118.692 209.912C119.364 209.468 119.874 208.874 120.222 208.13C120.57 207.374 120.744 206.528 120.744 205.592ZM133.215 212L126.951 205.394C126.435 204.842 126.021 204.374 125.709 203.99C125.409 203.594 125.193 203.24 125.061 202.928C124.929 202.604 124.863 202.274 124.863 201.938C124.863 201.386 125.007 200.894 125.295 200.462C125.583 200.03 125.973 199.688 126.465 199.436C126.969 199.184 127.533 199.058 128.157 199.058C128.733 199.058 129.255 199.166 129.723 199.382C130.191 199.586 130.563 199.886 130.839 200.282C131.127 200.666 131.271 201.128 131.271 201.668C131.271 202.22 131.121 202.712 130.821 203.144C130.521 203.564 130.125 203.96 129.633 204.332C129.153 204.692 128.619 205.058 128.031 205.43C127.551 205.742 127.113 206.06 126.717 206.384C126.333 206.708 126.027 207.056 125.799 207.428C125.583 207.788 125.475 208.19 125.475 208.634C125.475 209.114 125.607 209.528 125.871 209.876C126.135 210.212 126.477 210.47 126.897 210.65C127.329 210.83 127.779 210.92 128.247 210.92C128.859 210.92 129.429 210.782 129.957 210.506C130.485 210.218 130.947 209.822 131.343 209.318C131.751 208.814 132.063 208.232 132.279 207.572C132.507 206.9 132.621 206.18 132.621 205.412H133.935C133.935 206.396 133.779 207.302 133.467 208.13C133.167 208.946 132.747 209.66 132.207 210.272C131.679 210.872 131.061 211.34 130.353 211.676C129.645 212.012 128.889 212.18 128.085 212.18C127.305 212.18 126.597 212.024 125.961 211.712C125.337 211.4 124.845 210.98 124.485 210.452C124.125 209.912 123.945 209.3 123.945 208.616C123.945 207.956 124.095 207.38 124.395 206.888C124.707 206.384 125.103 205.94 125.583 205.556C126.075 205.16 126.579 204.8 127.095 204.476C127.623 204.14 128.091 203.834 128.499 203.558C128.907 203.27 129.225 202.976 129.453 202.676C129.693 202.376 129.813 202.052 129.813 201.704C129.813 201.284 129.657 200.942 129.345 200.678C129.033 200.402 128.637 200.264 128.157 200.264C127.797 200.264 127.479 200.342 127.203 200.498C126.927 200.642 126.711 200.84 126.555 201.092C126.399 201.332 126.321 201.602 126.321 201.902C126.321 202.094 126.369 202.292 126.465 202.496C126.561 202.7 126.741 202.958 127.005 203.27C127.281 203.582 127.665 204.002 128.157 204.53L135.303 212H133.215ZM136.917 212V199.22H141.345C142.713 199.22 143.853 199.508 144.765 200.084C145.689 200.648 146.379 201.416 146.835 202.388C147.291 203.348 147.519 204.416 147.519 205.592C147.519 206.888 147.267 208.016 146.763 208.976C146.259 209.936 145.545 210.68 144.621 211.208C143.697 211.736 142.605 212 141.345 212H136.917ZM145.881 205.592C145.881 204.632 145.701 203.78 145.341 203.036C144.993 202.292 144.483 201.71 143.811 201.29C143.139 200.87 142.317 200.66 141.345 200.66H138.537V210.56H141.345C142.329 210.56 143.157 210.344 143.829 209.912C144.501 209.468 145.011 208.874 145.359 208.13C145.707 207.374 145.881 206.528 145.881 205.592ZM149.213 212V209.984H150.545V212H149.213Z" fill="#7883BE"/>
</svg>
