<svg width="310" height="235" viewBox="0 0 310 235" fill="none" xmlns="http://www.w3.org/2000/svg">
<g clip-path="url(#clip0_3430_802)">
<rect width="310" height="235" fill="#121526"/>
<path d="M20 33C22.7625 33 25 30.7625 25 28C25 25.2375 22.7625 23 20 23C17.2375 23 15 25.2375 15 28C15 30.7625 17.2375 33 20 33ZM20 21C23.8687 21 27 24.1312 27 28C27 31.8687 23.8687 35 20 35C16.1313 35 13 31.8687 13 28C13 24.1312 16.1313 21 20 21ZM18.5 40C14.3562 40 11 43.3563 11 47.5V49C11 49.55 10.55 50 10 50C9.45 50 9 49.55 9 49V47.5C9 42.2563 13.2563 38 18.5 38H21.5C26.7437 38 31 42.2563 31 47.5V49C31 49.55 30.55 50 30 50C29.45 50 29 49.55 29 49V47.5C29 43.3563 25.6437 40 21.5 40H18.5ZM26.9625 35.175C27.45 34.7 27.8937 34.175 28.275 33.6125C28.7937 33.8625 29.3813 34 30 34C32.2062 34 34 32.2063 34 30C34 27.7937 32.2062 26 30 26C29.9312 26 29.8687 26 29.8 26.0063C29.6625 25.3313 29.4562 24.675 29.1875 24.0562C29.45 24.0187 29.725 24 29.9937 24C33.3063 24 35.9938 26.6875 35.9938 30C35.9938 33.3125 33.3063 36 29.9937 36C28.8875 36 27.85 35.7 26.9562 35.175H26.9625ZM10 24C10.275 24 10.5437 24.0187 10.8062 24.0562C10.5375 24.675 10.3313 25.3313 10.1938 26.0063C10.125 26 10.0625 26 9.99375 26C7.7875 26 5.99375 27.7937 5.99375 30C5.99375 32.2063 7.7875 34 9.99375 34C10.6125 34 11.1937 33.8625 11.7125 33.6125C12.0938 34.1812 12.5375 34.7 13.025 35.175C12.1375 35.7 11.1 36 9.9875 36C6.675 36 3.9875 33.3125 3.9875 30C3.9875 26.6875 6.675 24 9.9875 24H10ZM9.3375 39C8.7375 39.6437 8.20625 40.35 7.75625 41.1125C4.4875 41.7 2 44.5625 2 48V49C2 49.55 1.55 50 1 50C0.45 50 0 49.55 0 49V48C0 43.0312 4.03125 39 9 39H9.3375ZM32.25 41.1125C31.8 40.3562 31.2688 39.6437 30.6688 39H31C35.9688 39 40 43.0312 40 48V49C40 49.55 39.55 50 39 50C38.45 50 38 49.55 38 49V48C38 44.5625 35.5188 41.7 32.2438 41.1125H32.25Z" fill="#00BD7B"/>
<path d="M11.928 82.424C11.816 82.312 11.608 82.16 11.304 81.968C11.016 81.776 10.656 81.592 10.224 81.416C9.808 81.24 9.352 81.088 8.856 80.96C8.36 80.816 7.856 80.744 7.344 80.744C6.448 80.744 5.768 80.912 5.304 81.248C4.856 81.584 4.632 82.056 4.632 82.664C4.632 83.128 4.776 83.496 5.064 83.768C5.352 84.04 5.784 84.272 6.36 84.464C6.936 84.656 7.656 84.864 8.52 85.088C9.64 85.36 10.608 85.696 11.424 86.096C12.256 86.48 12.888 86.992 13.32 87.632C13.768 88.256 13.992 89.088 13.992 90.128C13.992 91.04 13.824 91.824 13.488 92.48C13.152 93.12 12.688 93.64 12.096 94.04C11.504 94.44 10.832 94.736 10.08 94.928C9.328 95.104 8.528 95.192 7.68 95.192C6.832 95.192 5.984 95.104 5.136 94.928C4.288 94.752 3.472 94.504 2.688 94.184C1.904 93.848 1.184 93.448 0.528 92.984L1.992 90.128C2.136 90.272 2.392 90.464 2.76 90.704C3.128 90.928 3.576 91.16 4.104 91.4C4.632 91.624 5.208 91.816 5.832 91.976C6.456 92.136 7.088 92.216 7.728 92.216C8.624 92.216 9.304 92.064 9.768 91.76C10.232 91.456 10.464 91.024 10.464 90.464C10.464 89.952 10.28 89.552 9.912 89.264C9.544 88.976 9.032 88.728 8.376 88.52C7.72 88.296 6.944 88.056 6.048 87.8C4.976 87.496 4.08 87.16 3.36 86.792C2.64 86.408 2.104 85.928 1.752 85.352C1.4 84.776 1.224 84.056 1.224 83.192C1.224 82.024 1.496 81.048 2.04 80.264C2.6 79.464 3.352 78.864 4.296 78.464C5.24 78.048 6.288 77.84 7.44 77.84C8.24 77.84 8.992 77.928 9.696 78.104C10.416 78.28 11.088 78.512 11.712 78.8C12.336 79.088 12.896 79.4 13.392 79.736L11.928 82.424ZM23.4375 94.352C23.1655 94.464 22.8375 94.592 22.4535 94.736C22.0695 94.88 21.6535 94.992 21.2055 95.072C20.7735 95.168 20.3335 95.216 19.8855 95.216C19.2935 95.216 18.7495 95.112 18.2535 94.904C17.7575 94.696 17.3575 94.368 17.0535 93.92C16.7655 93.456 16.6215 92.856 16.6215 92.12V84.896H14.9655V82.424H16.6215V78.344H19.8375V82.424H22.4775V84.896H19.8375V91.04C19.8535 91.472 19.9735 91.784 20.1975 91.976C20.4215 92.168 20.7015 92.264 21.0375 92.264C21.3735 92.264 21.7015 92.208 22.0215 92.096C22.3415 91.984 22.5975 91.888 22.7895 91.808L23.4375 94.352ZM24.2484 91.28C24.2484 90.464 24.4724 89.752 24.9204 89.144C25.3844 88.52 26.0244 88.04 26.8404 87.704C27.6564 87.368 28.5924 87.2 29.6484 87.2C30.1764 87.2 30.7124 87.24 31.2564 87.32C31.8004 87.4 32.2724 87.528 32.6724 87.704V87.032C32.6724 86.232 32.4324 85.616 31.9524 85.184C31.4884 84.752 30.7924 84.536 29.8644 84.536C29.1764 84.536 28.5204 84.656 27.8964 84.896C27.2724 85.136 26.6164 85.488 25.9284 85.952L24.8964 83.84C25.7284 83.296 26.5764 82.888 27.4404 82.616C28.3204 82.344 29.2404 82.208 30.2004 82.208C31.9924 82.208 33.3844 82.656 34.3764 83.552C35.3844 84.448 35.8884 85.728 35.8884 87.392V91.4C35.8884 91.736 35.9444 91.976 36.0564 92.12C36.1844 92.264 36.3844 92.352 36.6564 92.384V95C36.3684 95.048 36.1044 95.088 35.8644 95.12C35.6404 95.152 35.4484 95.168 35.2884 95.168C34.6484 95.168 34.1604 95.024 33.8244 94.736C33.5044 94.448 33.3044 94.096 33.2244 93.68L33.1524 93.032C32.6084 93.736 31.9284 94.28 31.1124 94.664C30.2964 95.048 29.4644 95.24 28.6164 95.24C27.7844 95.24 27.0324 95.072 26.3604 94.736C25.7044 94.384 25.1844 93.912 24.8004 93.32C24.4324 92.712 24.2484 92.032 24.2484 91.28ZM32.0724 91.928C32.2484 91.736 32.3924 91.544 32.5044 91.352C32.6164 91.16 32.6724 90.984 32.6724 90.824V89.552C32.2884 89.392 31.8724 89.272 31.4244 89.192C30.9764 89.096 30.5524 89.048 30.1524 89.048C29.3204 89.048 28.6324 89.232 28.0884 89.6C27.5604 89.952 27.2964 90.424 27.2964 91.016C27.2964 91.336 27.3844 91.64 27.5604 91.928C27.7364 92.216 27.9924 92.448 28.3284 92.624C28.6644 92.8 29.0644 92.888 29.5284 92.888C30.0084 92.888 30.4804 92.8 30.9444 92.624C31.4084 92.432 31.7844 92.2 32.0724 91.928ZM46.3817 85.208C45.4057 85.208 44.5337 85.4 43.7657 85.784C42.9977 86.152 42.4457 86.688 42.1097 87.392V95H38.8937V82.424H41.8457V85.112C42.2937 84.248 42.8617 83.568 43.5497 83.072C44.2377 82.576 44.9657 82.304 45.7337 82.256C45.9097 82.256 46.0457 82.256 46.1417 82.256C46.2377 82.256 46.3177 82.264 46.3817 82.28V85.208ZM55.7109 94.352C55.4389 94.464 55.1109 94.592 54.7269 94.736C54.3429 94.88 53.9269 94.992 53.4789 95.072C53.0469 95.168 52.6069 95.216 52.1589 95.216C51.5669 95.216 51.0229 95.112 50.5269 94.904C50.0309 94.696 49.6309 94.368 49.3269 93.92C49.0389 93.456 48.8949 92.856 48.8949 92.12V84.896H47.2389V82.424H48.8949V78.344H52.1109V82.424H54.7509V84.896H52.1109V91.04C52.1269 91.472 52.2469 91.784 52.4709 91.976C52.6949 92.168 52.9749 92.264 53.3109 92.264C53.6469 92.264 53.9749 92.208 54.2949 92.096C54.6149 91.984 54.8709 91.888 55.0629 91.808L55.7109 94.352ZM62.2875 91.28C62.2875 90.464 62.5115 89.752 62.9595 89.144C63.4235 88.52 64.0635 88.04 64.8795 87.704C65.6955 87.368 66.6315 87.2 67.6875 87.2C68.2155 87.2 68.7515 87.24 69.2955 87.32C69.8395 87.4 70.3115 87.528 70.7115 87.704V87.032C70.7115 86.232 70.4715 85.616 69.9915 85.184C69.5275 84.752 68.8315 84.536 67.9035 84.536C67.2155 84.536 66.5595 84.656 65.9355 84.896C65.3115 85.136 64.6555 85.488 63.9675 85.952L62.9355 83.84C63.7675 83.296 64.6155 82.888 65.4795 82.616C66.3595 82.344 67.2795 82.208 68.2395 82.208C70.0315 82.208 71.4235 82.656 72.4155 83.552C73.4235 84.448 73.9275 85.728 73.9275 87.392V91.4C73.9275 91.736 73.9835 91.976 74.0955 92.12C74.2235 92.264 74.4235 92.352 74.6955 92.384V95C74.4075 95.048 74.1435 95.088 73.9035 95.12C73.6795 95.152 73.4875 95.168 73.3275 95.168C72.6875 95.168 72.1995 95.024 71.8635 94.736C71.5435 94.448 71.3435 94.096 71.2635 93.68L71.1915 93.032C70.6475 93.736 69.9675 94.28 69.1515 94.664C68.3355 95.048 67.5035 95.24 66.6555 95.24C65.8235 95.24 65.0715 95.072 64.3995 94.736C63.7435 94.384 63.2235 93.912 62.8395 93.32C62.4715 92.712 62.2875 92.032 62.2875 91.28ZM70.1115 91.928C70.2875 91.736 70.4315 91.544 70.5435 91.352C70.6555 91.16 70.7115 90.984 70.7115 90.824V89.552C70.3275 89.392 69.9115 89.272 69.4635 89.192C69.0155 89.096 68.5915 89.048 68.1915 89.048C67.3595 89.048 66.6715 89.232 66.1275 89.6C65.5995 89.952 65.3355 90.424 65.3355 91.016C65.3355 91.336 65.4235 91.64 65.5995 91.928C65.7755 92.216 66.0315 92.448 66.3675 92.624C66.7035 92.8 67.1035 92.888 67.5675 92.888C68.0475 92.888 68.5195 92.8 68.9835 92.624C69.4475 92.432 69.8235 92.2 70.1115 91.928ZM211.94 97.76L212.588 94.904H211.58V91.544H214.364V94.904L213.38 97.76H211.94ZM228.803 95.24C227.779 95.24 226.859 95.072 226.043 94.736C225.227 94.384 224.531 93.904 223.955 93.296C223.395 92.688 222.963 91.992 222.659 91.208C222.355 90.424 222.203 89.6 222.203 88.736C222.203 87.856 222.355 87.024 222.659 86.24C222.963 85.456 223.395 84.76 223.955 84.152C224.531 83.544 225.227 83.072 226.043 82.736C226.859 82.384 227.779 82.208 228.803 82.208C229.827 82.208 230.739 82.384 231.539 82.736C232.355 83.072 233.051 83.544 233.627 84.152C234.203 84.76 234.635 85.456 234.923 86.24C235.227 87.024 235.379 87.856 235.379 88.736C235.379 89.6 235.227 90.424 234.923 91.208C234.635 91.992 234.203 92.688 233.627 93.296C233.067 93.904 232.379 94.384 231.563 94.736C230.747 95.072 229.827 95.24 228.803 95.24ZM225.515 88.736C225.515 89.472 225.659 90.128 225.947 90.704C226.235 91.264 226.627 91.704 227.123 92.024C227.619 92.344 228.179 92.504 228.803 92.504C229.411 92.504 229.963 92.344 230.459 92.024C230.955 91.688 231.347 91.24 231.635 90.68C231.939 90.104 232.091 89.448 232.091 88.712C232.091 87.992 231.939 87.344 231.635 86.768C231.347 86.192 230.955 85.744 230.459 85.424C229.963 85.104 229.411 84.944 228.803 84.944C228.179 84.944 227.619 85.112 227.123 85.448C226.627 85.768 226.235 86.216 225.947 86.792C225.659 87.352 225.515 88 225.515 88.736ZM245.038 85.208C244.062 85.208 243.19 85.4 242.422 85.784C241.654 86.152 241.102 86.688 240.766 87.392V95H237.55V82.424H240.502V85.112C240.95 84.248 241.518 83.568 242.206 83.072C242.894 82.576 243.622 82.304 244.39 82.256C244.566 82.256 244.702 82.256 244.798 82.256C244.894 82.256 244.974 82.264 245.038 82.28V85.208ZM0.432 128.704C-0.16 128.704 -0.728 128.608 -1.272 128.416C-1.816 128.24 -2.312 127.96 -2.76 127.576L-1.368 125.392C-1.192 125.584 -0.976 125.72 -0.72 125.8C-0.464 125.88 -0.208 125.92 0.048 125.92C0.336 125.92 0.592 125.848 0.816 125.704C1.056 125.576 1.24 125.392 1.368 125.152C1.512 124.912 1.584 124.64 1.584 124.336V111.424H4.8V124.096C4.8 124.992 4.6 125.792 4.2 126.496C3.816 127.2 3.296 127.744 2.64 128.128C2 128.512 1.264 128.704 0.432 128.704ZM1.584 109.672V106.48H4.8V109.672H1.584ZM13.5298 124.24C12.5058 124.24 11.5858 124.072 10.7698 123.736C9.95381 123.384 9.25781 122.904 8.68181 122.296C8.12181 121.688 7.68981 120.992 7.38581 120.208C7.08181 119.424 6.92981 118.6 6.92981 117.736C6.92981 116.856 7.08181 116.024 7.38581 115.24C7.68981 114.456 8.12181 113.76 8.68181 113.152C9.25781 112.544 9.95381 112.072 10.7698 111.736C11.5858 111.384 12.5058 111.208 13.5298 111.208C14.5538 111.208 15.4658 111.384 16.2658 111.736C17.0818 112.072 17.7778 112.544 18.3538 113.152C18.9298 113.76 19.3618 114.456 19.6498 115.24C19.9538 116.024 20.1058 116.856 20.1058 117.736C20.1058 118.6 19.9538 119.424 19.6498 120.208C19.3618 120.992 18.9298 121.688 18.3538 122.296C17.7938 122.904 17.1058 123.384 16.2898 123.736C15.4738 124.072 14.5538 124.24 13.5298 124.24ZM10.2418 117.736C10.2418 118.472 10.3858 119.128 10.6738 119.704C10.9618 120.264 11.3538 120.704 11.8498 121.024C12.3458 121.344 12.9058 121.504 13.5298 121.504C14.1378 121.504 14.6898 121.344 15.1858 121.024C15.6818 120.688 16.0738 120.24 16.3618 119.68C16.6658 119.104 16.8178 118.448 16.8178 117.712C16.8178 116.992 16.6658 116.344 16.3618 115.768C16.0738 115.192 15.6818 114.744 15.1858 114.424C14.6898 114.104 14.1378 113.944 13.5298 113.944C12.9058 113.944 12.3458 114.112 11.8498 114.448C11.3538 114.768 10.9618 115.216 10.6738 115.792C10.3858 116.352 10.2418 117 10.2418 117.736ZM22.2765 124V111.424H25.4925V124H22.2765ZM22.2765 109.672V106.48H25.4925V109.672H22.2765ZM40.0817 124H36.8657V116.944C36.8657 115.936 36.6897 115.2 36.3377 114.736C35.9857 114.272 35.4977 114.04 34.8737 114.04C34.4417 114.04 34.0017 114.152 33.5537 114.376C33.1217 114.6 32.7297 114.912 32.3777 115.312C32.0257 115.696 31.7697 116.144 31.6097 116.656V124H28.3937V111.424H31.2977V113.752C31.6177 113.208 32.0257 112.752 32.5217 112.384C33.0177 112 33.5857 111.712 34.2257 111.52C34.8817 111.312 35.5697 111.208 36.2897 111.208C37.0737 111.208 37.7137 111.352 38.2097 111.64C38.7217 111.912 39.1057 112.288 39.3617 112.768C39.6337 113.232 39.8177 113.76 39.9137 114.352C40.0257 114.944 40.0817 115.544 40.0817 116.152V124ZM47.7797 120.28C47.7797 119.464 48.0037 118.752 48.4517 118.144C48.9157 117.52 49.5557 117.04 50.3717 116.704C51.1877 116.368 52.1237 116.2 53.1797 116.2C53.7077 116.2 54.2437 116.24 54.7877 116.32C55.3317 116.4 55.8037 116.528 56.2037 116.704V116.032C56.2037 115.232 55.9637 114.616 55.4837 114.184C55.0197 113.752 54.3237 113.536 53.3957 113.536C52.7077 113.536 52.0517 113.656 51.4277 113.896C50.8037 114.136 50.1477 114.488 49.4597 114.952L48.4277 112.84C49.2597 112.296 50.1077 111.888 50.9717 111.616C51.8517 111.344 52.7717 111.208 53.7317 111.208C55.5237 111.208 56.9157 111.656 57.9077 112.552C58.9157 113.448 59.4197 114.728 59.4197 116.392V120.4C59.4197 120.736 59.4757 120.976 59.5877 121.12C59.7157 121.264 59.9157 121.352 60.1877 121.384V124C59.8997 124.048 59.6357 124.088 59.3957 124.12C59.1717 124.152 58.9797 124.168 58.8197 124.168C58.1797 124.168 57.6917 124.024 57.3557 123.736C57.0357 123.448 56.8357 123.096 56.7557 122.68L56.6837 122.032C56.1397 122.736 55.4597 123.28 54.6437 123.664C53.8277 124.048 52.9957 124.24 52.1477 124.24C51.3157 124.24 50.5637 124.072 49.8917 123.736C49.2357 123.384 48.7157 122.912 48.3317 122.32C47.9637 121.712 47.7797 121.032 47.7797 120.28ZM55.6037 120.928C55.7797 120.736 55.9237 120.544 56.0357 120.352C56.1477 120.16 56.2037 119.984 56.2037 119.824V118.552C55.8197 118.392 55.4037 118.272 54.9557 118.192C54.5077 118.096 54.0837 118.048 53.6837 118.048C52.8517 118.048 52.1637 118.232 51.6197 118.6C51.0917 118.952 50.8277 119.424 50.8277 120.016C50.8277 120.336 50.9157 120.64 51.0917 120.928C51.2677 121.216 51.5237 121.448 51.8597 121.624C52.1957 121.8 52.5957 121.888 53.0597 121.888C53.5397 121.888 54.0117 121.8 54.4757 121.624C54.9397 121.432 55.3157 121.2 55.6037 120.928ZM74.1129 124H70.8969V116.944C70.8969 115.936 70.7209 115.2 70.3689 114.736C70.0169 114.272 69.5289 114.04 68.9049 114.04C68.4729 114.04 68.0329 114.152 67.5849 114.376C67.1529 114.6 66.7609 114.912 66.4089 115.312C66.0569 115.696 65.8009 116.144 65.6409 116.656V124H62.4249V111.424H65.3289V113.752C65.6489 113.208 66.0569 112.752 66.5529 112.384C67.0489 112 67.6169 111.712 68.2569 111.52C68.9129 111.312 69.6009 111.208 70.3209 111.208C71.1049 111.208 71.7449 111.352 72.2409 111.64C72.7529 111.912 73.1369 112.288 73.3929 112.768C73.6649 113.232 73.8489 113.76 73.9449 114.352C74.0569 114.944 74.1129 115.544 74.1129 116.152V124ZM88.5069 124.24C87.4989 124.24 86.5869 124.072 85.7709 123.736C84.9549 123.384 84.2589 122.912 83.6829 122.32C83.1069 121.712 82.6589 121.024 82.3389 120.256C82.0349 119.472 81.8829 118.648 81.8829 117.784C81.8829 116.584 82.1469 115.488 82.6749 114.496C83.2189 113.504 83.9869 112.712 84.9789 112.12C85.9869 111.512 87.1709 111.208 88.5309 111.208C89.9069 111.208 91.0829 111.512 92.0589 112.12C93.0349 112.712 93.7789 113.504 94.2909 114.496C94.8189 115.472 95.0829 116.528 95.0829 117.664C95.0829 117.856 95.0749 118.056 95.0589 118.264C95.0429 118.456 95.0269 118.616 95.0109 118.744H85.2909C85.3549 119.384 85.5389 119.944 85.8429 120.424C86.1629 120.904 86.5629 121.272 87.0429 121.528C87.5389 121.768 88.0669 121.888 88.6269 121.888C89.2669 121.888 89.8669 121.736 90.4269 121.432C91.0029 121.112 91.3949 120.696 91.6029 120.184L94.3629 120.952C94.0589 121.592 93.6189 122.16 93.0429 122.656C92.4829 123.152 91.8189 123.544 91.0509 123.832C90.2829 124.104 89.4349 124.24 88.5069 124.24ZM85.2189 116.704H91.7949C91.7309 116.064 91.5469 115.512 91.2429 115.048C90.9549 114.568 90.5709 114.2 90.0909 113.944C89.6109 113.672 89.0749 113.536 88.4829 113.536C87.9069 113.536 87.3789 113.672 86.8989 113.944C86.4349 114.2 86.0509 114.568 85.7469 115.048C85.4589 115.512 85.2829 116.064 85.2189 116.704ZM98.6374 111.424L101.277 115.36L101.469 115.792L101.709 115.36L104.325 111.424H107.709L103.341 117.688L107.781 124H104.397L101.685 120.088L101.469 119.68L101.277 120.088L98.5894 124H95.2054L99.6454 117.76L95.2774 111.424H98.6374ZM109.323 124V111.424H112.539V124H109.323ZM109.323 109.672V106.48H112.539V109.672H109.323ZM120.073 124.24C119.001 124.24 117.977 124.064 117.001 123.712C116.025 123.36 115.185 122.84 114.481 122.152L115.633 120.064C116.385 120.672 117.121 121.12 117.841 121.408C118.577 121.696 119.281 121.84 119.953 121.84C120.577 121.84 121.073 121.728 121.441 121.504C121.825 121.28 122.017 120.944 122.017 120.496C122.017 120.192 121.913 119.96 121.705 119.8C121.497 119.624 121.193 119.472 120.793 119.344C120.409 119.216 119.937 119.072 119.377 118.912C118.449 118.608 117.673 118.312 117.049 118.024C116.425 117.736 115.953 117.376 115.633 116.944C115.329 116.496 115.177 115.928 115.177 115.24C115.177 114.408 115.385 113.696 115.801 113.104C116.233 112.496 116.825 112.024 117.577 111.688C118.345 111.352 119.241 111.184 120.265 111.184C121.161 111.184 122.009 111.328 122.809 111.616C123.609 111.888 124.337 112.336 124.993 112.96L123.697 115C123.057 114.504 122.449 114.144 121.873 113.92C121.297 113.68 120.713 113.56 120.121 113.56C119.785 113.56 119.465 113.6 119.161 113.68C118.873 113.76 118.633 113.896 118.441 114.088C118.265 114.264 118.177 114.52 118.177 114.856C118.177 115.16 118.257 115.4 118.417 115.576C118.593 115.736 118.849 115.88 119.185 116.008C119.537 116.136 119.961 116.28 120.457 116.44C121.465 116.728 122.313 117.024 123.001 117.328C123.705 117.632 124.233 118.008 124.585 118.456C124.937 118.888 125.113 119.488 125.113 120.256C125.113 121.504 124.657 122.48 123.745 123.184C122.833 123.888 121.609 124.24 120.073 124.24ZM134.766 123.352C134.494 123.464 134.166 123.592 133.782 123.736C133.398 123.88 132.982 123.992 132.534 124.072C132.102 124.168 131.662 124.216 131.214 124.216C130.622 124.216 130.078 124.112 129.582 123.904C129.086 123.696 128.686 123.368 128.382 122.92C128.094 122.456 127.95 121.856 127.95 121.12V113.896H126.294V111.424H127.95V107.344H131.166V111.424H133.806V113.896H131.166V120.04C131.182 120.472 131.302 120.784 131.526 120.976C131.75 121.168 132.03 121.264 132.366 121.264C132.702 121.264 133.03 121.208 133.35 121.096C133.67 120.984 133.926 120.888 134.118 120.808L134.766 123.352ZM136.441 124V111.424H139.657V124H136.441ZM136.441 109.672V106.48H139.657V109.672H136.441ZM154.246 124H151.03V116.944C151.03 115.936 150.854 115.2 150.502 114.736C150.15 114.272 149.662 114.04 149.038 114.04C148.606 114.04 148.166 114.152 147.718 114.376C147.286 114.6 146.894 114.912 146.542 115.312C146.19 115.696 145.934 116.144 145.774 116.656V124H142.558V111.424H145.462V113.752C145.782 113.208 146.19 112.752 146.686 112.384C147.182 112 147.75 111.712 148.39 111.52C149.046 111.312 149.734 111.208 150.454 111.208C151.238 111.208 151.878 111.352 152.374 111.64C152.886 111.912 153.27 112.288 153.526 112.768C153.798 113.232 153.982 113.76 154.078 114.352C154.19 114.944 154.246 115.544 154.246 116.152V124ZM161.962 124.072C161.13 124.072 160.362 123.912 159.658 123.592C158.97 123.256 158.37 122.792 157.858 122.2C157.362 121.608 156.978 120.928 156.706 120.16C156.434 119.392 156.298 118.576 156.298 117.712C156.298 116.8 156.442 115.952 156.73 115.168C157.018 114.384 157.418 113.696 157.93 113.104C158.458 112.496 159.074 112.032 159.778 111.712C160.498 111.376 161.29 111.208 162.154 111.208C163.13 111.208 163.986 111.432 164.722 111.88C165.458 112.312 166.066 112.896 166.546 113.632V111.424H169.354V123.4C169.354 124.648 169.05 125.712 168.442 126.592C167.85 127.488 167.026 128.168 165.97 128.632C164.914 129.112 163.714 129.352 162.37 129.352C161.01 129.352 159.858 129.12 158.914 128.656C157.97 128.208 157.162 127.568 156.49 126.736L158.242 125.032C158.722 125.624 159.322 126.088 160.042 126.424C160.778 126.76 161.554 126.928 162.37 126.928C163.058 126.928 163.682 126.8 164.242 126.544C164.818 126.304 165.274 125.92 165.61 125.392C165.962 124.88 166.138 124.216 166.138 123.4V121.816C165.722 122.536 165.13 123.096 164.362 123.496C163.61 123.88 162.81 124.072 161.962 124.072ZM163.042 121.504C163.394 121.504 163.73 121.448 164.05 121.336C164.37 121.224 164.666 121.072 164.938 120.88C165.21 120.688 165.45 120.464 165.658 120.208C165.866 119.936 166.026 119.664 166.138 119.392V116.392C165.946 115.896 165.674 115.464 165.322 115.096C164.986 114.728 164.602 114.448 164.17 114.256C163.754 114.048 163.314 113.944 162.85 113.944C162.354 113.944 161.906 114.048 161.506 114.256C161.106 114.464 160.762 114.76 160.474 115.144C160.186 115.512 159.962 115.928 159.802 116.392C159.658 116.84 159.586 117.312 159.586 117.808C159.586 118.32 159.674 118.8 159.85 119.248C160.026 119.696 160.266 120.088 160.57 120.424C160.89 120.76 161.258 121.024 161.674 121.216C162.106 121.408 162.562 121.504 163.042 121.504ZM183.827 124.24C182.803 124.24 181.883 124.072 181.067 123.736C180.251 123.384 179.555 122.904 178.979 122.296C178.419 121.688 177.987 120.992 177.683 120.208C177.379 119.424 177.227 118.6 177.227 117.736C177.227 116.856 177.379 116.024 177.683 115.24C177.987 114.456 178.419 113.76 178.979 113.152C179.555 112.544 180.251 112.072 181.067 111.736C181.883 111.384 182.803 111.208 183.827 111.208C184.851 111.208 185.763 111.384 186.563 111.736C187.379 112.072 188.075 112.544 188.651 113.152C189.227 113.76 189.659 114.456 189.947 115.24C190.251 116.024 190.403 116.856 190.403 117.736C190.403 118.6 190.251 119.424 189.947 120.208C189.659 120.992 189.227 121.688 188.651 122.296C188.091 122.904 187.403 123.384 186.587 123.736C185.771 124.072 184.851 124.24 183.827 124.24ZM180.539 117.736C180.539 118.472 180.683 119.128 180.971 119.704C181.259 120.264 181.651 120.704 182.147 121.024C182.643 121.344 183.203 121.504 183.827 121.504C184.435 121.504 184.987 121.344 185.483 121.024C185.979 120.688 186.371 120.24 186.659 119.68C186.963 119.104 187.115 118.448 187.115 117.712C187.115 116.992 186.963 116.344 186.659 115.768C186.371 115.192 185.979 114.744 185.483 114.424C184.987 114.104 184.435 113.944 183.827 113.944C183.203 113.944 182.643 114.112 182.147 114.448C181.651 114.768 181.259 115.216 180.971 115.792C180.683 116.352 180.539 117 180.539 117.736ZM204.261 124H201.045V116.944C201.045 115.936 200.869 115.2 200.517 114.736C200.165 114.272 199.677 114.04 199.053 114.04C198.621 114.04 198.181 114.152 197.733 114.376C197.301 114.6 196.909 114.912 196.557 115.312C196.205 115.696 195.949 116.144 195.789 116.656V124H192.573V111.424H195.477V113.752C195.797 113.208 196.205 112.752 196.701 112.384C197.197 112 197.765 111.712 198.405 111.52C199.061 111.312 199.749 111.208 200.469 111.208C201.253 111.208 201.893 111.352 202.389 111.64C202.901 111.912 203.285 112.288 203.541 112.768C203.813 113.232 203.997 113.76 204.093 114.352C204.205 114.944 204.261 115.544 204.261 116.152V124ZM212.89 124.24C211.882 124.24 210.97 124.072 210.154 123.736C209.338 123.384 208.642 122.912 208.066 122.32C207.49 121.712 207.042 121.024 206.722 120.256C206.418 119.472 206.266 118.648 206.266 117.784C206.266 116.584 206.53 115.488 207.058 114.496C207.602 113.504 208.37 112.712 209.362 112.12C210.37 111.512 211.554 111.208 212.914 111.208C214.29 111.208 215.466 111.512 216.442 112.12C217.418 112.712 218.162 113.504 218.674 114.496C219.202 115.472 219.466 116.528 219.466 117.664C219.466 117.856 219.458 118.056 219.442 118.264C219.426 118.456 219.41 118.616 219.394 118.744H209.674C209.738 119.384 209.922 119.944 210.226 120.424C210.546 120.904 210.946 121.272 211.426 121.528C211.922 121.768 212.45 121.888 213.01 121.888C213.65 121.888 214.25 121.736 214.81 121.432C215.386 121.112 215.778 120.696 215.986 120.184L218.746 120.952C218.442 121.592 218.002 122.16 217.426 122.656C216.866 123.152 216.202 123.544 215.434 123.832C214.666 124.104 213.818 124.24 212.89 124.24ZM209.602 116.704H216.178C216.114 116.064 215.93 115.512 215.626 115.048C215.338 114.568 214.954 114.2 214.474 113.944C213.994 113.672 213.458 113.536 212.866 113.536C212.29 113.536 211.762 113.672 211.282 113.944C210.818 114.2 210.434 114.568 210.13 115.048C209.842 115.512 209.666 116.064 209.602 116.704Z" fill="#D1D8FF"/>
<path d="M88.5544 95.24C87.5304 95.24 86.6104 95.072 85.7944 94.736C84.9784 94.384 84.2824 93.904 83.7064 93.296C83.1304 92.672 82.6824 91.968 82.3624 91.184C82.0584 90.4 81.9064 89.576 81.9064 88.712C81.9064 87.528 82.1704 86.448 82.6984 85.472C83.2424 84.48 84.0104 83.688 85.0024 83.096C85.9944 82.504 87.1704 82.208 88.5304 82.208C89.8904 82.208 91.0584 82.504 92.0344 83.096C93.0104 83.688 93.7384 84.464 94.2184 85.424L91.0744 86.384C90.8024 85.92 90.4424 85.568 89.9944 85.328C89.5464 85.072 89.0504 84.944 88.5064 84.944C87.8984 84.944 87.3384 85.104 86.8264 85.424C86.3304 85.728 85.9384 86.168 85.6504 86.744C85.3624 87.304 85.2184 87.96 85.2184 88.712C85.2184 89.448 85.3624 90.104 85.6504 90.68C85.9544 91.24 86.3544 91.688 86.8504 92.024C87.3464 92.344 87.8984 92.504 88.5064 92.504C88.8904 92.504 89.2504 92.44 89.5864 92.312C89.9384 92.184 90.2504 92.008 90.5224 91.784C90.7944 91.56 90.9944 91.304 91.1224 91.016L94.2664 91.976C93.9784 92.6 93.5544 93.16 92.9944 93.656C92.4504 94.152 91.8024 94.544 91.0504 94.832C90.3144 95.104 89.4824 95.24 88.5544 95.24ZM101.936 95.24C100.912 95.24 99.9921 95.072 99.1761 94.736C98.3601 94.384 97.6641 93.904 97.0881 93.296C96.5281 92.688 96.0961 91.992 95.7921 91.208C95.4881 90.424 95.3361 89.6 95.3361 88.736C95.3361 87.856 95.4881 87.024 95.7921 86.24C96.0961 85.456 96.5281 84.76 97.0881 84.152C97.6641 83.544 98.3601 83.072 99.1761 82.736C99.9921 82.384 100.912 82.208 101.936 82.208C102.96 82.208 103.872 82.384 104.672 82.736C105.488 83.072 106.184 83.544 106.76 84.152C107.336 84.76 107.768 85.456 108.056 86.24C108.36 87.024 108.512 87.856 108.512 88.736C108.512 89.6 108.36 90.424 108.056 91.208C107.768 91.992 107.336 92.688 106.76 93.296C106.2 93.904 105.512 94.384 104.696 94.736C103.88 95.072 102.96 95.24 101.936 95.24ZM98.6481 88.736C98.6481 89.472 98.7921 90.128 99.0801 90.704C99.3681 91.264 99.7601 91.704 100.256 92.024C100.752 92.344 101.312 92.504 101.936 92.504C102.544 92.504 103.096 92.344 103.592 92.024C104.088 91.688 104.48 91.24 104.768 90.68C105.072 90.104 105.224 89.448 105.224 88.712C105.224 87.992 105.072 87.344 104.768 86.768C104.48 86.192 104.088 85.744 103.592 85.424C103.096 85.104 102.544 84.944 101.936 84.944C101.312 84.944 100.752 85.112 100.256 85.448C99.7601 85.768 99.3681 86.216 99.0801 86.792C98.7921 87.352 98.6481 88 98.6481 88.736ZM130.219 95H127.003V87.944C127.003 86.952 126.827 86.224 126.475 85.76C126.139 85.28 125.667 85.04 125.059 85.04C124.435 85.04 123.835 85.288 123.259 85.784C122.699 86.264 122.299 86.896 122.059 87.68V95H118.843V87.944C118.843 86.936 118.667 86.2 118.315 85.736C117.979 85.272 117.507 85.04 116.899 85.04C116.275 85.04 115.675 85.28 115.099 85.76C114.539 86.24 114.139 86.872 113.899 87.656V95H110.683V82.424H113.587V84.752C114.067 83.936 114.707 83.312 115.507 82.88C116.307 82.432 117.227 82.208 118.267 82.208C119.307 82.208 120.115 82.464 120.691 82.976C121.283 83.488 121.659 84.12 121.819 84.872C122.331 84.008 122.979 83.352 123.763 82.904C124.563 82.44 125.459 82.208 126.451 82.208C127.235 82.208 127.867 82.352 128.347 82.64C128.843 82.912 129.227 83.288 129.499 83.768C129.771 84.232 129.955 84.76 130.051 85.352C130.163 85.944 130.219 86.544 130.219 87.152V95ZM152.555 95H149.339V87.944C149.339 86.952 149.163 86.224 148.811 85.76C148.475 85.28 148.003 85.04 147.395 85.04C146.771 85.04 146.171 85.288 145.595 85.784C145.035 86.264 144.635 86.896 144.395 87.68V95H141.179V87.944C141.179 86.936 141.003 86.2 140.651 85.736C140.315 85.272 139.843 85.04 139.235 85.04C138.611 85.04 138.011 85.28 137.435 85.76C136.875 86.24 136.475 86.872 136.235 87.656V95H133.019V82.424H135.923V84.752C136.403 83.936 137.043 83.312 137.843 82.88C138.643 82.432 139.563 82.208 140.603 82.208C141.643 82.208 142.451 82.464 143.027 82.976C143.619 83.488 143.995 84.12 144.155 84.872C144.667 84.008 145.315 83.352 146.099 82.904C146.899 82.44 147.795 82.208 148.787 82.208C149.571 82.208 150.203 82.352 150.683 82.64C151.179 82.912 151.563 83.288 151.835 83.768C152.107 84.232 152.291 84.76 152.387 85.352C152.499 85.944 152.555 86.544 152.555 87.152V95ZM155.235 90.296V82.424H158.451V89.6C158.451 90.56 158.627 91.288 158.979 91.784C159.331 92.264 159.851 92.504 160.539 92.504C160.955 92.504 161.363 92.424 161.763 92.264C162.179 92.088 162.555 91.832 162.891 91.496C163.243 91.16 163.539 90.736 163.779 90.224V82.424H166.995V91.4C166.995 91.736 167.051 91.976 167.163 92.12C167.291 92.264 167.491 92.352 167.763 92.384V95C167.443 95.048 167.171 95.08 166.947 95.096C166.739 95.128 166.547 95.144 166.371 95.144C165.795 95.144 165.323 95.016 164.955 94.76C164.603 94.488 164.395 94.12 164.331 93.656L164.259 92.648C163.699 93.496 162.979 94.144 162.099 94.592C161.219 95.024 160.251 95.24 159.195 95.24C157.899 95.24 156.915 94.824 156.243 93.992C155.571 93.144 155.235 91.912 155.235 90.296ZM181.879 95H178.663V87.944C178.663 86.936 178.487 86.2 178.135 85.736C177.783 85.272 177.295 85.04 176.671 85.04C176.239 85.04 175.799 85.152 175.351 85.376C174.919 85.6 174.527 85.912 174.175 86.312C173.823 86.696 173.567 87.144 173.407 87.656V95H170.191V82.424H173.095V84.752C173.415 84.208 173.823 83.752 174.319 83.384C174.815 83 175.383 82.712 176.023 82.52C176.679 82.312 177.367 82.208 178.087 82.208C178.871 82.208 179.511 82.352 180.007 82.64C180.519 82.912 180.903 83.288 181.159 83.768C181.431 84.232 181.615 84.76 181.711 85.352C181.823 85.944 181.879 86.544 181.879 87.152V95ZM184.675 95V82.424H187.891V95H184.675ZM184.675 80.672V77.48H187.891V80.672H184.675ZM198.328 94.352C198.056 94.464 197.728 94.592 197.344 94.736C196.96 94.88 196.544 94.992 196.096 95.072C195.664 95.168 195.224 95.216 194.776 95.216C194.184 95.216 193.64 95.112 193.144 94.904C192.648 94.696 192.248 94.368 191.944 93.92C191.656 93.456 191.512 92.856 191.512 92.12V84.896H189.856V82.424H191.512V78.344H194.728V82.424H197.368V84.896H194.728V91.04C194.744 91.472 194.864 91.784 195.088 91.976C195.312 92.168 195.592 92.264 195.928 92.264C196.264 92.264 196.592 92.208 196.912 92.096C197.232 91.984 197.488 91.888 197.68 91.808L198.328 94.352ZM200.22 97.448C200.508 97.512 200.772 97.568 201.012 97.616C201.268 97.664 201.484 97.688 201.66 97.688C201.964 97.688 202.212 97.608 202.404 97.448C202.612 97.304 202.812 97.032 203.004 96.632C203.196 96.248 203.396 95.704 203.604 95L198.636 82.424H201.972L205.356 91.712L208.332 82.424H211.404L206.124 97.496C205.932 98.056 205.636 98.56 205.236 99.008C204.852 99.472 204.364 99.832 203.772 100.088C203.196 100.36 202.548 100.496 201.828 100.496C201.572 100.496 201.316 100.472 201.06 100.424C200.804 100.392 200.524 100.328 200.22 100.232V97.448Z" fill="#00BD7B"/>
<path d="M6.21 145.292H7.74L9.432 149.738L11.142 145.292H12.672L10.458 150.854L12.654 156.128L16.974 145.22H18.738L13.392 158H11.988L9.45 151.97L6.894 158H5.49L0.162 145.22H1.908L6.246 156.128L8.424 150.854L6.21 145.292ZM28.3109 158H26.7269V152.744C26.7269 151.784 26.5529 151.064 26.2049 150.584C25.8689 150.104 25.3829 149.864 24.7469 149.864C24.3389 149.864 23.9249 149.972 23.5049 150.188C23.0969 150.404 22.7369 150.698 22.4249 151.07C22.1129 151.43 21.8849 151.85 21.7409 152.33V158H20.1569V144.86H21.7409V150.62C22.1129 149.948 22.6169 149.42 23.2529 149.036C23.9009 148.64 24.5969 148.442 25.3409 148.442C25.9049 148.442 26.3729 148.544 26.7449 148.748C27.1289 148.94 27.4349 149.216 27.6629 149.576C27.8909 149.936 28.0529 150.356 28.1489 150.836C28.2569 151.304 28.3109 151.82 28.3109 152.384V158ZM34.9321 158.18C34.2241 158.18 33.5761 158.054 32.9881 157.802C32.4121 157.538 31.9081 157.184 31.4761 156.74C31.0561 156.284 30.7261 155.762 30.4861 155.174C30.2581 154.586 30.1441 153.962 30.1441 153.302C30.1441 152.414 30.3481 151.604 30.7561 150.872C31.1641 150.14 31.7281 149.552 32.4481 149.108C33.1801 148.664 34.0141 148.442 34.9501 148.442C35.8981 148.442 36.7201 148.67 37.4161 149.126C38.1241 149.57 38.6701 150.158 39.0541 150.89C39.4501 151.61 39.6481 152.39 39.6481 153.23C39.6481 153.35 39.6421 153.47 39.6301 153.59C39.6301 153.698 39.6241 153.782 39.6121 153.842H31.8181C31.8661 154.454 32.0341 155 32.3221 155.48C32.6221 155.948 33.0061 156.32 33.4741 156.596C33.9421 156.86 34.4461 156.992 34.9861 156.992C35.5621 156.992 36.1021 156.848 36.6061 156.56C37.1221 156.272 37.4761 155.894 37.6681 155.426L39.0361 155.804C38.8321 156.26 38.5261 156.668 38.1181 157.028C37.7221 157.388 37.2481 157.67 36.6961 157.874C36.1561 158.078 35.5681 158.18 34.9321 158.18ZM31.7641 152.744H38.1721C38.1241 152.132 37.9501 151.592 37.6501 151.124C37.3501 150.656 36.9661 150.29 36.4981 150.026C36.0301 149.762 35.5141 149.63 34.9501 149.63C34.3981 149.63 33.8881 149.762 33.4201 150.026C32.9521 150.29 32.5681 150.656 32.2681 151.124C31.9801 151.592 31.8121 152.132 31.7641 152.744ZM46.181 157.532C46.049 157.592 45.869 157.67 45.641 157.766C45.413 157.862 45.149 157.946 44.849 158.018C44.549 158.09 44.231 158.126 43.895 158.126C43.511 158.126 43.157 158.06 42.833 157.928C42.509 157.784 42.251 157.568 42.059 157.28C41.867 156.98 41.771 156.608 41.771 156.164V149.846H40.493V148.604H41.771V145.472H43.355V148.604H45.461V149.846H43.355V155.678C43.379 156.014 43.493 156.266 43.697 156.434C43.901 156.59 44.141 156.668 44.417 156.668C44.729 156.668 45.017 156.614 45.281 156.506C45.545 156.398 45.719 156.32 45.803 156.272L46.181 157.532ZM55.8031 158H54.2191V152.744C54.2191 151.784 54.0451 151.064 53.6971 150.584C53.3611 150.104 52.8751 149.864 52.2391 149.864C51.8311 149.864 51.4171 149.972 50.9971 150.188C50.5891 150.404 50.2291 150.698 49.9171 151.07C49.6051 151.43 49.3771 151.85 49.2331 152.33V158H47.6491V144.86H49.2331V150.62C49.6051 149.948 50.1091 149.42 50.7451 149.036C51.3931 148.64 52.0891 148.442 52.8331 148.442C53.3971 148.442 53.8651 148.544 54.2371 148.748C54.6211 148.94 54.9271 149.216 55.1551 149.576C55.3831 149.936 55.5451 150.356 55.6411 150.836C55.7491 151.304 55.8031 151.82 55.8031 152.384V158ZM62.4243 158.18C61.7163 158.18 61.0683 158.054 60.4803 157.802C59.9043 157.538 59.4003 157.184 58.9683 156.74C58.5483 156.284 58.2183 155.762 57.9783 155.174C57.7503 154.586 57.6363 153.962 57.6363 153.302C57.6363 152.414 57.8403 151.604 58.2483 150.872C58.6563 150.14 59.2203 149.552 59.9403 149.108C60.6723 148.664 61.5063 148.442 62.4423 148.442C63.3903 148.442 64.2123 148.67 64.9083 149.126C65.6163 149.57 66.1623 150.158 66.5463 150.89C66.9423 151.61 67.1403 152.39 67.1403 153.23C67.1403 153.35 67.1343 153.47 67.1223 153.59C67.1223 153.698 67.1163 153.782 67.1043 153.842H59.3103C59.3583 154.454 59.5263 155 59.8143 155.48C60.1143 155.948 60.4983 156.32 60.9663 156.596C61.4343 156.86 61.9383 156.992 62.4783 156.992C63.0543 156.992 63.5943 156.848 64.0983 156.56C64.6143 156.272 64.9683 155.894 65.1603 155.426L66.5283 155.804C66.3243 156.26 66.0183 156.668 65.6103 157.028C65.2143 157.388 64.7403 157.67 64.1883 157.874C63.6483 158.078 63.0603 158.18 62.4243 158.18ZM59.2563 152.744H65.6643C65.6163 152.132 65.4423 151.592 65.1423 151.124C64.8423 150.656 64.4583 150.29 63.9903 150.026C63.5223 149.762 63.0063 149.63 62.4423 149.63C61.8903 149.63 61.3803 149.762 60.9123 150.026C60.4443 150.29 60.0603 150.656 59.7603 151.124C59.4723 151.592 59.3043 152.132 59.2563 152.744ZM73.869 149.99C73.077 150.002 72.375 150.206 71.763 150.602C71.163 150.986 70.737 151.52 70.485 152.204V158H68.901V148.604H70.377V150.782C70.701 150.134 71.127 149.612 71.655 149.216C72.195 148.808 72.759 148.58 73.347 148.532C73.467 148.532 73.569 148.532 73.653 148.532C73.737 148.532 73.809 148.538 73.869 148.55V149.99ZM79.5108 160.556C79.6668 160.568 79.8228 160.58 79.9788 160.592C80.1348 160.616 80.2548 160.628 80.3388 160.628C80.5308 160.628 80.6988 160.562 80.8428 160.43C80.9868 160.298 81.1428 160.04 81.3108 159.656C81.4908 159.284 81.7188 158.732 81.9948 158L78.0168 148.604H79.6908L82.8588 156.398L85.7208 148.604H87.2868L82.7148 160.466C82.6068 160.742 82.4448 161 82.2288 161.24C82.0248 161.492 81.7608 161.69 81.4368 161.834C81.1128 161.978 80.7228 162.05 80.2668 162.05C80.1588 162.05 80.0448 162.044 79.9248 162.032C79.8168 162.02 79.6788 161.996 79.5108 161.96V160.556ZM92.6574 158.18C91.9494 158.18 91.3074 158.054 90.7314 157.802C90.1554 157.538 89.6574 157.184 89.2374 156.74C88.8174 156.284 88.4934 155.762 88.2654 155.174C88.0374 154.586 87.9234 153.968 87.9234 153.32C87.9234 152.66 88.0374 152.036 88.2654 151.448C88.4934 150.86 88.8174 150.344 89.2374 149.9C89.6574 149.444 90.1554 149.09 90.7314 148.838C91.3194 148.574 91.9614 148.442 92.6574 148.442C93.3654 148.442 94.0074 148.574 94.5834 148.838C95.1594 149.09 95.6574 149.444 96.0774 149.9C96.5094 150.344 96.8394 150.86 97.0674 151.448C97.2954 152.036 97.4094 152.66 97.4094 153.32C97.4094 153.968 97.2954 154.586 97.0674 155.174C96.8394 155.762 96.5154 156.284 96.0954 156.74C95.6754 157.184 95.1714 157.538 94.5834 157.802C94.0074 158.054 93.3654 158.18 92.6574 158.18ZM89.5434 153.338C89.5434 153.986 89.6814 154.574 89.9574 155.102C90.2454 155.63 90.6234 156.05 91.0914 156.362C91.5594 156.662 92.0814 156.812 92.6574 156.812C93.2334 156.812 93.7554 156.656 94.2234 156.344C94.7034 156.032 95.0814 155.612 95.3574 155.084C95.6454 154.544 95.7894 153.95 95.7894 153.302C95.7894 152.654 95.6454 152.066 95.3574 151.538C95.0814 151.01 94.7034 150.59 94.2234 150.278C93.7554 149.966 93.2334 149.81 92.6574 149.81C92.0814 149.81 91.5594 149.972 91.0914 150.296C90.6234 150.608 90.2454 151.028 89.9574 151.556C89.6814 152.084 89.5434 152.678 89.5434 153.338ZM99.2388 154.238V148.604H100.823V153.932C100.823 154.892 100.991 155.612 101.327 156.092C101.663 156.572 102.161 156.812 102.821 156.812C103.253 156.812 103.667 156.722 104.063 156.542C104.471 156.35 104.837 156.08 105.161 155.732C105.485 155.384 105.737 154.97 105.917 154.49V148.604H107.501V156.2C107.501 156.392 107.537 156.536 107.609 156.632C107.693 156.716 107.825 156.764 108.005 156.776V158C107.825 158.024 107.681 158.036 107.573 158.036C107.477 158.048 107.381 158.054 107.285 158.054C106.985 158.054 106.727 157.964 106.511 157.784C106.295 157.592 106.181 157.358 106.169 157.082L106.133 155.984C105.725 156.68 105.173 157.22 104.477 157.604C103.793 157.988 103.043 158.18 102.227 158.18C101.243 158.18 100.499 157.85 99.9948 157.19C99.4908 156.518 99.2388 155.534 99.2388 154.238ZM109.208 148.982L109.568 146.912H109.028V144.86H110.522V146.912L109.982 148.982H109.208ZM116.742 149.99C115.95 150.002 115.248 150.206 114.636 150.602C114.036 150.986 113.61 151.52 113.358 152.204V158H111.774V148.604H113.25V150.782C113.574 150.134 114 149.612 114.528 149.216C115.068 148.808 115.632 148.58 116.22 148.532C116.34 148.532 116.442 148.532 116.526 148.532C116.61 148.532 116.682 148.538 116.742 148.55V149.99ZM122.243 158.18C121.535 158.18 120.887 158.054 120.299 157.802C119.723 157.538 119.219 157.184 118.787 156.74C118.367 156.284 118.037 155.762 117.797 155.174C117.569 154.586 117.455 153.962 117.455 153.302C117.455 152.414 117.659 151.604 118.067 150.872C118.475 150.14 119.039 149.552 119.759 149.108C120.491 148.664 121.325 148.442 122.261 148.442C123.209 148.442 124.031 148.67 124.727 149.126C125.435 149.57 125.981 150.158 126.365 150.89C126.761 151.61 126.959 152.39 126.959 153.23C126.959 153.35 126.953 153.47 126.941 153.59C126.941 153.698 126.935 153.782 126.923 153.842H119.129C119.177 154.454 119.345 155 119.633 155.48C119.933 155.948 120.317 156.32 120.785 156.596C121.253 156.86 121.757 156.992 122.297 156.992C122.873 156.992 123.413 156.848 123.917 156.56C124.433 156.272 124.787 155.894 124.979 155.426L126.347 155.804C126.143 156.26 125.837 156.668 125.429 157.028C125.033 157.388 124.559 157.67 124.007 157.874C123.467 158.078 122.879 158.18 122.243 158.18ZM119.075 152.744H125.483C125.435 152.132 125.261 151.592 124.961 151.124C124.661 150.656 124.277 150.29 123.809 150.026C123.341 149.762 122.825 149.63 122.261 149.63C121.709 149.63 121.199 149.762 120.731 150.026C120.263 150.29 119.879 150.656 119.579 151.124C119.291 151.592 119.123 152.132 119.075 152.744ZM136.494 158.18C135.714 158.18 134.982 158.054 134.298 157.802C133.614 157.538 133.026 157.148 132.534 156.632L133.146 155.516C133.686 156.02 134.226 156.38 134.766 156.596C135.306 156.812 135.858 156.92 136.422 156.92C137.07 156.92 137.598 156.8 138.006 156.56C138.414 156.308 138.618 155.942 138.618 155.462C138.618 155.114 138.51 154.856 138.294 154.688C138.09 154.52 137.796 154.382 137.412 154.274C137.028 154.154 136.572 154.022 136.044 153.878C135.396 153.686 134.85 153.482 134.406 153.266C133.962 153.05 133.626 152.78 133.398 152.456C133.17 152.132 133.056 151.724 133.056 151.232C133.056 150.632 133.212 150.128 133.524 149.72C133.836 149.3 134.262 148.982 134.802 148.766C135.354 148.55 135.978 148.442 136.674 148.442C137.37 148.442 138 148.55 138.564 148.766C139.128 148.982 139.614 149.3 140.022 149.72L139.302 150.818C138.93 150.434 138.522 150.152 138.078 149.972C137.634 149.78 137.136 149.684 136.584 149.684C136.26 149.684 135.942 149.726 135.63 149.81C135.318 149.882 135.06 150.02 134.856 150.224C134.652 150.416 134.55 150.692 134.55 151.052C134.55 151.352 134.628 151.592 134.784 151.772C134.952 151.94 135.192 152.084 135.504 152.204C135.828 152.324 136.218 152.456 136.674 152.6C137.382 152.804 137.994 153.008 138.51 153.212C139.038 153.416 139.446 153.68 139.734 154.004C140.022 154.328 140.166 154.778 140.166 155.354C140.166 156.242 139.83 156.938 139.158 157.442C138.486 157.934 137.598 158.18 136.494 158.18ZM146.921 157.532C146.789 157.592 146.609 157.67 146.381 157.766C146.153 157.862 145.889 157.946 145.589 158.018C145.289 158.09 144.971 158.126 144.635 158.126C144.251 158.126 143.897 158.06 143.573 157.928C143.249 157.784 142.991 157.568 142.799 157.28C142.607 156.98 142.511 156.608 142.511 156.164V149.846H141.233V148.604H142.511V145.472H144.095V148.604H146.201V149.846H144.095V155.678C144.119 156.014 144.233 156.266 144.437 156.434C144.641 156.59 144.881 156.668 145.157 156.668C145.469 156.668 145.757 156.614 146.021 156.506C146.285 156.398 146.459 156.32 146.543 156.272L146.921 157.532ZM147.651 155.282C147.651 154.682 147.819 154.166 148.155 153.734C148.503 153.29 148.977 152.948 149.577 152.708C150.177 152.468 150.873 152.348 151.665 152.348C152.085 152.348 152.529 152.384 152.997 152.456C153.465 152.516 153.879 152.612 154.239 152.744V152.06C154.239 151.34 154.023 150.776 153.591 150.368C153.159 149.948 152.547 149.738 151.755 149.738C151.239 149.738 150.741 149.834 150.261 150.026C149.793 150.206 149.295 150.47 148.767 150.818L148.191 149.702C148.803 149.282 149.415 148.97 150.027 148.766C150.639 148.55 151.275 148.442 151.935 148.442C153.135 148.442 154.083 148.778 154.779 149.45C155.475 150.11 155.823 151.034 155.823 152.222V156.2C155.823 156.392 155.859 156.536 155.931 156.632C156.015 156.716 156.147 156.764 156.327 156.776V158C156.171 158.024 156.033 158.042 155.913 158.054C155.805 158.066 155.715 158.072 155.643 158.072C155.271 158.072 154.989 157.97 154.797 157.766C154.617 157.562 154.515 157.346 154.491 157.118L154.455 156.524C154.047 157.052 153.513 157.46 152.853 157.748C152.193 158.036 151.539 158.18 150.891 158.18C150.267 158.18 149.709 158.054 149.217 157.802C148.725 157.538 148.341 157.19 148.065 156.758C147.789 156.314 147.651 155.822 147.651 155.282ZM153.771 155.948C153.915 155.78 154.029 155.612 154.113 155.444C154.197 155.264 154.239 155.114 154.239 154.994V153.824C153.867 153.68 153.477 153.572 153.069 153.5C152.661 153.416 152.259 153.374 151.863 153.374C151.059 153.374 150.405 153.536 149.901 153.86C149.409 154.172 149.163 154.604 149.163 155.156C149.163 155.456 149.241 155.75 149.397 156.038C149.565 156.314 149.805 156.542 150.117 156.722C150.441 156.902 150.837 156.992 151.305 156.992C151.797 156.992 152.265 156.896 152.709 156.704C153.153 156.5 153.507 156.248 153.771 155.948ZM163.324 149.99C162.532 150.002 161.83 150.206 161.218 150.602C160.618 150.986 160.192 151.52 159.94 152.204V158H158.356V148.604H159.832V150.782C160.156 150.134 160.582 149.612 161.11 149.216C161.65 148.808 162.214 148.58 162.802 148.532C162.922 148.532 163.024 148.532 163.108 148.532C163.192 148.532 163.264 148.538 163.324 148.55V149.99ZM169.755 157.532C169.623 157.592 169.443 157.67 169.215 157.766C168.987 157.862 168.723 157.946 168.423 158.018C168.123 158.09 167.805 158.126 167.469 158.126C167.085 158.126 166.731 158.06 166.407 157.928C166.083 157.784 165.825 157.568 165.633 157.28C165.441 156.98 165.345 156.608 165.345 156.164V149.846H164.067V148.604H165.345V145.472H166.929V148.604H169.035V149.846H166.929V155.678C166.953 156.014 167.067 156.266 167.271 156.434C167.475 156.59 167.715 156.668 167.991 156.668C168.303 156.668 168.591 156.614 168.855 156.506C169.119 156.398 169.293 156.32 169.377 156.272L169.755 157.532ZM171.223 158V148.604H172.807V158H171.223ZM171.223 146.84V144.86H172.807V146.84H171.223ZM183.526 158H181.942V152.744C181.942 151.748 181.786 151.022 181.474 150.566C181.174 150.098 180.712 149.864 180.088 149.864C179.656 149.864 179.224 149.972 178.792 150.188C178.372 150.404 177.994 150.698 177.658 151.07C177.334 151.43 177.1 151.85 176.956 152.33V158H175.372V148.604H176.812V150.62C177.064 150.176 177.388 149.792 177.784 149.468C178.18 149.144 178.63 148.892 179.134 148.712C179.638 148.532 180.166 148.442 180.718 148.442C181.258 148.442 181.708 148.544 182.068 148.748C182.44 148.94 182.728 149.216 182.932 149.576C183.148 149.924 183.298 150.338 183.382 150.818C183.478 151.298 183.526 151.82 183.526 152.384V158ZM189.733 158.108C189.097 158.108 188.509 157.982 187.969 157.73C187.441 157.466 186.985 157.112 186.601 156.668C186.217 156.212 185.917 155.696 185.701 155.12C185.497 154.544 185.395 153.944 185.395 153.32C185.395 152.66 185.497 152.036 185.701 151.448C185.917 150.86 186.217 150.344 186.601 149.9C186.997 149.444 187.459 149.09 187.987 148.838C188.515 148.574 189.103 148.442 189.751 148.442C190.531 148.442 191.209 148.634 191.785 149.018C192.373 149.402 192.865 149.888 193.261 150.476V148.604H194.665V157.892C194.665 158.78 194.449 159.53 194.017 160.142C193.597 160.754 193.021 161.216 192.289 161.528C191.569 161.852 190.765 162.014 189.877 162.014C188.821 162.014 187.957 161.828 187.285 161.456C186.613 161.084 186.055 160.58 185.611 159.944L186.529 159.134C186.901 159.686 187.381 160.1 187.969 160.376C188.569 160.652 189.205 160.79 189.877 160.79C190.453 160.79 190.981 160.682 191.461 160.466C191.953 160.262 192.343 159.944 192.631 159.512C192.931 159.08 193.081 158.54 193.081 157.892V156.236C192.733 156.812 192.253 157.268 191.641 157.604C191.041 157.94 190.405 158.108 189.733 158.108ZM190.219 156.812C190.555 156.812 190.879 156.752 191.191 156.632C191.503 156.512 191.791 156.356 192.055 156.164C192.319 155.96 192.541 155.732 192.721 155.48C192.901 155.228 193.021 154.97 193.081 154.706V152.006C192.913 151.574 192.673 151.196 192.361 150.872C192.049 150.536 191.695 150.278 191.299 150.098C190.903 149.906 190.495 149.81 190.075 149.81C189.595 149.81 189.163 149.912 188.779 150.116C188.407 150.32 188.089 150.596 187.825 150.944C187.561 151.28 187.357 151.658 187.213 152.078C187.069 152.498 186.997 152.924 186.997 153.356C186.997 153.824 187.081 154.268 187.249 154.688C187.417 155.096 187.645 155.462 187.933 155.786C188.221 156.11 188.563 156.362 188.959 156.542C189.355 156.722 189.775 156.812 190.219 156.812ZM205.878 158.18C205.17 158.18 204.528 158.054 203.952 157.802C203.376 157.538 202.878 157.184 202.458 156.74C202.038 156.284 201.714 155.762 201.486 155.174C201.258 154.586 201.144 153.968 201.144 153.32C201.144 152.66 201.258 152.036 201.486 151.448C201.714 150.86 202.038 150.344 202.458 149.9C202.878 149.444 203.376 149.09 203.952 148.838C204.54 148.574 205.182 148.442 205.878 148.442C206.586 148.442 207.228 148.574 207.804 148.838C208.38 149.09 208.878 149.444 209.298 149.9C209.73 150.344 210.06 150.86 210.288 151.448C210.516 152.036 210.63 152.66 210.63 153.32C210.63 153.968 210.516 154.586 210.288 155.174C210.06 155.762 209.736 156.284 209.316 156.74C208.896 157.184 208.392 157.538 207.804 157.802C207.228 158.054 206.586 158.18 205.878 158.18ZM202.764 153.338C202.764 153.986 202.902 154.574 203.178 155.102C203.466 155.63 203.844 156.05 204.312 156.362C204.78 156.662 205.302 156.812 205.878 156.812C206.454 156.812 206.976 156.656 207.444 156.344C207.924 156.032 208.302 155.612 208.578 155.084C208.866 154.544 209.01 153.95 209.01 153.302C209.01 152.654 208.866 152.066 208.578 151.538C208.302 151.01 207.924 150.59 207.444 150.278C206.976 149.966 206.454 149.81 205.878 149.81C205.302 149.81 204.78 149.972 204.312 150.296C203.844 150.608 203.466 151.028 203.178 151.556C202.902 152.084 202.764 152.678 202.764 153.338ZM217.517 149.99C216.725 150.002 216.023 150.206 215.411 150.602C214.811 150.986 214.385 151.52 214.133 152.204V158H212.549V148.604H214.025V150.782C214.349 150.134 214.775 149.612 215.303 149.216C215.843 148.808 216.407 148.58 216.995 148.532C217.115 148.532 217.217 148.532 217.301 148.532C217.385 148.532 217.457 148.538 217.517 148.55V149.99ZM222.013 161.348C221.605 161.348 221.215 161.288 220.843 161.168C220.471 161.048 220.141 160.856 219.853 160.592L220.591 159.53C220.759 159.686 220.957 159.794 221.185 159.854C221.401 159.914 221.617 159.944 221.833 159.944C222.097 159.944 222.343 159.878 222.571 159.746C222.799 159.614 222.985 159.428 223.129 159.188C223.273 158.96 223.345 158.702 223.345 158.414V148.604H224.929V158.306C224.929 158.894 224.791 159.416 224.515 159.872C224.239 160.34 223.879 160.7 223.435 160.952C223.003 161.216 222.529 161.348 222.013 161.348ZM223.345 146.84V144.86H224.929V146.84H223.345ZM231.595 158.18C230.887 158.18 230.245 158.054 229.669 157.802C229.093 157.538 228.595 157.184 228.175 156.74C227.755 156.284 227.431 155.762 227.203 155.174C226.975 154.586 226.861 153.968 226.861 153.32C226.861 152.66 226.975 152.036 227.203 151.448C227.431 150.86 227.755 150.344 228.175 149.9C228.595 149.444 229.093 149.09 229.669 148.838C230.257 148.574 230.899 148.442 231.595 148.442C232.303 148.442 232.945 148.574 233.521 148.838C234.097 149.09 234.595 149.444 235.015 149.9C235.447 150.344 235.777 150.86 236.005 151.448C236.233 152.036 236.347 152.66 236.347 153.32C236.347 153.968 236.233 154.586 236.005 155.174C235.777 155.762 235.453 156.284 235.033 156.74C234.613 157.184 234.109 157.538 233.521 157.802C232.945 158.054 232.303 158.18 231.595 158.18ZM228.481 153.338C228.481 153.986 228.619 154.574 228.895 155.102C229.183 155.63 229.561 156.05 230.029 156.362C230.497 156.662 231.019 156.812 231.595 156.812C232.171 156.812 232.693 156.656 233.161 156.344C233.641 156.032 234.019 155.612 234.295 155.084C234.583 154.544 234.727 153.95 234.727 153.302C234.727 152.654 234.583 152.066 234.295 151.538C234.019 151.01 233.641 150.59 233.161 150.278C232.693 149.966 232.171 149.81 231.595 149.81C231.019 149.81 230.497 149.972 230.029 150.296C229.561 150.608 229.183 151.028 228.895 151.556C228.619 152.084 228.481 152.678 228.481 153.338ZM238.266 158V148.604H239.85V158H238.266ZM238.266 146.84V144.86H239.85V146.84H238.266ZM250.569 158H248.985V152.744C248.985 151.748 248.829 151.022 248.517 150.566C248.217 150.098 247.755 149.864 247.131 149.864C246.699 149.864 246.267 149.972 245.835 150.188C245.415 150.404 245.037 150.698 244.701 151.07C244.377 151.43 244.143 151.85 243.999 152.33V158H242.415V148.604H243.855V150.62C244.107 150.176 244.431 149.792 244.827 149.468C245.223 149.144 245.673 148.892 246.177 148.712C246.681 148.532 247.209 148.442 247.761 148.442C248.301 148.442 248.751 148.544 249.111 148.748C249.483 148.94 249.771 149.216 249.975 149.576C250.191 149.924 250.341 150.338 250.425 150.818C250.521 151.298 250.569 151.82 250.569 152.384V158ZM253.032 158V148.604H254.616V158H253.032ZM253.032 146.84V144.86H254.616V146.84H253.032ZM265.334 158H263.75V152.744C263.75 151.748 263.594 151.022 263.282 150.566C262.982 150.098 262.52 149.864 261.896 149.864C261.464 149.864 261.032 149.972 260.6 150.188C260.18 150.404 259.802 150.698 259.466 151.07C259.142 151.43 258.908 151.85 258.764 152.33V158H257.18V148.604H258.62V150.62C258.872 150.176 259.196 149.792 259.592 149.468C259.988 149.144 260.438 148.892 260.942 148.712C261.446 148.532 261.974 148.442 262.526 148.442C263.066 148.442 263.516 148.544 263.876 148.748C264.248 148.94 264.536 149.216 264.74 149.576C264.956 149.924 265.106 150.338 265.19 150.818C265.286 151.298 265.334 151.82 265.334 152.384V158ZM271.542 158.108C270.906 158.108 270.318 157.982 269.778 157.73C269.25 157.466 268.794 157.112 268.41 156.668C268.026 156.212 267.726 155.696 267.51 155.12C267.306 154.544 267.204 153.944 267.204 153.32C267.204 152.66 267.306 152.036 267.51 151.448C267.726 150.86 268.026 150.344 268.41 149.9C268.806 149.444 269.268 149.09 269.796 148.838C270.324 148.574 270.912 148.442 271.56 148.442C272.34 148.442 273.018 148.634 273.594 149.018C274.182 149.402 274.674 149.888 275.07 150.476V148.604H276.474V157.892C276.474 158.78 276.258 159.53 275.826 160.142C275.406 160.754 274.83 161.216 274.098 161.528C273.378 161.852 272.574 162.014 271.686 162.014C270.63 162.014 269.766 161.828 269.094 161.456C268.422 161.084 267.864 160.58 267.42 159.944L268.338 159.134C268.71 159.686 269.19 160.1 269.778 160.376C270.378 160.652 271.014 160.79 271.686 160.79C272.262 160.79 272.79 160.682 273.27 160.466C273.762 160.262 274.152 159.944 274.44 159.512C274.74 159.08 274.89 158.54 274.89 157.892V156.236C274.542 156.812 274.062 157.268 273.45 157.604C272.85 157.94 272.214 158.108 271.542 158.108ZM272.028 156.812C272.364 156.812 272.688 156.752 273 156.632C273.312 156.512 273.6 156.356 273.864 156.164C274.128 155.96 274.35 155.732 274.53 155.48C274.71 155.228 274.83 154.97 274.89 154.706V152.006C274.722 151.574 274.482 151.196 274.17 150.872C273.858 150.536 273.504 150.278 273.108 150.098C272.712 149.906 272.304 149.81 271.884 149.81C271.404 149.81 270.972 149.912 270.588 150.116C270.216 150.32 269.898 150.596 269.634 150.944C269.37 151.28 269.166 151.658 269.022 152.078C268.878 152.498 268.806 152.924 268.806 153.356C268.806 153.824 268.89 154.268 269.058 154.688C269.226 155.096 269.454 155.462 269.742 155.786C270.03 156.11 270.372 156.362 270.768 156.542C271.164 156.722 271.584 156.812 272.028 156.812ZM0.54 182.282C0.54 181.682 0.708 181.166 1.044 180.734C1.392 180.29 1.866 179.948 2.466 179.708C3.066 179.468 3.762 179.348 4.554 179.348C4.974 179.348 5.418 179.384 5.886 179.456C6.354 179.516 6.768 179.612 7.128 179.744V179.06C7.128 178.34 6.912 177.776 6.48 177.368C6.048 176.948 5.436 176.738 4.644 176.738C4.128 176.738 3.63 176.834 3.15 177.026C2.682 177.206 2.184 177.47 1.656 177.818L1.08 176.702C1.692 176.282 2.304 175.97 2.916 175.766C3.528 175.55 4.164 175.442 4.824 175.442C6.024 175.442 6.972 175.778 7.668 176.45C8.364 177.11 8.712 178.034 8.712 179.222V183.2C8.712 183.392 8.748 183.536 8.82 183.632C8.904 183.716 9.036 183.764 9.216 183.776V185C9.06 185.024 8.922 185.042 8.802 185.054C8.694 185.066 8.604 185.072 8.532 185.072C8.16 185.072 7.878 184.97 7.686 184.766C7.506 184.562 7.404 184.346 7.38 184.118L7.344 183.524C6.936 184.052 6.402 184.46 5.742 184.748C5.082 185.036 4.428 185.18 3.78 185.18C3.156 185.18 2.598 185.054 2.106 184.802C1.614 184.538 1.23 184.19 0.954 183.758C0.678 183.314 0.54 182.822 0.54 182.282ZM6.66 182.948C6.804 182.78 6.918 182.612 7.002 182.444C7.086 182.264 7.128 182.114 7.128 181.994V180.824C6.756 180.68 6.366 180.572 5.958 180.5C5.55 180.416 5.148 180.374 4.752 180.374C3.948 180.374 3.294 180.536 2.79 180.86C2.298 181.172 2.052 181.604 2.052 182.156C2.052 182.456 2.13 182.75 2.286 183.038C2.454 183.314 2.694 183.542 3.006 183.722C3.33 183.902 3.726 183.992 4.194 183.992C4.686 183.992 5.154 183.896 5.598 183.704C6.042 183.5 6.396 183.248 6.66 182.948ZM19.9555 185.18C19.2475 185.18 18.5995 185.054 18.0115 184.802C17.4355 184.538 16.9315 184.178 16.4995 183.722C16.0795 183.266 15.7495 182.744 15.5095 182.156C15.2815 181.568 15.1675 180.944 15.1675 180.284C15.1675 179.396 15.3655 178.586 15.7615 177.854C16.1575 177.122 16.7155 176.54 17.4355 176.108C18.1555 175.664 18.9895 175.442 19.9375 175.442C20.8615 175.442 21.6655 175.652 22.3495 176.072C23.0455 176.48 23.5615 177.032 23.8975 177.728L22.3495 178.214C22.1095 177.77 21.7735 177.428 21.3415 177.188C20.9095 176.936 20.4295 176.81 19.9015 176.81C19.3255 176.81 18.7975 176.96 18.3175 177.26C17.8495 177.56 17.4775 177.974 17.2015 178.502C16.9255 179.018 16.7875 179.612 16.7875 180.284C16.7875 180.944 16.9255 181.544 17.2015 182.084C17.4895 182.612 17.8675 183.032 18.3355 183.344C18.8155 183.656 19.3435 183.812 19.9195 183.812C20.2915 183.812 20.6455 183.746 20.9815 183.614C21.3295 183.482 21.6295 183.308 21.8815 183.092C22.1455 182.864 22.3255 182.618 22.4215 182.354L23.9695 182.822C23.7775 183.278 23.4835 183.686 23.0875 184.046C22.7035 184.394 22.2415 184.67 21.7015 184.874C21.1735 185.078 20.5915 185.18 19.9555 185.18ZM29.7804 185.18C29.0724 185.18 28.4304 185.054 27.8544 184.802C27.2784 184.538 26.7804 184.184 26.3604 183.74C25.9404 183.284 25.6164 182.762 25.3884 182.174C25.1604 181.586 25.0464 180.968 25.0464 180.32C25.0464 179.66 25.1604 179.036 25.3884 178.448C25.6164 177.86 25.9404 177.344 26.3604 176.9C26.7804 176.444 27.2784 176.09 27.8544 175.838C28.4424 175.574 29.0844 175.442 29.7804 175.442C30.4884 175.442 31.1304 175.574 31.7064 175.838C32.2824 176.09 32.7804 176.444 33.2004 176.9C33.6324 177.344 33.9624 177.86 34.1904 178.448C34.4184 179.036 34.5324 179.66 34.5324 180.32C34.5324 180.968 34.4184 181.586 34.1904 182.174C33.9624 182.762 33.6384 183.284 33.2184 183.74C32.7984 184.184 32.2944 184.538 31.7064 184.802C31.1304 185.054 30.4884 185.18 29.7804 185.18ZM26.6664 180.338C26.6664 180.986 26.8044 181.574 27.0804 182.102C27.3684 182.63 27.7464 183.05 28.2144 183.362C28.6824 183.662 29.2044 183.812 29.7804 183.812C30.3564 183.812 30.8784 183.656 31.3464 183.344C31.8264 183.032 32.2044 182.612 32.4804 182.084C32.7684 181.544 32.9124 180.95 32.9124 180.302C32.9124 179.654 32.7684 179.066 32.4804 178.538C32.2044 178.01 31.8264 177.59 31.3464 177.278C30.8784 176.966 30.3564 176.81 29.7804 176.81C29.2044 176.81 28.6824 176.972 28.2144 177.296C27.7464 177.608 27.3684 178.028 27.0804 178.556C26.8044 179.084 26.6664 179.678 26.6664 180.338ZM50.6178 185H49.0338V179.744C49.0338 178.76 48.8718 178.034 48.5478 177.566C48.2358 177.098 47.7678 176.864 47.1438 176.864C46.5078 176.864 45.9318 177.098 45.4158 177.566C44.8998 178.022 44.5338 178.616 44.3178 179.348V185H42.7338V179.744C42.7338 178.748 42.5778 178.022 42.2658 177.566C41.9538 177.098 41.4858 176.864 40.8618 176.864C40.2378 176.864 39.6618 177.092 39.1338 177.548C38.6178 177.992 38.2518 178.586 38.0358 179.33V185H36.4518V175.604H37.8918V177.62C38.2758 176.924 38.7738 176.39 39.3858 176.018C39.9978 175.634 40.6878 175.442 41.4558 175.442C42.2358 175.442 42.8598 175.658 43.3278 176.09C43.7958 176.51 44.0838 177.056 44.1918 177.728C44.6118 176.984 45.1218 176.42 45.7218 176.036C46.3218 175.64 47.0058 175.442 47.7738 175.442C48.3138 175.442 48.7638 175.544 49.1238 175.748C49.4958 175.94 49.7898 176.216 50.0058 176.576C50.2218 176.924 50.3778 177.338 50.4738 177.818C50.5698 178.298 50.6178 178.82 50.6178 179.384V185ZM67.2467 185H65.6627V179.744C65.6627 178.76 65.5007 178.034 65.1767 177.566C64.8647 177.098 64.3967 176.864 63.7727 176.864C63.1367 176.864 62.5607 177.098 62.0447 177.566C61.5287 178.022 61.1627 178.616 60.9467 179.348V185H59.3627V179.744C59.3627 178.748 59.2067 178.022 58.8947 177.566C58.5827 177.098 58.1147 176.864 57.4907 176.864C56.8667 176.864 56.2907 177.092 55.7627 177.548C55.2467 177.992 54.8807 178.586 54.6647 179.33V185H53.0807V175.604H54.5207V177.62C54.9047 176.924 55.4027 176.39 56.0147 176.018C56.6267 175.634 57.3167 175.442 58.0847 175.442C58.8647 175.442 59.4887 175.658 59.9567 176.09C60.4247 176.51 60.7127 177.056 60.8207 177.728C61.2407 176.984 61.7507 176.42 62.3507 176.036C62.9507 175.64 63.6347 175.442 64.4027 175.442C64.9427 175.442 65.3927 175.544 65.7527 175.748C66.1247 175.94 66.4187 176.216 66.6347 176.576C66.8507 176.924 67.0067 177.338 67.1027 177.818C67.1987 178.298 67.2467 178.82 67.2467 179.384V185ZM69.6196 181.238V175.604H71.2036V180.932C71.2036 181.892 71.3716 182.612 71.7076 183.092C72.0436 183.572 72.5416 183.812 73.2016 183.812C73.6336 183.812 74.0476 183.722 74.4436 183.542C74.8516 183.35 75.2176 183.08 75.5416 182.732C75.8656 182.384 76.1176 181.97 76.2976 181.49V175.604H77.8816V183.2C77.8816 183.392 77.9176 183.536 77.9896 183.632C78.0736 183.716 78.2056 183.764 78.3856 183.776V185C78.2056 185.024 78.0616 185.036 77.9536 185.036C77.8576 185.048 77.7616 185.054 77.6656 185.054C77.3656 185.054 77.1076 184.964 76.8916 184.784C76.6756 184.592 76.5616 184.358 76.5496 184.082L76.5136 182.984C76.1056 183.68 75.5536 184.22 74.8576 184.604C74.1736 184.988 73.4236 185.18 72.6076 185.18C71.6236 185.18 70.8796 184.85 70.3756 184.19C69.8716 183.518 69.6196 182.534 69.6196 181.238ZM88.6742 185H87.0902V179.744C87.0902 178.748 86.9342 178.022 86.6222 177.566C86.3222 177.098 85.8602 176.864 85.2362 176.864C84.8042 176.864 84.3722 176.972 83.9402 177.188C83.5202 177.404 83.1422 177.698 82.8062 178.07C82.4822 178.43 82.2482 178.85 82.1042 179.33V185H80.5202V175.604H81.9602V177.62C82.2122 177.176 82.5362 176.792 82.9322 176.468C83.3282 176.144 83.7782 175.892 84.2822 175.712C84.7862 175.532 85.3142 175.442 85.8662 175.442C86.4062 175.442 86.8562 175.544 87.2162 175.748C87.5882 175.94 87.8762 176.216 88.0802 176.576C88.2962 176.924 88.4462 177.338 88.5302 177.818C88.6262 178.298 88.6742 178.82 88.6742 179.384V185ZM91.1374 185V175.604H92.7214V185H91.1374ZM91.1374 173.84V171.86H92.7214V173.84H91.1374ZM100.146 184.532C100.014 184.592 99.8338 184.67 99.6058 184.766C99.3778 184.862 99.1138 184.946 98.8138 185.018C98.5138 185.09 98.1958 185.126 97.8598 185.126C97.4758 185.126 97.1218 185.06 96.7978 184.928C96.4738 184.784 96.2158 184.568 96.0238 184.28C95.8318 183.98 95.7358 183.608 95.7358 183.164V176.846H94.4578V175.604H95.7358V172.472H97.3198V175.604H99.4258V176.846H97.3198V182.678C97.3438 183.014 97.4578 183.266 97.6618 183.434C97.8658 183.59 98.1058 183.668 98.3818 183.668C98.6938 183.668 98.9818 183.614 99.2458 183.506C99.5098 183.398 99.6838 183.32 99.7678 183.272L100.146 184.532ZM102.046 187.556C102.202 187.568 102.358 187.58 102.514 187.592C102.67 187.616 102.79 187.628 102.874 187.628C103.066 187.628 103.234 187.562 103.378 187.43C103.522 187.298 103.678 187.04 103.846 186.656C104.026 186.284 104.254 185.732 104.53 185L100.552 175.604H102.226L105.394 183.398L108.256 175.604H109.822L105.25 187.466C105.142 187.742 104.98 188 104.764 188.24C104.56 188.492 104.296 188.69 103.972 188.834C103.648 188.978 103.258 189.05 102.802 189.05C102.694 189.05 102.58 189.044 102.46 189.032C102.352 189.02 102.214 188.996 102.046 188.96V187.556ZM110.193 186.458L110.553 184.856H110.013V182.984H111.507V184.856L110.967 186.458H110.193ZM121.711 185.18C120.931 185.18 120.199 185.054 119.515 184.802C118.831 184.538 118.243 184.148 117.751 183.632L118.363 182.516C118.903 183.02 119.443 183.38 119.983 183.596C120.523 183.812 121.075 183.92 121.639 183.92C122.287 183.92 122.815 183.8 123.223 183.56C123.631 183.308 123.835 182.942 123.835 182.462C123.835 182.114 123.727 181.856 123.511 181.688C123.307 181.52 123.013 181.382 122.629 181.274C122.245 181.154 121.789 181.022 121.261 180.878C120.613 180.686 120.067 180.482 119.623 180.266C119.179 180.05 118.843 179.78 118.615 179.456C118.387 179.132 118.273 178.724 118.273 178.232C118.273 177.632 118.429 177.128 118.741 176.72C119.053 176.3 119.479 175.982 120.019 175.766C120.571 175.55 121.195 175.442 121.891 175.442C122.587 175.442 123.217 175.55 123.781 175.766C124.345 175.982 124.831 176.3 125.239 176.72L124.519 177.818C124.147 177.434 123.739 177.152 123.295 176.972C122.851 176.78 122.353 176.684 121.801 176.684C121.477 176.684 121.159 176.726 120.847 176.81C120.535 176.882 120.277 177.02 120.073 177.224C119.869 177.416 119.767 177.692 119.767 178.052C119.767 178.352 119.845 178.592 120.001 178.772C120.169 178.94 120.409 179.084 120.721 179.204C121.045 179.324 121.435 179.456 121.891 179.6C122.599 179.804 123.211 180.008 123.727 180.212C124.255 180.416 124.663 180.68 124.951 181.004C125.239 181.328 125.383 181.778 125.383 182.354C125.383 183.242 125.047 183.938 124.375 184.442C123.703 184.934 122.815 185.18 121.711 185.18ZM132.138 184.532C132.006 184.592 131.826 184.67 131.598 184.766C131.37 184.862 131.106 184.946 130.806 185.018C130.506 185.09 130.188 185.126 129.852 185.126C129.468 185.126 129.114 185.06 128.79 184.928C128.466 184.784 128.208 184.568 128.016 184.28C127.824 183.98 127.728 183.608 127.728 183.164V176.846H126.45V175.604H127.728V172.472H129.312V175.604H131.418V176.846H129.312V182.678C129.336 183.014 129.45 183.266 129.654 183.434C129.858 183.59 130.098 183.668 130.374 183.668C130.686 183.668 130.974 183.614 131.238 183.506C131.502 183.398 131.676 183.32 131.76 183.272L132.138 184.532ZM138.574 176.99C137.782 177.002 137.08 177.206 136.468 177.602C135.868 177.986 135.442 178.52 135.19 179.204V185H133.606V175.604H135.082V177.782C135.406 177.134 135.832 176.612 136.36 176.216C136.9 175.808 137.464 175.58 138.052 175.532C138.172 175.532 138.274 175.532 138.358 175.532C138.442 175.532 138.514 175.538 138.574 175.55V176.99ZM140.145 185V175.604H141.729V185H140.145ZM140.145 173.84V171.86H141.729V173.84H140.145ZM146.994 185L143.304 175.604H144.96L147.912 183.488L150.864 175.604H152.412L148.722 185H146.994ZM157.838 185.18C157.13 185.18 156.482 185.054 155.894 184.802C155.318 184.538 154.814 184.184 154.382 183.74C153.962 183.284 153.632 182.762 153.392 182.174C153.164 181.586 153.05 180.962 153.05 180.302C153.05 179.414 153.254 178.604 153.662 177.872C154.07 177.14 154.634 176.552 155.354 176.108C156.086 175.664 156.92 175.442 157.856 175.442C158.804 175.442 159.626 175.67 160.322 176.126C161.03 176.57 161.576 177.158 161.96 177.89C162.356 178.61 162.554 179.39 162.554 180.23C162.554 180.35 162.548 180.47 162.536 180.59C162.536 180.698 162.53 180.782 162.518 180.842H154.724C154.772 181.454 154.94 182 155.228 182.48C155.528 182.948 155.912 183.32 156.38 183.596C156.848 183.86 157.352 183.992 157.892 183.992C158.468 183.992 159.008 183.848 159.512 183.56C160.028 183.272 160.382 182.894 160.574 182.426L161.942 182.804C161.738 183.26 161.432 183.668 161.024 184.028C160.628 184.388 160.154 184.67 159.602 184.874C159.062 185.078 158.474 185.18 157.838 185.18ZM154.67 179.744H161.078C161.03 179.132 160.856 178.592 160.556 178.124C160.256 177.656 159.872 177.29 159.404 177.026C158.936 176.762 158.42 176.63 157.856 176.63C157.304 176.63 156.794 176.762 156.326 177.026C155.858 177.29 155.474 177.656 155.174 178.124C154.886 178.592 154.718 179.132 154.67 179.744ZM173.728 184.532C173.596 184.592 173.416 184.67 173.188 184.766C172.96 184.862 172.696 184.946 172.396 185.018C172.096 185.09 171.778 185.126 171.442 185.126C171.058 185.126 170.704 185.06 170.38 184.928C170.056 184.784 169.798 184.568 169.606 184.28C169.414 183.98 169.318 183.608 169.318 183.164V176.846H168.04V175.604H169.318V172.472H170.902V175.604H173.008V176.846H170.902V182.678C170.926 183.014 171.04 183.266 171.244 183.434C171.448 183.59 171.688 183.668 171.964 183.668C172.276 183.668 172.564 183.614 172.828 183.506C173.092 183.398 173.266 183.32 173.35 183.272L173.728 184.532ZM179.177 185.18C178.469 185.18 177.827 185.054 177.251 184.802C176.675 184.538 176.177 184.184 175.757 183.74C175.337 183.284 175.013 182.762 174.785 182.174C174.557 181.586 174.443 180.968 174.443 180.32C174.443 179.66 174.557 179.036 174.785 178.448C175.013 177.86 175.337 177.344 175.757 176.9C176.177 176.444 176.675 176.09 177.251 175.838C177.839 175.574 178.481 175.442 179.177 175.442C179.885 175.442 180.527 175.574 181.103 175.838C181.679 176.09 182.177 176.444 182.597 176.9C183.029 177.344 183.359 177.86 183.587 178.448C183.815 179.036 183.929 179.66 183.929 180.32C183.929 180.968 183.815 181.586 183.587 182.174C183.359 182.762 183.035 183.284 182.615 183.74C182.195 184.184 181.691 184.538 181.103 184.802C180.527 185.054 179.885 185.18 179.177 185.18ZM176.063 180.338C176.063 180.986 176.201 181.574 176.477 182.102C176.765 182.63 177.143 183.05 177.611 183.362C178.079 183.662 178.601 183.812 179.177 183.812C179.753 183.812 180.275 183.656 180.743 183.344C181.223 183.032 181.601 182.612 181.877 182.084C182.165 181.544 182.309 180.95 182.309 180.302C182.309 179.654 182.165 179.066 181.877 178.538C181.601 178.01 181.223 177.59 180.743 177.278C180.275 176.966 179.753 176.81 179.177 176.81C178.601 176.81 178.079 176.972 177.611 177.296C177.143 177.608 176.765 178.028 176.477 178.556C176.201 179.084 176.063 179.678 176.063 180.338ZM190.437 171.86H192.021V182.57C192.021 183.086 192.093 183.404 192.237 183.524C192.381 183.644 192.555 183.704 192.759 183.704C193.011 183.704 193.251 183.68 193.479 183.632C193.707 183.572 193.899 183.512 194.055 183.452L194.307 184.748C194.043 184.856 193.731 184.946 193.371 185.018C193.011 185.09 192.693 185.126 192.417 185.126C191.805 185.126 191.319 184.952 190.959 184.604C190.611 184.256 190.437 183.77 190.437 183.146V171.86ZM199.709 185.18C199.001 185.18 198.353 185.054 197.765 184.802C197.189 184.538 196.685 184.184 196.253 183.74C195.833 183.284 195.503 182.762 195.263 182.174C195.035 181.586 194.921 180.962 194.921 180.302C194.921 179.414 195.125 178.604 195.533 177.872C195.941 177.14 196.505 176.552 197.225 176.108C197.957 175.664 198.791 175.442 199.727 175.442C200.675 175.442 201.497 175.67 202.193 176.126C202.901 176.57 203.447 177.158 203.831 177.89C204.227 178.61 204.425 179.39 204.425 180.23C204.425 180.35 204.419 180.47 204.407 180.59C204.407 180.698 204.401 180.782 204.389 180.842H196.595C196.643 181.454 196.811 182 197.099 182.48C197.399 182.948 197.783 183.32 198.251 183.596C198.719 183.86 199.223 183.992 199.763 183.992C200.339 183.992 200.879 183.848 201.383 183.56C201.899 183.272 202.253 182.894 202.445 182.426L203.813 182.804C203.609 183.26 203.303 183.668 202.895 184.028C202.499 184.388 202.025 184.67 201.473 184.874C200.933 185.078 200.345 185.18 199.709 185.18ZM196.541 179.744H202.949C202.901 179.132 202.727 178.592 202.427 178.124C202.127 177.656 201.743 177.29 201.275 177.026C200.807 176.762 200.291 176.63 199.727 176.63C199.175 176.63 198.665 176.762 198.197 177.026C197.729 177.29 197.345 177.656 197.045 178.124C196.757 178.592 196.589 179.132 196.541 179.744ZM205.448 182.282C205.448 181.682 205.616 181.166 205.952 180.734C206.3 180.29 206.774 179.948 207.374 179.708C207.974 179.468 208.67 179.348 209.462 179.348C209.882 179.348 210.326 179.384 210.794 179.456C211.262 179.516 211.676 179.612 212.036 179.744V179.06C212.036 178.34 211.82 177.776 211.388 177.368C210.956 176.948 210.344 176.738 209.552 176.738C209.036 176.738 208.538 176.834 208.058 177.026C207.59 177.206 207.092 177.47 206.564 177.818L205.988 176.702C206.6 176.282 207.212 175.97 207.824 175.766C208.436 175.55 209.072 175.442 209.732 175.442C210.932 175.442 211.88 175.778 212.576 176.45C213.272 177.11 213.62 178.034 213.62 179.222V183.2C213.62 183.392 213.656 183.536 213.728 183.632C213.812 183.716 213.944 183.764 214.124 183.776V185C213.968 185.024 213.83 185.042 213.71 185.054C213.602 185.066 213.512 185.072 213.44 185.072C213.068 185.072 212.786 184.97 212.594 184.766C212.414 184.562 212.312 184.346 212.288 184.118L212.252 183.524C211.844 184.052 211.31 184.46 210.65 184.748C209.99 185.036 209.336 185.18 208.688 185.18C208.064 185.18 207.506 185.054 207.014 184.802C206.522 184.538 206.138 184.19 205.862 183.758C205.586 183.314 205.448 182.822 205.448 182.282ZM211.568 182.948C211.712 182.78 211.826 182.612 211.91 182.444C211.994 182.264 212.036 182.114 212.036 181.994V180.824C211.664 180.68 211.274 180.572 210.866 180.5C210.458 180.416 210.056 180.374 209.66 180.374C208.856 180.374 208.202 180.536 207.698 180.86C207.206 181.172 206.96 181.604 206.96 182.156C206.96 182.456 207.038 182.75 207.194 183.038C207.362 183.314 207.602 183.542 207.914 183.722C208.238 183.902 208.634 183.992 209.102 183.992C209.594 183.992 210.062 183.896 210.506 183.704C210.95 183.5 211.304 183.248 211.568 182.948ZM218.554 185L214.864 175.604H216.52L219.472 183.488L222.424 175.604H223.972L220.282 185H218.554ZM229.399 185.18C228.691 185.18 228.043 185.054 227.455 184.802C226.879 184.538 226.375 184.184 225.943 183.74C225.523 183.284 225.193 182.762 224.953 182.174C224.725 181.586 224.611 180.962 224.611 180.302C224.611 179.414 224.815 178.604 225.223 177.872C225.631 177.14 226.195 176.552 226.915 176.108C227.647 175.664 228.481 175.442 229.417 175.442C230.365 175.442 231.187 175.67 231.883 176.126C232.591 176.57 233.137 177.158 233.521 177.89C233.917 178.61 234.115 179.39 234.115 180.23C234.115 180.35 234.109 180.47 234.097 180.59C234.097 180.698 234.091 180.782 234.079 180.842H226.285C226.333 181.454 226.501 182 226.789 182.48C227.089 182.948 227.473 183.32 227.941 183.596C228.409 183.86 228.913 183.992 229.453 183.992C230.029 183.992 230.569 183.848 231.073 183.56C231.589 183.272 231.943 182.894 232.135 182.426L233.503 182.804C233.299 183.26 232.993 183.668 232.585 184.028C232.189 184.388 231.715 184.67 231.163 184.874C230.623 185.078 230.035 185.18 229.399 185.18ZM226.231 179.744H232.639C232.591 179.132 232.417 178.592 232.117 178.124C231.817 177.656 231.433 177.29 230.965 177.026C230.497 176.762 229.981 176.63 229.417 176.63C228.865 176.63 228.355 176.762 227.887 177.026C227.419 177.29 227.035 177.656 226.735 178.124C226.447 178.592 226.279 179.132 226.231 179.744ZM240.428 185V175.604H242.012V185H240.428ZM240.428 173.84V171.86H242.012V173.84H240.428ZM249.437 184.532C249.305 184.592 249.125 184.67 248.897 184.766C248.669 184.862 248.405 184.946 248.105 185.018C247.805 185.09 247.487 185.126 247.151 185.126C246.767 185.126 246.413 185.06 246.089 184.928C245.765 184.784 245.507 184.568 245.315 184.28C245.123 183.98 245.027 183.608 245.027 183.164V176.846H243.749V175.604H245.027V172.472H246.611V175.604H248.717V176.846H246.611V182.678C246.635 183.014 246.749 183.266 246.953 183.434C247.157 183.59 247.397 183.668 247.673 183.668C247.985 183.668 248.273 183.614 248.537 183.506C248.801 183.398 248.975 183.32 249.059 183.272L249.437 184.532ZM6.102 212.18C5.37 212.18 4.704 212 4.104 211.64C3.504 211.28 3.03 210.812 2.682 210.236V212H1.278V198.86H2.862V204.476C3.258 203.864 3.744 203.372 4.32 203C4.896 202.628 5.568 202.442 6.336 202.442C6.984 202.442 7.566 202.58 8.082 202.856C8.598 203.12 9.036 203.486 9.396 203.954C9.768 204.41 10.05 204.932 10.242 205.52C10.446 206.096 10.548 206.702 10.548 207.338C10.548 207.998 10.434 208.622 10.206 209.21C9.99 209.786 9.678 210.302 9.27 210.758C8.862 211.202 8.388 211.55 7.848 211.802C7.32 212.054 6.738 212.18 6.102 212.18ZM5.706 210.812C6.174 210.812 6.606 210.716 7.002 210.524C7.398 210.332 7.74 210.074 8.028 209.75C8.316 209.426 8.538 209.054 8.694 208.634C8.85 208.214 8.928 207.782 8.928 207.338C8.928 206.726 8.796 206.15 8.532 205.61C8.28 205.07 7.92 204.638 7.452 204.314C6.996 203.978 6.462 203.81 5.85 203.81C5.406 203.81 4.992 203.912 4.608 204.116C4.224 204.32 3.882 204.59 3.582 204.926C3.294 205.25 3.054 205.61 2.862 206.006V208.724C2.922 209.024 3.048 209.3 3.24 209.552C3.432 209.804 3.666 210.026 3.942 210.218C4.218 210.398 4.506 210.542 4.806 210.65C5.118 210.758 5.418 210.812 5.706 210.812ZM16.6508 212.18C15.9428 212.18 15.2948 212.054 14.7068 211.802C14.1308 211.538 13.6268 211.184 13.1948 210.74C12.7748 210.284 12.4448 209.762 12.2048 209.174C11.9768 208.586 11.8628 207.962 11.8628 207.302C11.8628 206.414 12.0668 205.604 12.4748 204.872C12.8828 204.14 13.4468 203.552 14.1668 203.108C14.8988 202.664 15.7328 202.442 16.6688 202.442C17.6168 202.442 18.4388 202.67 19.1348 203.126C19.8428 203.57 20.3888 204.158 20.7728 204.89C21.1688 205.61 21.3668 206.39 21.3668 207.23C21.3668 207.35 21.3608 207.47 21.3488 207.59C21.3488 207.698 21.3428 207.782 21.3308 207.842H13.5368C13.5848 208.454 13.7528 209 14.0408 209.48C14.3408 209.948 14.7248 210.32 15.1928 210.596C15.6608 210.86 16.1648 210.992 16.7048 210.992C17.2808 210.992 17.8208 210.848 18.3248 210.56C18.8408 210.272 19.1948 209.894 19.3868 209.426L20.7548 209.804C20.5508 210.26 20.2448 210.668 19.8368 211.028C19.4408 211.388 18.9668 211.67 18.4148 211.874C17.8748 212.078 17.2868 212.18 16.6508 212.18ZM13.4828 206.744H19.8908C19.8428 206.132 19.6688 205.592 19.3688 205.124C19.0688 204.656 18.6848 204.29 18.2168 204.026C17.7488 203.762 17.2328 203.63 16.6688 203.63C16.1168 203.63 15.6068 203.762 15.1388 204.026C14.6708 204.29 14.2868 204.656 13.9868 205.124C13.6988 205.592 13.5308 206.132 13.4828 206.744ZM27.8997 211.532C27.7677 211.592 27.5877 211.67 27.3597 211.766C27.1317 211.862 26.8677 211.946 26.5677 212.018C26.2677 212.09 25.9497 212.126 25.6137 212.126C25.2297 212.126 24.8757 212.06 24.5517 211.928C24.2277 211.784 23.9697 211.568 23.7777 211.28C23.5857 210.98 23.4897 210.608 23.4897 210.164V203.846H22.2117V202.604H23.4897V199.472H25.0737V202.604H27.1797V203.846H25.0737V209.678C25.0977 210.014 25.2117 210.266 25.4157 210.434C25.6197 210.59 25.8597 210.668 26.1357 210.668C26.4477 210.668 26.7357 210.614 26.9997 210.506C27.2637 210.398 27.4377 210.32 27.5217 210.272L27.8997 211.532ZM34.2278 211.532C34.0958 211.592 33.9158 211.67 33.6878 211.766C33.4598 211.862 33.1958 211.946 32.8958 212.018C32.5958 212.09 32.2778 212.126 31.9418 212.126C31.5578 212.126 31.2038 212.06 30.8798 211.928C30.5558 211.784 30.2978 211.568 30.1058 211.28C29.9138 210.98 29.8178 210.608 29.8178 210.164V203.846H28.5398V202.604H29.8178V199.472H31.4018V202.604H33.5078V203.846H31.4018V209.678C31.4258 210.014 31.5398 210.266 31.7438 210.434C31.9478 210.59 32.1878 210.668 32.4638 210.668C32.7758 210.668 33.0638 210.614 33.3278 210.506C33.5918 210.398 33.7658 210.32 33.8498 210.272L34.2278 211.532ZM39.7309 212.18C39.0229 212.18 38.3749 212.054 37.7869 211.802C37.2109 211.538 36.7069 211.184 36.2749 210.74C35.8549 210.284 35.5249 209.762 35.2849 209.174C35.0569 208.586 34.9429 207.962 34.9429 207.302C34.9429 206.414 35.1469 205.604 35.5549 204.872C35.9629 204.14 36.5269 203.552 37.2469 203.108C37.9789 202.664 38.8129 202.442 39.7489 202.442C40.6969 202.442 41.5189 202.67 42.2149 203.126C42.9229 203.57 43.4689 204.158 43.8529 204.89C44.2489 205.61 44.4469 206.39 44.4469 207.23C44.4469 207.35 44.4409 207.47 44.4289 207.59C44.4289 207.698 44.4229 207.782 44.4109 207.842H36.6169C36.6649 208.454 36.8329 209 37.1209 209.48C37.4209 209.948 37.8049 210.32 38.2729 210.596C38.7409 210.86 39.2449 210.992 39.7849 210.992C40.3609 210.992 40.9009 210.848 41.4049 210.56C41.9209 210.272 42.2749 209.894 42.4669 209.426L43.8349 209.804C43.6309 210.26 43.3249 210.668 42.9169 211.028C42.5209 211.388 42.0469 211.67 41.4949 211.874C40.9549 212.078 40.3669 212.18 39.7309 212.18ZM36.5629 206.744H42.9709C42.9229 206.132 42.7489 205.592 42.4489 205.124C42.1489 204.656 41.7649 204.29 41.2969 204.026C40.8289 203.762 40.3129 203.63 39.7489 203.63C39.1969 203.63 38.6869 203.762 38.2189 204.026C37.7509 204.29 37.3669 204.656 37.0669 205.124C36.7789 205.592 36.6109 206.132 36.5629 206.744ZM51.1757 203.99C50.3837 204.002 49.6817 204.206 49.0697 204.602C48.4697 204.986 48.0437 205.52 47.7917 206.204V212H46.2077V202.604H47.6837V204.782C48.0077 204.134 48.4337 203.612 48.9617 203.216C49.5017 202.808 50.0657 202.58 50.6537 202.532C50.7737 202.532 50.8757 202.532 50.9597 202.532C51.0437 202.532 51.1157 202.538 51.1757 202.55V203.99ZM61.7376 211.532C61.6056 211.592 61.4256 211.67 61.1976 211.766C60.9696 211.862 60.7056 211.946 60.4056 212.018C60.1056 212.09 59.7876 212.126 59.4516 212.126C59.0676 212.126 58.7136 212.06 58.3896 211.928C58.0656 211.784 57.8076 211.568 57.6156 211.28C57.4236 210.98 57.3276 210.608 57.3276 210.164V203.846H56.0496V202.604H57.3276V199.472H58.9116V202.604H61.0176V203.846H58.9116V209.678C58.9356 210.014 59.0496 210.266 59.2536 210.434C59.4576 210.59 59.6976 210.668 59.9736 210.668C60.2856 210.668 60.5736 210.614 60.8376 210.506C61.1016 210.398 61.2756 210.32 61.3596 210.272L61.7376 211.532ZM71.3597 212H69.7757V206.744C69.7757 205.784 69.6017 205.064 69.2537 204.584C68.9177 204.104 68.4317 203.864 67.7957 203.864C67.3877 203.864 66.9737 203.972 66.5537 204.188C66.1457 204.404 65.7857 204.698 65.4737 205.07C65.1617 205.43 64.9337 205.85 64.7897 206.33V212H63.2057V198.86H64.7897V204.62C65.1617 203.948 65.6657 203.42 66.3017 203.036C66.9497 202.64 67.6457 202.442 68.3897 202.442C68.9537 202.442 69.4217 202.544 69.7937 202.748C70.1777 202.94 70.4837 203.216 70.7117 203.576C70.9397 203.936 71.1017 204.356 71.1977 204.836C71.3057 205.304 71.3597 205.82 71.3597 206.384V212ZM73.0849 209.282C73.0849 208.682 73.2529 208.166 73.5889 207.734C73.9369 207.29 74.4109 206.948 75.0109 206.708C75.6109 206.468 76.3069 206.348 77.0989 206.348C77.5189 206.348 77.9629 206.384 78.4309 206.456C78.8989 206.516 79.3129 206.612 79.6729 206.744V206.06C79.6729 205.34 79.4569 204.776 79.0249 204.368C78.5929 203.948 77.9809 203.738 77.1889 203.738C76.6729 203.738 76.1749 203.834 75.6949 204.026C75.2269 204.206 74.7289 204.47 74.2009 204.818L73.6249 203.702C74.2369 203.282 74.8489 202.97 75.4609 202.766C76.0729 202.55 76.7089 202.442 77.3689 202.442C78.5689 202.442 79.5169 202.778 80.2129 203.45C80.9089 204.11 81.2569 205.034 81.2569 206.222V210.2C81.2569 210.392 81.2929 210.536 81.3649 210.632C81.4489 210.716 81.5809 210.764 81.7609 210.776V212C81.6049 212.024 81.4669 212.042 81.3469 212.054C81.2389 212.066 81.1489 212.072 81.0769 212.072C80.7049 212.072 80.4229 211.97 80.2309 211.766C80.0509 211.562 79.9489 211.346 79.9249 211.118L79.8889 210.524C79.4809 211.052 78.9469 211.46 78.2869 211.748C77.6269 212.036 76.9729 212.18 76.3249 212.18C75.7009 212.18 75.1429 212.054 74.6509 211.802C74.1589 211.538 73.7749 211.19 73.4989 210.758C73.2229 210.314 73.0849 209.822 73.0849 209.282ZM79.2049 209.948C79.3489 209.78 79.4629 209.612 79.5469 209.444C79.6309 209.264 79.6729 209.114 79.6729 208.994V207.824C79.3009 207.68 78.9109 207.572 78.5029 207.5C78.0949 207.416 77.6929 207.374 77.2969 207.374C76.4929 207.374 75.8389 207.536 75.3349 207.86C74.8429 208.172 74.5969 208.604 74.5969 209.156C74.5969 209.456 74.6749 209.75 74.8309 210.038C74.9989 210.314 75.2389 210.542 75.5509 210.722C75.8749 210.902 76.2709 210.992 76.7389 210.992C77.2309 210.992 77.6989 210.896 78.1429 210.704C78.5869 210.5 78.9409 210.248 79.2049 209.948ZM91.9437 212H90.3597V206.744C90.3597 205.748 90.2037 205.022 89.8917 204.566C89.5917 204.098 89.1297 203.864 88.5057 203.864C88.0737 203.864 87.6417 203.972 87.2097 204.188C86.7897 204.404 86.4117 204.698 86.0757 205.07C85.7517 205.43 85.5177 205.85 85.3737 206.33V212H83.7897V202.604H85.2297V204.62C85.4817 204.176 85.8057 203.792 86.2017 203.468C86.5977 203.144 87.0477 202.892 87.5517 202.712C88.0557 202.532 88.5837 202.442 89.1357 202.442C89.6757 202.442 90.1257 202.544 90.4857 202.748C90.8577 202.94 91.1457 203.216 91.3497 203.576C91.5657 203.924 91.7157 204.338 91.7997 204.818C91.8957 205.298 91.9437 205.82 91.9437 206.384V212ZM98.8995 214.556C99.0555 214.568 99.2115 214.58 99.3675 214.592C99.5235 214.616 99.6435 214.628 99.7275 214.628C99.9195 214.628 100.087 214.562 100.231 214.43C100.375 214.298 100.531 214.04 100.699 213.656C100.879 213.284 101.107 212.732 101.383 212L97.4055 202.604H99.0795L102.247 210.398L105.109 202.604H106.675L102.103 214.466C101.995 214.742 101.833 215 101.617 215.24C101.413 215.492 101.149 215.69 100.825 215.834C100.501 215.978 100.111 216.05 99.6555 216.05C99.5475 216.05 99.4335 216.044 99.3135 216.032C99.2055 216.02 99.0675 215.996 98.8995 215.96V214.556ZM112.046 212.18C111.338 212.18 110.696 212.054 110.12 211.802C109.544 211.538 109.046 211.184 108.626 210.74C108.206 210.284 107.882 209.762 107.654 209.174C107.426 208.586 107.312 207.968 107.312 207.32C107.312 206.66 107.426 206.036 107.654 205.448C107.882 204.86 108.206 204.344 108.626 203.9C109.046 203.444 109.544 203.09 110.12 202.838C110.708 202.574 111.35 202.442 112.046 202.442C112.754 202.442 113.396 202.574 113.972 202.838C114.548 203.09 115.046 203.444 115.466 203.9C115.898 204.344 116.228 204.86 116.456 205.448C116.684 206.036 116.798 206.66 116.798 207.32C116.798 207.968 116.684 208.586 116.456 209.174C116.228 209.762 115.904 210.284 115.484 210.74C115.064 211.184 114.56 211.538 113.972 211.802C113.396 212.054 112.754 212.18 112.046 212.18ZM108.932 207.338C108.932 207.986 109.07 208.574 109.346 209.102C109.634 209.63 110.012 210.05 110.48 210.362C110.948 210.662 111.47 210.812 112.046 210.812C112.622 210.812 113.144 210.656 113.612 210.344C114.092 210.032 114.47 209.612 114.746 209.084C115.034 208.544 115.178 207.95 115.178 207.302C115.178 206.654 115.034 206.066 114.746 205.538C114.47 205.01 114.092 204.59 113.612 204.278C113.144 203.966 112.622 203.81 112.046 203.81C111.47 203.81 110.948 203.972 110.48 204.296C110.012 204.608 109.634 205.028 109.346 205.556C109.07 206.084 108.932 206.678 108.932 207.338ZM118.627 208.238V202.604H120.211V207.932C120.211 208.892 120.379 209.612 120.715 210.092C121.051 210.572 121.549 210.812 122.209 210.812C122.641 210.812 123.055 210.722 123.451 210.542C123.859 210.35 124.225 210.08 124.549 209.732C124.873 209.384 125.125 208.97 125.305 208.49V202.604H126.889V210.2C126.889 210.392 126.925 210.536 126.997 210.632C127.081 210.716 127.213 210.764 127.393 210.776V212C127.213 212.024 127.069 212.036 126.961 212.036C126.865 212.048 126.769 212.054 126.673 212.054C126.373 212.054 126.115 211.964 125.899 211.784C125.683 211.592 125.569 211.358 125.557 211.082L125.521 209.984C125.113 210.68 124.561 211.22 123.865 211.604C123.181 211.988 122.431 212.18 121.615 212.18C120.631 212.18 119.887 211.85 119.383 211.19C118.879 210.518 118.627 209.534 118.627 208.238ZM134.585 212V203.846H133.307V202.604H134.585V202.406C134.585 201.638 134.699 200.978 134.927 200.426C135.167 199.862 135.503 199.43 135.935 199.13C136.367 198.83 136.877 198.68 137.465 198.68C137.837 198.68 138.203 198.734 138.563 198.842C138.923 198.938 139.247 199.076 139.535 199.256L139.139 200.426C138.971 200.306 138.761 200.21 138.509 200.138C138.269 200.066 138.029 200.03 137.789 200.03C137.273 200.03 136.871 200.234 136.583 200.642C136.307 201.038 136.169 201.608 136.169 202.352V202.604H138.671V203.846H136.169V212H134.585ZM144.126 212.18C143.418 212.18 142.776 212.054 142.2 211.802C141.624 211.538 141.126 211.184 140.706 210.74C140.286 210.284 139.962 209.762 139.734 209.174C139.506 208.586 139.392 207.968 139.392 207.32C139.392 206.66 139.506 206.036 139.734 205.448C139.962 204.86 140.286 204.344 140.706 203.9C141.126 203.444 141.624 203.09 142.2 202.838C142.788 202.574 143.43 202.442 144.126 202.442C144.834 202.442 145.476 202.574 146.052 202.838C146.628 203.09 147.126 203.444 147.546 203.9C147.978 204.344 148.308 204.86 148.536 205.448C148.764 206.036 148.878 206.66 148.878 207.32C148.878 207.968 148.764 208.586 148.536 209.174C148.308 209.762 147.984 210.284 147.564 210.74C147.144 211.184 146.64 211.538 146.052 211.802C145.476 212.054 144.834 212.18 144.126 212.18ZM141.012 207.338C141.012 207.986 141.15 208.574 141.426 209.102C141.714 209.63 142.092 210.05 142.56 210.362C143.028 210.662 143.55 210.812 144.126 210.812C144.702 210.812 145.224 210.656 145.692 210.344C146.172 210.032 146.55 209.612 146.826 209.084C147.114 208.544 147.258 207.95 147.258 207.302C147.258 206.654 147.114 206.066 146.826 205.538C146.55 205.01 146.172 204.59 145.692 204.278C145.224 203.966 144.702 203.81 144.126 203.81C143.55 203.81 143.028 203.972 142.56 204.296C142.092 204.608 141.714 205.028 141.426 205.556C141.15 206.084 141.012 206.678 141.012 207.338ZM150.708 208.238V202.604H152.292V207.932C152.292 208.892 152.46 209.612 152.796 210.092C153.132 210.572 153.63 210.812 154.29 210.812C154.722 210.812 155.136 210.722 155.532 210.542C155.94 210.35 156.306 210.08 156.63 209.732C156.954 209.384 157.206 208.97 157.386 208.49V202.604H158.97V210.2C158.97 210.392 159.006 210.536 159.078 210.632C159.162 210.716 159.294 210.764 159.474 210.776V212C159.294 212.024 159.15 212.036 159.042 212.036C158.946 212.048 158.85 212.054 158.754 212.054C158.454 212.054 158.196 211.964 157.98 211.784C157.764 211.592 157.65 211.358 157.638 211.082L157.602 209.984C157.194 210.68 156.642 211.22 155.946 211.604C155.262 211.988 154.512 212.18 153.696 212.18C152.712 212.18 151.968 211.85 151.464 211.19C150.96 210.518 150.708 209.534 150.708 208.238ZM169.762 212H168.178V206.744C168.178 205.748 168.022 205.022 167.71 204.566C167.41 204.098 166.948 203.864 166.324 203.864C165.892 203.864 165.46 203.972 165.028 204.188C164.608 204.404 164.23 204.698 163.894 205.07C163.57 205.43 163.336 205.85 163.192 206.33V212H161.608V202.604H163.048V204.62C163.3 204.176 163.624 203.792 164.02 203.468C164.416 203.144 164.866 202.892 165.37 202.712C165.874 202.532 166.402 202.442 166.954 202.442C167.494 202.442 167.944 202.544 168.304 202.748C168.676 202.94 168.964 203.216 169.168 203.576C169.384 203.924 169.534 204.338 169.618 204.818C169.714 205.298 169.762 205.82 169.762 206.384V212ZM171.613 207.32C171.613 206.432 171.793 205.622 172.153 204.89C172.525 204.146 173.029 203.552 173.665 203.108C174.313 202.664 175.051 202.442 175.879 202.442C176.635 202.442 177.313 202.64 177.913 203.036C178.513 203.432 178.981 203.912 179.317 204.476V198.86H180.901V210.2C180.901 210.392 180.937 210.536 181.009 210.632C181.093 210.716 181.225 210.764 181.405 210.776V212C181.105 212.048 180.871 212.072 180.703 212.072C180.391 212.072 180.115 211.964 179.875 211.748C179.647 211.532 179.533 211.292 179.533 211.028V210.236C179.161 210.836 178.663 211.31 178.039 211.658C177.415 212.006 176.767 212.18 176.095 212.18C175.447 212.18 174.847 212.054 174.295 211.802C173.755 211.538 173.281 211.178 172.873 210.722C172.477 210.266 172.165 209.75 171.937 209.174C171.721 208.586 171.613 207.968 171.613 207.32ZM179.317 208.706V206.006C179.173 205.598 178.939 205.232 178.615 204.908C178.291 204.572 177.925 204.308 177.517 204.116C177.121 203.912 176.725 203.81 176.329 203.81C175.861 203.81 175.435 203.912 175.051 204.116C174.679 204.308 174.355 204.572 174.079 204.908C173.815 205.232 173.611 205.604 173.467 206.024C173.323 206.444 173.251 206.882 173.251 207.338C173.251 207.806 173.329 208.25 173.485 208.67C173.653 209.09 173.881 209.462 174.169 209.786C174.469 210.11 174.811 210.362 175.195 210.542C175.591 210.722 176.017 210.812 176.473 210.812C176.761 210.812 177.055 210.758 177.355 210.65C177.667 210.542 177.961 210.392 178.237 210.2C178.513 210.008 178.747 209.786 178.939 209.534C179.131 209.27 179.257 208.994 179.317 208.706ZM188.098 212V202.604H189.682V212H188.098ZM188.098 200.84V198.86H189.682V200.84H188.098ZM197.107 211.532C196.975 211.592 196.795 211.67 196.567 211.766C196.339 211.862 196.075 211.946 195.775 212.018C195.475 212.09 195.157 212.126 194.821 212.126C194.437 212.126 194.083 212.06 193.759 211.928C193.435 211.784 193.177 211.568 192.985 211.28C192.793 210.98 192.697 210.608 192.697 210.164V203.846H191.419V202.604H192.697V199.472H194.281V202.604H196.387V203.846H194.281V209.678C194.305 210.014 194.419 210.266 194.623 210.434C194.827 210.59 195.067 210.668 195.343 210.668C195.655 210.668 195.943 210.614 196.207 210.506C196.471 210.398 196.645 210.32 196.729 210.272L197.107 211.532ZM198.449 212V209.984H199.781V212H198.449ZM205.488 213.26H223.488V195.26H205.488V213.26Z" fill="#7883BE"/>
</g>
<defs>
<clipPath id="clip0_3430_802">
<rect width="310" height="235" fill="white"/>
</clipPath>
</defs>
</svg>
