<svg width="310" height="235" viewBox="0 0 310 235" fill="none" xmlns="http://www.w3.org/2000/svg">
<rect width="310" height="235" fill="#121526"/>
<path d="M20 22C12.2688 22 6 28.2688 6 36C6 43.7313 12.2688 50 20 50C20.55 50 21 50.45 21 51C21 51.55 20.55 52 20 52C11.1625 52 4 44.8375 4 36C4 27.1625 11.1625 20 20 20C28.8375 20 36 27.1625 36 36V37.5C36 40.5375 33.5375 43 30.5 43C28.4125 43 26.5938 41.8312 25.6625 40.1187C24.3875 41.8687 22.325 43 20 43C16.1313 43 13 39.8687 13 36C13 32.1313 16.1313 29 20 29C21.9562 29 23.7313 29.8063 25 31.1V31C25 30.45 25.45 30 26 30C26.55 30 27 30.45 27 31V37.5C27 39.4312 28.5688 41 30.5 41C32.4312 41 34 39.4312 34 37.5V36C34 28.2688 27.7313 22 20 22ZM25 36C25 33.2375 22.7625 31 20 31C17.2375 31 15 33.2375 15 36C15 38.7625 17.2375 41 20 41C22.7625 41 25 38.7625 25 36Z" fill="#00BD7B"/>
<path d="M0.744 86.36C0.744 85.32 0.928 84.304 1.296 83.312C1.68 82.304 2.232 81.392 2.952 80.576C3.672 79.744 4.552 79.088 5.592 78.608C6.632 78.112 7.816 77.864 9.144 77.864C10.712 77.864 12.064 78.208 13.2 78.896C14.352 79.584 15.208 80.48 15.768 81.584L13.224 83.336C12.936 82.696 12.56 82.192 12.096 81.824C11.632 81.44 11.136 81.176 10.608 81.032C10.08 80.872 9.56 80.792 9.048 80.792C8.216 80.792 7.488 80.96 6.864 81.296C6.256 81.632 5.744 82.072 5.328 82.616C4.912 83.16 4.6 83.768 4.392 84.44C4.2 85.112 4.104 85.784 4.104 86.456C4.104 87.208 4.224 87.936 4.464 88.64C4.704 89.328 5.04 89.944 5.472 90.488C5.92 91.016 6.448 91.44 7.056 91.76C7.68 92.064 8.36 92.216 9.096 92.216C9.624 92.216 10.16 92.128 10.704 91.952C11.248 91.776 11.752 91.496 12.216 91.112C12.68 90.728 13.04 90.232 13.296 89.624L16.008 91.184C15.672 92.032 15.12 92.752 14.352 93.344C13.6 93.936 12.752 94.384 11.808 94.688C10.864 94.992 9.928 95.144 9 95.144C7.784 95.144 6.672 94.896 5.664 94.4C4.656 93.888 3.784 93.216 3.048 92.384C2.328 91.536 1.76 90.592 1.344 89.552C0.944 88.496 0.744 87.432 0.744 86.36ZM17.0531 91.28C17.0531 90.464 17.2771 89.752 17.7251 89.144C18.1891 88.52 18.8291 88.04 19.6451 87.704C20.4611 87.368 21.3971 87.2 22.4531 87.2C22.9811 87.2 23.5171 87.24 24.0611 87.32C24.6051 87.4 25.0771 87.528 25.4771 87.704V87.032C25.4771 86.232 25.2371 85.616 24.7571 85.184C24.2931 84.752 23.5971 84.536 22.6691 84.536C21.9811 84.536 21.3251 84.656 20.7011 84.896C20.0771 85.136 19.4211 85.488 18.7331 85.952L17.7011 83.84C18.5331 83.296 19.3811 82.888 20.2451 82.616C21.1251 82.344 22.0451 82.208 23.0051 82.208C24.7971 82.208 26.1891 82.656 27.1811 83.552C28.1891 84.448 28.6931 85.728 28.6931 87.392V91.4C28.6931 91.736 28.7491 91.976 28.8611 92.12C28.9891 92.264 29.1891 92.352 29.4611 92.384V95C29.1731 95.048 28.9091 95.088 28.6691 95.12C28.4451 95.152 28.2531 95.168 28.0931 95.168C27.4531 95.168 26.9651 95.024 26.6291 94.736C26.3091 94.448 26.1091 94.096 26.0291 93.68L25.9571 93.032C25.4131 93.736 24.7331 94.28 23.9171 94.664C23.1011 95.048 22.2691 95.24 21.4211 95.24C20.5891 95.24 19.8371 95.072 19.1651 94.736C18.5091 94.384 17.9891 93.912 17.6051 93.32C17.2371 92.712 17.0531 92.032 17.0531 91.28ZM24.8771 91.928C25.0531 91.736 25.1971 91.544 25.3091 91.352C25.4211 91.16 25.4771 90.984 25.4771 90.824V89.552C25.0931 89.392 24.6771 89.272 24.2291 89.192C23.7811 89.096 23.3571 89.048 22.9571 89.048C22.1251 89.048 21.4371 89.232 20.8931 89.6C20.3651 89.952 20.1011 90.424 20.1011 91.016C20.1011 91.336 20.1891 91.64 20.3651 91.928C20.5411 92.216 20.7971 92.448 21.1331 92.624C21.4691 92.8 21.8691 92.888 22.3331 92.888C22.8131 92.888 23.2851 92.8 23.7491 92.624C24.2131 92.432 24.5891 92.2 24.8771 91.928ZM38.8504 95.24C37.8904 95.24 37.0344 95.024 36.2824 94.592C35.5304 94.16 34.9384 93.568 34.5064 92.816V95H31.6984V77.48H34.9144V84.632C35.3624 83.88 35.9464 83.288 36.6664 82.856C37.4024 82.424 38.2584 82.208 39.2344 82.208C40.0504 82.208 40.7944 82.384 41.4664 82.736C42.1384 83.072 42.7144 83.544 43.1944 84.152C43.6904 84.76 44.0664 85.456 44.3224 86.24C44.5944 87.024 44.7304 87.864 44.7304 88.76C44.7304 89.656 44.5784 90.496 44.2744 91.28C43.9864 92.064 43.5784 92.76 43.0504 93.368C42.5224 93.96 41.8984 94.424 41.1784 94.76C40.4744 95.08 39.6984 95.24 38.8504 95.24ZM37.9624 92.504C38.4744 92.504 38.9384 92.408 39.3544 92.216C39.7864 92.008 40.1544 91.736 40.4584 91.4C40.7784 91.064 41.0184 90.672 41.1784 90.224C41.3544 89.76 41.4424 89.28 41.4424 88.784C41.4424 88.096 41.2984 87.464 41.0104 86.888C40.7384 86.296 40.3544 85.824 39.8584 85.472C39.3784 85.12 38.8104 84.944 38.1544 84.944C37.6904 84.944 37.2424 85.056 36.8104 85.28C36.3944 85.488 36.0184 85.776 35.6824 86.144C35.3624 86.512 35.1064 86.928 34.9144 87.392V90.392C35.0104 90.712 35.1624 91 35.3704 91.256C35.5944 91.512 35.8504 91.736 36.1384 91.928C36.4264 92.104 36.7224 92.248 37.0264 92.36C37.3464 92.456 37.6584 92.504 37.9624 92.504ZM46.9093 95V82.424H50.1253V95H46.9093ZM46.9093 80.672V77.48H50.1253V80.672H46.9093ZM64.7145 95H61.4985V87.944C61.4985 86.936 61.3225 86.2 60.9705 85.736C60.6185 85.272 60.1305 85.04 59.5065 85.04C59.0745 85.04 58.6345 85.152 58.1865 85.376C57.7545 85.6 57.3625 85.912 57.0105 86.312C56.6585 86.696 56.4025 87.144 56.2425 87.656V95H53.0265V82.424H55.9305V84.752C56.2505 84.208 56.6585 83.752 57.1545 83.384C57.6505 83 58.2185 82.712 58.8585 82.52C59.5145 82.312 60.2025 82.208 60.9225 82.208C61.7065 82.208 62.3465 82.352 62.8425 82.64C63.3545 82.912 63.7385 83.288 63.9945 83.768C64.2665 84.232 64.4505 84.76 64.5465 85.352C64.6585 85.944 64.7145 86.544 64.7145 87.152V95ZM73.2765 95V82.424H76.4925V95H73.2765ZM73.2765 80.672V77.48H76.4925V80.672H73.2765ZM84.0257 95.24C82.9537 95.24 81.9297 95.064 80.9537 94.712C79.9777 94.36 79.1377 93.84 78.4337 93.152L79.5857 91.064C80.3377 91.672 81.0737 92.12 81.7937 92.408C82.5297 92.696 83.2337 92.84 83.9057 92.84C84.5297 92.84 85.0257 92.728 85.3937 92.504C85.7777 92.28 85.9697 91.944 85.9697 91.496C85.9697 91.192 85.8657 90.96 85.6577 90.8C85.4497 90.624 85.1457 90.472 84.7457 90.344C84.3617 90.216 83.8897 90.072 83.3297 89.912C82.4017 89.608 81.6257 89.312 81.0017 89.024C80.3777 88.736 79.9057 88.376 79.5857 87.944C79.2817 87.496 79.1297 86.928 79.1297 86.24C79.1297 85.408 79.3377 84.696 79.7537 84.104C80.1857 83.496 80.7777 83.024 81.5297 82.688C82.2977 82.352 83.1937 82.184 84.2177 82.184C85.1137 82.184 85.9617 82.328 86.7617 82.616C87.5617 82.888 88.2897 83.336 88.9457 83.96L87.6497 86C87.0097 85.504 86.4017 85.144 85.8257 84.92C85.2497 84.68 84.6657 84.56 84.0737 84.56C83.7377 84.56 83.4177 84.6 83.1137 84.68C82.8257 84.76 82.5857 84.896 82.3937 85.088C82.2177 85.264 82.1297 85.52 82.1297 85.856C82.1297 86.16 82.2097 86.4 82.3697 86.576C82.5457 86.736 82.8017 86.88 83.1377 87.008C83.4897 87.136 83.9137 87.28 84.4097 87.44C85.4177 87.728 86.2657 88.024 86.9537 88.328C87.6577 88.632 88.1857 89.008 88.5377 89.456C88.8897 89.888 89.0657 90.488 89.0657 91.256C89.0657 92.504 88.6097 93.48 87.6977 94.184C86.7857 94.888 85.5617 95.24 84.0257 95.24ZM97.7867 95V85.544H96.1307V83.096H97.7867V82.328C97.7867 81.288 97.9547 80.392 98.2907 79.64C98.6427 78.872 99.1307 78.28 99.7547 77.864C100.395 77.448 101.139 77.24 101.987 77.24C102.499 77.24 103.011 77.304 103.523 77.432C104.051 77.56 104.571 77.744 105.083 77.984L104.435 80.408C104.195 80.28 103.915 80.176 103.595 80.096C103.275 80 102.971 79.952 102.683 79.952C102.139 79.952 101.723 80.144 101.435 80.528C101.147 80.912 101.003 81.472 101.003 82.208V83.096H104.075V85.544H101.003V95H97.7867ZM105.782 90.296V82.424H108.998V89.6C108.998 90.56 109.174 91.288 109.526 91.784C109.878 92.264 110.398 92.504 111.086 92.504C111.502 92.504 111.91 92.424 112.31 92.264C112.726 92.088 113.102 91.832 113.438 91.496C113.79 91.16 114.086 90.736 114.326 90.224V82.424H117.542V91.4C117.542 91.736 117.598 91.976 117.71 92.12C117.838 92.264 118.038 92.352 118.31 92.384V95C117.99 95.048 117.718 95.08 117.494 95.096C117.286 95.128 117.094 95.144 116.918 95.144C116.342 95.144 115.87 95.016 115.502 94.76C115.15 94.488 114.942 94.12 114.878 93.656L114.806 92.648C114.246 93.496 113.526 94.144 112.646 94.592C111.766 95.024 110.798 95.24 109.742 95.24C108.446 95.24 107.462 94.824 106.79 93.992C106.118 93.144 105.782 91.912 105.782 90.296ZM120.713 77.48H123.929V90.968C123.929 91.544 124.025 91.936 124.217 92.144C124.409 92.336 124.673 92.432 125.009 92.432C125.265 92.432 125.529 92.4 125.801 92.336C126.073 92.272 126.313 92.192 126.521 92.096L126.953 94.544C126.521 94.752 126.017 94.912 125.441 95.024C124.865 95.136 124.345 95.192 123.881 95.192C122.873 95.192 122.089 94.928 121.529 94.4C120.985 93.856 120.713 93.088 120.713 92.096V77.48ZM128.331 77.48H131.547V90.968C131.547 91.544 131.643 91.936 131.835 92.144C132.027 92.336 132.291 92.432 132.627 92.432C132.883 92.432 133.147 92.4 133.419 92.336C133.691 92.272 133.931 92.192 134.139 92.096L134.571 94.544C134.139 94.752 133.635 94.912 133.059 95.024C132.483 95.136 131.963 95.192 131.499 95.192C130.491 95.192 129.707 94.928 129.147 94.4C128.603 93.856 128.331 93.088 128.331 92.096V77.48ZM135.626 97.448C135.914 97.512 136.178 97.568 136.418 97.616C136.674 97.664 136.89 97.688 137.066 97.688C137.37 97.688 137.618 97.608 137.81 97.448C138.018 97.304 138.218 97.032 138.41 96.632C138.602 96.248 138.802 95.704 139.01 95L134.042 82.424H137.378L140.762 91.712L143.738 82.424H146.81L141.53 97.496C141.338 98.056 141.042 98.56 140.642 99.008C140.258 99.472 139.77 99.832 139.178 100.088C138.602 100.36 137.954 100.496 137.234 100.496C136.978 100.496 136.722 100.472 136.466 100.424C136.21 100.392 135.93 100.328 135.626 100.232V97.448ZM153.714 95V82.424H156.93V95H153.714ZM153.714 80.672V77.48H156.93V80.672H153.714ZM171.519 95H168.303V87.944C168.303 86.936 168.127 86.2 167.775 85.736C167.423 85.272 166.935 85.04 166.311 85.04C165.879 85.04 165.439 85.152 164.991 85.376C164.559 85.6 164.167 85.912 163.815 86.312C163.463 86.696 163.207 87.144 163.047 87.656V95H159.831V82.424H162.735V84.752C163.055 84.208 163.463 83.752 163.959 83.384C164.455 83 165.023 82.712 165.663 82.52C166.319 82.312 167.007 82.208 167.727 82.208C168.511 82.208 169.151 82.352 169.647 82.64C170.159 82.912 170.543 83.288 170.799 83.768C171.071 84.232 171.255 84.76 171.351 85.352C171.463 85.944 171.519 86.544 171.519 87.152V95ZM181.781 94.352C181.509 94.464 181.181 94.592 180.797 94.736C180.413 94.88 179.997 94.992 179.549 95.072C179.117 95.168 178.677 95.216 178.229 95.216C177.637 95.216 177.093 95.112 176.597 94.904C176.101 94.696 175.701 94.368 175.397 93.92C175.109 93.456 174.965 92.856 174.965 92.12V84.896H173.309V82.424H174.965V78.344H178.181V82.424H180.821V84.896H178.181V91.04C178.197 91.472 178.317 91.784 178.541 91.976C178.765 92.168 179.045 92.264 179.381 92.264C179.717 92.264 180.045 92.208 180.365 92.096C180.685 91.984 180.941 91.888 181.133 91.808L181.781 94.352ZM189.148 95.24C188.14 95.24 187.228 95.072 186.412 94.736C185.596 94.384 184.9 93.912 184.324 93.32C183.748 92.712 183.3 92.024 182.98 91.256C182.676 90.472 182.524 89.648 182.524 88.784C182.524 87.584 182.788 86.488 183.316 85.496C183.86 84.504 184.628 83.712 185.62 83.12C186.628 82.512 187.812 82.208 189.172 82.208C190.548 82.208 191.724 82.512 192.7 83.12C193.676 83.712 194.42 84.504 194.932 85.496C195.46 86.472 195.724 87.528 195.724 88.664C195.724 88.856 195.716 89.056 195.7 89.264C195.684 89.456 195.668 89.616 195.652 89.744H185.932C185.996 90.384 186.18 90.944 186.484 91.424C186.804 91.904 187.204 92.272 187.684 92.528C188.18 92.768 188.708 92.888 189.268 92.888C189.908 92.888 190.508 92.736 191.068 92.432C191.644 92.112 192.036 91.696 192.244 91.184L195.004 91.952C194.7 92.592 194.26 93.16 193.684 93.656C193.124 94.152 192.46 94.544 191.692 94.832C190.924 95.104 190.076 95.24 189.148 95.24ZM185.86 87.704H192.436C192.372 87.064 192.188 86.512 191.884 86.048C191.596 85.568 191.212 85.2 190.732 84.944C190.252 84.672 189.716 84.536 189.124 84.536C188.548 84.536 188.02 84.672 187.54 84.944C187.076 85.2 186.692 85.568 186.388 86.048C186.1 86.512 185.924 87.064 185.86 87.704ZM202.603 95.072C201.771 95.072 201.003 94.912 200.299 94.592C199.611 94.256 199.011 93.792 198.499 93.2C198.003 92.608 197.619 91.928 197.347 91.16C197.075 90.392 196.939 89.576 196.939 88.712C196.939 87.8 197.083 86.952 197.371 86.168C197.659 85.384 198.059 84.696 198.571 84.104C199.099 83.496 199.715 83.032 200.419 82.712C201.139 82.376 201.931 82.208 202.795 82.208C203.771 82.208 204.627 82.432 205.363 82.88C206.099 83.312 206.707 83.896 207.187 84.632V82.424H209.995V94.4C209.995 95.648 209.691 96.712 209.083 97.592C208.491 98.488 207.667 99.168 206.611 99.632C205.555 100.112 204.355 100.352 203.011 100.352C201.651 100.352 200.499 100.12 199.555 99.656C198.611 99.208 197.803 98.568 197.131 97.736L198.883 96.032C199.363 96.624 199.963 97.088 200.683 97.424C201.419 97.76 202.195 97.928 203.011 97.928C203.699 97.928 204.323 97.8 204.883 97.544C205.459 97.304 205.915 96.92 206.251 96.392C206.603 95.88 206.779 95.216 206.779 94.4V92.816C206.363 93.536 205.771 94.096 205.003 94.496C204.251 94.88 203.451 95.072 202.603 95.072ZM203.683 92.504C204.035 92.504 204.371 92.448 204.691 92.336C205.011 92.224 205.307 92.072 205.579 91.88C205.851 91.688 206.091 91.464 206.299 91.208C206.507 90.936 206.667 90.664 206.779 90.392V87.392C206.587 86.896 206.315 86.464 205.963 86.096C205.627 85.728 205.243 85.448 204.811 85.256C204.395 85.048 203.955 84.944 203.491 84.944C202.995 84.944 202.547 85.048 202.147 85.256C201.747 85.464 201.403 85.76 201.115 86.144C200.827 86.512 200.603 86.928 200.443 87.392C200.299 87.84 200.227 88.312 200.227 88.808C200.227 89.32 200.315 89.8 200.491 90.248C200.667 90.696 200.907 91.088 201.211 91.424C201.531 91.76 201.899 92.024 202.315 92.216C202.747 92.408 203.203 92.504 203.683 92.504ZM220.382 85.208C219.406 85.208 218.534 85.4 217.766 85.784C216.998 86.152 216.446 86.688 216.11 87.392V95H212.894V82.424H215.846V85.112C216.294 84.248 216.862 83.568 217.55 83.072C218.238 82.576 218.966 82.304 219.734 82.256C219.91 82.256 220.046 82.256 220.142 82.256C220.238 82.256 220.318 82.264 220.382 82.28V85.208ZM221.241 91.28C221.241 90.464 221.465 89.752 221.913 89.144C222.377 88.52 223.017 88.04 223.833 87.704C224.649 87.368 225.585 87.2 226.641 87.2C227.169 87.2 227.705 87.24 228.249 87.32C228.793 87.4 229.265 87.528 229.665 87.704V87.032C229.665 86.232 229.425 85.616 228.945 85.184C228.481 84.752 227.785 84.536 226.857 84.536C226.169 84.536 225.513 84.656 224.889 84.896C224.265 85.136 223.609 85.488 222.921 85.952L221.889 83.84C222.721 83.296 223.569 82.888 224.433 82.616C225.313 82.344 226.233 82.208 227.193 82.208C228.985 82.208 230.377 82.656 231.369 83.552C232.377 84.448 232.881 85.728 232.881 87.392V91.4C232.881 91.736 232.937 91.976 233.049 92.12C233.177 92.264 233.377 92.352 233.649 92.384V95C233.361 95.048 233.097 95.088 232.857 95.12C232.633 95.152 232.441 95.168 232.281 95.168C231.641 95.168 231.153 95.024 230.817 94.736C230.497 94.448 230.297 94.096 230.217 93.68L230.145 93.032C229.601 93.736 228.921 94.28 228.105 94.664C227.289 95.048 226.457 95.24 225.609 95.24C224.777 95.24 224.025 95.072 223.353 94.736C222.697 94.384 222.177 93.912 221.793 93.32C221.425 92.712 221.241 92.032 221.241 91.28ZM229.065 91.928C229.241 91.736 229.385 91.544 229.497 91.352C229.609 91.16 229.665 90.984 229.665 90.824V89.552C229.281 89.392 228.865 89.272 228.417 89.192C227.969 89.096 227.545 89.048 227.145 89.048C226.313 89.048 225.625 89.232 225.081 89.6C224.553 89.952 224.289 90.424 224.289 91.016C224.289 91.336 224.377 91.64 224.553 91.928C224.729 92.216 224.985 92.448 225.321 92.624C225.657 92.8 226.057 92.888 226.521 92.888C227.001 92.888 227.473 92.8 227.937 92.624C228.401 92.432 228.777 92.2 229.065 91.928ZM243.305 94.352C243.033 94.464 242.705 94.592 242.321 94.736C241.937 94.88 241.521 94.992 241.073 95.072C240.641 95.168 240.201 95.216 239.753 95.216C239.161 95.216 238.617 95.112 238.121 94.904C237.625 94.696 237.225 94.368 236.921 93.92C236.633 93.456 236.489 92.856 236.489 92.12V84.896H234.833V82.424H236.489V78.344H239.705V82.424H242.345V84.896H239.705V91.04C239.721 91.472 239.841 91.784 240.065 91.976C240.289 92.168 240.569 92.264 240.905 92.264C241.241 92.264 241.569 92.208 241.889 92.096C242.209 91.984 242.465 91.888 242.657 91.808L243.305 94.352ZM250.671 95.24C249.663 95.24 248.751 95.072 247.935 94.736C247.119 94.384 246.423 93.912 245.847 93.32C245.271 92.712 244.823 92.024 244.503 91.256C244.199 90.472 244.047 89.648 244.047 88.784C244.047 87.584 244.311 86.488 244.839 85.496C245.383 84.504 246.151 83.712 247.143 83.12C248.151 82.512 249.335 82.208 250.695 82.208C252.071 82.208 253.247 82.512 254.223 83.12C255.199 83.712 255.943 84.504 256.455 85.496C256.983 86.472 257.247 87.528 257.247 88.664C257.247 88.856 257.239 89.056 257.223 89.264C257.207 89.456 257.191 89.616 257.175 89.744H247.455C247.519 90.384 247.703 90.944 248.007 91.424C248.327 91.904 248.727 92.272 249.207 92.528C249.703 92.768 250.231 92.888 250.791 92.888C251.431 92.888 252.031 92.736 252.591 92.432C253.167 92.112 253.559 91.696 253.767 91.184L256.527 91.952C256.223 92.592 255.783 93.16 255.207 93.656C254.647 94.152 253.983 94.544 253.215 94.832C252.447 95.104 251.599 95.24 250.671 95.24ZM247.383 87.704H253.959C253.895 87.064 253.711 86.512 253.407 86.048C253.119 85.568 252.735 85.2 252.255 84.944C251.775 84.672 251.239 84.536 250.647 84.536C250.071 84.536 249.543 84.672 249.063 84.944C248.599 85.2 248.215 85.568 247.911 86.048C247.623 86.512 247.447 87.064 247.383 87.704ZM258.438 88.712C258.438 87.496 258.678 86.4 259.158 85.424C259.638 84.432 260.302 83.648 261.15 83.072C261.998 82.496 262.966 82.208 264.054 82.208C264.982 82.208 265.814 82.44 266.55 82.904C267.302 83.352 267.886 83.928 268.302 84.632V77.48H271.518V91.4C271.518 91.736 271.574 91.976 271.686 92.12C271.798 92.264 271.99 92.352 272.262 92.384V95C271.702 95.112 271.246 95.168 270.894 95.168C270.318 95.168 269.838 95.024 269.454 94.736C269.086 94.448 268.878 94.072 268.83 93.608L268.782 92.816C268.318 93.6 267.686 94.2 266.886 94.616C266.102 95.032 265.278 95.24 264.414 95.24C263.55 95.24 262.75 95.072 262.014 94.736C261.294 94.4 260.662 93.936 260.118 93.344C259.59 92.752 259.174 92.064 258.87 91.28C258.582 90.48 258.438 89.624 258.438 88.712ZM268.302 90.392V87.392C268.142 86.928 267.886 86.512 267.534 86.144C267.182 85.776 266.79 85.488 266.358 85.28C265.926 85.056 265.494 84.944 265.062 84.944C264.566 84.944 264.118 85.048 263.718 85.256C263.318 85.464 262.966 85.744 262.662 86.096C262.374 86.448 262.15 86.856 261.99 87.32C261.846 87.784 261.774 88.272 261.774 88.784C261.774 89.296 261.854 89.784 262.014 90.248C262.19 90.696 262.438 91.088 262.758 91.424C263.078 91.76 263.446 92.024 263.862 92.216C264.294 92.408 264.758 92.504 265.254 92.504C265.558 92.504 265.862 92.456 266.166 92.36C266.486 92.248 266.782 92.104 267.054 91.928C267.342 91.736 267.59 91.512 267.798 91.256C268.022 90.984 268.19 90.696 268.302 90.392ZM17.064 111.424H20.112L14.856 124H12.168L10.056 118.6L7.992 124H5.28L0.048 111.424H3.072L6.816 120.928L8.28 116.824L6.096 111.448H8.76L10.056 115.288L11.376 111.448H14.04L11.856 116.824L13.344 120.928L17.064 111.424ZM21.5968 124V111.424H24.8128V124H21.5968ZM21.5968 109.672V106.48H24.8128V109.672H21.5968ZM35.25 123.352C34.978 123.464 34.65 123.592 34.266 123.736C33.882 123.88 33.466 123.992 33.018 124.072C32.586 124.168 32.146 124.216 31.698 124.216C31.106 124.216 30.562 124.112 30.066 123.904C29.57 123.696 29.17 123.368 28.866 122.92C28.578 122.456 28.434 121.856 28.434 121.12V113.896H26.778V111.424H28.434V107.344H31.65V111.424H34.29V113.896H31.65V120.04C31.666 120.472 31.786 120.784 32.01 120.976C32.234 121.168 32.514 121.264 32.85 121.264C33.186 121.264 33.514 121.208 33.834 121.096C34.154 120.984 34.41 120.888 34.602 120.808L35.25 123.352ZM48.6129 124H45.3969V116.944C45.3969 115.968 45.2049 115.24 44.8209 114.76C44.4529 114.28 43.9409 114.04 43.2849 114.04C42.9009 114.04 42.4929 114.152 42.0609 114.376C41.6289 114.6 41.2369 114.912 40.8849 115.312C40.5489 115.696 40.3009 116.144 40.1409 116.656V124H36.9249V106.48H40.1409V113.752C40.6049 112.952 41.2369 112.328 42.0369 111.88C42.8369 111.432 43.7089 111.208 44.6529 111.208C45.4689 111.208 46.1329 111.352 46.6449 111.64C47.1569 111.912 47.5569 112.288 47.8449 112.768C48.1329 113.232 48.3329 113.76 48.4449 114.352C48.5569 114.928 48.6129 115.528 48.6129 116.152V124Z" fill="#D1D8FF"/>
<path d="M61.3689 106.96H64.7289L70.9929 124H67.5849L66.0009 119.752H60.0489L58.4889 124H55.0809L61.3689 106.96ZM65.4009 117.424L63.0489 110.392L60.6009 117.424H65.4009ZM84.0122 109.864H78.5642V124H75.2762V109.864H69.8282V106.96H84.0122V109.864ZM91.1901 124V106.96H98.4141C99.1981 106.96 99.9181 107.12 100.574 107.44C101.23 107.76 101.798 108.192 102.278 108.736C102.774 109.28 103.158 109.888 103.43 110.56C103.702 111.232 103.838 111.92 103.838 112.624C103.838 113.584 103.614 114.496 103.166 115.36C102.718 116.224 102.102 116.928 101.318 117.472C100.534 118.016 99.6061 118.288 98.5341 118.288H94.5021V124H91.1901ZM94.5021 115.384H98.3421C98.7421 115.384 99.1021 115.272 99.4221 115.048C99.7421 114.824 99.9981 114.504 100.19 114.088C100.382 113.656 100.478 113.168 100.478 112.624C100.478 112.032 100.366 111.528 100.142 111.112C99.9341 110.696 99.6541 110.384 99.3021 110.176C98.9661 109.968 98.5981 109.864 98.1981 109.864H94.5021V115.384ZM113.319 114.208C112.343 114.208 111.471 114.4 110.703 114.784C109.935 115.152 109.383 115.688 109.047 116.392V124H105.831V111.424H108.783V114.112C109.231 113.248 109.799 112.568 110.487 112.072C111.175 111.576 111.903 111.304 112.671 111.256C112.847 111.256 112.983 111.256 113.079 111.256C113.175 111.256 113.255 111.264 113.319 111.28V114.208ZM120.756 124.24C119.732 124.24 118.812 124.072 117.996 123.736C117.18 123.384 116.484 122.904 115.908 122.296C115.348 121.688 114.916 120.992 114.612 120.208C114.308 119.424 114.156 118.6 114.156 117.736C114.156 116.856 114.308 116.024 114.612 115.24C114.916 114.456 115.348 113.76 115.908 113.152C116.484 112.544 117.18 112.072 117.996 111.736C118.812 111.384 119.732 111.208 120.756 111.208C121.78 111.208 122.692 111.384 123.492 111.736C124.308 112.072 125.004 112.544 125.58 113.152C126.156 113.76 126.588 114.456 126.876 115.24C127.18 116.024 127.332 116.856 127.332 117.736C127.332 118.6 127.18 119.424 126.876 120.208C126.588 120.992 126.156 121.688 125.58 122.296C125.02 122.904 124.332 123.384 123.516 123.736C122.7 124.072 121.78 124.24 120.756 124.24ZM117.468 117.736C117.468 118.472 117.612 119.128 117.9 119.704C118.188 120.264 118.58 120.704 119.076 121.024C119.572 121.344 120.132 121.504 120.756 121.504C121.364 121.504 121.916 121.344 122.412 121.024C122.908 120.688 123.3 120.24 123.588 119.68C123.892 119.104 124.044 118.448 124.044 117.712C124.044 116.992 123.892 116.344 123.588 115.768C123.3 115.192 122.908 114.744 122.412 114.424C121.916 114.104 121.364 113.944 120.756 113.944C120.132 113.944 119.572 114.112 119.076 114.448C118.58 114.768 118.188 115.216 117.9 115.792C117.612 116.352 117.468 117 117.468 117.736ZM136.852 123.352C136.58 123.464 136.252 123.592 135.868 123.736C135.484 123.88 135.068 123.992 134.62 124.072C134.188 124.168 133.748 124.216 133.3 124.216C132.708 124.216 132.164 124.112 131.668 123.904C131.172 123.696 130.772 123.368 130.468 122.92C130.18 122.456 130.036 121.856 130.036 121.12V113.896H128.38V111.424H130.036V107.344H133.252V111.424H135.892V113.896H133.252V120.04C133.268 120.472 133.388 120.784 133.612 120.976C133.836 121.168 134.116 121.264 134.452 121.264C134.788 121.264 135.116 121.208 135.436 121.096C135.756 120.984 136.012 120.888 136.204 120.808L136.852 123.352ZM144.194 124.24C143.17 124.24 142.25 124.072 141.434 123.736C140.618 123.384 139.922 122.904 139.346 122.296C138.786 121.688 138.354 120.992 138.05 120.208C137.746 119.424 137.594 118.6 137.594 117.736C137.594 116.856 137.746 116.024 138.05 115.24C138.354 114.456 138.786 113.76 139.346 113.152C139.922 112.544 140.618 112.072 141.434 111.736C142.25 111.384 143.17 111.208 144.194 111.208C145.218 111.208 146.13 111.384 146.93 111.736C147.746 112.072 148.442 112.544 149.018 113.152C149.594 113.76 150.026 114.456 150.314 115.24C150.618 116.024 150.77 116.856 150.77 117.736C150.77 118.6 150.618 119.424 150.314 120.208C150.026 120.992 149.594 121.688 149.018 122.296C148.458 122.904 147.77 123.384 146.954 123.736C146.138 124.072 145.218 124.24 144.194 124.24ZM140.906 117.736C140.906 118.472 141.05 119.128 141.338 119.704C141.626 120.264 142.018 120.704 142.514 121.024C143.01 121.344 143.57 121.504 144.194 121.504C144.802 121.504 145.354 121.344 145.85 121.024C146.346 120.688 146.738 120.24 147.026 119.68C147.33 119.104 147.482 118.448 147.482 117.712C147.482 116.992 147.33 116.344 147.026 115.768C146.738 115.192 146.346 114.744 145.85 114.424C145.354 114.104 144.802 113.944 144.194 113.944C143.57 113.944 143.01 114.112 142.514 114.448C142.018 114.768 141.626 115.216 141.338 115.792C141.05 116.352 140.906 117 140.906 117.736ZM158.797 124.24C157.773 124.24 156.853 124.072 156.037 123.736C155.221 123.384 154.525 122.904 153.949 122.296C153.373 121.672 152.925 120.968 152.605 120.184C152.301 119.4 152.149 118.576 152.149 117.712C152.149 116.528 152.413 115.448 152.941 114.472C153.485 113.48 154.253 112.688 155.245 112.096C156.237 111.504 157.413 111.208 158.773 111.208C160.133 111.208 161.301 111.504 162.277 112.096C163.253 112.688 163.981 113.464 164.461 114.424L161.317 115.384C161.045 114.92 160.685 114.568 160.237 114.328C159.789 114.072 159.293 113.944 158.749 113.944C158.141 113.944 157.581 114.104 157.069 114.424C156.573 114.728 156.181 115.168 155.893 115.744C155.605 116.304 155.461 116.96 155.461 117.712C155.461 118.448 155.605 119.104 155.893 119.68C156.197 120.24 156.597 120.688 157.093 121.024C157.589 121.344 158.141 121.504 158.749 121.504C159.133 121.504 159.493 121.44 159.829 121.312C160.181 121.184 160.493 121.008 160.765 120.784C161.037 120.56 161.237 120.304 161.365 120.016L164.509 120.976C164.221 121.6 163.797 122.16 163.237 122.656C162.693 123.152 162.045 123.544 161.293 123.832C160.557 124.104 159.725 124.24 158.797 124.24ZM172.178 124.24C171.154 124.24 170.234 124.072 169.418 123.736C168.602 123.384 167.906 122.904 167.33 122.296C166.77 121.688 166.338 120.992 166.034 120.208C165.73 119.424 165.578 118.6 165.578 117.736C165.578 116.856 165.73 116.024 166.034 115.24C166.338 114.456 166.77 113.76 167.33 113.152C167.906 112.544 168.602 112.072 169.418 111.736C170.234 111.384 171.154 111.208 172.178 111.208C173.202 111.208 174.114 111.384 174.914 111.736C175.73 112.072 176.426 112.544 177.002 113.152C177.578 113.76 178.01 114.456 178.298 115.24C178.602 116.024 178.754 116.856 178.754 117.736C178.754 118.6 178.602 119.424 178.298 120.208C178.01 120.992 177.578 121.688 177.002 122.296C176.442 122.904 175.754 123.384 174.938 123.736C174.122 124.072 173.202 124.24 172.178 124.24ZM168.89 117.736C168.89 118.472 169.034 119.128 169.322 119.704C169.61 120.264 170.002 120.704 170.498 121.024C170.994 121.344 171.554 121.504 172.178 121.504C172.786 121.504 173.338 121.344 173.834 121.024C174.33 120.688 174.722 120.24 175.01 119.68C175.314 119.104 175.466 118.448 175.466 117.712C175.466 116.992 175.314 116.344 175.01 115.768C174.722 115.192 174.33 114.744 173.834 114.424C173.338 114.104 172.786 113.944 172.178 113.944C171.554 113.944 170.994 114.112 170.498 114.448C170.002 114.768 169.61 115.216 169.322 115.792C169.034 116.352 168.89 117 168.89 117.736ZM180.901 106.48H184.117V119.968C184.117 120.544 184.213 120.936 184.405 121.144C184.597 121.336 184.861 121.432 185.197 121.432C185.453 121.432 185.717 121.4 185.989 121.336C186.261 121.272 186.501 121.192 186.709 121.096L187.141 123.544C186.709 123.752 186.205 123.912 185.629 124.024C185.053 124.136 184.533 124.192 184.069 124.192C183.061 124.192 182.277 123.928 181.717 123.4C181.173 122.856 180.901 122.088 180.901 121.096V106.48Z" fill="#00BD7B"/>
<path d="M6.21 145.292H7.74L9.432 149.738L11.142 145.292H12.672L10.458 150.854L12.654 156.128L16.974 145.22H18.738L13.392 158H11.988L9.45 151.97L6.894 158H5.49L0.162 145.22H1.908L6.246 156.128L8.424 150.854L6.21 145.292ZM23.0844 158.18C22.3764 158.18 21.7284 158.054 21.1404 157.802C20.5644 157.538 20.0604 157.184 19.6284 156.74C19.2084 156.284 18.8784 155.762 18.6384 155.174C18.4104 154.586 18.2964 153.962 18.2964 153.302C18.2964 152.414 18.5004 151.604 18.9084 150.872C19.3164 150.14 19.8804 149.552 20.6004 149.108C21.3324 148.664 22.1664 148.442 23.1024 148.442C24.0504 148.442 24.8724 148.67 25.5684 149.126C26.2764 149.57 26.8224 150.158 27.2064 150.89C27.6024 151.61 27.8004 152.39 27.8004 153.23C27.8004 153.35 27.7944 153.47 27.7824 153.59C27.7824 153.698 27.7764 153.782 27.7644 153.842H19.9704C20.0184 154.454 20.1864 155 20.4744 155.48C20.7744 155.948 21.1584 156.32 21.6264 156.596C22.0944 156.86 22.5984 156.992 23.1384 156.992C23.7144 156.992 24.2544 156.848 24.7584 156.56C25.2744 156.272 25.6284 155.894 25.8204 155.426L27.1884 155.804C26.9844 156.26 26.6784 156.668 26.2704 157.028C25.8744 157.388 25.4004 157.67 24.8484 157.874C24.3084 158.078 23.7204 158.18 23.0844 158.18ZM19.9164 152.744H26.3244C26.2764 152.132 26.1024 151.592 25.8024 151.124C25.5024 150.656 25.1184 150.29 24.6504 150.026C24.1824 149.762 23.6664 149.63 23.1024 149.63C22.5504 149.63 22.0404 149.762 21.5724 150.026C21.1044 150.29 20.7204 150.656 20.4204 151.124C20.1324 151.592 19.9644 152.132 19.9164 152.744ZM28.2604 148.982L28.6204 146.912H28.0804V144.86H29.5744V146.912L29.0344 148.982H28.2604ZM35.7948 149.99C35.0028 150.002 34.3008 150.206 33.6888 150.602C33.0888 150.986 32.6628 151.52 32.4108 152.204V158H30.8268V148.604H32.3028V150.782C32.6268 150.134 33.0528 149.612 33.5808 149.216C34.1208 148.808 34.6848 148.58 35.2728 148.532C35.3928 148.532 35.4948 148.532 35.5788 148.532C35.6628 148.532 35.7348 148.538 35.7948 148.55V149.99ZM41.2954 158.18C40.5874 158.18 39.9394 158.054 39.3514 157.802C38.7754 157.538 38.2714 157.184 37.8394 156.74C37.4194 156.284 37.0894 155.762 36.8494 155.174C36.6214 154.586 36.5074 153.962 36.5074 153.302C36.5074 152.414 36.7114 151.604 37.1194 150.872C37.5274 150.14 38.0914 149.552 38.8114 149.108C39.5434 148.664 40.3774 148.442 41.3134 148.442C42.2614 148.442 43.0834 148.67 43.7794 149.126C44.4874 149.57 45.0334 150.158 45.4174 150.89C45.8134 151.61 46.0114 152.39 46.0114 153.23C46.0114 153.35 46.0054 153.47 45.9934 153.59C45.9934 153.698 45.9874 153.782 45.9754 153.842H38.1814C38.2294 154.454 38.3974 155 38.6854 155.48C38.9854 155.948 39.3694 156.32 39.8374 156.596C40.3054 156.86 40.8094 156.992 41.3494 156.992C41.9254 156.992 42.4654 156.848 42.9694 156.56C43.4854 156.272 43.8394 155.894 44.0314 155.426L45.3994 155.804C45.1954 156.26 44.8894 156.668 44.4814 157.028C44.0854 157.388 43.6114 157.67 43.0594 157.874C42.5194 158.078 41.9314 158.18 41.2954 158.18ZM38.1274 152.744H44.5354C44.4874 152.132 44.3134 151.592 44.0134 151.124C43.7134 150.656 43.3294 150.29 42.8614 150.026C42.3934 149.762 41.8774 149.63 41.3134 149.63C40.7614 149.63 40.2514 149.762 39.7834 150.026C39.3154 150.29 38.9314 150.656 38.6314 151.124C38.3434 151.592 38.1754 152.132 38.1274 152.744ZM51.5869 155.282C51.5869 154.682 51.7549 154.166 52.0909 153.734C52.4389 153.29 52.9129 152.948 53.5129 152.708C54.1129 152.468 54.8089 152.348 55.6009 152.348C56.0209 152.348 56.4649 152.384 56.9329 152.456C57.4009 152.516 57.8149 152.612 58.1749 152.744V152.06C58.1749 151.34 57.9589 150.776 57.5269 150.368C57.0949 149.948 56.4829 149.738 55.6909 149.738C55.1749 149.738 54.6769 149.834 54.1969 150.026C53.7289 150.206 53.2309 150.47 52.7029 150.818L52.1269 149.702C52.7389 149.282 53.3509 148.97 53.9629 148.766C54.5749 148.55 55.2109 148.442 55.8709 148.442C57.0709 148.442 58.0189 148.778 58.7149 149.45C59.4109 150.11 59.7589 151.034 59.7589 152.222V156.2C59.7589 156.392 59.7949 156.536 59.8669 156.632C59.9509 156.716 60.0829 156.764 60.2629 156.776V158C60.1069 158.024 59.9689 158.042 59.8489 158.054C59.7409 158.066 59.6509 158.072 59.5789 158.072C59.2069 158.072 58.9249 157.97 58.7329 157.766C58.5529 157.562 58.4509 157.346 58.4269 157.118L58.3909 156.524C57.9829 157.052 57.4489 157.46 56.7889 157.748C56.1289 158.036 55.4749 158.18 54.8269 158.18C54.2029 158.18 53.6449 158.054 53.1529 157.802C52.6609 157.538 52.2769 157.19 52.0009 156.758C51.7249 156.314 51.5869 155.822 51.5869 155.282ZM57.7069 155.948C57.8509 155.78 57.9649 155.612 58.0489 155.444C58.1329 155.264 58.1749 155.114 58.1749 154.994V153.824C57.8029 153.68 57.4129 153.572 57.0049 153.5C56.5969 153.416 56.1949 153.374 55.7989 153.374C54.9949 153.374 54.3409 153.536 53.8369 153.86C53.3449 154.172 53.0989 154.604 53.0989 155.156C53.0989 155.456 53.1769 155.75 53.3329 156.038C53.5009 156.314 53.7409 156.542 54.0529 156.722C54.3769 156.902 54.7729 156.992 55.2409 156.992C55.7329 156.992 56.2009 156.896 56.6449 156.704C57.0889 156.5 57.4429 156.248 57.7069 155.948ZM66.2324 153.32C66.2324 152.432 66.4124 151.622 66.7724 150.89C67.1444 150.146 67.6484 149.552 68.2844 149.108C68.9324 148.664 69.6704 148.442 70.4984 148.442C71.2544 148.442 71.9324 148.64 72.5324 149.036C73.1324 149.432 73.6004 149.912 73.9364 150.476V144.86H75.5204V156.2C75.5204 156.392 75.5564 156.536 75.6284 156.632C75.7124 156.716 75.8444 156.764 76.0244 156.776V158C75.7244 158.048 75.4904 158.072 75.3224 158.072C75.0104 158.072 74.7344 157.964 74.4944 157.748C74.2664 157.532 74.1524 157.292 74.1524 157.028V156.236C73.7804 156.836 73.2824 157.31 72.6584 157.658C72.0344 158.006 71.3864 158.18 70.7144 158.18C70.0664 158.18 69.4664 158.054 68.9144 157.802C68.3744 157.538 67.9004 157.178 67.4924 156.722C67.0964 156.266 66.7844 155.75 66.5564 155.174C66.3404 154.586 66.2324 153.968 66.2324 153.32ZM73.9364 154.706V152.006C73.7924 151.598 73.5584 151.232 73.2344 150.908C72.9104 150.572 72.5444 150.308 72.1364 150.116C71.7404 149.912 71.3444 149.81 70.9484 149.81C70.4804 149.81 70.0544 149.912 69.6704 150.116C69.2984 150.308 68.9744 150.572 68.6984 150.908C68.4344 151.232 68.2304 151.604 68.0864 152.024C67.9424 152.444 67.8704 152.882 67.8704 153.338C67.8704 153.806 67.9484 154.25 68.1044 154.67C68.2724 155.09 68.5004 155.462 68.7884 155.786C69.0884 156.11 69.4304 156.362 69.8144 156.542C70.2104 156.722 70.6364 156.812 71.0924 156.812C71.3804 156.812 71.6744 156.758 71.9744 156.65C72.2864 156.542 72.5804 156.392 72.8564 156.2C73.1324 156.008 73.3664 155.786 73.5584 155.534C73.7504 155.27 73.8764 154.994 73.9364 154.706ZM82.3227 158.18C81.6147 158.18 80.9667 158.054 80.3787 157.802C79.8027 157.538 79.2987 157.184 78.8667 156.74C78.4467 156.284 78.1167 155.762 77.8767 155.174C77.6487 154.586 77.5347 153.962 77.5347 153.302C77.5347 152.414 77.7387 151.604 78.1467 150.872C78.5547 150.14 79.1187 149.552 79.8387 149.108C80.5707 148.664 81.4047 148.442 82.3407 148.442C83.2887 148.442 84.1107 148.67 84.8067 149.126C85.5147 149.57 86.0607 150.158 86.4447 150.89C86.8407 151.61 87.0387 152.39 87.0387 153.23C87.0387 153.35 87.0327 153.47 87.0207 153.59C87.0207 153.698 87.0147 153.782 87.0027 153.842H79.2087C79.2567 154.454 79.4247 155 79.7127 155.48C80.0127 155.948 80.3967 156.32 80.8647 156.596C81.3327 156.86 81.8367 156.992 82.3767 156.992C82.9527 156.992 83.4927 156.848 83.9967 156.56C84.5127 156.272 84.8667 155.894 85.0587 155.426L86.4267 155.804C86.2227 156.26 85.9167 156.668 85.5087 157.028C85.1127 157.388 84.6387 157.67 84.0867 157.874C83.5467 158.078 82.9587 158.18 82.3227 158.18ZM79.1547 152.744H85.5627C85.5147 152.132 85.3407 151.592 85.0407 151.124C84.7407 150.656 84.3567 150.29 83.8887 150.026C83.4207 149.762 82.9047 149.63 82.3407 149.63C81.7887 149.63 81.2787 149.762 80.8107 150.026C80.3427 150.29 79.9587 150.656 79.6587 151.124C79.3707 151.592 79.2027 152.132 79.1547 152.744ZM92.9575 158.18C92.2495 158.18 91.6015 158.054 91.0135 157.802C90.4375 157.538 89.9335 157.178 89.5015 156.722C89.0815 156.266 88.7515 155.744 88.5115 155.156C88.2835 154.568 88.1695 153.944 88.1695 153.284C88.1695 152.396 88.3675 151.586 88.7635 150.854C89.1595 150.122 89.7175 149.54 90.4375 149.108C91.1575 148.664 91.9915 148.442 92.9395 148.442C93.8635 148.442 94.6675 148.652 95.3515 149.072C96.0475 149.48 96.5635 150.032 96.8995 150.728L95.3515 151.214C95.1115 150.77 94.7755 150.428 94.3435 150.188C93.9115 149.936 93.4315 149.81 92.9035 149.81C92.3275 149.81 91.7995 149.96 91.3195 150.26C90.8515 150.56 90.4795 150.974 90.2035 151.502C89.9275 152.018 89.7895 152.612 89.7895 153.284C89.7895 153.944 89.9275 154.544 90.2035 155.084C90.4915 155.612 90.8695 156.032 91.3375 156.344C91.8175 156.656 92.3455 156.812 92.9215 156.812C93.2935 156.812 93.6475 156.746 93.9835 156.614C94.3315 156.482 94.6315 156.308 94.8835 156.092C95.1475 155.864 95.3275 155.618 95.4235 155.354L96.9715 155.822C96.7795 156.278 96.4855 156.686 96.0895 157.046C95.7055 157.394 95.2435 157.67 94.7035 157.874C94.1755 158.078 93.5935 158.18 92.9575 158.18ZM102.836 158.18C102.128 158.18 101.48 158.054 100.892 157.802C100.316 157.538 99.8124 157.184 99.3804 156.74C98.9604 156.284 98.6304 155.762 98.3904 155.174C98.1624 154.586 98.0484 153.962 98.0484 153.302C98.0484 152.414 98.2524 151.604 98.6604 150.872C99.0684 150.14 99.6324 149.552 100.352 149.108C101.084 148.664 101.918 148.442 102.854 148.442C103.802 148.442 104.624 148.67 105.32 149.126C106.028 149.57 106.574 150.158 106.958 150.89C107.354 151.61 107.552 152.39 107.552 153.23C107.552 153.35 107.546 153.47 107.534 153.59C107.534 153.698 107.528 153.782 107.516 153.842H99.7224C99.7704 154.454 99.9384 155 100.226 155.48C100.526 155.948 100.91 156.32 101.378 156.596C101.846 156.86 102.35 156.992 102.89 156.992C103.466 156.992 104.006 156.848 104.51 156.56C105.026 156.272 105.38 155.894 105.572 155.426L106.94 155.804C106.736 156.26 106.43 156.668 106.022 157.028C105.626 157.388 105.152 157.67 104.6 157.874C104.06 158.078 103.472 158.18 102.836 158.18ZM99.6684 152.744H106.076C106.028 152.132 105.854 151.592 105.554 151.124C105.254 150.656 104.87 150.29 104.402 150.026C103.934 149.762 103.418 149.63 102.854 149.63C102.302 149.63 101.792 149.762 101.324 150.026C100.856 150.29 100.472 150.656 100.172 151.124C99.8844 151.592 99.7164 152.132 99.6684 152.744ZM117.467 158H115.883V152.744C115.883 151.748 115.727 151.022 115.415 150.566C115.115 150.098 114.653 149.864 114.029 149.864C113.597 149.864 113.165 149.972 112.733 150.188C112.313 150.404 111.935 150.698 111.599 151.07C111.275 151.43 111.041 151.85 110.897 152.33V158H109.313V148.604H110.753V150.62C111.005 150.176 111.329 149.792 111.725 149.468C112.121 149.144 112.571 148.892 113.075 148.712C113.579 148.532 114.107 148.442 114.659 148.442C115.199 148.442 115.649 148.544 116.009 148.748C116.381 148.94 116.669 149.216 116.873 149.576C117.089 149.924 117.239 150.338 117.323 150.818C117.419 151.298 117.467 151.82 117.467 152.384V158ZM124.702 157.532C124.57 157.592 124.39 157.67 124.162 157.766C123.934 157.862 123.67 157.946 123.37 158.018C123.07 158.09 122.752 158.126 122.416 158.126C122.032 158.126 121.678 158.06 121.354 157.928C121.03 157.784 120.772 157.568 120.58 157.28C120.388 156.98 120.292 156.608 120.292 156.164V149.846H119.014V148.604H120.292V145.472H121.876V148.604H123.982V149.846H121.876V155.678C121.9 156.014 122.014 156.266 122.218 156.434C122.422 156.59 122.662 156.668 122.938 156.668C123.25 156.668 123.538 156.614 123.802 156.506C124.066 156.398 124.24 156.32 124.324 156.272L124.702 157.532ZM131.139 149.99C130.347 150.002 129.645 150.206 129.033 150.602C128.433 150.986 128.007 151.52 127.755 152.204V158H126.171V148.604H127.647V150.782C127.971 150.134 128.397 149.612 128.925 149.216C129.465 148.808 130.029 148.58 130.617 148.532C130.737 148.532 130.839 148.532 130.923 148.532C131.007 148.532 131.079 148.538 131.139 148.55V149.99ZM131.972 155.282C131.972 154.682 132.14 154.166 132.476 153.734C132.824 153.29 133.298 152.948 133.898 152.708C134.498 152.468 135.194 152.348 135.986 152.348C136.406 152.348 136.85 152.384 137.318 152.456C137.786 152.516 138.2 152.612 138.56 152.744V152.06C138.56 151.34 138.344 150.776 137.912 150.368C137.48 149.948 136.868 149.738 136.076 149.738C135.56 149.738 135.062 149.834 134.582 150.026C134.114 150.206 133.616 150.47 133.088 150.818L132.512 149.702C133.124 149.282 133.736 148.97 134.348 148.766C134.96 148.55 135.596 148.442 136.256 148.442C137.456 148.442 138.404 148.778 139.1 149.45C139.796 150.11 140.144 151.034 140.144 152.222V156.2C140.144 156.392 140.18 156.536 140.252 156.632C140.336 156.716 140.468 156.764 140.648 156.776V158C140.492 158.024 140.354 158.042 140.234 158.054C140.126 158.066 140.036 158.072 139.964 158.072C139.592 158.072 139.31 157.97 139.118 157.766C138.938 157.562 138.836 157.346 138.812 157.118L138.776 156.524C138.368 157.052 137.834 157.46 137.174 157.748C136.514 158.036 135.86 158.18 135.212 158.18C134.588 158.18 134.03 158.054 133.538 157.802C133.046 157.538 132.662 157.19 132.386 156.758C132.11 156.314 131.972 155.822 131.972 155.282ZM138.092 155.948C138.236 155.78 138.35 155.612 138.434 155.444C138.518 155.264 138.56 155.114 138.56 154.994V153.824C138.188 153.68 137.798 153.572 137.39 153.5C136.982 153.416 136.58 153.374 136.184 153.374C135.38 153.374 134.726 153.536 134.222 153.86C133.73 154.172 133.484 154.604 133.484 155.156C133.484 155.456 133.562 155.75 133.718 156.038C133.886 156.314 134.126 156.542 134.438 156.722C134.762 156.902 135.158 156.992 135.626 156.992C136.118 156.992 136.586 156.896 137.03 156.704C137.474 156.5 137.828 156.248 138.092 155.948ZM142.712 144.86H144.296V155.57C144.296 156.086 144.368 156.404 144.512 156.524C144.656 156.644 144.83 156.704 145.034 156.704C145.286 156.704 145.526 156.68 145.754 156.632C145.982 156.572 146.174 156.512 146.33 156.452L146.582 157.748C146.318 157.856 146.006 157.946 145.646 158.018C145.286 158.09 144.968 158.126 144.692 158.126C144.08 158.126 143.594 157.952 143.234 157.604C142.886 157.256 142.712 156.77 142.712 156.146V144.86ZM147.827 158V148.604H149.411V158H147.827ZM147.827 146.84V144.86H149.411V146.84H147.827ZM151.237 156.974L157.159 149.756H151.399V148.604H158.941V149.63L153.055 156.848H158.959V158H151.237V156.974ZM164.834 158.18C164.126 158.18 163.478 158.054 162.89 157.802C162.314 157.538 161.81 157.184 161.378 156.74C160.958 156.284 160.628 155.762 160.388 155.174C160.16 154.586 160.046 153.962 160.046 153.302C160.046 152.414 160.25 151.604 160.658 150.872C161.066 150.14 161.63 149.552 162.35 149.108C163.082 148.664 163.916 148.442 164.852 148.442C165.8 148.442 166.622 148.67 167.318 149.126C168.026 149.57 168.572 150.158 168.956 150.89C169.352 151.61 169.55 152.39 169.55 153.23C169.55 153.35 169.544 153.47 169.532 153.59C169.532 153.698 169.526 153.782 169.514 153.842H161.72C161.768 154.454 161.936 155 162.224 155.48C162.524 155.948 162.908 156.32 163.376 156.596C163.844 156.86 164.348 156.992 164.888 156.992C165.464 156.992 166.004 156.848 166.508 156.56C167.024 156.272 167.378 155.894 167.57 155.426L168.938 155.804C168.734 156.26 168.428 156.668 168.02 157.028C167.624 157.388 167.15 157.67 166.598 157.874C166.058 158.078 165.47 158.18 164.834 158.18ZM161.666 152.744H168.074C168.026 152.132 167.852 151.592 167.552 151.124C167.252 150.656 166.868 150.29 166.4 150.026C165.932 149.762 165.416 149.63 164.852 149.63C164.3 149.63 163.79 149.762 163.322 150.026C162.854 150.29 162.47 150.656 162.17 151.124C161.882 151.592 161.714 152.132 161.666 152.744ZM170.699 153.32C170.699 152.432 170.879 151.622 171.239 150.89C171.611 150.146 172.115 149.552 172.751 149.108C173.399 148.664 174.137 148.442 174.965 148.442C175.721 148.442 176.399 148.64 176.999 149.036C177.599 149.432 178.067 149.912 178.403 150.476V144.86H179.987V156.2C179.987 156.392 180.023 156.536 180.095 156.632C180.179 156.716 180.311 156.764 180.491 156.776V158C180.191 158.048 179.957 158.072 179.789 158.072C179.477 158.072 179.201 157.964 178.961 157.748C178.733 157.532 178.619 157.292 178.619 157.028V156.236C178.247 156.836 177.749 157.31 177.125 157.658C176.501 158.006 175.853 158.18 175.181 158.18C174.533 158.18 173.933 158.054 173.381 157.802C172.841 157.538 172.367 157.178 171.959 156.722C171.563 156.266 171.251 155.75 171.023 155.174C170.807 154.586 170.699 153.968 170.699 153.32ZM178.403 154.706V152.006C178.259 151.598 178.025 151.232 177.701 150.908C177.377 150.572 177.011 150.308 176.603 150.116C176.207 149.912 175.811 149.81 175.415 149.81C174.947 149.81 174.521 149.912 174.137 150.116C173.765 150.308 173.441 150.572 173.165 150.908C172.901 151.232 172.697 151.604 172.553 152.024C172.409 152.444 172.337 152.882 172.337 153.338C172.337 153.806 172.415 154.25 172.571 154.67C172.739 155.09 172.967 155.462 173.255 155.786C173.555 156.11 173.897 156.362 174.281 156.542C174.677 156.722 175.103 156.812 175.559 156.812C175.847 156.812 176.141 156.758 176.441 156.65C176.753 156.542 177.047 156.392 177.323 156.2C177.599 156.008 177.833 155.786 178.025 155.534C178.217 155.27 178.343 154.994 178.403 154.706ZM190.406 158.18C189.626 158.18 188.894 158.054 188.21 157.802C187.526 157.538 186.938 157.148 186.446 156.632L187.058 155.516C187.598 156.02 188.138 156.38 188.678 156.596C189.218 156.812 189.77 156.92 190.334 156.92C190.982 156.92 191.51 156.8 191.918 156.56C192.326 156.308 192.53 155.942 192.53 155.462C192.53 155.114 192.422 154.856 192.206 154.688C192.002 154.52 191.708 154.382 191.324 154.274C190.94 154.154 190.484 154.022 189.956 153.878C189.308 153.686 188.762 153.482 188.318 153.266C187.874 153.05 187.538 152.78 187.31 152.456C187.082 152.132 186.968 151.724 186.968 151.232C186.968 150.632 187.124 150.128 187.436 149.72C187.748 149.3 188.174 148.982 188.714 148.766C189.266 148.55 189.89 148.442 190.586 148.442C191.282 148.442 191.912 148.55 192.476 148.766C193.04 148.982 193.526 149.3 193.934 149.72L193.214 150.818C192.842 150.434 192.434 150.152 191.99 149.972C191.546 149.78 191.048 149.684 190.496 149.684C190.172 149.684 189.854 149.726 189.542 149.81C189.23 149.882 188.972 150.02 188.768 150.224C188.564 150.416 188.462 150.692 188.462 151.052C188.462 151.352 188.54 151.592 188.696 151.772C188.864 151.94 189.104 152.084 189.416 152.204C189.74 152.324 190.13 152.456 190.586 152.6C191.294 152.804 191.906 153.008 192.422 153.212C192.95 153.416 193.358 153.68 193.646 154.004C193.934 154.328 194.078 154.778 194.078 155.354C194.078 156.242 193.742 156.938 193.07 157.442C192.398 157.934 191.51 158.18 190.406 158.18ZM200.077 158.18C199.369 158.18 198.727 158.054 198.151 157.802C197.575 157.538 197.077 157.184 196.657 156.74C196.237 156.284 195.913 155.762 195.685 155.174C195.457 154.586 195.343 153.968 195.343 153.32C195.343 152.66 195.457 152.036 195.685 151.448C195.913 150.86 196.237 150.344 196.657 149.9C197.077 149.444 197.575 149.09 198.151 148.838C198.739 148.574 199.381 148.442 200.077 148.442C200.785 148.442 201.427 148.574 202.003 148.838C202.579 149.09 203.077 149.444 203.497 149.9C203.929 150.344 204.259 150.86 204.487 151.448C204.715 152.036 204.829 152.66 204.829 153.32C204.829 153.968 204.715 154.586 204.487 155.174C204.259 155.762 203.935 156.284 203.515 156.74C203.095 157.184 202.591 157.538 202.003 157.802C201.427 158.054 200.785 158.18 200.077 158.18ZM196.963 153.338C196.963 153.986 197.101 154.574 197.377 155.102C197.665 155.63 198.043 156.05 198.511 156.362C198.979 156.662 199.501 156.812 200.077 156.812C200.653 156.812 201.175 156.656 201.643 156.344C202.123 156.032 202.501 155.612 202.777 155.084C203.065 154.544 203.209 153.95 203.209 153.302C203.209 152.654 203.065 152.066 202.777 151.538C202.501 151.01 202.123 150.59 201.643 150.278C201.175 149.966 200.653 149.81 200.077 149.81C199.501 149.81 198.979 149.972 198.511 150.296C198.043 150.608 197.665 151.028 197.377 151.556C197.101 152.084 196.963 152.678 196.963 153.338ZM210.907 158.18C210.199 158.18 209.551 158.054 208.963 157.802C208.387 157.538 207.883 157.178 207.451 156.722C207.031 156.266 206.701 155.744 206.461 155.156C206.233 154.568 206.119 153.944 206.119 153.284C206.119 152.396 206.317 151.586 206.713 150.854C207.109 150.122 207.667 149.54 208.387 149.108C209.107 148.664 209.941 148.442 210.889 148.442C211.813 148.442 212.617 148.652 213.301 149.072C213.997 149.48 214.513 150.032 214.849 150.728L213.301 151.214C213.061 150.77 212.725 150.428 212.293 150.188C211.861 149.936 211.381 149.81 210.853 149.81C210.277 149.81 209.749 149.96 209.269 150.26C208.801 150.56 208.429 150.974 208.153 151.502C207.877 152.018 207.739 152.612 207.739 153.284C207.739 153.944 207.877 154.544 208.153 155.084C208.441 155.612 208.819 156.032 209.287 156.344C209.767 156.656 210.295 156.812 210.871 156.812C211.243 156.812 211.597 156.746 211.933 156.614C212.281 156.482 212.581 156.308 212.833 156.092C213.097 155.864 213.277 155.618 213.373 155.354L214.921 155.822C214.729 156.278 214.435 156.686 214.039 157.046C213.655 157.394 213.193 157.67 212.653 157.874C212.125 158.078 211.543 158.18 210.907 158.18ZM216.716 158V148.604H218.3V158H216.716ZM216.716 146.84V144.86H218.3V146.84H216.716ZM220.126 155.282C220.126 154.682 220.294 154.166 220.63 153.734C220.978 153.29 221.452 152.948 222.052 152.708C222.652 152.468 223.348 152.348 224.14 152.348C224.56 152.348 225.004 152.384 225.472 152.456C225.94 152.516 226.354 152.612 226.714 152.744V152.06C226.714 151.34 226.498 150.776 226.066 150.368C225.634 149.948 225.022 149.738 224.23 149.738C223.714 149.738 223.216 149.834 222.736 150.026C222.268 150.206 221.77 150.47 221.242 150.818L220.666 149.702C221.278 149.282 221.89 148.97 222.502 148.766C223.114 148.55 223.75 148.442 224.41 148.442C225.61 148.442 226.558 148.778 227.254 149.45C227.95 150.11 228.298 151.034 228.298 152.222V156.2C228.298 156.392 228.334 156.536 228.406 156.632C228.49 156.716 228.622 156.764 228.802 156.776V158C228.646 158.024 228.508 158.042 228.388 158.054C228.28 158.066 228.19 158.072 228.118 158.072C227.746 158.072 227.464 157.97 227.272 157.766C227.092 157.562 226.99 157.346 226.966 157.118L226.93 156.524C226.522 157.052 225.988 157.46 225.328 157.748C224.668 158.036 224.014 158.18 223.366 158.18C222.742 158.18 222.184 158.054 221.692 157.802C221.2 157.538 220.816 157.19 220.54 156.758C220.264 156.314 220.126 155.822 220.126 155.282ZM226.246 155.948C226.39 155.78 226.504 155.612 226.588 155.444C226.672 155.264 226.714 155.114 226.714 154.994V153.824C226.342 153.68 225.952 153.572 225.544 153.5C225.136 153.416 224.734 153.374 224.338 153.374C223.534 153.374 222.88 153.536 222.376 153.86C221.884 154.172 221.638 154.604 221.638 155.156C221.638 155.456 221.716 155.75 221.872 156.038C222.04 156.314 222.28 156.542 222.592 156.722C222.916 156.902 223.312 156.992 223.78 156.992C224.272 156.992 224.74 156.896 225.184 156.704C225.628 156.5 225.982 156.248 226.246 155.948ZM230.867 144.86H232.451V155.57C232.451 156.086 232.523 156.404 232.667 156.524C232.811 156.644 232.985 156.704 233.189 156.704C233.441 156.704 233.681 156.68 233.909 156.632C234.137 156.572 234.329 156.512 234.485 156.452L234.737 157.748C234.473 157.856 234.161 157.946 233.801 158.018C233.441 158.09 233.123 158.126 232.847 158.126C232.235 158.126 231.749 157.952 231.389 157.604C231.041 157.256 230.867 156.77 230.867 156.146V144.86ZM6.336 185.18C5.568 185.18 4.884 184.988 4.284 184.604C3.684 184.22 3.21 183.734 2.862 183.146V188.834H1.278V175.604H2.682V177.368C3.054 176.792 3.54 176.33 4.14 175.982C4.74 175.622 5.394 175.442 6.102 175.442C6.75 175.442 7.344 175.574 7.884 175.838C8.424 176.102 8.892 176.462 9.288 176.918C9.684 177.374 9.99 177.896 10.206 178.484C10.434 179.06 10.548 179.666 10.548 180.302C10.548 181.19 10.368 182.006 10.008 182.75C9.66 183.494 9.168 184.088 8.532 184.532C7.896 184.964 7.164 185.18 6.336 185.18ZM5.85 183.812C6.318 183.812 6.738 183.716 7.11 183.524C7.494 183.32 7.818 183.056 8.082 182.732C8.358 182.396 8.568 182.018 8.712 181.598C8.856 181.178 8.928 180.746 8.928 180.302C8.928 179.834 8.844 179.39 8.676 178.97C8.52 178.55 8.292 178.178 7.992 177.854C7.704 177.53 7.362 177.278 6.966 177.098C6.582 176.906 6.162 176.81 5.706 176.81C5.418 176.81 5.118 176.864 4.806 176.972C4.506 177.08 4.218 177.236 3.942 177.44C3.666 177.632 3.432 177.854 3.24 178.106C3.048 178.358 2.922 178.628 2.862 178.916V181.598C3.042 182.006 3.282 182.378 3.582 182.714C3.882 183.05 4.23 183.32 4.626 183.524C5.022 183.716 5.43 183.812 5.85 183.812ZM12.5288 171.86H14.1128V182.57C14.1128 183.086 14.1848 183.404 14.3288 183.524C14.4728 183.644 14.6468 183.704 14.8508 183.704C15.1028 183.704 15.3428 183.68 15.5708 183.632C15.7988 183.572 15.9908 183.512 16.1468 183.452L16.3988 184.748C16.1348 184.856 15.8228 184.946 15.4628 185.018C15.1028 185.09 14.7848 185.126 14.5088 185.126C13.8968 185.126 13.4108 184.952 13.0508 184.604C12.7028 184.256 12.5288 183.77 12.5288 183.146V171.86ZM16.9052 182.282C16.9052 181.682 17.0732 181.166 17.4092 180.734C17.7572 180.29 18.2312 179.948 18.8312 179.708C19.4312 179.468 20.1272 179.348 20.9192 179.348C21.3392 179.348 21.7832 179.384 22.2512 179.456C22.7192 179.516 23.1332 179.612 23.4932 179.744V179.06C23.4932 178.34 23.2772 177.776 22.8452 177.368C22.4132 176.948 21.8012 176.738 21.0092 176.738C20.4932 176.738 19.9952 176.834 19.5152 177.026C19.0472 177.206 18.5492 177.47 18.0212 177.818L17.4452 176.702C18.0572 176.282 18.6692 175.97 19.2812 175.766C19.8932 175.55 20.5292 175.442 21.1892 175.442C22.3892 175.442 23.3372 175.778 24.0332 176.45C24.7292 177.11 25.0772 178.034 25.0772 179.222V183.2C25.0772 183.392 25.1132 183.536 25.1852 183.632C25.2692 183.716 25.4012 183.764 25.5812 183.776V185C25.4252 185.024 25.2872 185.042 25.1672 185.054C25.0592 185.066 24.9692 185.072 24.8972 185.072C24.5252 185.072 24.2432 184.97 24.0512 184.766C23.8712 184.562 23.7692 184.346 23.7452 184.118L23.7092 183.524C23.3012 184.052 22.7672 184.46 22.1072 184.748C21.4472 185.036 20.7932 185.18 20.1452 185.18C19.5212 185.18 18.9632 185.054 18.4712 184.802C17.9792 184.538 17.5952 184.19 17.3192 183.758C17.0432 183.314 16.9052 182.822 16.9052 182.282ZM23.0252 182.948C23.1692 182.78 23.2832 182.612 23.3672 182.444C23.4512 182.264 23.4932 182.114 23.4932 181.994V180.824C23.1212 180.68 22.7312 180.572 22.3232 180.5C21.9152 180.416 21.5132 180.374 21.1172 180.374C20.3132 180.374 19.6592 180.536 19.1552 180.86C18.6632 181.172 18.4172 181.604 18.4172 182.156C18.4172 182.456 18.4952 182.75 18.6512 183.038C18.8192 183.314 19.0592 183.542 19.3712 183.722C19.6952 183.902 20.0912 183.992 20.5592 183.992C21.0512 183.992 21.5192 183.896 21.9632 183.704C22.4072 183.5 22.7612 183.248 23.0252 182.948ZM32.3997 184.532C32.2677 184.592 32.0877 184.67 31.8597 184.766C31.6317 184.862 31.3677 184.946 31.0677 185.018C30.7677 185.09 30.4497 185.126 30.1137 185.126C29.7297 185.126 29.3757 185.06 29.0517 184.928C28.7277 184.784 28.4697 184.568 28.2777 184.28C28.0857 183.98 27.9897 183.608 27.9897 183.164V176.846H26.7117V175.604H27.9897V172.472H29.5737V175.604H31.6797V176.846H29.5737V182.678C29.5977 183.014 29.7117 183.266 29.9157 183.434C30.1197 183.59 30.3597 183.668 30.6357 183.668C30.9477 183.668 31.2357 183.614 31.4997 183.506C31.7637 183.398 31.9377 183.32 32.0217 183.272L32.3997 184.532ZM34.3718 185V176.846H33.0938V175.604H34.3718V175.406C34.3718 174.638 34.4858 173.978 34.7138 173.426C34.9538 172.862 35.2898 172.43 35.7218 172.13C36.1538 171.83 36.6638 171.68 37.2518 171.68C37.6238 171.68 37.9898 171.734 38.3498 171.842C38.7098 171.938 39.0338 172.076 39.3218 172.256L38.9258 173.426C38.7578 173.306 38.5478 173.21 38.2958 173.138C38.0558 173.066 37.8158 173.03 37.5758 173.03C37.0598 173.03 36.6578 173.234 36.3698 173.642C36.0938 174.038 35.9558 174.608 35.9558 175.352V175.604H38.4578V176.846H35.9558V185H34.3718ZM43.9133 185.18C43.2053 185.18 42.5633 185.054 41.9873 184.802C41.4113 184.538 40.9133 184.184 40.4933 183.74C40.0733 183.284 39.7493 182.762 39.5213 182.174C39.2933 181.586 39.1793 180.968 39.1793 180.32C39.1793 179.66 39.2933 179.036 39.5213 178.448C39.7493 177.86 40.0733 177.344 40.4933 176.9C40.9133 176.444 41.4113 176.09 41.9873 175.838C42.5753 175.574 43.2173 175.442 43.9133 175.442C44.6213 175.442 45.2633 175.574 45.8393 175.838C46.4153 176.09 46.9133 176.444 47.3333 176.9C47.7653 177.344 48.0953 177.86 48.3233 178.448C48.5513 179.036 48.6653 179.66 48.6653 180.32C48.6653 180.968 48.5513 181.586 48.3233 182.174C48.0953 182.762 47.7713 183.284 47.3513 183.74C46.9313 184.184 46.4273 184.538 45.8393 184.802C45.2633 185.054 44.6213 185.18 43.9133 185.18ZM40.7993 180.338C40.7993 180.986 40.9373 181.574 41.2133 182.102C41.5013 182.63 41.8793 183.05 42.3473 183.362C42.8153 183.662 43.3373 183.812 43.9133 183.812C44.4893 183.812 45.0113 183.656 45.4793 183.344C45.9593 183.032 46.3373 182.612 46.6133 182.084C46.9013 181.544 47.0453 180.95 47.0453 180.302C47.0453 179.654 46.9013 179.066 46.6133 178.538C46.3373 178.01 45.9593 177.59 45.4793 177.278C45.0113 176.966 44.4893 176.81 43.9133 176.81C43.3373 176.81 42.8153 176.972 42.3473 177.296C41.8793 177.608 41.5013 178.028 41.2133 178.556C40.9373 179.084 40.7993 179.678 40.7993 180.338ZM55.5526 176.99C54.7606 177.002 54.0586 177.206 53.4466 177.602C52.8466 177.986 52.4206 178.52 52.1686 179.204V185H50.5846V175.604H52.0606V177.782C52.3846 177.134 52.8106 176.612 53.3386 176.216C53.8786 175.808 54.4426 175.58 55.0306 175.532C55.1506 175.532 55.2526 175.532 55.3366 175.532C55.4206 175.532 55.4926 175.538 55.5526 175.55V176.99ZM71.2897 185H69.7057V179.744C69.7057 178.76 69.5437 178.034 69.2197 177.566C68.9077 177.098 68.4397 176.864 67.8157 176.864C67.1797 176.864 66.6037 177.098 66.0877 177.566C65.5717 178.022 65.2057 178.616 64.9897 179.348V185H63.4057V179.744C63.4057 178.748 63.2497 178.022 62.9377 177.566C62.6257 177.098 62.1577 176.864 61.5337 176.864C60.9097 176.864 60.3337 177.092 59.8057 177.548C59.2897 177.992 58.9237 178.586 58.7077 179.33V185H57.1237V175.604H58.5637V177.62C58.9477 176.924 59.4457 176.39 60.0577 176.018C60.6697 175.634 61.3597 175.442 62.1277 175.442C62.9077 175.442 63.5317 175.658 63.9997 176.09C64.4677 176.51 64.7557 177.056 64.8637 177.728C65.2837 176.984 65.7937 176.42 66.3937 176.036C66.9937 175.64 67.6777 175.442 68.4457 175.442C68.9857 175.442 69.4357 175.544 69.7957 175.748C70.1677 175.94 70.4617 176.216 70.6777 176.576C70.8937 176.924 71.0497 177.338 71.1457 177.818C71.2417 178.298 71.2897 178.82 71.2897 179.384V185ZM73.6266 185V182.984H74.9586V185H73.6266ZM82.0316 172.22L85.9016 178.88L89.8076 172.22H91.5716L86.7116 180.338V185H85.0916V180.302L80.2496 172.22H82.0316ZM95.5578 185.18C94.8498 185.18 94.2078 185.054 93.6318 184.802C93.0558 184.538 92.5578 184.184 92.1378 183.74C91.7178 183.284 91.3938 182.762 91.1658 182.174C90.9378 181.586 90.8238 180.968 90.8238 180.32C90.8238 179.66 90.9378 179.036 91.1658 178.448C91.3938 177.86 91.7178 177.344 92.1378 176.9C92.5578 176.444 93.0558 176.09 93.6318 175.838C94.2198 175.574 94.8618 175.442 95.5578 175.442C96.2658 175.442 96.9078 175.574 97.4838 175.838C98.0598 176.09 98.5578 176.444 98.9778 176.9C99.4098 177.344 99.7398 177.86 99.9678 178.448C100.196 179.036 100.31 179.66 100.31 180.32C100.31 180.968 100.196 181.586 99.9678 182.174C99.7398 182.762 99.4158 183.284 98.9958 183.74C98.5758 184.184 98.0718 184.538 97.4838 184.802C96.9078 185.054 96.2658 185.18 95.5578 185.18ZM92.4438 180.338C92.4438 180.986 92.5818 181.574 92.8578 182.102C93.1458 182.63 93.5238 183.05 93.9918 183.362C94.4598 183.662 94.9818 183.812 95.5578 183.812C96.1338 183.812 96.6558 183.656 97.1238 183.344C97.6038 183.032 97.9818 182.612 98.2578 182.084C98.5458 181.544 98.6898 180.95 98.6898 180.302C98.6898 179.654 98.5458 179.066 98.2578 178.538C97.9818 178.01 97.6038 177.59 97.1238 177.278C96.6558 176.966 96.1338 176.81 95.5578 176.81C94.9818 176.81 94.4598 176.972 93.9918 177.296C93.5238 177.608 93.1458 178.028 92.8578 178.556C92.5818 179.084 92.4438 179.678 92.4438 180.338ZM102.139 181.238V175.604H103.723V180.932C103.723 181.892 103.891 182.612 104.227 183.092C104.563 183.572 105.061 183.812 105.721 183.812C106.153 183.812 106.567 183.722 106.963 183.542C107.371 183.35 107.737 183.08 108.061 182.732C108.385 182.384 108.637 181.97 108.817 181.49V175.604H110.401V183.2C110.401 183.392 110.437 183.536 110.509 183.632C110.593 183.716 110.725 183.764 110.905 183.776V185C110.725 185.024 110.581 185.036 110.473 185.036C110.377 185.048 110.281 185.054 110.185 185.054C109.885 185.054 109.627 184.964 109.411 184.784C109.195 184.592 109.081 184.358 109.069 184.082L109.033 182.984C108.625 183.68 108.073 184.22 107.377 184.604C106.693 184.988 105.943 185.18 105.127 185.18C104.143 185.18 103.399 184.85 102.895 184.19C102.391 183.518 102.139 182.534 102.139 181.238ZM125.746 185H124.162V179.744C124.162 178.784 123.988 178.064 123.64 177.584C123.304 177.104 122.818 176.864 122.182 176.864C121.774 176.864 121.36 176.972 120.94 177.188C120.532 177.404 120.172 177.698 119.86 178.07C119.548 178.43 119.32 178.85 119.176 179.33V185H117.592V171.86H119.176V177.62C119.548 176.948 120.052 176.42 120.688 176.036C121.336 175.64 122.032 175.442 122.776 175.442C123.34 175.442 123.808 175.544 124.18 175.748C124.564 175.94 124.87 176.216 125.098 176.576C125.326 176.936 125.488 177.356 125.584 177.836C125.692 178.304 125.746 178.82 125.746 179.384V185ZM127.472 182.282C127.472 181.682 127.64 181.166 127.976 180.734C128.324 180.29 128.798 179.948 129.398 179.708C129.998 179.468 130.694 179.348 131.486 179.348C131.906 179.348 132.35 179.384 132.818 179.456C133.286 179.516 133.7 179.612 134.06 179.744V179.06C134.06 178.34 133.844 177.776 133.412 177.368C132.98 176.948 132.368 176.738 131.576 176.738C131.06 176.738 130.562 176.834 130.082 177.026C129.614 177.206 129.116 177.47 128.588 177.818L128.012 176.702C128.624 176.282 129.236 175.97 129.848 175.766C130.46 175.55 131.096 175.442 131.756 175.442C132.956 175.442 133.904 175.778 134.6 176.45C135.296 177.11 135.644 178.034 135.644 179.222V183.2C135.644 183.392 135.68 183.536 135.752 183.632C135.836 183.716 135.968 183.764 136.148 183.776V185C135.992 185.024 135.854 185.042 135.734 185.054C135.626 185.066 135.536 185.072 135.464 185.072C135.092 185.072 134.81 184.97 134.618 184.766C134.438 184.562 134.336 184.346 134.312 184.118L134.276 183.524C133.868 184.052 133.334 184.46 132.674 184.748C132.014 185.036 131.36 185.18 130.712 185.18C130.088 185.18 129.53 185.054 129.038 184.802C128.546 184.538 128.162 184.19 127.886 183.758C127.61 183.314 127.472 182.822 127.472 182.282ZM133.592 182.948C133.736 182.78 133.85 182.612 133.934 182.444C134.018 182.264 134.06 182.114 134.06 181.994V180.824C133.688 180.68 133.298 180.572 132.89 180.5C132.482 180.416 132.08 180.374 131.684 180.374C130.88 180.374 130.226 180.536 129.722 180.86C129.23 181.172 128.984 181.604 128.984 182.156C128.984 182.456 129.062 182.75 129.218 183.038C129.386 183.314 129.626 183.542 129.938 183.722C130.262 183.902 130.658 183.992 131.126 183.992C131.618 183.992 132.086 183.896 132.53 183.704C132.974 183.5 133.328 183.248 133.592 182.948ZM140.578 185L136.888 175.604H138.544L141.496 183.488L144.448 175.604H145.996L142.306 185H140.578ZM151.422 185.18C150.714 185.18 150.066 185.054 149.478 184.802C148.902 184.538 148.398 184.184 147.966 183.74C147.546 183.284 147.216 182.762 146.976 182.174C146.748 181.586 146.634 180.962 146.634 180.302C146.634 179.414 146.838 178.604 147.246 177.872C147.654 177.14 148.218 176.552 148.938 176.108C149.67 175.664 150.504 175.442 151.44 175.442C152.388 175.442 153.21 175.67 153.906 176.126C154.614 176.57 155.16 177.158 155.544 177.89C155.94 178.61 156.138 179.39 156.138 180.23C156.138 180.35 156.132 180.47 156.12 180.59C156.12 180.698 156.114 180.782 156.102 180.842H148.308C148.356 181.454 148.524 182 148.812 182.48C149.112 182.948 149.496 183.32 149.964 183.596C150.432 183.86 150.936 183.992 151.476 183.992C152.052 183.992 152.592 183.848 153.096 183.56C153.612 183.272 153.966 182.894 154.158 182.426L155.526 182.804C155.322 183.26 155.016 183.668 154.608 184.028C154.212 184.388 153.738 184.67 153.186 184.874C152.646 185.078 152.058 185.18 151.422 185.18ZM148.254 179.744H154.662C154.614 179.132 154.44 178.592 154.14 178.124C153.84 177.656 153.456 177.29 152.988 177.026C152.52 176.762 152.004 176.63 151.44 176.63C150.888 176.63 150.378 176.762 149.91 177.026C149.442 177.29 149.058 177.656 148.758 178.124C148.47 178.592 148.302 179.132 148.254 179.744ZM167.312 184.532C167.18 184.592 167 184.67 166.772 184.766C166.544 184.862 166.28 184.946 165.98 185.018C165.68 185.09 165.362 185.126 165.026 185.126C164.642 185.126 164.288 185.06 163.964 184.928C163.64 184.784 163.382 184.568 163.19 184.28C162.998 183.98 162.902 183.608 162.902 183.164V176.846H161.624V175.604H162.902V172.472H164.486V175.604H166.592V176.846H164.486V182.678C164.51 183.014 164.624 183.266 164.828 183.434C165.032 183.59 165.272 183.668 165.548 183.668C165.86 183.668 166.148 183.614 166.412 183.506C166.676 183.398 166.85 183.32 166.934 183.272L167.312 184.532ZM172.761 185.18C172.053 185.18 171.411 185.054 170.835 184.802C170.259 184.538 169.761 184.184 169.341 183.74C168.921 183.284 168.597 182.762 168.369 182.174C168.141 181.586 168.027 180.968 168.027 180.32C168.027 179.66 168.141 179.036 168.369 178.448C168.597 177.86 168.921 177.344 169.341 176.9C169.761 176.444 170.259 176.09 170.835 175.838C171.423 175.574 172.065 175.442 172.761 175.442C173.469 175.442 174.111 175.574 174.687 175.838C175.263 176.09 175.761 176.444 176.181 176.9C176.613 177.344 176.943 177.86 177.171 178.448C177.399 179.036 177.513 179.66 177.513 180.32C177.513 180.968 177.399 181.586 177.171 182.174C176.943 182.762 176.619 183.284 176.199 183.74C175.779 184.184 175.275 184.538 174.687 184.802C174.111 185.054 173.469 185.18 172.761 185.18ZM169.647 180.338C169.647 180.986 169.785 181.574 170.061 182.102C170.349 182.63 170.727 183.05 171.195 183.362C171.663 183.662 172.185 183.812 172.761 183.812C173.337 183.812 173.859 183.656 174.327 183.344C174.807 183.032 175.185 182.612 175.461 182.084C175.749 181.544 175.893 180.95 175.893 180.302C175.893 179.654 175.749 179.066 175.461 178.538C175.185 178.01 174.807 177.59 174.327 177.278C173.859 176.966 173.337 176.81 172.761 176.81C172.185 176.81 171.663 176.972 171.195 177.296C170.727 177.608 170.349 178.028 170.061 178.556C169.785 179.084 169.647 179.678 169.647 180.338ZM184.152 184.532C184.02 184.592 183.84 184.67 183.612 184.766C183.384 184.862 183.12 184.946 182.82 185.018C182.52 185.09 182.202 185.126 181.866 185.126C181.482 185.126 181.128 185.06 180.804 184.928C180.48 184.784 180.222 184.568 180.03 184.28C179.838 183.98 179.742 183.608 179.742 183.164V176.846H178.464V175.604H179.742V172.472H181.326V175.604H183.432V176.846H181.326V182.678C181.35 183.014 181.464 183.266 181.668 183.434C181.872 183.59 182.112 183.668 182.388 183.668C182.7 183.668 182.988 183.614 183.252 183.506C183.516 183.398 183.69 183.32 183.774 183.272L184.152 184.532ZM184.882 182.282C184.882 181.682 185.05 181.166 185.386 180.734C185.734 180.29 186.208 179.948 186.808 179.708C187.408 179.468 188.104 179.348 188.896 179.348C189.316 179.348 189.76 179.384 190.228 179.456C190.696 179.516 191.11 179.612 191.47 179.744V179.06C191.47 178.34 191.254 177.776 190.822 177.368C190.39 176.948 189.778 176.738 188.986 176.738C188.47 176.738 187.972 176.834 187.492 177.026C187.024 177.206 186.526 177.47 185.998 177.818L185.422 176.702C186.034 176.282 186.646 175.97 187.258 175.766C187.87 175.55 188.506 175.442 189.166 175.442C190.366 175.442 191.314 175.778 192.01 176.45C192.706 177.11 193.054 178.034 193.054 179.222V183.2C193.054 183.392 193.09 183.536 193.162 183.632C193.246 183.716 193.378 183.764 193.558 183.776V185C193.402 185.024 193.264 185.042 193.144 185.054C193.036 185.066 192.946 185.072 192.874 185.072C192.502 185.072 192.22 184.97 192.028 184.766C191.848 184.562 191.746 184.346 191.722 184.118L191.686 183.524C191.278 184.052 190.744 184.46 190.084 184.748C189.424 185.036 188.77 185.18 188.122 185.18C187.498 185.18 186.94 185.054 186.448 184.802C185.956 184.538 185.572 184.19 185.296 183.758C185.02 183.314 184.882 182.822 184.882 182.282ZM191.002 182.948C191.146 182.78 191.26 182.612 191.344 182.444C191.428 182.264 191.47 182.114 191.47 181.994V180.824C191.098 180.68 190.708 180.572 190.3 180.5C189.892 180.416 189.49 180.374 189.094 180.374C188.29 180.374 187.636 180.536 187.132 180.86C186.64 181.172 186.394 181.604 186.394 182.156C186.394 182.456 186.472 182.75 186.628 183.038C186.796 183.314 187.036 183.542 187.348 183.722C187.672 183.902 188.068 183.992 188.536 183.992C189.028 183.992 189.496 183.896 189.94 183.704C190.384 183.5 190.738 183.248 191.002 182.948ZM195.623 171.86H197.207V182.57C197.207 183.086 197.279 183.404 197.423 183.524C197.567 183.644 197.741 183.704 197.945 183.704C198.197 183.704 198.437 183.68 198.665 183.632C198.893 183.572 199.085 183.512 199.241 183.452L199.493 184.748C199.229 184.856 198.917 184.946 198.557 185.018C198.197 185.09 197.879 185.126 197.603 185.126C196.991 185.126 196.505 184.952 196.145 184.604C195.797 184.256 195.623 183.77 195.623 183.146V171.86ZM208.903 185.18C208.195 185.18 207.547 185.054 206.959 184.802C206.383 184.538 205.879 184.178 205.447 183.722C205.027 183.266 204.697 182.744 204.457 182.156C204.229 181.568 204.115 180.944 204.115 180.284C204.115 179.396 204.313 178.586 204.709 177.854C205.105 177.122 205.663 176.54 206.383 176.108C207.103 175.664 207.937 175.442 208.885 175.442C209.809 175.442 210.613 175.652 211.297 176.072C211.993 176.48 212.509 177.032 212.845 177.728L211.297 178.214C211.057 177.77 210.721 177.428 210.289 177.188C209.857 176.936 209.377 176.81 208.849 176.81C208.273 176.81 207.745 176.96 207.265 177.26C206.797 177.56 206.425 177.974 206.149 178.502C205.873 179.018 205.735 179.612 205.735 180.284C205.735 180.944 205.873 181.544 206.149 182.084C206.437 182.612 206.815 183.032 207.283 183.344C207.763 183.656 208.291 183.812 208.867 183.812C209.239 183.812 209.593 183.746 209.929 183.614C210.277 183.482 210.577 183.308 210.829 183.092C211.093 182.864 211.273 182.618 211.369 182.354L212.917 182.822C212.725 183.278 212.431 183.686 212.035 184.046C211.651 184.394 211.189 184.67 210.649 184.874C210.121 185.078 209.539 185.18 208.903 185.18ZM218.728 185.18C218.02 185.18 217.378 185.054 216.802 184.802C216.226 184.538 215.728 184.184 215.308 183.74C214.888 183.284 214.564 182.762 214.336 182.174C214.108 181.586 213.994 180.968 213.994 180.32C213.994 179.66 214.108 179.036 214.336 178.448C214.564 177.86 214.888 177.344 215.308 176.9C215.728 176.444 216.226 176.09 216.802 175.838C217.39 175.574 218.032 175.442 218.728 175.442C219.436 175.442 220.078 175.574 220.654 175.838C221.23 176.09 221.728 176.444 222.148 176.9C222.58 177.344 222.91 177.86 223.138 178.448C223.366 179.036 223.48 179.66 223.48 180.32C223.48 180.968 223.366 181.586 223.138 182.174C222.91 182.762 222.586 183.284 222.166 183.74C221.746 184.184 221.242 184.538 220.654 184.802C220.078 185.054 219.436 185.18 218.728 185.18ZM215.614 180.338C215.614 180.986 215.752 181.574 216.028 182.102C216.316 182.63 216.694 183.05 217.162 183.362C217.63 183.662 218.152 183.812 218.728 183.812C219.304 183.812 219.826 183.656 220.294 183.344C220.774 183.032 221.152 182.612 221.428 182.084C221.716 181.544 221.86 180.95 221.86 180.302C221.86 179.654 221.716 179.066 221.428 178.538C221.152 178.01 220.774 177.59 220.294 177.278C219.826 176.966 219.304 176.81 218.728 176.81C218.152 176.81 217.63 176.972 217.162 177.296C216.694 177.608 216.316 178.028 216.028 178.556C215.752 179.084 215.614 179.678 215.614 180.338ZM233.553 185H231.969V179.744C231.969 178.748 231.813 178.022 231.501 177.566C231.201 177.098 230.739 176.864 230.115 176.864C229.683 176.864 229.251 176.972 228.819 177.188C228.399 177.404 228.021 177.698 227.685 178.07C227.361 178.43 227.127 178.85 226.983 179.33V185H225.399V175.604H226.839V177.62C227.091 177.176 227.415 176.792 227.811 176.468C228.207 176.144 228.657 175.892 229.161 175.712C229.665 175.532 230.193 175.442 230.745 175.442C231.285 175.442 231.735 175.544 232.095 175.748C232.467 175.94 232.755 176.216 232.959 176.576C233.175 176.924 233.325 177.338 233.409 177.818C233.505 178.298 233.553 178.82 233.553 179.384V185ZM240.788 184.532C240.656 184.592 240.476 184.67 240.248 184.766C240.02 184.862 239.756 184.946 239.456 185.018C239.156 185.09 238.838 185.126 238.502 185.126C238.118 185.126 237.764 185.06 237.44 184.928C237.116 184.784 236.858 184.568 236.666 184.28C236.474 183.98 236.378 183.608 236.378 183.164V176.846H235.1V175.604H236.378V172.472H237.962V175.604H240.068V176.846H237.962V182.678C237.986 183.014 238.1 183.266 238.304 183.434C238.508 183.59 238.748 183.668 239.024 183.668C239.336 183.668 239.624 183.614 239.888 183.506C240.152 183.398 240.326 183.32 240.41 183.272L240.788 184.532ZM247.225 176.99C246.433 177.002 245.731 177.206 245.119 177.602C244.519 177.986 244.093 178.52 243.841 179.204V185H242.257V175.604H243.733V177.782C244.057 177.134 244.483 176.612 245.011 176.216C245.551 175.808 246.115 175.58 246.703 175.532C246.823 175.532 246.925 175.532 247.009 175.532C247.093 175.532 247.165 175.538 247.225 175.55V176.99ZM252.671 185.18C251.963 185.18 251.321 185.054 250.745 184.802C250.169 184.538 249.671 184.184 249.251 183.74C248.831 183.284 248.507 182.762 248.279 182.174C248.051 181.586 247.937 180.968 247.937 180.32C247.937 179.66 248.051 179.036 248.279 178.448C248.507 177.86 248.831 177.344 249.251 176.9C249.671 176.444 250.169 176.09 250.745 175.838C251.333 175.574 251.975 175.442 252.671 175.442C253.379 175.442 254.021 175.574 254.597 175.838C255.173 176.09 255.671 176.444 256.091 176.9C256.523 177.344 256.853 177.86 257.081 178.448C257.309 179.036 257.423 179.66 257.423 180.32C257.423 180.968 257.309 181.586 257.081 182.174C256.853 182.762 256.529 183.284 256.109 183.74C255.689 184.184 255.185 184.538 254.597 184.802C254.021 185.054 253.379 185.18 252.671 185.18ZM249.557 180.338C249.557 180.986 249.695 181.574 249.971 182.102C250.259 182.63 250.637 183.05 251.105 183.362C251.573 183.662 252.095 183.812 252.671 183.812C253.247 183.812 253.769 183.656 254.237 183.344C254.717 183.032 255.095 182.612 255.371 182.084C255.659 181.544 255.803 180.95 255.803 180.302C255.803 179.654 255.659 179.066 255.371 178.538C255.095 178.01 254.717 177.59 254.237 177.278C253.769 176.966 253.247 176.81 252.671 176.81C252.095 176.81 251.573 176.972 251.105 177.296C250.637 177.608 250.259 178.028 249.971 178.556C249.695 179.084 249.557 179.678 249.557 180.338ZM259.378 171.86H260.962V182.57C260.962 183.086 261.034 183.404 261.178 183.524C261.322 183.644 261.496 183.704 261.7 183.704C261.952 183.704 262.192 183.68 262.42 183.632C262.648 183.572 262.84 183.512 262.996 183.452L263.248 184.748C262.984 184.856 262.672 184.946 262.312 185.018C261.952 185.09 261.634 185.126 261.358 185.126C260.746 185.126 260.26 184.952 259.9 184.604C259.552 184.256 259.378 183.77 259.378 183.146V171.86ZM5.382 212.18C4.674 212.18 4.032 212.054 3.456 211.802C2.88 211.538 2.382 211.184 1.962 210.74C1.542 210.284 1.218 209.762 0.99 209.174C0.762 208.586 0.648 207.968 0.648 207.32C0.648 206.66 0.762 206.036 0.99 205.448C1.218 204.86 1.542 204.344 1.962 203.9C2.382 203.444 2.88 203.09 3.456 202.838C4.044 202.574 4.686 202.442 5.382 202.442C6.09 202.442 6.732 202.574 7.308 202.838C7.884 203.09 8.382 203.444 8.802 203.9C9.234 204.344 9.564 204.86 9.792 205.448C10.02 206.036 10.134 206.66 10.134 207.32C10.134 207.968 10.02 208.586 9.792 209.174C9.564 209.762 9.24 210.284 8.82 210.74C8.4 211.184 7.896 211.538 7.308 211.802C6.732 212.054 6.09 212.18 5.382 212.18ZM2.268 207.338C2.268 207.986 2.406 208.574 2.682 209.102C2.97 209.63 3.348 210.05 3.816 210.362C4.284 210.662 4.806 210.812 5.382 210.812C5.958 210.812 6.48 210.656 6.948 210.344C7.428 210.032 7.806 209.612 8.082 209.084C8.37 208.544 8.514 207.95 8.514 207.302C8.514 206.654 8.37 206.066 8.082 205.538C7.806 205.01 7.428 204.59 6.948 204.278C6.48 203.966 5.958 203.81 5.382 203.81C4.806 203.81 4.284 203.972 3.816 204.296C3.348 204.608 2.97 205.028 2.682 205.556C2.406 206.084 2.268 206.678 2.268 207.338ZM14.437 212L10.747 202.604H12.403L15.355 210.488L18.307 202.604H19.855L16.165 212H14.437ZM25.2817 212.18C24.5737 212.18 23.9257 212.054 23.3377 211.802C22.7617 211.538 22.2577 211.184 21.8257 210.74C21.4057 210.284 21.0757 209.762 20.8357 209.174C20.6077 208.586 20.4937 207.962 20.4937 207.302C20.4937 206.414 20.6977 205.604 21.1057 204.872C21.5137 204.14 22.0777 203.552 22.7977 203.108C23.5297 202.664 24.3637 202.442 25.2997 202.442C26.2477 202.442 27.0697 202.67 27.7657 203.126C28.4737 203.57 29.0197 204.158 29.4037 204.89C29.7997 205.61 29.9977 206.39 29.9977 207.23C29.9977 207.35 29.9917 207.47 29.9797 207.59C29.9797 207.698 29.9737 207.782 29.9617 207.842H22.1677C22.2157 208.454 22.3837 209 22.6717 209.48C22.9717 209.948 23.3557 210.32 23.8237 210.596C24.2917 210.86 24.7957 210.992 25.3357 210.992C25.9117 210.992 26.4517 210.848 26.9557 210.56C27.4717 210.272 27.8257 209.894 28.0177 209.426L29.3857 209.804C29.1817 210.26 28.8757 210.668 28.4677 211.028C28.0717 211.388 27.5977 211.67 27.0457 211.874C26.5057 212.078 25.9177 212.18 25.2817 212.18ZM22.1137 206.744H28.5217C28.4737 206.132 28.2997 205.592 27.9997 205.124C27.6997 204.656 27.3157 204.29 26.8477 204.026C26.3797 203.762 25.8637 203.63 25.2997 203.63C24.7477 203.63 24.2377 203.762 23.7697 204.026C23.3017 204.29 22.9177 204.656 22.6177 205.124C22.3297 205.592 22.1617 206.132 22.1137 206.744ZM36.7265 203.99C35.9345 204.002 35.2325 204.206 34.6205 204.602C34.0205 204.986 33.5945 205.52 33.3425 206.204V212H31.7585V202.604H33.2345V204.782C33.5585 204.134 33.9845 203.612 34.5125 203.216C35.0525 202.808 35.6165 202.58 36.2045 202.532C36.3245 202.532 36.4265 202.532 36.5105 202.532C36.5945 202.532 36.6665 202.538 36.7265 202.55V203.99ZM42.3682 214.556C42.5242 214.568 42.6802 214.58 42.8362 214.592C42.9922 214.616 43.1122 214.628 43.1962 214.628C43.3882 214.628 43.5562 214.562 43.7002 214.43C43.8442 214.298 44.0002 214.04 44.1682 213.656C44.3482 213.284 44.5762 212.732 44.8522 212L40.8742 202.604H42.5482L45.7162 210.398L48.5782 202.604H50.1442L45.5722 214.466C45.4642 214.742 45.3022 215 45.0862 215.24C44.8822 215.492 44.6182 215.69 44.2942 215.834C43.9702 215.978 43.5802 216.05 43.1242 216.05C43.0162 216.05 42.9022 216.044 42.7822 216.032C42.6742 216.02 42.5362 215.996 42.3682 215.96V214.556ZM55.5148 212.18C54.8068 212.18 54.1648 212.054 53.5888 211.802C53.0128 211.538 52.5148 211.184 52.0948 210.74C51.6748 210.284 51.3508 209.762 51.1228 209.174C50.8948 208.586 50.7808 207.968 50.7808 207.32C50.7808 206.66 50.8948 206.036 51.1228 205.448C51.3508 204.86 51.6748 204.344 52.0948 203.9C52.5148 203.444 53.0128 203.09 53.5888 202.838C54.1768 202.574 54.8188 202.442 55.5148 202.442C56.2228 202.442 56.8648 202.574 57.4408 202.838C58.0168 203.09 58.5148 203.444 58.9348 203.9C59.3668 204.344 59.6968 204.86 59.9248 205.448C60.1528 206.036 60.2668 206.66 60.2668 207.32C60.2668 207.968 60.1528 208.586 59.9248 209.174C59.6968 209.762 59.3728 210.284 58.9528 210.74C58.5328 211.184 58.0288 211.538 57.4408 211.802C56.8648 212.054 56.2228 212.18 55.5148 212.18ZM52.4008 207.338C52.4008 207.986 52.5388 208.574 52.8148 209.102C53.1028 209.63 53.4808 210.05 53.9488 210.362C54.4168 210.662 54.9388 210.812 55.5148 210.812C56.0908 210.812 56.6128 210.656 57.0808 210.344C57.5608 210.032 57.9388 209.612 58.2148 209.084C58.5028 208.544 58.6468 207.95 58.6468 207.302C58.6468 206.654 58.5028 206.066 58.2148 205.538C57.9388 205.01 57.5608 204.59 57.0808 204.278C56.6128 203.966 56.0908 203.81 55.5148 203.81C54.9388 203.81 54.4168 203.972 53.9488 204.296C53.4808 204.608 53.1028 205.028 52.8148 205.556C52.5388 206.084 52.4008 206.678 52.4008 207.338ZM62.0962 208.238V202.604H63.6802V207.932C63.6802 208.892 63.8482 209.612 64.1842 210.092C64.5202 210.572 65.0182 210.812 65.6782 210.812C66.1102 210.812 66.5242 210.722 66.9202 210.542C67.3282 210.35 67.6942 210.08 68.0182 209.732C68.3422 209.384 68.5942 208.97 68.7742 208.49V202.604H70.3582V210.2C70.3582 210.392 70.3942 210.536 70.4662 210.632C70.5502 210.716 70.6822 210.764 70.8622 210.776V212C70.6822 212.024 70.5382 212.036 70.4302 212.036C70.3342 212.048 70.2382 212.054 70.1422 212.054C69.8422 212.054 69.5842 211.964 69.3682 211.784C69.1522 211.592 69.0382 211.358 69.0262 211.082L68.9902 209.984C68.5822 210.68 68.0302 211.22 67.3342 211.604C66.6502 211.988 65.9002 212.18 65.0842 212.18C64.1002 212.18 63.3562 211.85 62.8522 211.19C62.3482 210.518 62.0962 209.534 62.0962 208.238ZM77.9648 203.99C77.1728 204.002 76.4708 204.206 75.8588 204.602C75.2588 204.986 74.8328 205.52 74.5808 206.204V212H72.9968V202.604H74.4728V204.782C74.7968 204.134 75.2228 203.612 75.7508 203.216C76.2908 202.808 76.8548 202.58 77.4428 202.532C77.5628 202.532 77.6648 202.532 77.7488 202.532C77.8328 202.532 77.9048 202.538 77.9648 202.55V203.99ZM83.0547 207.32C83.0547 206.432 83.2347 205.622 83.5947 204.89C83.9667 204.146 84.4707 203.552 85.1067 203.108C85.7547 202.664 86.4927 202.442 87.3207 202.442C88.0767 202.442 88.7547 202.64 89.3547 203.036C89.9547 203.432 90.4227 203.912 90.7587 204.476V198.86H92.3427V210.2C92.3427 210.392 92.3787 210.536 92.4507 210.632C92.5347 210.716 92.6667 210.764 92.8467 210.776V212C92.5467 212.048 92.3127 212.072 92.1447 212.072C91.8327 212.072 91.5567 211.964 91.3167 211.748C91.0887 211.532 90.9747 211.292 90.9747 211.028V210.236C90.6027 210.836 90.1047 211.31 89.4807 211.658C88.8567 212.006 88.2087 212.18 87.5367 212.18C86.8887 212.18 86.2887 212.054 85.7367 211.802C85.1967 211.538 84.7227 211.178 84.3147 210.722C83.9187 210.266 83.6067 209.75 83.3787 209.174C83.1627 208.586 83.0547 207.968 83.0547 207.32ZM90.7587 208.706V206.006C90.6147 205.598 90.3807 205.232 90.0567 204.908C89.7327 204.572 89.3667 204.308 88.9587 204.116C88.5627 203.912 88.1667 203.81 87.7707 203.81C87.3027 203.81 86.8767 203.912 86.4927 204.116C86.1207 204.308 85.7967 204.572 85.5207 204.908C85.2567 205.232 85.0527 205.604 84.9087 206.024C84.7647 206.444 84.6927 206.882 84.6927 207.338C84.6927 207.806 84.7707 208.25 84.9267 208.67C85.0947 209.09 85.3227 209.462 85.6107 209.786C85.9107 210.11 86.2527 210.362 86.6367 210.542C87.0327 210.722 87.4587 210.812 87.9147 210.812C88.2027 210.812 88.4967 210.758 88.7967 210.65C89.1087 210.542 89.4027 210.392 89.6787 210.2C89.9547 210.008 90.1887 209.786 90.3807 209.534C90.5727 209.27 90.6987 208.994 90.7587 208.706ZM94.249 209.282C94.249 208.682 94.417 208.166 94.753 207.734C95.101 207.29 95.575 206.948 96.175 206.708C96.775 206.468 97.471 206.348 98.263 206.348C98.683 206.348 99.127 206.384 99.595 206.456C100.063 206.516 100.477 206.612 100.837 206.744V206.06C100.837 205.34 100.621 204.776 100.189 204.368C99.757 203.948 99.145 203.738 98.353 203.738C97.837 203.738 97.339 203.834 96.859 204.026C96.391 204.206 95.893 204.47 95.365 204.818L94.789 203.702C95.401 203.282 96.013 202.97 96.625 202.766C97.237 202.55 97.873 202.442 98.533 202.442C99.733 202.442 100.681 202.778 101.377 203.45C102.073 204.11 102.421 205.034 102.421 206.222V210.2C102.421 210.392 102.457 210.536 102.529 210.632C102.613 210.716 102.745 210.764 102.925 210.776V212C102.769 212.024 102.631 212.042 102.511 212.054C102.403 212.066 102.313 212.072 102.241 212.072C101.869 212.072 101.587 211.97 101.395 211.766C101.215 211.562 101.113 211.346 101.089 211.118L101.053 210.524C100.645 211.052 100.111 211.46 99.451 211.748C98.791 212.036 98.137 212.18 97.489 212.18C96.865 212.18 96.307 212.054 95.815 211.802C95.323 211.538 94.939 211.19 94.663 210.758C94.387 210.314 94.249 209.822 94.249 209.282ZM100.369 209.948C100.513 209.78 100.627 209.612 100.711 209.444C100.795 209.264 100.837 209.114 100.837 208.994V207.824C100.465 207.68 100.075 207.572 99.667 207.5C99.259 207.416 98.857 207.374 98.461 207.374C97.657 207.374 97.003 207.536 96.499 207.86C96.007 208.172 95.761 208.604 95.761 209.156C95.761 209.456 95.839 209.75 95.995 210.038C96.163 210.314 96.403 210.542 96.715 210.722C97.039 210.902 97.435 210.992 97.903 210.992C98.395 210.992 98.863 210.896 99.307 210.704C99.751 210.5 100.105 210.248 100.369 209.948ZM109.743 211.532C109.611 211.592 109.431 211.67 109.203 211.766C108.975 211.862 108.711 211.946 108.411 212.018C108.111 212.09 107.793 212.126 107.457 212.126C107.073 212.126 106.719 212.06 106.395 211.928C106.071 211.784 105.813 211.568 105.621 211.28C105.429 210.98 105.333 210.608 105.333 210.164V203.846H104.055V202.604H105.333V199.472H106.917V202.604H109.023V203.846H106.917V209.678C106.941 210.014 107.055 210.266 107.259 210.434C107.463 210.59 107.703 210.668 107.979 210.668C108.291 210.668 108.579 210.614 108.843 210.506C109.107 210.398 109.281 210.32 109.365 210.272L109.743 211.532ZM110.474 209.282C110.474 208.682 110.642 208.166 110.978 207.734C111.326 207.29 111.8 206.948 112.4 206.708C113 206.468 113.696 206.348 114.488 206.348C114.908 206.348 115.352 206.384 115.82 206.456C116.288 206.516 116.702 206.612 117.062 206.744V206.06C117.062 205.34 116.846 204.776 116.414 204.368C115.982 203.948 115.37 203.738 114.578 203.738C114.062 203.738 113.564 203.834 113.084 204.026C112.616 204.206 112.118 204.47 111.59 204.818L111.014 203.702C111.626 203.282 112.238 202.97 112.85 202.766C113.462 202.55 114.098 202.442 114.758 202.442C115.958 202.442 116.906 202.778 117.602 203.45C118.298 204.11 118.646 205.034 118.646 206.222V210.2C118.646 210.392 118.682 210.536 118.754 210.632C118.838 210.716 118.97 210.764 119.15 210.776V212C118.994 212.024 118.856 212.042 118.736 212.054C118.628 212.066 118.538 212.072 118.466 212.072C118.094 212.072 117.812 211.97 117.62 211.766C117.44 211.562 117.338 211.346 117.314 211.118L117.278 210.524C116.87 211.052 116.336 211.46 115.676 211.748C115.016 212.036 114.362 212.18 113.714 212.18C113.09 212.18 112.532 212.054 112.04 211.802C111.548 211.538 111.164 211.19 110.888 210.758C110.612 210.314 110.474 209.822 110.474 209.282ZM116.594 209.948C116.738 209.78 116.852 209.612 116.936 209.444C117.02 209.264 117.062 209.114 117.062 208.994V207.824C116.69 207.68 116.3 207.572 115.892 207.5C115.484 207.416 115.082 207.374 114.686 207.374C113.882 207.374 113.228 207.536 112.724 207.86C112.232 208.172 111.986 208.604 111.986 209.156C111.986 209.456 112.064 209.75 112.22 210.038C112.388 210.314 112.628 210.542 112.94 210.722C113.264 210.902 113.66 210.992 114.128 210.992C114.62 210.992 115.088 210.896 115.532 210.704C115.976 210.5 116.33 210.248 116.594 209.948ZM121.232 213.458L121.592 211.856H121.052V209.984H122.546V211.856L122.006 213.458H121.232ZM130.032 212V203.846H128.754V202.604H130.032V202.406C130.032 201.638 130.146 200.978 130.374 200.426C130.614 199.862 130.95 199.43 131.382 199.13C131.814 198.83 132.324 198.68 132.912 198.68C133.284 198.68 133.65 198.734 134.01 198.842C134.37 198.938 134.694 199.076 134.982 199.256L134.586 200.426C134.418 200.306 134.208 200.21 133.956 200.138C133.716 200.066 133.476 200.03 133.236 200.03C132.72 200.03 132.318 200.234 132.03 200.642C131.754 201.038 131.616 201.608 131.616 202.352V202.604H134.118V203.846H131.616V212H130.032ZM139.573 212.18C138.865 212.18 138.223 212.054 137.647 211.802C137.071 211.538 136.573 211.184 136.153 210.74C135.733 210.284 135.409 209.762 135.181 209.174C134.953 208.586 134.839 207.968 134.839 207.32C134.839 206.66 134.953 206.036 135.181 205.448C135.409 204.86 135.733 204.344 136.153 203.9C136.573 203.444 137.071 203.09 137.647 202.838C138.235 202.574 138.877 202.442 139.573 202.442C140.281 202.442 140.923 202.574 141.499 202.838C142.075 203.09 142.573 203.444 142.993 203.9C143.425 204.344 143.755 204.86 143.983 205.448C144.211 206.036 144.325 206.66 144.325 207.32C144.325 207.968 144.211 208.586 143.983 209.174C143.755 209.762 143.431 210.284 143.011 210.74C142.591 211.184 142.087 211.538 141.499 211.802C140.923 212.054 140.281 212.18 139.573 212.18ZM136.459 207.338C136.459 207.986 136.597 208.574 136.873 209.102C137.161 209.63 137.539 210.05 138.007 210.362C138.475 210.662 138.997 210.812 139.573 210.812C140.149 210.812 140.671 210.656 141.139 210.344C141.619 210.032 141.997 209.612 142.273 209.084C142.561 208.544 142.705 207.95 142.705 207.302C142.705 206.654 142.561 206.066 142.273 205.538C141.997 205.01 141.619 204.59 141.139 204.278C140.671 203.966 140.149 203.81 139.573 203.81C138.997 203.81 138.475 203.972 138.007 204.296C137.539 204.608 137.161 205.028 136.873 205.556C136.597 206.084 136.459 206.678 136.459 207.338ZM151.213 203.99C150.421 204.002 149.719 204.206 149.107 204.602C148.507 204.986 148.081 205.52 147.829 206.204V212H146.245V202.604H147.721V204.782C148.045 204.134 148.471 203.612 148.999 203.216C149.539 202.808 150.103 202.58 150.691 202.532C150.811 202.532 150.913 202.532 150.997 202.532C151.081 202.532 151.153 202.538 151.213 202.55V203.99ZM156.713 212.18C156.005 212.18 155.357 212.054 154.769 211.802C154.193 211.538 153.689 211.184 153.257 210.74C152.837 210.284 152.507 209.762 152.267 209.174C152.039 208.586 151.925 207.962 151.925 207.302C151.925 206.414 152.129 205.604 152.537 204.872C152.945 204.14 153.509 203.552 154.229 203.108C154.961 202.664 155.795 202.442 156.731 202.442C157.679 202.442 158.501 202.67 159.197 203.126C159.905 203.57 160.451 204.158 160.835 204.89C161.231 205.61 161.429 206.39 161.429 207.23C161.429 207.35 161.423 207.47 161.411 207.59C161.411 207.698 161.405 207.782 161.393 207.842H153.599C153.647 208.454 153.815 209 154.103 209.48C154.403 209.948 154.787 210.32 155.255 210.596C155.723 210.86 156.227 210.992 156.767 210.992C157.343 210.992 157.883 210.848 158.387 210.56C158.903 210.272 159.257 209.894 159.449 209.426L160.817 209.804C160.613 210.26 160.307 210.668 159.899 211.028C159.503 211.388 159.029 211.67 158.477 211.874C157.937 212.078 157.349 212.18 156.713 212.18ZM153.545 206.744H159.953C159.905 206.132 159.731 205.592 159.431 205.124C159.131 204.656 158.747 204.29 158.279 204.026C157.811 203.762 157.295 203.63 156.731 203.63C156.179 203.63 155.669 203.762 155.201 204.026C154.733 204.29 154.349 204.656 154.049 205.124C153.761 205.592 153.593 206.132 153.545 206.744ZM165.644 212L161.954 202.604H163.61L166.562 210.488L169.514 202.604H171.062L167.372 212H165.644ZM176.489 212.18C175.781 212.18 175.133 212.054 174.545 211.802C173.969 211.538 173.465 211.184 173.033 210.74C172.613 210.284 172.283 209.762 172.043 209.174C171.815 208.586 171.701 207.962 171.701 207.302C171.701 206.414 171.905 205.604 172.313 204.872C172.721 204.14 173.285 203.552 174.005 203.108C174.737 202.664 175.571 202.442 176.507 202.442C177.455 202.442 178.277 202.67 178.973 203.126C179.681 203.57 180.227 204.158 180.611 204.89C181.007 205.61 181.205 206.39 181.205 207.23C181.205 207.35 181.199 207.47 181.187 207.59C181.187 207.698 181.181 207.782 181.169 207.842H173.375C173.423 208.454 173.591 209 173.879 209.48C174.179 209.948 174.563 210.32 175.031 210.596C175.499 210.86 176.003 210.992 176.543 210.992C177.119 210.992 177.659 210.848 178.163 210.56C178.679 210.272 179.033 209.894 179.225 209.426L180.593 209.804C180.389 210.26 180.083 210.668 179.675 211.028C179.279 211.388 178.805 211.67 178.253 211.874C177.713 212.078 177.125 212.18 176.489 212.18ZM173.321 206.744H179.729C179.681 206.132 179.507 205.592 179.207 205.124C178.907 204.656 178.523 204.29 178.055 204.026C177.587 203.762 177.071 203.63 176.507 203.63C175.955 203.63 175.445 203.762 174.977 204.026C174.509 204.29 174.125 204.656 173.825 205.124C173.537 205.592 173.369 206.132 173.321 206.744ZM187.934 203.99C187.142 204.002 186.44 204.206 185.828 204.602C185.228 204.986 184.802 205.52 184.55 206.204V212H182.966V202.604H184.442V204.782C184.766 204.134 185.192 203.612 185.72 203.216C186.26 202.808 186.824 202.58 187.412 202.532C187.532 202.532 187.634 202.532 187.718 202.532C187.802 202.532 187.874 202.538 187.934 202.55V203.99ZM187.463 212V209.984H188.795V212H187.463Z" fill="#7883BE"/>
</svg>
