<svg width="310" height="235" viewBox="0 0 310 235" fill="none" xmlns="http://www.w3.org/2000/svg">
<rect width="310" height="235" fill="#121526"/>
<g clip-path="url(#clip0_3427_1100)">
<path d="M37.1125 23.6937H2.8875C1.29375 23.6937 0 24.9875 0 26.575V45.4187C0 47.0125 1.29375 48.3062 2.8875 48.3062H37.1188C38.7125 48.3062 40.0062 47.0125 40 45.425V26.575C40 24.9875 38.7062 23.6937 37.1125 23.6937ZM21.1562 42.5375H17.3125V35.0375L13.4688 39.8437L9.625 35.0375V42.5375H5.76875V29.4625H9.6125L13.4563 34.2687L17.3 29.4625H21.1437V42.5375H21.1562ZM29.6125 42.7312L23.8438 36H27.6875V29.4625H31.5312V36H35.375L29.6125 42.7312Z" fill="#00BD7B"/>
</g>
<path d="M7.608 78.008H10.68L12.624 83.648L14.592 78.008H17.64L14.712 85.76L16.872 91.184L21.696 77.96H25.296L18.48 95H15.624L12.624 87.848L9.648 95H6.792L0 77.96H3.552L8.4 91.184L10.512 85.76L7.608 78.008ZM33.1629 85.208C32.1869 85.208 31.3149 85.4 30.5469 85.784C29.7789 86.152 29.2269 86.688 28.8909 87.392V95H25.6749V82.424H28.6269V85.112C29.0749 84.248 29.6429 83.568 30.3309 83.072C31.0189 82.576 31.7469 82.304 32.5149 82.256C32.6909 82.256 32.8269 82.256 32.9229 82.256C33.0189 82.256 33.0989 82.264 33.1629 82.28V85.208ZM34.9562 95V82.424H38.1722V95H34.9562ZM34.9562 80.672V77.48H38.1722V80.672H34.9562ZM48.6094 94.352C48.3374 94.464 48.0094 94.592 47.6254 94.736C47.2414 94.88 46.8254 94.992 46.3774 95.072C45.9454 95.168 45.5054 95.216 45.0574 95.216C44.4654 95.216 43.9214 95.112 43.4254 94.904C42.9294 94.696 42.5294 94.368 42.2254 93.92C41.9374 93.456 41.7934 92.856 41.7934 92.12V84.896H40.1374V82.424H41.7934V78.344H45.0094V82.424H47.6494V84.896H45.0094V91.04C45.0254 91.472 45.1454 91.784 45.3694 91.976C45.5934 92.168 45.8734 92.264 46.2094 92.264C46.5454 92.264 46.8734 92.208 47.1934 92.096C47.5134 91.984 47.7694 91.888 47.9614 91.808L48.6094 94.352ZM55.9757 95.24C54.9677 95.24 54.0557 95.072 53.2397 94.736C52.4237 94.384 51.7277 93.912 51.1517 93.32C50.5757 92.712 50.1277 92.024 49.8077 91.256C49.5037 90.472 49.3517 89.648 49.3517 88.784C49.3517 87.584 49.6157 86.488 50.1437 85.496C50.6877 84.504 51.4557 83.712 52.4477 83.12C53.4557 82.512 54.6397 82.208 55.9997 82.208C57.3757 82.208 58.5517 82.512 59.5277 83.12C60.5037 83.712 61.2477 84.504 61.7597 85.496C62.2877 86.472 62.5517 87.528 62.5517 88.664C62.5517 88.856 62.5437 89.056 62.5277 89.264C62.5117 89.456 62.4957 89.616 62.4797 89.744H52.7597C52.8237 90.384 53.0077 90.944 53.3117 91.424C53.6317 91.904 54.0317 92.272 54.5117 92.528C55.0077 92.768 55.5357 92.888 56.0957 92.888C56.7357 92.888 57.3357 92.736 57.8957 92.432C58.4717 92.112 58.8637 91.696 59.0717 91.184L61.8317 91.952C61.5277 92.592 61.0877 93.16 60.5117 93.656C59.9517 94.152 59.2877 94.544 58.5197 94.832C57.7517 95.104 56.9037 95.24 55.9757 95.24ZM52.6877 87.704H59.2637C59.1997 87.064 59.0157 86.512 58.7117 86.048C58.4237 85.568 58.0397 85.2 57.5597 84.944C57.0797 84.672 56.5437 84.536 55.9517 84.536C55.3757 84.536 54.8477 84.672 54.3677 84.944C53.9037 85.2 53.5197 85.568 53.2157 86.048C52.9277 86.512 52.7517 87.064 52.6877 87.704ZM70.2525 77.48H73.4685V90.968C73.4685 91.544 73.5645 91.936 73.7565 92.144C73.9485 92.336 74.2125 92.432 74.5485 92.432C74.8045 92.432 75.0685 92.4 75.3405 92.336C75.6125 92.272 75.8525 92.192 76.0605 92.096L76.4925 94.544C76.0605 94.752 75.5565 94.912 74.9805 95.024C74.4045 95.136 73.8845 95.192 73.4205 95.192C72.4125 95.192 71.6285 94.928 71.0685 94.4C70.5245 93.856 70.2525 93.088 70.2525 92.096V77.48ZM83.7017 95.24C82.6777 95.24 81.7577 95.072 80.9417 94.736C80.1257 94.384 79.4297 93.904 78.8537 93.296C78.2937 92.688 77.8617 91.992 77.5577 91.208C77.2537 90.424 77.1017 89.6 77.1017 88.736C77.1017 87.856 77.2537 87.024 77.5577 86.24C77.8617 85.456 78.2937 84.76 78.8537 84.152C79.4297 83.544 80.1257 83.072 80.9417 82.736C81.7577 82.384 82.6777 82.208 83.7017 82.208C84.7257 82.208 85.6377 82.384 86.4377 82.736C87.2537 83.072 87.9497 83.544 88.5257 84.152C89.1017 84.76 89.5337 85.456 89.8217 86.24C90.1257 87.024 90.2777 87.856 90.2777 88.736C90.2777 89.6 90.1257 90.424 89.8217 91.208C89.5337 91.992 89.1017 92.688 88.5257 93.296C87.9657 93.904 87.2777 94.384 86.4617 94.736C85.6457 95.072 84.7257 95.24 83.7017 95.24ZM80.4137 88.736C80.4137 89.472 80.5577 90.128 80.8457 90.704C81.1337 91.264 81.5257 91.704 82.0217 92.024C82.5177 92.344 83.0777 92.504 83.7017 92.504C84.3097 92.504 84.8617 92.344 85.3577 92.024C85.8537 91.688 86.2457 91.24 86.5337 90.68C86.8377 90.104 86.9897 89.448 86.9897 88.712C86.9897 87.992 86.8377 87.344 86.5337 86.768C86.2457 86.192 85.8537 85.744 85.3577 85.424C84.8617 85.104 84.3097 84.944 83.7017 84.944C83.0777 84.944 82.5177 85.112 82.0217 85.448C81.5257 85.768 81.1337 86.216 80.8457 86.792C80.5577 87.352 80.4137 88 80.4137 88.736ZM104.136 95H100.92V87.944C100.92 86.936 100.744 86.2 100.392 85.736C100.04 85.272 99.5524 85.04 98.9284 85.04C98.4964 85.04 98.0564 85.152 97.6084 85.376C97.1764 85.6 96.7844 85.912 96.4324 86.312C96.0804 86.696 95.8244 87.144 95.6644 87.656V95H92.4484V82.424H95.3524V84.752C95.6724 84.208 96.0804 83.752 96.5764 83.384C97.0724 83 97.6404 82.712 98.2804 82.52C98.9364 82.312 99.6244 82.208 100.344 82.208C101.128 82.208 101.768 82.352 102.264 82.64C102.776 82.912 103.16 83.288 103.416 83.768C103.688 84.232 103.872 84.76 103.968 85.352C104.08 85.944 104.136 86.544 104.136 87.152V95ZM111.853 95.072C111.021 95.072 110.253 94.912 109.549 94.592C108.861 94.256 108.261 93.792 107.749 93.2C107.253 92.608 106.869 91.928 106.597 91.16C106.325 90.392 106.189 89.576 106.189 88.712C106.189 87.8 106.333 86.952 106.621 86.168C106.909 85.384 107.309 84.696 107.821 84.104C108.349 83.496 108.965 83.032 109.669 82.712C110.389 82.376 111.181 82.208 112.045 82.208C113.021 82.208 113.877 82.432 114.613 82.88C115.349 83.312 115.957 83.896 116.437 84.632V82.424H119.245V94.4C119.245 95.648 118.941 96.712 118.333 97.592C117.741 98.488 116.917 99.168 115.861 99.632C114.805 100.112 113.605 100.352 112.261 100.352C110.901 100.352 109.749 100.12 108.805 99.656C107.861 99.208 107.053 98.568 106.381 97.736L108.133 96.032C108.613 96.624 109.213 97.088 109.933 97.424C110.669 97.76 111.445 97.928 112.261 97.928C112.949 97.928 113.573 97.8 114.133 97.544C114.709 97.304 115.165 96.92 115.501 96.392C115.853 95.88 116.029 95.216 116.029 94.4V92.816C115.613 93.536 115.021 94.096 114.253 94.496C113.501 94.88 112.701 95.072 111.853 95.072ZM112.933 92.504C113.285 92.504 113.621 92.448 113.941 92.336C114.261 92.224 114.557 92.072 114.829 91.88C115.101 91.688 115.341 91.464 115.549 91.208C115.757 90.936 115.917 90.664 116.029 90.392V87.392C115.837 86.896 115.565 86.464 115.213 86.096C114.877 85.728 114.493 85.448 114.061 85.256C113.645 85.048 113.205 84.944 112.741 84.944C112.245 84.944 111.797 85.048 111.397 85.256C110.997 85.464 110.653 85.76 110.365 86.144C110.077 86.512 109.853 86.928 109.693 87.392C109.549 87.84 109.477 88.312 109.477 88.808C109.477 89.32 109.565 89.8 109.741 90.248C109.917 90.696 110.157 91.088 110.461 91.424C110.781 91.76 111.149 92.024 111.565 92.216C111.997 92.408 112.453 92.504 112.933 92.504ZM122.072 89.864V86.96H129.344V89.864H122.072ZM132.943 95V85.544H131.287V83.096H132.943V82.328C132.943 81.288 133.111 80.392 133.447 79.64C133.799 78.872 134.287 78.28 134.911 77.864C135.551 77.448 136.295 77.24 137.143 77.24C137.655 77.24 138.167 77.304 138.679 77.432C139.207 77.56 139.727 77.744 140.239 77.984L139.591 80.408C139.351 80.28 139.071 80.176 138.751 80.096C138.431 80 138.127 79.952 137.839 79.952C137.295 79.952 136.879 80.144 136.591 80.528C136.303 80.912 136.159 81.472 136.159 82.208V83.096H139.231V85.544H136.159V95H132.943ZM146.702 95.24C145.678 95.24 144.758 95.072 143.942 94.736C143.126 94.384 142.43 93.904 141.854 93.296C141.294 92.688 140.862 91.992 140.558 91.208C140.254 90.424 140.102 89.6 140.102 88.736C140.102 87.856 140.254 87.024 140.558 86.24C140.862 85.456 141.294 84.76 141.854 84.152C142.43 83.544 143.126 83.072 143.942 82.736C144.758 82.384 145.678 82.208 146.702 82.208C147.726 82.208 148.638 82.384 149.438 82.736C150.254 83.072 150.95 83.544 151.526 84.152C152.102 84.76 152.534 85.456 152.822 86.24C153.126 87.024 153.278 87.856 153.278 88.736C153.278 89.6 153.126 90.424 152.822 91.208C152.534 91.992 152.102 92.688 151.526 93.296C150.966 93.904 150.278 94.384 149.462 94.736C148.646 95.072 147.726 95.24 146.702 95.24ZM143.414 88.736C143.414 89.472 143.558 90.128 143.846 90.704C144.134 91.264 144.526 91.704 145.022 92.024C145.518 92.344 146.078 92.504 146.702 92.504C147.31 92.504 147.862 92.344 148.358 92.024C148.854 91.688 149.246 91.24 149.534 90.68C149.838 90.104 149.99 89.448 149.99 88.712C149.99 87.992 149.838 87.344 149.534 86.768C149.246 86.192 148.854 85.744 148.358 85.424C147.862 85.104 147.31 84.944 146.702 84.944C146.078 84.944 145.518 85.112 145.022 85.448C144.526 85.768 144.134 86.216 143.846 86.792C143.558 87.352 143.414 88 143.414 88.736ZM162.936 85.208C161.96 85.208 161.088 85.4 160.32 85.784C159.552 86.152 159 86.688 158.664 87.392V95H155.448V82.424H158.4V85.112C158.848 84.248 159.416 83.568 160.104 83.072C160.792 82.576 161.52 82.304 162.288 82.256C162.464 82.256 162.6 82.256 162.696 82.256C162.792 82.256 162.872 82.264 162.936 82.28V85.208ZM184.266 95H181.05V87.944C181.05 86.952 180.874 86.224 180.522 85.76C180.186 85.28 179.714 85.04 179.106 85.04C178.482 85.04 177.882 85.288 177.306 85.784C176.746 86.264 176.346 86.896 176.106 87.68V95H172.89V87.944C172.89 86.936 172.714 86.2 172.362 85.736C172.026 85.272 171.554 85.04 170.946 85.04C170.322 85.04 169.722 85.28 169.146 85.76C168.586 86.24 168.186 86.872 167.946 87.656V95H164.73V82.424H167.634V84.752C168.114 83.936 168.754 83.312 169.554 82.88C170.354 82.432 171.274 82.208 172.314 82.208C173.354 82.208 174.162 82.464 174.738 82.976C175.33 83.488 175.706 84.12 175.866 84.872C176.378 84.008 177.026 83.352 177.81 82.904C178.61 82.44 179.506 82.208 180.498 82.208C181.282 82.208 181.914 82.352 182.394 82.64C182.89 82.912 183.274 83.288 183.546 83.768C183.818 84.232 184.002 84.76 184.098 85.352C184.21 85.944 184.266 86.544 184.266 87.152V95ZM198.687 95.24C197.663 95.24 196.743 95.072 195.927 94.736C195.111 94.384 194.415 93.904 193.839 93.296C193.263 92.672 192.815 91.968 192.495 91.184C192.191 90.4 192.039 89.576 192.039 88.712C192.039 87.528 192.303 86.448 192.831 85.472C193.375 84.48 194.143 83.688 195.135 83.096C196.127 82.504 197.303 82.208 198.663 82.208C200.023 82.208 201.191 82.504 202.167 83.096C203.143 83.688 203.871 84.464 204.351 85.424L201.207 86.384C200.935 85.92 200.575 85.568 200.127 85.328C199.679 85.072 199.183 84.944 198.639 84.944C198.031 84.944 197.471 85.104 196.959 85.424C196.463 85.728 196.071 86.168 195.783 86.744C195.495 87.304 195.351 87.96 195.351 88.712C195.351 89.448 195.495 90.104 195.783 90.68C196.087 91.24 196.487 91.688 196.983 92.024C197.479 92.344 198.031 92.504 198.639 92.504C199.023 92.504 199.383 92.44 199.719 92.312C200.071 92.184 200.383 92.008 200.655 91.784C200.927 91.56 201.127 91.304 201.255 91.016L204.399 91.976C204.111 92.6 203.687 93.16 203.127 93.656C202.583 94.152 201.935 94.544 201.183 94.832C200.447 95.104 199.615 95.24 198.687 95.24ZM212.069 95.24C211.045 95.24 210.125 95.072 209.309 94.736C208.493 94.384 207.797 93.904 207.221 93.296C206.661 92.688 206.229 91.992 205.925 91.208C205.621 90.424 205.469 89.6 205.469 88.736C205.469 87.856 205.621 87.024 205.925 86.24C206.229 85.456 206.661 84.76 207.221 84.152C207.797 83.544 208.493 83.072 209.309 82.736C210.125 82.384 211.045 82.208 212.069 82.208C213.093 82.208 214.005 82.384 214.805 82.736C215.621 83.072 216.317 83.544 216.893 84.152C217.469 84.76 217.901 85.456 218.189 86.24C218.493 87.024 218.645 87.856 218.645 88.736C218.645 89.6 218.493 90.424 218.189 91.208C217.901 91.992 217.469 92.688 216.893 93.296C216.333 93.904 215.645 94.384 214.829 94.736C214.013 95.072 213.093 95.24 212.069 95.24ZM208.781 88.736C208.781 89.472 208.925 90.128 209.213 90.704C209.501 91.264 209.893 91.704 210.389 92.024C210.885 92.344 211.445 92.504 212.069 92.504C212.677 92.504 213.229 92.344 213.725 92.024C214.221 91.688 214.613 91.24 214.901 90.68C215.205 90.104 215.357 89.448 215.357 88.712C215.357 87.992 215.205 87.344 214.901 86.768C214.613 86.192 214.221 85.744 213.725 85.424C213.229 85.104 212.677 84.944 212.069 84.944C211.445 84.944 210.885 85.112 210.389 85.448C209.893 85.768 209.501 86.216 209.213 86.792C208.925 87.352 208.781 88 208.781 88.736ZM232.504 95H229.288V87.944C229.288 86.936 229.112 86.2 228.76 85.736C228.408 85.272 227.92 85.04 227.296 85.04C226.864 85.04 226.424 85.152 225.976 85.376C225.544 85.6 225.152 85.912 224.8 86.312C224.448 86.696 224.192 87.144 224.032 87.656V95H220.816V82.424H223.72V84.752C224.04 84.208 224.448 83.752 224.944 83.384C225.44 83 226.008 82.712 226.648 82.52C227.304 82.312 227.992 82.208 228.712 82.208C229.496 82.208 230.136 82.352 230.632 82.64C231.144 82.912 231.528 83.288 231.784 83.768C232.056 84.232 232.24 84.76 232.336 85.352C232.448 85.944 232.504 86.544 232.504 87.152V95ZM242.766 94.352C242.494 94.464 242.166 94.592 241.782 94.736C241.398 94.88 240.982 94.992 240.534 95.072C240.102 95.168 239.662 95.216 239.214 95.216C238.622 95.216 238.078 95.112 237.582 94.904C237.086 94.696 236.686 94.368 236.382 93.92C236.094 93.456 235.95 92.856 235.95 92.12V84.896H234.294V82.424H235.95V78.344H239.166V82.424H241.806V84.896H239.166V91.04C239.182 91.472 239.302 91.784 239.526 91.976C239.75 92.168 240.03 92.264 240.366 92.264C240.702 92.264 241.03 92.208 241.35 92.096C241.67 91.984 241.926 91.888 242.118 91.808L242.766 94.352ZM250.132 95.24C249.124 95.24 248.212 95.072 247.396 94.736C246.58 94.384 245.884 93.912 245.308 93.32C244.732 92.712 244.284 92.024 243.964 91.256C243.66 90.472 243.508 89.648 243.508 88.784C243.508 87.584 243.772 86.488 244.3 85.496C244.844 84.504 245.612 83.712 246.604 83.12C247.612 82.512 248.796 82.208 250.156 82.208C251.532 82.208 252.708 82.512 253.684 83.12C254.66 83.712 255.404 84.504 255.916 85.496C256.444 86.472 256.708 87.528 256.708 88.664C256.708 88.856 256.7 89.056 256.684 89.264C256.668 89.456 256.652 89.616 256.636 89.744H246.916C246.98 90.384 247.164 90.944 247.468 91.424C247.788 91.904 248.188 92.272 248.668 92.528C249.164 92.768 249.692 92.888 250.252 92.888C250.892 92.888 251.492 92.736 252.052 92.432C252.628 92.112 253.02 91.696 253.228 91.184L255.988 91.952C255.684 92.592 255.244 93.16 254.668 93.656C254.108 94.152 253.444 94.544 252.676 94.832C251.908 95.104 251.06 95.24 250.132 95.24ZM246.844 87.704H253.42C253.356 87.064 253.172 86.512 252.868 86.048C252.58 85.568 252.196 85.2 251.716 84.944C251.236 84.672 250.7 84.536 250.108 84.536C249.532 84.536 249.004 84.672 248.524 84.944C248.06 85.2 247.676 85.568 247.372 86.048C247.084 86.512 246.908 87.064 246.844 87.704ZM270.355 95H267.139V87.944C267.139 86.936 266.963 86.2 266.611 85.736C266.259 85.272 265.771 85.04 265.147 85.04C264.715 85.04 264.275 85.152 263.827 85.376C263.395 85.6 263.003 85.912 262.651 86.312C262.299 86.696 262.043 87.144 261.883 87.656V95H258.667V82.424H261.571V84.752C261.891 84.208 262.299 83.752 262.795 83.384C263.291 83 263.859 82.712 264.499 82.52C265.155 82.312 265.843 82.208 266.563 82.208C267.347 82.208 267.987 82.352 268.483 82.64C268.995 82.912 269.379 83.288 269.635 83.768C269.907 84.232 270.091 84.76 270.187 85.352C270.299 85.944 270.355 86.544 270.355 87.152V95ZM280.617 94.352C280.345 94.464 280.017 94.592 279.633 94.736C279.249 94.88 278.833 94.992 278.385 95.072C277.953 95.168 277.513 95.216 277.065 95.216C276.473 95.216 275.929 95.112 275.433 94.904C274.937 94.696 274.537 94.368 274.233 93.92C273.945 93.456 273.801 92.856 273.801 92.12V84.896H272.145V82.424H273.801V78.344H277.017V82.424H279.657V84.896H277.017V91.04C277.033 91.472 277.153 91.784 277.377 91.976C277.601 92.168 277.881 92.264 278.217 92.264C278.553 92.264 278.881 92.208 279.201 92.096C279.521 91.984 279.777 91.888 279.969 91.808L280.617 94.352ZM1.344 119.296V111.424H4.56V118.6C4.56 119.56 4.736 120.288 5.088 120.784C5.44 121.264 5.96 121.504 6.648 121.504C7.064 121.504 7.472 121.424 7.872 121.264C8.288 121.088 8.664 120.832 9 120.496C9.352 120.16 9.648 119.736 9.888 119.224V111.424H13.104V120.4C13.104 120.736 13.16 120.976 13.272 121.12C13.4 121.264 13.6 121.352 13.872 121.384V124C13.552 124.048 13.28 124.08 13.056 124.096C12.848 124.128 12.656 124.144 12.48 124.144C11.904 124.144 11.432 124.016 11.064 123.76C10.712 123.488 10.504 123.12 10.44 122.656L10.368 121.648C9.808 122.496 9.088 123.144 8.208 123.592C7.328 124.024 6.36 124.24 5.304 124.24C4.008 124.24 3.024 123.824 2.352 122.992C1.68 122.144 1.344 120.912 1.344 119.296ZM20.9319 124.24C19.8599 124.24 18.8359 124.064 17.8599 123.712C16.8839 123.36 16.0439 122.84 15.3399 122.152L16.4919 120.064C17.2439 120.672 17.9799 121.12 18.6999 121.408C19.4359 121.696 20.1399 121.84 20.8119 121.84C21.4359 121.84 21.9319 121.728 22.2999 121.504C22.6839 121.28 22.8759 120.944 22.8759 120.496C22.8759 120.192 22.7719 119.96 22.5639 119.8C22.3559 119.624 22.0519 119.472 21.6519 119.344C21.2679 119.216 20.7959 119.072 20.2359 118.912C19.3079 118.608 18.5319 118.312 17.9079 118.024C17.2839 117.736 16.8119 117.376 16.4919 116.944C16.1879 116.496 16.0359 115.928 16.0359 115.24C16.0359 114.408 16.2439 113.696 16.6599 113.104C17.0919 112.496 17.6839 112.024 18.4359 111.688C19.2039 111.352 20.0999 111.184 21.1239 111.184C22.0199 111.184 22.8679 111.328 23.6679 111.616C24.4679 111.888 25.1959 112.336 25.8519 112.96L24.5559 115C23.9159 114.504 23.3079 114.144 22.7319 113.92C22.1559 113.68 21.5719 113.56 20.9799 113.56C20.6439 113.56 20.3239 113.6 20.0199 113.68C19.7319 113.76 19.4919 113.896 19.2999 114.088C19.1239 114.264 19.0359 114.52 19.0359 114.856C19.0359 115.16 19.1159 115.4 19.2759 115.576C19.4519 115.736 19.7079 115.88 20.0439 116.008C20.3959 116.136 20.8199 116.28 21.3159 116.44C22.3239 116.728 23.1719 117.024 23.8599 117.328C24.5639 117.632 25.0919 118.008 25.4439 118.456C25.7959 118.888 25.9719 119.488 25.9719 120.256C25.9719 121.504 25.5159 122.48 24.6039 123.184C23.6919 123.888 22.4679 124.24 20.9319 124.24ZM28.1593 124V111.424H31.3753V124H28.1593ZM28.1593 109.672V106.48H31.3753V109.672H28.1593ZM45.9645 124H42.7485V116.944C42.7485 115.936 42.5725 115.2 42.2205 114.736C41.8685 114.272 41.3805 114.04 40.7565 114.04C40.3245 114.04 39.8845 114.152 39.4365 114.376C39.0045 114.6 38.6125 114.912 38.2605 115.312C37.9085 115.696 37.6525 116.144 37.4925 116.656V124H34.2765V111.424H37.1805V113.752C37.5005 113.208 37.9085 112.752 38.4045 112.384C38.9005 112 39.4685 111.712 40.1085 111.52C40.7645 111.312 41.4525 111.208 42.1725 111.208C42.9565 111.208 43.5965 111.352 44.0925 111.64C44.6045 111.912 44.9885 112.288 45.2445 112.768C45.5165 113.232 45.7005 113.76 45.7965 114.352C45.9085 114.944 45.9645 115.544 45.9645 116.152V124ZM53.6809 124.072C52.8489 124.072 52.0809 123.912 51.3769 123.592C50.6889 123.256 50.0889 122.792 49.5769 122.2C49.0809 121.608 48.6969 120.928 48.4249 120.16C48.1529 119.392 48.0169 118.576 48.0169 117.712C48.0169 116.8 48.1609 115.952 48.4489 115.168C48.7369 114.384 49.1369 113.696 49.6489 113.104C50.1769 112.496 50.7929 112.032 51.4969 111.712C52.2169 111.376 53.0089 111.208 53.8729 111.208C54.8489 111.208 55.7049 111.432 56.4409 111.88C57.1769 112.312 57.7849 112.896 58.2649 113.632V111.424H61.0729V123.4C61.0729 124.648 60.7689 125.712 60.1609 126.592C59.5689 127.488 58.7449 128.168 57.6889 128.632C56.6329 129.112 55.4329 129.352 54.0889 129.352C52.7289 129.352 51.5769 129.12 50.6329 128.656C49.6889 128.208 48.8809 127.568 48.2089 126.736L49.9609 125.032C50.4409 125.624 51.0409 126.088 51.7609 126.424C52.4969 126.76 53.2729 126.928 54.0889 126.928C54.7769 126.928 55.4009 126.8 55.9609 126.544C56.5369 126.304 56.9929 125.92 57.3289 125.392C57.6809 124.88 57.8569 124.216 57.8569 123.4V121.816C57.4409 122.536 56.8489 123.096 56.0809 123.496C55.3289 123.88 54.5289 124.072 53.6809 124.072ZM54.7609 121.504C55.1129 121.504 55.4489 121.448 55.7689 121.336C56.0889 121.224 56.3849 121.072 56.6569 120.88C56.9289 120.688 57.1689 120.464 57.3769 120.208C57.5849 119.936 57.7449 119.664 57.8569 119.392V116.392C57.6649 115.896 57.3929 115.464 57.0409 115.096C56.7049 114.728 56.3209 114.448 55.8889 114.256C55.4729 114.048 55.0329 113.944 54.5689 113.944C54.0729 113.944 53.6249 114.048 53.2249 114.256C52.8249 114.464 52.4809 114.76 52.1929 115.144C51.9049 115.512 51.6809 115.928 51.5209 116.392C51.3769 116.84 51.3049 117.312 51.3049 117.808C51.3049 118.32 51.3929 118.8 51.5689 119.248C51.7449 119.696 51.9849 120.088 52.2889 120.424C52.6089 120.76 52.9769 121.024 53.3929 121.216C53.8249 121.408 54.2809 121.504 54.7609 121.504Z" fill="#D1D8FF"/>
<path d="M89.2734 124H86.0574V116.944C86.0574 115.952 85.8814 115.224 85.5294 114.76C85.1934 114.28 84.7214 114.04 84.1134 114.04C83.4894 114.04 82.8894 114.288 82.3134 114.784C81.7534 115.264 81.3534 115.896 81.1134 116.68V124H77.8974V116.944C77.8974 115.936 77.7214 115.2 77.3694 114.736C77.0334 114.272 76.5614 114.04 75.9534 114.04C75.3294 114.04 74.7294 114.28 74.1534 114.76C73.5934 115.24 73.1934 115.872 72.9534 116.656V124H69.7374V111.424H72.6414V113.752C73.1214 112.936 73.7614 112.312 74.5614 111.88C75.3614 111.432 76.2814 111.208 77.3214 111.208C78.3614 111.208 79.1694 111.464 79.7454 111.976C80.3374 112.488 80.7134 113.12 80.8734 113.872C81.3854 113.008 82.0334 112.352 82.8174 111.904C83.6174 111.44 84.5134 111.208 85.5054 111.208C86.2894 111.208 86.9214 111.352 87.4014 111.64C87.8974 111.912 88.2814 112.288 88.5534 112.768C88.8254 113.232 89.0094 113.76 89.1054 114.352C89.2174 114.944 89.2734 115.544 89.2734 116.152V124ZM91.2094 120.28C91.2094 119.464 91.4334 118.752 91.8814 118.144C92.3454 117.52 92.9854 117.04 93.8014 116.704C94.6174 116.368 95.5534 116.2 96.6094 116.2C97.1374 116.2 97.6734 116.24 98.2174 116.32C98.7614 116.4 99.2334 116.528 99.6334 116.704V116.032C99.6334 115.232 99.3934 114.616 98.9134 114.184C98.4494 113.752 97.7534 113.536 96.8254 113.536C96.1374 113.536 95.4814 113.656 94.8574 113.896C94.2334 114.136 93.5774 114.488 92.8894 114.952L91.8574 112.84C92.6894 112.296 93.5374 111.888 94.4014 111.616C95.2814 111.344 96.2014 111.208 97.1614 111.208C98.9534 111.208 100.345 111.656 101.337 112.552C102.345 113.448 102.849 114.728 102.849 116.392V120.4C102.849 120.736 102.905 120.976 103.017 121.12C103.145 121.264 103.345 121.352 103.617 121.384V124C103.329 124.048 103.065 124.088 102.825 124.12C102.601 124.152 102.409 124.168 102.249 124.168C101.609 124.168 101.121 124.024 100.785 123.736C100.465 123.448 100.265 123.096 100.185 122.68L100.113 122.032C99.5694 122.736 98.8894 123.28 98.0734 123.664C97.2574 124.048 96.4254 124.24 95.5774 124.24C94.7454 124.24 93.9934 124.072 93.3214 123.736C92.6654 123.384 92.1454 122.912 91.7614 122.32C91.3934 121.712 91.2094 121.032 91.2094 120.28ZM99.0334 120.928C99.2094 120.736 99.3534 120.544 99.4654 120.352C99.5774 120.16 99.6334 119.984 99.6334 119.824V118.552C99.2494 118.392 98.8334 118.272 98.3854 118.192C97.9374 118.096 97.5134 118.048 97.1134 118.048C96.2814 118.048 95.5934 118.232 95.0494 118.6C94.5214 118.952 94.2574 119.424 94.2574 120.016C94.2574 120.336 94.3454 120.64 94.5214 120.928C94.6974 121.216 94.9534 121.448 95.2894 121.624C95.6254 121.8 96.0254 121.888 96.4894 121.888C96.9694 121.888 97.4414 121.8 97.9054 121.624C98.3694 121.432 98.7454 121.2 99.0334 120.928ZM113.343 114.208C112.367 114.208 111.495 114.4 110.727 114.784C109.959 115.152 109.407 115.688 109.071 116.392V124H105.855V111.424H108.807V114.112C109.255 113.248 109.823 112.568 110.511 112.072C111.199 111.576 111.927 111.304 112.695 111.256C112.871 111.256 113.007 111.256 113.103 111.256C113.199 111.256 113.279 111.264 113.343 111.28V114.208ZM123.728 124L120.056 118.576L118.352 120.256V124H115.136V106.48H118.352V117.088L123.416 111.448H126.824L122.144 116.776L127.16 124H123.728ZM127.141 117.712C127.141 116.496 127.381 115.4 127.861 114.424C128.341 113.432 129.005 112.648 129.853 112.072C130.701 111.496 131.669 111.208 132.757 111.208C133.685 111.208 134.517 111.44 135.253 111.904C136.005 112.352 136.589 112.928 137.005 113.632V106.48H140.221V120.4C140.221 120.736 140.277 120.976 140.389 121.12C140.501 121.264 140.693 121.352 140.965 121.384V124C140.405 124.112 139.949 124.168 139.597 124.168C139.021 124.168 138.541 124.024 138.157 123.736C137.789 123.448 137.581 123.072 137.533 122.608L137.485 121.816C137.021 122.6 136.389 123.2 135.589 123.616C134.805 124.032 133.981 124.24 133.117 124.24C132.253 124.24 131.453 124.072 130.717 123.736C129.997 123.4 129.365 122.936 128.821 122.344C128.293 121.752 127.877 121.064 127.573 120.28C127.285 119.48 127.141 118.624 127.141 117.712ZM137.005 119.392V116.392C136.845 115.928 136.589 115.512 136.237 115.144C135.885 114.776 135.493 114.488 135.061 114.28C134.629 114.056 134.197 113.944 133.765 113.944C133.269 113.944 132.821 114.048 132.421 114.256C132.021 114.464 131.669 114.744 131.365 115.096C131.077 115.448 130.853 115.856 130.693 116.32C130.549 116.784 130.477 117.272 130.477 117.784C130.477 118.296 130.557 118.784 130.717 119.248C130.893 119.696 131.141 120.088 131.461 120.424C131.781 120.76 132.149 121.024 132.565 121.216C132.997 121.408 133.461 121.504 133.957 121.504C134.261 121.504 134.565 121.456 134.869 121.36C135.189 121.248 135.485 121.104 135.757 120.928C136.045 120.736 136.293 120.512 136.501 120.256C136.725 119.984 136.893 119.696 137.005 119.392ZM149.186 124.24C148.162 124.24 147.242 124.072 146.426 123.736C145.61 123.384 144.914 122.904 144.338 122.296C143.778 121.688 143.346 120.992 143.042 120.208C142.738 119.424 142.586 118.6 142.586 117.736C142.586 116.856 142.738 116.024 143.042 115.24C143.346 114.456 143.778 113.76 144.338 113.152C144.914 112.544 145.61 112.072 146.426 111.736C147.242 111.384 148.162 111.208 149.186 111.208C150.21 111.208 151.122 111.384 151.922 111.736C152.738 112.072 153.434 112.544 154.01 113.152C154.586 113.76 155.018 114.456 155.306 115.24C155.61 116.024 155.762 116.856 155.762 117.736C155.762 118.6 155.61 119.424 155.306 120.208C155.018 120.992 154.586 121.688 154.01 122.296C153.45 122.904 152.762 123.384 151.946 123.736C151.13 124.072 150.21 124.24 149.186 124.24ZM145.898 117.736C145.898 118.472 146.042 119.128 146.33 119.704C146.618 120.264 147.01 120.704 147.506 121.024C148.002 121.344 148.562 121.504 149.186 121.504C149.794 121.504 150.346 121.344 150.842 121.024C151.338 120.688 151.73 120.24 152.018 119.68C152.322 119.104 152.474 118.448 152.474 117.712C152.474 116.992 152.322 116.344 152.018 115.768C151.73 115.192 151.338 114.744 150.842 114.424C150.346 114.104 149.794 113.944 149.186 113.944C148.562 113.944 148.002 114.112 147.506 114.448C147.01 114.768 146.618 115.216 146.33 115.792C146.042 116.352 145.898 117 145.898 117.736ZM173.111 111.424H176.159L170.903 124H168.215L166.103 118.6L164.039 124H161.327L156.095 111.424H159.119L162.863 120.928L164.327 116.824L162.143 111.448H164.807L166.103 115.288L167.423 111.448H170.087L167.903 116.824L169.391 120.928L173.111 111.424ZM189.332 124H186.116V116.944C186.116 115.936 185.94 115.2 185.588 114.736C185.236 114.272 184.748 114.04 184.124 114.04C183.692 114.04 183.252 114.152 182.804 114.376C182.372 114.6 181.98 114.912 181.628 115.312C181.276 115.696 181.02 116.144 180.86 116.656V124H177.644V111.424H180.548V113.752C180.868 113.208 181.276 112.752 181.772 112.384C182.268 112 182.836 111.712 183.476 111.52C184.132 111.312 184.82 111.208 185.54 111.208C186.324 111.208 186.964 111.352 187.46 111.64C187.972 111.912 188.356 112.288 188.612 112.768C188.884 113.232 189.068 113.76 189.164 114.352C189.276 114.944 189.332 115.544 189.332 116.152V124Z" fill="#00BD7B"/>
<path d="M6.21 145.292H7.74L9.432 149.738L11.142 145.292H12.672L10.458 150.854L12.654 156.128L16.974 145.22H18.738L13.392 158H11.988L9.45 151.97L6.894 158H5.49L0.162 145.22H1.908L6.246 156.128L8.424 150.854L6.21 145.292ZM18.4521 155.282C18.4521 154.682 18.6201 154.166 18.9561 153.734C19.3041 153.29 19.7781 152.948 20.3781 152.708C20.9781 152.468 21.6741 152.348 22.4661 152.348C22.8861 152.348 23.3301 152.384 23.7981 152.456C24.2661 152.516 24.6801 152.612 25.0401 152.744V152.06C25.0401 151.34 24.8241 150.776 24.3921 150.368C23.9601 149.948 23.3481 149.738 22.5561 149.738C22.0401 149.738 21.5421 149.834 21.0621 150.026C20.5941 150.206 20.0961 150.47 19.5681 150.818L18.9921 149.702C19.6041 149.282 20.2161 148.97 20.8281 148.766C21.4401 148.55 22.0761 148.442 22.7361 148.442C23.9361 148.442 24.8841 148.778 25.5801 149.45C26.2761 150.11 26.6241 151.034 26.6241 152.222V156.2C26.6241 156.392 26.6601 156.536 26.7321 156.632C26.8161 156.716 26.9481 156.764 27.1281 156.776V158C26.9721 158.024 26.8341 158.042 26.7141 158.054C26.6061 158.066 26.5161 158.072 26.4441 158.072C26.0721 158.072 25.7901 157.97 25.5981 157.766C25.4181 157.562 25.3161 157.346 25.2921 157.118L25.2561 156.524C24.8481 157.052 24.3141 157.46 23.6541 157.748C22.9941 158.036 22.3401 158.18 21.6921 158.18C21.0681 158.18 20.5101 158.054 20.0181 157.802C19.5261 157.538 19.1421 157.19 18.8661 156.758C18.5901 156.314 18.4521 155.822 18.4521 155.282ZM24.5721 155.948C24.7161 155.78 24.8301 155.612 24.9141 155.444C24.9981 155.264 25.0401 155.114 25.0401 154.994V153.824C24.6681 153.68 24.2781 153.572 23.8701 153.5C23.4621 153.416 23.0601 153.374 22.6641 153.374C21.8601 153.374 21.2061 153.536 20.7021 153.86C20.2101 154.172 19.9641 154.604 19.9641 155.156C19.9641 155.456 20.0421 155.75 20.1981 156.038C20.3661 156.314 20.6061 156.542 20.9181 156.722C21.2421 156.902 21.6381 156.992 22.1061 156.992C22.5981 156.992 23.0661 156.896 23.5101 156.704C23.9541 156.5 24.3081 156.248 24.5721 155.948ZM29.1929 144.86H30.7769V155.57C30.7769 156.086 30.8489 156.404 30.9929 156.524C31.1369 156.644 31.3109 156.704 31.5149 156.704C31.7669 156.704 32.0069 156.68 32.2349 156.632C32.4629 156.572 32.6549 156.512 32.8109 156.452L33.0629 157.748C32.7989 157.856 32.4869 157.946 32.1269 158.018C31.7669 158.09 31.4489 158.126 31.1729 158.126C30.5609 158.126 30.0749 157.952 29.7149 157.604C29.3669 157.256 29.1929 156.77 29.1929 156.146V144.86ZM34.3433 144.86H35.9273V155.57C35.9273 156.086 35.9993 156.404 36.1433 156.524C36.2873 156.644 36.4613 156.704 36.6653 156.704C36.9173 156.704 37.1573 156.68 37.3853 156.632C37.6133 156.572 37.8053 156.512 37.9613 156.452L38.2133 157.748C37.9493 157.856 37.6373 157.946 37.2773 158.018C36.9173 158.09 36.5993 158.126 36.3233 158.126C35.7113 158.126 35.2253 157.952 34.8653 157.604C34.5173 157.256 34.3433 156.77 34.3433 156.146V144.86ZM42.6797 158.18C41.8997 158.18 41.1677 158.054 40.4837 157.802C39.7997 157.538 39.2117 157.148 38.7197 156.632L39.3317 155.516C39.8717 156.02 40.4117 156.38 40.9517 156.596C41.4917 156.812 42.0437 156.92 42.6077 156.92C43.2557 156.92 43.7837 156.8 44.1917 156.56C44.5997 156.308 44.8037 155.942 44.8037 155.462C44.8037 155.114 44.6957 154.856 44.4797 154.688C44.2757 154.52 43.9817 154.382 43.5977 154.274C43.2137 154.154 42.7577 154.022 42.2297 153.878C41.5817 153.686 41.0357 153.482 40.5917 153.266C40.1477 153.05 39.8117 152.78 39.5837 152.456C39.3557 152.132 39.2417 151.724 39.2417 151.232C39.2417 150.632 39.3977 150.128 39.7097 149.72C40.0217 149.3 40.4477 148.982 40.9877 148.766C41.5397 148.55 42.1637 148.442 42.8597 148.442C43.5557 148.442 44.1857 148.55 44.7497 148.766C45.3137 148.982 45.7997 149.3 46.2077 149.72L45.4877 150.818C45.1157 150.434 44.7077 150.152 44.2637 149.972C43.8197 149.78 43.3217 149.684 42.7697 149.684C42.4457 149.684 42.1277 149.726 41.8157 149.81C41.5037 149.882 41.2457 150.02 41.0417 150.224C40.8377 150.416 40.7357 150.692 40.7357 151.052C40.7357 151.352 40.8137 151.592 40.9697 151.772C41.1377 151.94 41.3777 152.084 41.6897 152.204C42.0137 152.324 42.4037 152.456 42.8597 152.6C43.5677 152.804 44.1797 153.008 44.6957 153.212C45.2237 153.416 45.6317 153.68 45.9197 154.004C46.2077 154.328 46.3517 154.778 46.3517 155.354C46.3517 156.242 46.0157 156.938 45.3437 157.442C44.6717 157.934 43.7837 158.18 42.6797 158.18ZM56.9035 158.18C56.1955 158.18 55.5535 158.054 54.9775 157.802C54.4015 157.538 53.9035 157.184 53.4835 156.74C53.0635 156.284 52.7395 155.762 52.5115 155.174C52.2835 154.586 52.1695 153.968 52.1695 153.32C52.1695 152.66 52.2835 152.036 52.5115 151.448C52.7395 150.86 53.0635 150.344 53.4835 149.9C53.9035 149.444 54.4015 149.09 54.9775 148.838C55.5655 148.574 56.2075 148.442 56.9035 148.442C57.6115 148.442 58.2535 148.574 58.8295 148.838C59.4055 149.09 59.9035 149.444 60.3235 149.9C60.7555 150.344 61.0855 150.86 61.3135 151.448C61.5415 152.036 61.6555 152.66 61.6555 153.32C61.6555 153.968 61.5415 154.586 61.3135 155.174C61.0855 155.762 60.7615 156.284 60.3415 156.74C59.9215 157.184 59.4175 157.538 58.8295 157.802C58.2535 158.054 57.6115 158.18 56.9035 158.18ZM53.7895 153.338C53.7895 153.986 53.9275 154.574 54.2035 155.102C54.4915 155.63 54.8695 156.05 55.3375 156.362C55.8055 156.662 56.3275 156.812 56.9035 156.812C57.4795 156.812 58.0015 156.656 58.4695 156.344C58.9495 156.032 59.3275 155.612 59.6035 155.084C59.8915 154.544 60.0355 153.95 60.0355 153.302C60.0355 152.654 59.8915 152.066 59.6035 151.538C59.3275 151.01 58.9495 150.59 58.4695 150.278C58.0015 149.966 57.4795 149.81 56.9035 149.81C56.3275 149.81 55.8055 149.972 55.3375 150.296C54.8695 150.608 54.4915 151.028 54.2035 151.556C53.9275 152.084 53.7895 152.678 53.7895 153.338ZM63.9207 158V149.846H62.6427V148.604H63.9207V148.406C63.9207 147.638 64.0347 146.978 64.2627 146.426C64.5027 145.862 64.8387 145.43 65.2707 145.13C65.7027 144.83 66.2127 144.68 66.8007 144.68C67.1727 144.68 67.5387 144.734 67.8987 144.842C68.2587 144.938 68.5827 145.076 68.8707 145.256L68.4747 146.426C68.3067 146.306 68.0967 146.21 67.8447 146.138C67.6047 146.066 67.3647 146.03 67.1247 146.03C66.6087 146.03 66.2067 146.234 65.9187 146.642C65.6427 147.038 65.5047 147.608 65.5047 148.352V148.604H68.0067V149.846H65.5047V158H63.9207ZM78.595 157.532C78.463 157.592 78.283 157.67 78.055 157.766C77.827 157.862 77.563 157.946 77.263 158.018C76.963 158.09 76.645 158.126 76.309 158.126C75.925 158.126 75.571 158.06 75.247 157.928C74.923 157.784 74.665 157.568 74.473 157.28C74.281 156.98 74.185 156.608 74.185 156.164V149.846H72.907V148.604H74.185V145.472H75.769V148.604H77.875V149.846H75.769V155.678C75.793 156.014 75.907 156.266 76.111 156.434C76.315 156.59 76.555 156.668 76.831 156.668C77.143 156.668 77.431 156.614 77.695 156.506C77.959 156.398 78.133 156.32 78.217 156.272L78.595 157.532ZM84.0981 158.18C83.3901 158.18 82.7421 158.054 82.1541 157.802C81.5781 157.538 81.0741 157.184 80.6421 156.74C80.2221 156.284 79.8921 155.762 79.6521 155.174C79.4241 154.586 79.3101 153.962 79.3101 153.302C79.3101 152.414 79.5141 151.604 79.9221 150.872C80.3301 150.14 80.8941 149.552 81.6141 149.108C82.3461 148.664 83.1801 148.442 84.1161 148.442C85.0641 148.442 85.8861 148.67 86.5821 149.126C87.2901 149.57 87.8361 150.158 88.2201 150.89C88.6161 151.61 88.8141 152.39 88.8141 153.23C88.8141 153.35 88.8081 153.47 88.7961 153.59C88.7961 153.698 88.7901 153.782 88.7781 153.842H80.9841C81.0321 154.454 81.2001 155 81.4881 155.48C81.7881 155.948 82.1721 156.32 82.6401 156.596C83.1081 156.86 83.6121 156.992 84.1521 156.992C84.7281 156.992 85.2681 156.848 85.7721 156.56C86.2881 156.272 86.6421 155.894 86.8341 155.426L88.2021 155.804C87.9981 156.26 87.6921 156.668 87.2841 157.028C86.8881 157.388 86.4141 157.67 85.8621 157.874C85.3221 158.078 84.7341 158.18 84.0981 158.18ZM80.9301 152.744H87.3381C87.2901 152.132 87.1161 151.592 86.8161 151.124C86.5161 150.656 86.1321 150.29 85.6641 150.026C85.1961 149.762 84.6801 149.63 84.1161 149.63C83.5641 149.63 83.0541 149.762 82.5861 150.026C82.1181 150.29 81.7341 150.656 81.4341 151.124C81.1461 151.592 80.9781 152.132 80.9301 152.744ZM90.9253 148.604L93.4093 152.06L93.5533 152.348L93.7153 152.06L96.1813 148.604H97.9453L94.4713 153.32L97.9633 158H96.1993L93.7153 154.562L93.5533 154.292L93.4093 154.562L90.9253 158H89.1613L92.6533 153.32L89.1793 148.604H90.9253ZM104.312 157.532C104.18 157.592 104 157.67 103.772 157.766C103.544 157.862 103.28 157.946 102.98 158.018C102.68 158.09 102.362 158.126 102.026 158.126C101.642 158.126 101.288 158.06 100.964 157.928C100.64 157.784 100.382 157.568 100.19 157.28C99.9978 156.98 99.9018 156.608 99.9018 156.164V149.846H98.6238V148.604H99.9018V145.472H101.486V148.604H103.592V149.846H101.486V155.678C101.51 156.014 101.624 156.266 101.828 156.434C102.032 156.59 102.272 156.668 102.548 156.668C102.86 156.668 103.148 156.614 103.412 156.506C103.676 156.398 103.85 156.32 103.934 156.272L104.312 157.532ZM109.595 155.282C109.595 154.682 109.763 154.166 110.099 153.734C110.447 153.29 110.921 152.948 111.521 152.708C112.121 152.468 112.817 152.348 113.609 152.348C114.029 152.348 114.473 152.384 114.941 152.456C115.409 152.516 115.823 152.612 116.183 152.744V152.06C116.183 151.34 115.967 150.776 115.535 150.368C115.103 149.948 114.491 149.738 113.699 149.738C113.183 149.738 112.685 149.834 112.205 150.026C111.737 150.206 111.239 150.47 110.711 150.818L110.135 149.702C110.747 149.282 111.359 148.97 111.971 148.766C112.583 148.55 113.219 148.442 113.879 148.442C115.079 148.442 116.027 148.778 116.723 149.45C117.419 150.11 117.767 151.034 117.767 152.222V156.2C117.767 156.392 117.803 156.536 117.875 156.632C117.959 156.716 118.091 156.764 118.271 156.776V158C118.115 158.024 117.977 158.042 117.857 158.054C117.749 158.066 117.659 158.072 117.587 158.072C117.215 158.072 116.933 157.97 116.741 157.766C116.561 157.562 116.459 157.346 116.435 157.118L116.399 156.524C115.991 157.052 115.457 157.46 114.797 157.748C114.137 158.036 113.483 158.18 112.835 158.18C112.211 158.18 111.653 158.054 111.161 157.802C110.669 157.538 110.285 157.19 110.009 156.758C109.733 156.314 109.595 155.822 109.595 155.282ZM115.715 155.948C115.859 155.78 115.973 155.612 116.057 155.444C116.141 155.264 116.183 155.114 116.183 154.994V153.824C115.811 153.68 115.421 153.572 115.013 153.5C114.605 153.416 114.203 153.374 113.807 153.374C113.003 153.374 112.349 153.536 111.845 153.86C111.353 154.172 111.107 154.604 111.107 155.156C111.107 155.456 111.185 155.75 111.341 156.038C111.509 156.314 111.749 156.542 112.061 156.722C112.385 156.902 112.781 156.992 113.249 156.992C113.741 156.992 114.209 156.896 114.653 156.704C115.097 156.5 115.451 156.248 115.715 155.948ZM125.267 149.99C124.475 150.002 123.773 150.206 123.161 150.602C122.561 150.986 122.135 151.52 121.883 152.204V158H120.299V148.604H121.775V150.782C122.099 150.134 122.525 149.612 123.053 149.216C123.593 148.808 124.157 148.58 124.745 148.532C124.865 148.532 124.967 148.532 125.051 148.532C125.135 148.532 125.207 148.538 125.267 148.55V149.99ZM130.768 158.18C130.06 158.18 129.412 158.054 128.824 157.802C128.248 157.538 127.744 157.184 127.312 156.74C126.892 156.284 126.562 155.762 126.322 155.174C126.094 154.586 125.98 153.962 125.98 153.302C125.98 152.414 126.184 151.604 126.592 150.872C127 150.14 127.564 149.552 128.284 149.108C129.016 148.664 129.85 148.442 130.786 148.442C131.734 148.442 132.556 148.67 133.252 149.126C133.96 149.57 134.506 150.158 134.89 150.89C135.286 151.61 135.484 152.39 135.484 153.23C135.484 153.35 135.478 153.47 135.466 153.59C135.466 153.698 135.46 153.782 135.448 153.842H127.654C127.702 154.454 127.87 155 128.158 155.48C128.458 155.948 128.842 156.32 129.31 156.596C129.778 156.86 130.282 156.992 130.822 156.992C131.398 156.992 131.938 156.848 132.442 156.56C132.958 156.272 133.312 155.894 133.504 155.426L134.872 155.804C134.668 156.26 134.362 156.668 133.954 157.028C133.558 157.388 133.084 157.67 132.532 157.874C131.992 158.078 131.404 158.18 130.768 158.18ZM127.6 152.744H134.008C133.96 152.132 133.786 151.592 133.486 151.124C133.186 150.656 132.802 150.29 132.334 150.026C131.866 149.762 131.35 149.63 130.786 149.63C130.234 149.63 129.724 149.762 129.256 150.026C128.788 150.29 128.404 150.656 128.104 151.124C127.816 151.592 127.648 152.132 127.6 152.744ZM141.06 155.282C141.06 154.682 141.228 154.166 141.564 153.734C141.912 153.29 142.386 152.948 142.986 152.708C143.586 152.468 144.282 152.348 145.074 152.348C145.494 152.348 145.938 152.384 146.406 152.456C146.874 152.516 147.288 152.612 147.648 152.744V152.06C147.648 151.34 147.432 150.776 147 150.368C146.568 149.948 145.956 149.738 145.164 149.738C144.648 149.738 144.15 149.834 143.67 150.026C143.202 150.206 142.704 150.47 142.176 150.818L141.6 149.702C142.212 149.282 142.824 148.97 143.436 148.766C144.048 148.55 144.684 148.442 145.344 148.442C146.544 148.442 147.492 148.778 148.188 149.45C148.884 150.11 149.232 151.034 149.232 152.222V156.2C149.232 156.392 149.268 156.536 149.34 156.632C149.424 156.716 149.556 156.764 149.736 156.776V158C149.58 158.024 149.442 158.042 149.322 158.054C149.214 158.066 149.124 158.072 149.052 158.072C148.68 158.072 148.398 157.97 148.206 157.766C148.026 157.562 147.924 157.346 147.9 157.118L147.864 156.524C147.456 157.052 146.922 157.46 146.262 157.748C145.602 158.036 144.948 158.18 144.3 158.18C143.676 158.18 143.118 158.054 142.626 157.802C142.134 157.538 141.75 157.19 141.474 156.758C141.198 156.314 141.06 155.822 141.06 155.282ZM147.18 155.948C147.324 155.78 147.438 155.612 147.522 155.444C147.606 155.264 147.648 155.114 147.648 154.994V153.824C147.276 153.68 146.886 153.572 146.478 153.5C146.07 153.416 145.668 153.374 145.272 153.374C144.468 153.374 143.814 153.536 143.31 153.86C142.818 154.172 142.572 154.604 142.572 155.156C142.572 155.456 142.65 155.75 142.806 156.038C142.974 156.314 143.214 156.542 143.526 156.722C143.85 156.902 144.246 156.992 144.714 156.992C145.206 156.992 145.674 156.896 146.118 156.704C146.562 156.5 146.916 156.248 147.18 155.948ZM161.177 157.532C161.045 157.592 160.865 157.67 160.637 157.766C160.409 157.862 160.145 157.946 159.845 158.018C159.545 158.09 159.227 158.126 158.891 158.126C158.507 158.126 158.153 158.06 157.829 157.928C157.505 157.784 157.247 157.568 157.055 157.28C156.863 156.98 156.767 156.608 156.767 156.164V149.846H155.489V148.604H156.767V145.472H158.351V148.604H160.457V149.846H158.351V155.678C158.375 156.014 158.489 156.266 158.693 156.434C158.897 156.59 159.137 156.668 159.413 156.668C159.725 156.668 160.013 156.614 160.277 156.506C160.541 156.398 160.715 156.32 160.799 156.272L161.177 157.532ZM170.799 158H169.215V152.744C169.215 151.784 169.041 151.064 168.693 150.584C168.357 150.104 167.871 149.864 167.235 149.864C166.827 149.864 166.413 149.972 165.993 150.188C165.585 150.404 165.225 150.698 164.913 151.07C164.601 151.43 164.373 151.85 164.229 152.33V158H162.645V144.86H164.229V150.62C164.601 149.948 165.105 149.42 165.741 149.036C166.389 148.64 167.085 148.442 167.829 148.442C168.393 148.442 168.861 148.544 169.233 148.748C169.617 148.94 169.923 149.216 170.151 149.576C170.379 149.936 170.541 150.356 170.637 150.836C170.745 151.304 170.799 151.82 170.799 152.384V158ZM173.262 158V148.604H174.846V158H173.262ZM173.262 146.84V144.86H174.846V146.84H173.262ZM185.565 158H183.981V152.744C183.981 151.748 183.825 151.022 183.513 150.566C183.213 150.098 182.751 149.864 182.127 149.864C181.695 149.864 181.263 149.972 180.831 150.188C180.411 150.404 180.033 150.698 179.697 151.07C179.373 151.43 179.139 151.85 178.995 152.33V158H177.411V148.604H178.851V150.62C179.103 150.176 179.427 149.792 179.823 149.468C180.219 149.144 180.669 148.892 181.173 148.712C181.677 148.532 182.205 148.442 182.757 148.442C183.297 148.442 183.747 148.544 184.107 148.748C184.479 148.94 184.767 149.216 184.971 149.576C185.187 149.924 185.337 150.338 185.421 150.818C185.517 151.298 185.565 151.82 185.565 152.384V158ZM191.772 158.108C191.136 158.108 190.548 157.982 190.008 157.73C189.48 157.466 189.024 157.112 188.64 156.668C188.256 156.212 187.956 155.696 187.74 155.12C187.536 154.544 187.434 153.944 187.434 153.32C187.434 152.66 187.536 152.036 187.74 151.448C187.956 150.86 188.256 150.344 188.64 149.9C189.036 149.444 189.498 149.09 190.026 148.838C190.554 148.574 191.142 148.442 191.79 148.442C192.57 148.442 193.248 148.634 193.824 149.018C194.412 149.402 194.904 149.888 195.3 150.476V148.604H196.704V157.892C196.704 158.78 196.488 159.53 196.056 160.142C195.636 160.754 195.06 161.216 194.328 161.528C193.608 161.852 192.804 162.014 191.916 162.014C190.86 162.014 189.996 161.828 189.324 161.456C188.652 161.084 188.094 160.58 187.65 159.944L188.568 159.134C188.94 159.686 189.42 160.1 190.008 160.376C190.608 160.652 191.244 160.79 191.916 160.79C192.492 160.79 193.02 160.682 193.5 160.466C193.992 160.262 194.382 159.944 194.67 159.512C194.97 159.08 195.12 158.54 195.12 157.892V156.236C194.772 156.812 194.292 157.268 193.68 157.604C193.08 157.94 192.444 158.108 191.772 158.108ZM192.258 156.812C192.594 156.812 192.918 156.752 193.23 156.632C193.542 156.512 193.83 156.356 194.094 156.164C194.358 155.96 194.58 155.732 194.76 155.48C194.94 155.228 195.06 154.97 195.12 154.706V152.006C194.952 151.574 194.712 151.196 194.4 150.872C194.088 150.536 193.734 150.278 193.338 150.098C192.942 149.906 192.534 149.81 192.114 149.81C191.634 149.81 191.202 149.912 190.818 150.116C190.446 150.32 190.128 150.596 189.864 150.944C189.6 151.28 189.396 151.658 189.252 152.078C189.108 152.498 189.036 152.924 189.036 153.356C189.036 153.824 189.12 154.268 189.288 154.688C189.456 155.096 189.684 155.462 189.972 155.786C190.26 156.11 190.602 156.362 190.998 156.542C191.394 156.722 191.814 156.812 192.258 156.812ZM207.917 158.18C207.209 158.18 206.567 158.054 205.991 157.802C205.415 157.538 204.917 157.184 204.497 156.74C204.077 156.284 203.753 155.762 203.525 155.174C203.297 154.586 203.183 153.968 203.183 153.32C203.183 152.66 203.297 152.036 203.525 151.448C203.753 150.86 204.077 150.344 204.497 149.9C204.917 149.444 205.415 149.09 205.991 148.838C206.579 148.574 207.221 148.442 207.917 148.442C208.625 148.442 209.267 148.574 209.843 148.838C210.419 149.09 210.917 149.444 211.337 149.9C211.769 150.344 212.099 150.86 212.327 151.448C212.555 152.036 212.669 152.66 212.669 153.32C212.669 153.968 212.555 154.586 212.327 155.174C212.099 155.762 211.775 156.284 211.355 156.74C210.935 157.184 210.431 157.538 209.843 157.802C209.267 158.054 208.625 158.18 207.917 158.18ZM204.803 153.338C204.803 153.986 204.941 154.574 205.217 155.102C205.505 155.63 205.883 156.05 206.351 156.362C206.819 156.662 207.341 156.812 207.917 156.812C208.493 156.812 209.015 156.656 209.483 156.344C209.963 156.032 210.341 155.612 210.617 155.084C210.905 154.544 211.049 153.95 211.049 153.302C211.049 152.654 210.905 152.066 210.617 151.538C210.341 151.01 209.963 150.59 209.483 150.278C209.015 149.966 208.493 149.81 207.917 149.81C207.341 149.81 206.819 149.972 206.351 150.296C205.883 150.608 205.505 151.028 205.217 151.556C204.941 152.084 204.803 152.678 204.803 153.338ZM214.934 158V149.846H213.656V148.604H214.934V148.406C214.934 147.638 215.048 146.978 215.276 146.426C215.516 145.862 215.852 145.43 216.284 145.13C216.716 144.83 217.226 144.68 217.814 144.68C218.186 144.68 218.552 144.734 218.912 144.842C219.272 144.938 219.596 145.076 219.884 145.256L219.488 146.426C219.32 146.306 219.11 146.21 218.858 146.138C218.618 146.066 218.378 146.03 218.138 146.03C217.622 146.03 217.22 146.234 216.932 146.642C216.656 147.038 216.518 147.608 216.518 148.352V148.604H219.02V149.846H216.518V158H214.934ZM229.609 157.532C229.477 157.592 229.297 157.67 229.069 157.766C228.841 157.862 228.577 157.946 228.277 158.018C227.977 158.09 227.659 158.126 227.323 158.126C226.939 158.126 226.585 158.06 226.261 157.928C225.937 157.784 225.679 157.568 225.487 157.28C225.295 156.98 225.199 156.608 225.199 156.164V149.846H223.921V148.604H225.199V145.472H226.783V148.604H228.889V149.846H226.783V155.678C226.807 156.014 226.921 156.266 227.125 156.434C227.329 156.59 227.569 156.668 227.845 156.668C228.157 156.668 228.445 156.614 228.709 156.506C228.973 156.398 229.147 156.32 229.231 156.272L229.609 157.532ZM239.231 158H237.647V152.744C237.647 151.784 237.473 151.064 237.125 150.584C236.789 150.104 236.303 149.864 235.667 149.864C235.259 149.864 234.845 149.972 234.425 150.188C234.017 150.404 233.657 150.698 233.345 151.07C233.033 151.43 232.805 151.85 232.661 152.33V158H231.077V144.86H232.661V150.62C233.033 149.948 233.537 149.42 234.173 149.036C234.821 148.64 235.517 148.442 236.261 148.442C236.825 148.442 237.293 148.544 237.665 148.748C238.049 148.94 238.355 149.216 238.583 149.576C238.811 149.936 238.973 150.356 239.069 150.836C239.177 151.304 239.231 151.82 239.231 152.384V158ZM245.852 158.18C245.144 158.18 244.496 158.054 243.908 157.802C243.332 157.538 242.828 157.184 242.396 156.74C241.976 156.284 241.646 155.762 241.406 155.174C241.178 154.586 241.064 153.962 241.064 153.302C241.064 152.414 241.268 151.604 241.676 150.872C242.084 150.14 242.648 149.552 243.368 149.108C244.1 148.664 244.934 148.442 245.87 148.442C246.818 148.442 247.64 148.67 248.336 149.126C249.044 149.57 249.59 150.158 249.974 150.89C250.37 151.61 250.568 152.39 250.568 153.23C250.568 153.35 250.562 153.47 250.55 153.59C250.55 153.698 250.544 153.782 250.532 153.842H242.738C242.786 154.454 242.954 155 243.242 155.48C243.542 155.948 243.926 156.32 244.394 156.596C244.862 156.86 245.366 156.992 245.906 156.992C246.482 156.992 247.022 156.848 247.526 156.56C248.042 156.272 248.396 155.894 248.588 155.426L249.956 155.804C249.752 156.26 249.446 156.668 249.038 157.028C248.642 157.388 248.168 157.67 247.616 157.874C247.076 158.078 246.488 158.18 245.852 158.18ZM242.684 152.744H249.092C249.044 152.132 248.87 151.592 248.57 151.124C248.27 150.656 247.886 150.29 247.418 150.026C246.95 149.762 246.434 149.63 245.87 149.63C245.318 149.63 244.808 149.762 244.34 150.026C243.872 150.29 243.488 150.656 243.188 151.124C242.9 151.592 242.732 152.132 242.684 152.744ZM6.336 185.18C5.568 185.18 4.884 184.988 4.284 184.604C3.684 184.22 3.21 183.734 2.862 183.146V188.834H1.278V175.604H2.682V177.368C3.054 176.792 3.54 176.33 4.14 175.982C4.74 175.622 5.394 175.442 6.102 175.442C6.75 175.442 7.344 175.574 7.884 175.838C8.424 176.102 8.892 176.462 9.288 176.918C9.684 177.374 9.99 177.896 10.206 178.484C10.434 179.06 10.548 179.666 10.548 180.302C10.548 181.19 10.368 182.006 10.008 182.75C9.66 183.494 9.168 184.088 8.532 184.532C7.896 184.964 7.164 185.18 6.336 185.18ZM5.85 183.812C6.318 183.812 6.738 183.716 7.11 183.524C7.494 183.32 7.818 183.056 8.082 182.732C8.358 182.396 8.568 182.018 8.712 181.598C8.856 181.178 8.928 180.746 8.928 180.302C8.928 179.834 8.844 179.39 8.676 178.97C8.52 178.55 8.292 178.178 7.992 177.854C7.704 177.53 7.362 177.278 6.966 177.098C6.582 176.906 6.162 176.81 5.706 176.81C5.418 176.81 5.118 176.864 4.806 176.972C4.506 177.08 4.218 177.236 3.942 177.44C3.666 177.632 3.432 177.854 3.24 178.106C3.048 178.358 2.922 178.628 2.862 178.916V181.598C3.042 182.006 3.282 182.378 3.582 182.714C3.882 183.05 4.23 183.32 4.626 183.524C5.022 183.716 5.43 183.812 5.85 183.812ZM11.7548 182.282C11.7548 181.682 11.9228 181.166 12.2588 180.734C12.6068 180.29 13.0808 179.948 13.6808 179.708C14.2808 179.468 14.9768 179.348 15.7688 179.348C16.1888 179.348 16.6328 179.384 17.1008 179.456C17.5688 179.516 17.9828 179.612 18.3428 179.744V179.06C18.3428 178.34 18.1268 177.776 17.6948 177.368C17.2628 176.948 16.6508 176.738 15.8588 176.738C15.3428 176.738 14.8448 176.834 14.3648 177.026C13.8968 177.206 13.3988 177.47 12.8708 177.818L12.2948 176.702C12.9068 176.282 13.5188 175.97 14.1308 175.766C14.7428 175.55 15.3788 175.442 16.0388 175.442C17.2388 175.442 18.1868 175.778 18.8828 176.45C19.5788 177.11 19.9268 178.034 19.9268 179.222V183.2C19.9268 183.392 19.9628 183.536 20.0348 183.632C20.1188 183.716 20.2508 183.764 20.4308 183.776V185C20.2748 185.024 20.1368 185.042 20.0168 185.054C19.9088 185.066 19.8188 185.072 19.7468 185.072C19.3748 185.072 19.0928 184.97 18.9008 184.766C18.7208 184.562 18.6188 184.346 18.5948 184.118L18.5588 183.524C18.1508 184.052 17.6168 184.46 16.9568 184.748C16.2968 185.036 15.6428 185.18 14.9948 185.18C14.3708 185.18 13.8128 185.054 13.3208 184.802C12.8288 184.538 12.4448 184.19 12.1688 183.758C11.8928 183.314 11.7548 182.822 11.7548 182.282ZM17.8748 182.948C18.0188 182.78 18.1328 182.612 18.2168 182.444C18.3008 182.264 18.3428 182.114 18.3428 181.994V180.824C17.9708 180.68 17.5808 180.572 17.1728 180.5C16.7648 180.416 16.3628 180.374 15.9668 180.374C15.1628 180.374 14.5088 180.536 14.0048 180.86C13.5128 181.172 13.2668 181.604 13.2668 182.156C13.2668 182.456 13.3448 182.75 13.5008 183.038C13.6688 183.314 13.9088 183.542 14.2208 183.722C14.5448 183.902 14.9408 183.992 15.4088 183.992C15.9008 183.992 16.3688 183.896 16.8128 183.704C17.2568 183.5 17.6108 183.248 17.8748 182.948ZM25.6816 185.18C24.9016 185.18 24.1696 185.054 23.4856 184.802C22.8016 184.538 22.2136 184.148 21.7216 183.632L22.3336 182.516C22.8736 183.02 23.4136 183.38 23.9536 183.596C24.4936 183.812 25.0456 183.92 25.6096 183.92C26.2576 183.92 26.7856 183.8 27.1936 183.56C27.6016 183.308 27.8056 182.942 27.8056 182.462C27.8056 182.114 27.6976 181.856 27.4816 181.688C27.2776 181.52 26.9836 181.382 26.5996 181.274C26.2156 181.154 25.7596 181.022 25.2316 180.878C24.5836 180.686 24.0376 180.482 23.5936 180.266C23.1496 180.05 22.8136 179.78 22.5856 179.456C22.3576 179.132 22.2436 178.724 22.2436 178.232C22.2436 177.632 22.3996 177.128 22.7116 176.72C23.0236 176.3 23.4496 175.982 23.9896 175.766C24.5416 175.55 25.1656 175.442 25.8616 175.442C26.5576 175.442 27.1876 175.55 27.7516 175.766C28.3156 175.982 28.8016 176.3 29.2096 176.72L28.4896 177.818C28.1176 177.434 27.7096 177.152 27.2656 176.972C26.8216 176.78 26.3236 176.684 25.7716 176.684C25.4476 176.684 25.1296 176.726 24.8176 176.81C24.5056 176.882 24.2476 177.02 24.0436 177.224C23.8396 177.416 23.7376 177.692 23.7376 178.052C23.7376 178.352 23.8156 178.592 23.9716 178.772C24.1396 178.94 24.3796 179.084 24.6916 179.204C25.0156 179.324 25.4056 179.456 25.8616 179.6C26.5696 179.804 27.1816 180.008 27.6976 180.212C28.2256 180.416 28.6336 180.68 28.9216 181.004C29.2096 181.328 29.3536 181.778 29.3536 182.354C29.3536 183.242 29.0176 183.938 28.3456 184.442C27.6736 184.934 26.7856 185.18 25.6816 185.18ZM36.1087 184.532C35.9767 184.592 35.7967 184.67 35.5687 184.766C35.3407 184.862 35.0767 184.946 34.7767 185.018C34.4767 185.09 34.1587 185.126 33.8227 185.126C33.4387 185.126 33.0847 185.06 32.7607 184.928C32.4367 184.784 32.1787 184.568 31.9867 184.28C31.7947 183.98 31.6987 183.608 31.6987 183.164V176.846H30.4207V175.604H31.6987V172.472H33.2827V175.604H35.3887V176.846H33.2827V182.678C33.3067 183.014 33.4207 183.266 33.6247 183.434C33.8287 183.59 34.0687 183.668 34.3447 183.668C34.6567 183.668 34.9447 183.614 35.2087 183.506C35.4727 183.398 35.6467 183.32 35.7307 183.272L36.1087 184.532ZM37.6308 186.458L37.9908 184.856H37.4508V182.984H38.9448V184.856L38.4048 186.458H37.6308ZM50.7504 185.18C50.0184 185.18 49.3524 185 48.7524 184.64C48.1524 184.28 47.6784 183.812 47.3304 183.236V185H45.9264V171.86H47.5104V177.476C47.9064 176.864 48.3924 176.372 48.9684 176C49.5444 175.628 50.2164 175.442 50.9844 175.442C51.6324 175.442 52.2144 175.58 52.7304 175.856C53.2464 176.12 53.6844 176.486 54.0444 176.954C54.4164 177.41 54.6984 177.932 54.8904 178.52C55.0944 179.096 55.1964 179.702 55.1964 180.338C55.1964 180.998 55.0824 181.622 54.8544 182.21C54.6384 182.786 54.3264 183.302 53.9184 183.758C53.5104 184.202 53.0364 184.55 52.4964 184.802C51.9684 185.054 51.3864 185.18 50.7504 185.18ZM50.3544 183.812C50.8224 183.812 51.2544 183.716 51.6504 183.524C52.0464 183.332 52.3884 183.074 52.6764 182.75C52.9644 182.426 53.1864 182.054 53.3424 181.634C53.4984 181.214 53.5764 180.782 53.5764 180.338C53.5764 179.726 53.4444 179.15 53.1804 178.61C52.9284 178.07 52.5684 177.638 52.1004 177.314C51.6444 176.978 51.1104 176.81 50.4984 176.81C50.0544 176.81 49.6404 176.912 49.2564 177.116C48.8724 177.32 48.5304 177.59 48.2304 177.926C47.9424 178.25 47.7024 178.61 47.5104 179.006V181.724C47.5704 182.024 47.6964 182.3 47.8884 182.552C48.0804 182.804 48.3144 183.026 48.5904 183.218C48.8664 183.398 49.1544 183.542 49.4544 183.65C49.7664 183.758 50.0664 183.812 50.3544 183.812ZM61.2993 185.18C60.5913 185.18 59.9433 185.054 59.3553 184.802C58.7793 184.538 58.2753 184.184 57.8433 183.74C57.4233 183.284 57.0933 182.762 56.8533 182.174C56.6253 181.586 56.5113 180.962 56.5113 180.302C56.5113 179.414 56.7153 178.604 57.1233 177.872C57.5313 177.14 58.0953 176.552 58.8153 176.108C59.5473 175.664 60.3813 175.442 61.3173 175.442C62.2653 175.442 63.0873 175.67 63.7833 176.126C64.4913 176.57 65.0373 177.158 65.4213 177.89C65.8173 178.61 66.0153 179.39 66.0153 180.23C66.0153 180.35 66.0093 180.47 65.9973 180.59C65.9973 180.698 65.9913 180.782 65.9793 180.842H58.1853C58.2333 181.454 58.4013 182 58.6893 182.48C58.9893 182.948 59.3733 183.32 59.8413 183.596C60.3093 183.86 60.8133 183.992 61.3533 183.992C61.9293 183.992 62.4693 183.848 62.9733 183.56C63.4893 183.272 63.8433 182.894 64.0353 182.426L65.4033 182.804C65.1993 183.26 64.8933 183.668 64.4853 184.028C64.0893 184.388 63.6153 184.67 63.0633 184.874C62.5233 185.078 61.9353 185.18 61.2993 185.18ZM58.1313 179.744H64.5393C64.4913 179.132 64.3173 178.592 64.0173 178.124C63.7173 177.656 63.3333 177.29 62.8653 177.026C62.3973 176.762 61.8813 176.63 61.3173 176.63C60.7653 176.63 60.2553 176.762 59.7873 177.026C59.3193 177.29 58.9353 177.656 58.6353 178.124C58.3473 178.592 58.1793 179.132 58.1313 179.744ZM71.934 185.18C71.226 185.18 70.578 185.054 69.99 184.802C69.414 184.538 68.91 184.178 68.478 183.722C68.058 183.266 67.728 182.744 67.488 182.156C67.26 181.568 67.146 180.944 67.146 180.284C67.146 179.396 67.344 178.586 67.74 177.854C68.136 177.122 68.694 176.54 69.414 176.108C70.134 175.664 70.968 175.442 71.916 175.442C72.84 175.442 73.644 175.652 74.328 176.072C75.024 176.48 75.54 177.032 75.876 177.728L74.328 178.214C74.088 177.77 73.752 177.428 73.32 177.188C72.888 176.936 72.408 176.81 71.88 176.81C71.304 176.81 70.776 176.96 70.296 177.26C69.828 177.56 69.456 177.974 69.18 178.502C68.904 179.018 68.766 179.612 68.766 180.284C68.766 180.944 68.904 181.544 69.18 182.084C69.468 182.612 69.846 183.032 70.314 183.344C70.794 183.656 71.322 183.812 71.898 183.812C72.27 183.812 72.624 183.746 72.96 183.614C73.308 183.482 73.608 183.308 73.86 183.092C74.124 182.864 74.304 182.618 74.4 182.354L75.948 182.822C75.756 183.278 75.462 183.686 75.066 184.046C74.682 184.394 74.22 184.67 73.68 184.874C73.152 185.078 72.57 185.18 71.934 185.18ZM77.0048 182.282C77.0048 181.682 77.1728 181.166 77.5088 180.734C77.8568 180.29 78.3308 179.948 78.9308 179.708C79.5308 179.468 80.2268 179.348 81.0188 179.348C81.4388 179.348 81.8828 179.384 82.3508 179.456C82.8188 179.516 83.2328 179.612 83.5928 179.744V179.06C83.5928 178.34 83.3768 177.776 82.9448 177.368C82.5128 176.948 81.9008 176.738 81.1088 176.738C80.5928 176.738 80.0948 176.834 79.6148 177.026C79.1468 177.206 78.6488 177.47 78.1208 177.818L77.5448 176.702C78.1568 176.282 78.7688 175.97 79.3808 175.766C79.9928 175.55 80.6288 175.442 81.2888 175.442C82.4888 175.442 83.4368 175.778 84.1328 176.45C84.8288 177.11 85.1768 178.034 85.1768 179.222V183.2C85.1768 183.392 85.2128 183.536 85.2848 183.632C85.3688 183.716 85.5008 183.764 85.6808 183.776V185C85.5248 185.024 85.3868 185.042 85.2668 185.054C85.1588 185.066 85.0688 185.072 84.9968 185.072C84.6248 185.072 84.3428 184.97 84.1508 184.766C83.9708 184.562 83.8688 184.346 83.8448 184.118L83.8088 183.524C83.4008 184.052 82.8668 184.46 82.2068 184.748C81.5468 185.036 80.8928 185.18 80.2448 185.18C79.6208 185.18 79.0628 185.054 78.5708 184.802C78.0788 184.538 77.6948 184.19 77.4188 183.758C77.1428 183.314 77.0048 182.822 77.0048 182.282ZM83.1248 182.948C83.2688 182.78 83.3828 182.612 83.4668 182.444C83.5508 182.264 83.5928 182.114 83.5928 181.994V180.824C83.2208 180.68 82.8308 180.572 82.4228 180.5C82.0148 180.416 81.6128 180.374 81.2168 180.374C80.4128 180.374 79.7588 180.536 79.2548 180.86C78.7628 181.172 78.5168 181.604 78.5168 182.156C78.5168 182.456 78.5948 182.75 78.7508 183.038C78.9188 183.314 79.1588 183.542 79.4708 183.722C79.7948 183.902 80.1908 183.992 80.6588 183.992C81.1508 183.992 81.6188 183.896 82.0628 183.704C82.5068 183.5 82.8608 183.248 83.1248 182.948ZM87.6196 181.238V175.604H89.2036V180.932C89.2036 181.892 89.3716 182.612 89.7076 183.092C90.0436 183.572 90.5416 183.812 91.2016 183.812C91.6336 183.812 92.0476 183.722 92.4436 183.542C92.8516 183.35 93.2176 183.08 93.5416 182.732C93.8656 182.384 94.1176 181.97 94.2976 181.49V175.604H95.8816V183.2C95.8816 183.392 95.9176 183.536 95.9896 183.632C96.0736 183.716 96.2056 183.764 96.3856 183.776V185C96.2056 185.024 96.0616 185.036 95.9536 185.036C95.8576 185.048 95.7616 185.054 95.6656 185.054C95.3656 185.054 95.1076 184.964 94.8916 184.784C94.6756 184.592 94.5616 184.358 94.5496 184.082L94.5136 182.984C94.1056 183.68 93.5536 184.22 92.8576 184.604C92.1736 184.988 91.4236 185.18 90.6076 185.18C89.6236 185.18 88.8796 184.85 88.3756 184.19C87.8716 183.518 87.6196 182.534 87.6196 181.238ZM101.742 185.18C100.962 185.18 100.23 185.054 99.5462 184.802C98.8622 184.538 98.2742 184.148 97.7822 183.632L98.3942 182.516C98.9342 183.02 99.4742 183.38 100.014 183.596C100.554 183.812 101.106 183.92 101.67 183.92C102.318 183.92 102.846 183.8 103.254 183.56C103.662 183.308 103.866 182.942 103.866 182.462C103.866 182.114 103.758 181.856 103.542 181.688C103.338 181.52 103.044 181.382 102.66 181.274C102.276 181.154 101.82 181.022 101.292 180.878C100.644 180.686 100.098 180.482 99.6542 180.266C99.2102 180.05 98.8742 179.78 98.6462 179.456C98.4182 179.132 98.3042 178.724 98.3042 178.232C98.3042 177.632 98.4602 177.128 98.7722 176.72C99.0842 176.3 99.5102 175.982 100.05 175.766C100.602 175.55 101.226 175.442 101.922 175.442C102.618 175.442 103.248 175.55 103.812 175.766C104.376 175.982 104.862 176.3 105.27 176.72L104.55 177.818C104.178 177.434 103.77 177.152 103.326 176.972C102.882 176.78 102.384 176.684 101.832 176.684C101.508 176.684 101.19 176.726 100.878 176.81C100.566 176.882 100.308 177.02 100.104 177.224C99.9002 177.416 99.7982 177.692 99.7982 178.052C99.7982 178.352 99.8762 178.592 100.032 178.772C100.2 178.94 100.44 179.084 100.752 179.204C101.076 179.324 101.466 179.456 101.922 179.6C102.63 179.804 103.242 180.008 103.758 180.212C104.286 180.416 104.694 180.68 104.982 181.004C105.27 181.328 105.414 181.778 105.414 182.354C105.414 183.242 105.078 183.938 104.406 184.442C103.734 184.934 102.846 185.18 101.742 185.18ZM111.467 185.18C110.759 185.18 110.111 185.054 109.523 184.802C108.947 184.538 108.443 184.184 108.011 183.74C107.591 183.284 107.261 182.762 107.021 182.174C106.793 181.586 106.679 180.962 106.679 180.302C106.679 179.414 106.883 178.604 107.291 177.872C107.699 177.14 108.263 176.552 108.983 176.108C109.715 175.664 110.549 175.442 111.485 175.442C112.433 175.442 113.255 175.67 113.951 176.126C114.659 176.57 115.205 177.158 115.589 177.89C115.985 178.61 116.183 179.39 116.183 180.23C116.183 180.35 116.177 180.47 116.165 180.59C116.165 180.698 116.159 180.782 116.147 180.842H108.353C108.401 181.454 108.569 182 108.857 182.48C109.157 182.948 109.541 183.32 110.009 183.596C110.477 183.86 110.981 183.992 111.521 183.992C112.097 183.992 112.637 183.848 113.141 183.56C113.657 183.272 114.011 182.894 114.203 182.426L115.571 182.804C115.367 183.26 115.061 183.668 114.653 184.028C114.257 184.388 113.783 184.67 113.231 184.874C112.691 185.078 112.103 185.18 111.467 185.18ZM108.299 179.744H114.707C114.659 179.132 114.485 178.592 114.185 178.124C113.885 177.656 113.501 177.29 113.033 177.026C112.565 176.762 112.049 176.63 111.485 176.63C110.933 176.63 110.423 176.762 109.955 177.026C109.487 177.29 109.103 177.656 108.803 178.124C108.515 178.592 108.347 179.132 108.299 179.744ZM121.921 178.52C121.921 177.74 122.053 176.978 122.317 176.234C122.593 175.478 122.989 174.794 123.505 174.182C124.033 173.558 124.675 173.066 125.431 172.706C126.187 172.334 127.045 172.148 128.005 172.148C129.145 172.148 130.123 172.412 130.939 172.94C131.755 173.456 132.361 174.122 132.757 174.938L131.479 175.766C131.227 175.226 130.903 174.8 130.507 174.488C130.123 174.164 129.703 173.936 129.247 173.804C128.803 173.672 128.365 173.606 127.933 173.606C127.225 173.606 126.595 173.75 126.043 174.038C125.503 174.326 125.047 174.71 124.675 175.19C124.303 175.67 124.021 176.21 123.829 176.81C123.649 177.398 123.559 177.992 123.559 178.592C123.559 179.252 123.667 179.888 123.883 180.5C124.111 181.112 124.423 181.652 124.819 182.12C125.215 182.588 125.683 182.96 126.223 183.236C126.763 183.512 127.351 183.65 127.987 183.65C128.431 183.65 128.887 183.572 129.355 183.416C129.823 183.26 130.261 183.02 130.669 182.696C131.077 182.36 131.401 181.928 131.641 181.4L132.991 182.138C132.727 182.774 132.319 183.314 131.767 183.758C131.215 184.202 130.597 184.538 129.913 184.766C129.241 184.994 128.575 185.108 127.915 185.108C127.039 185.108 126.235 184.922 125.503 184.55C124.771 184.166 124.135 183.662 123.595 183.038C123.067 182.402 122.653 181.694 122.353 180.914C122.065 180.122 121.921 179.324 121.921 178.52ZM134.028 182.282C134.028 181.682 134.196 181.166 134.532 180.734C134.88 180.29 135.354 179.948 135.954 179.708C136.554 179.468 137.25 179.348 138.042 179.348C138.462 179.348 138.906 179.384 139.374 179.456C139.842 179.516 140.256 179.612 140.616 179.744V179.06C140.616 178.34 140.4 177.776 139.968 177.368C139.536 176.948 138.924 176.738 138.132 176.738C137.616 176.738 137.118 176.834 136.638 177.026C136.17 177.206 135.672 177.47 135.144 177.818L134.568 176.702C135.18 176.282 135.792 175.97 136.404 175.766C137.016 175.55 137.652 175.442 138.312 175.442C139.512 175.442 140.46 175.778 141.156 176.45C141.852 177.11 142.2 178.034 142.2 179.222V183.2C142.2 183.392 142.236 183.536 142.308 183.632C142.392 183.716 142.524 183.764 142.704 183.776V185C142.548 185.024 142.41 185.042 142.29 185.054C142.182 185.066 142.092 185.072 142.02 185.072C141.648 185.072 141.366 184.97 141.174 184.766C140.994 184.562 140.892 184.346 140.868 184.118L140.832 183.524C140.424 184.052 139.89 184.46 139.23 184.748C138.57 185.036 137.916 185.18 137.268 185.18C136.644 185.18 136.086 185.054 135.594 184.802C135.102 184.538 134.718 184.19 134.442 183.758C134.166 183.314 134.028 182.822 134.028 182.282ZM140.148 182.948C140.292 182.78 140.406 182.612 140.49 182.444C140.574 182.264 140.616 182.114 140.616 181.994V180.824C140.244 180.68 139.854 180.572 139.446 180.5C139.038 180.416 138.636 180.374 138.24 180.374C137.436 180.374 136.782 180.536 136.278 180.86C135.786 181.172 135.54 181.604 135.54 182.156C135.54 182.456 135.618 182.75 135.774 183.038C135.942 183.314 136.182 183.542 136.494 183.722C136.818 183.902 137.214 183.992 137.682 183.992C138.174 183.992 138.642 183.896 139.086 183.704C139.53 183.5 139.884 183.248 140.148 182.948ZM149.557 185.18C148.825 185.18 148.159 185 147.559 184.64C146.959 184.28 146.485 183.812 146.137 183.236V185H144.733V171.86H146.317V177.476C146.713 176.864 147.199 176.372 147.775 176C148.351 175.628 149.023 175.442 149.791 175.442C150.439 175.442 151.021 175.58 151.537 175.856C152.053 176.12 152.491 176.486 152.851 176.954C153.223 177.41 153.505 177.932 153.697 178.52C153.901 179.096 154.003 179.702 154.003 180.338C154.003 180.998 153.889 181.622 153.661 182.21C153.445 182.786 153.133 183.302 152.725 183.758C152.317 184.202 151.843 184.55 151.303 184.802C150.775 185.054 150.193 185.18 149.557 185.18ZM149.161 183.812C149.629 183.812 150.061 183.716 150.457 183.524C150.853 183.332 151.195 183.074 151.483 182.75C151.771 182.426 151.993 182.054 152.149 181.634C152.305 181.214 152.383 180.782 152.383 180.338C152.383 179.726 152.251 179.15 151.987 178.61C151.735 178.07 151.375 177.638 150.907 177.314C150.451 176.978 149.917 176.81 149.305 176.81C148.861 176.81 148.447 176.912 148.063 177.116C147.679 177.32 147.337 177.59 147.037 177.926C146.749 178.25 146.509 178.61 146.317 179.006V181.724C146.377 182.024 146.503 182.3 146.695 182.552C146.887 182.804 147.121 183.026 147.397 183.218C147.673 183.398 147.961 183.542 148.261 183.65C148.573 183.758 148.873 183.812 149.161 183.812ZM155.948 185V175.604H157.532V185H155.948ZM155.948 173.84V171.86H157.532V173.84H155.948ZM168.25 185H166.666V179.744C166.666 178.748 166.51 178.022 166.198 177.566C165.898 177.098 165.436 176.864 164.812 176.864C164.38 176.864 163.948 176.972 163.516 177.188C163.096 177.404 162.718 177.698 162.382 178.07C162.058 178.43 161.824 178.85 161.68 179.33V185H160.096V175.604H161.536V177.62C161.788 177.176 162.112 176.792 162.508 176.468C162.904 176.144 163.354 175.892 163.858 175.712C164.362 175.532 164.89 175.442 165.442 175.442C165.982 175.442 166.432 175.544 166.792 175.748C167.164 175.94 167.452 176.216 167.656 176.576C167.872 176.924 168.022 177.338 168.106 177.818C168.202 178.298 168.25 178.82 168.25 179.384V185ZM175.77 185V176.846H174.492V175.604H175.77V175.406C175.77 174.638 175.884 173.978 176.112 173.426C176.352 172.862 176.688 172.43 177.12 172.13C177.552 171.83 178.062 171.68 178.65 171.68C179.022 171.68 179.388 171.734 179.748 171.842C180.108 171.938 180.432 172.076 180.72 172.256L180.324 173.426C180.156 173.306 179.946 173.21 179.694 173.138C179.454 173.066 179.214 173.03 178.974 173.03C178.458 173.03 178.056 173.234 177.768 173.642C177.492 174.038 177.354 174.608 177.354 175.352V175.604H179.856V176.846H177.354V185H175.77ZM181.346 181.238V175.604H182.93V180.932C182.93 181.892 183.098 182.612 183.434 183.092C183.77 183.572 184.268 183.812 184.928 183.812C185.36 183.812 185.774 183.722 186.17 183.542C186.578 183.35 186.944 183.08 187.268 182.732C187.592 182.384 187.844 181.97 188.024 181.49V175.604H189.608V183.2C189.608 183.392 189.644 183.536 189.716 183.632C189.8 183.716 189.932 183.764 190.112 183.776V185C189.932 185.024 189.788 185.036 189.68 185.036C189.584 185.048 189.488 185.054 189.392 185.054C189.092 185.054 188.834 184.964 188.618 184.784C188.402 184.592 188.288 184.358 188.276 184.082L188.24 182.984C187.832 183.68 187.28 184.22 186.584 184.604C185.9 184.988 185.15 185.18 184.334 185.18C183.35 185.18 182.606 184.85 182.102 184.19C181.598 183.518 181.346 182.534 181.346 181.238ZM192.283 171.86H193.867V182.57C193.867 183.086 193.939 183.404 194.083 183.524C194.227 183.644 194.401 183.704 194.605 183.704C194.857 183.704 195.097 183.68 195.325 183.632C195.553 183.572 195.745 183.512 195.901 183.452L196.153 184.748C195.889 184.856 195.577 184.946 195.217 185.018C194.857 185.09 194.539 185.126 194.263 185.126C193.651 185.126 193.165 184.952 192.805 184.604C192.457 184.256 192.283 183.77 192.283 183.146V171.86ZM197.433 171.86H199.017V182.57C199.017 183.086 199.089 183.404 199.233 183.524C199.377 183.644 199.551 183.704 199.755 183.704C200.007 183.704 200.247 183.68 200.475 183.632C200.703 183.572 200.895 183.512 201.051 183.452L201.303 184.748C201.039 184.856 200.727 184.946 200.367 185.018C200.007 185.09 199.689 185.126 199.413 185.126C198.801 185.126 198.315 184.952 197.955 184.604C197.607 184.256 197.433 183.77 197.433 183.146V171.86ZM202.646 187.556C202.802 187.568 202.958 187.58 203.114 187.592C203.27 187.616 203.39 187.628 203.474 187.628C203.666 187.628 203.834 187.562 203.978 187.43C204.122 187.298 204.278 187.04 204.446 186.656C204.626 186.284 204.854 185.732 205.13 185L201.152 175.604H202.826L205.994 183.398L208.856 175.604H210.422L205.85 187.466C205.742 187.742 205.58 188 205.364 188.24C205.16 188.492 204.896 188.69 204.572 188.834C204.248 188.978 203.858 189.05 203.402 189.05C203.294 189.05 203.18 189.044 203.06 189.032C202.952 189.02 202.814 188.996 202.646 188.96V187.556ZM4.5 212.18C3.72 212.18 2.988 212.054 2.304 211.802C1.62 211.538 1.032 211.148 0.54 210.632L1.152 209.516C1.692 210.02 2.232 210.38 2.772 210.596C3.312 210.812 3.864 210.92 4.428 210.92C5.076 210.92 5.604 210.8 6.012 210.56C6.42 210.308 6.624 209.942 6.624 209.462C6.624 209.114 6.516 208.856 6.3 208.688C6.096 208.52 5.802 208.382 5.418 208.274C5.034 208.154 4.578 208.022 4.05 207.878C3.402 207.686 2.856 207.482 2.412 207.266C1.968 207.05 1.632 206.78 1.404 206.456C1.176 206.132 1.062 205.724 1.062 205.232C1.062 204.632 1.218 204.128 1.53 203.72C1.842 203.3 2.268 202.982 2.808 202.766C3.36 202.55 3.984 202.442 4.68 202.442C5.376 202.442 6.006 202.55 6.57 202.766C7.134 202.982 7.62 203.3 8.028 203.72L7.308 204.818C6.936 204.434 6.528 204.152 6.084 203.972C5.64 203.78 5.142 203.684 4.59 203.684C4.266 203.684 3.948 203.726 3.636 203.81C3.324 203.882 3.066 204.02 2.862 204.224C2.658 204.416 2.556 204.692 2.556 205.052C2.556 205.352 2.634 205.592 2.79 205.772C2.958 205.94 3.198 206.084 3.51 206.204C3.834 206.324 4.224 206.456 4.68 206.6C5.388 206.804 6 207.008 6.516 207.212C7.044 207.416 7.452 207.68 7.74 208.004C8.028 208.328 8.172 208.778 8.172 209.354C8.172 210.242 7.836 210.938 7.164 211.442C6.492 211.934 5.604 212.18 4.5 212.18ZM9.97706 208.238V202.604H11.5611V207.932C11.5611 208.892 11.7291 209.612 12.0651 210.092C12.4011 210.572 12.8991 210.812 13.5591 210.812C13.9911 210.812 14.4051 210.722 14.8011 210.542C15.2091 210.35 15.5751 210.08 15.8991 209.732C16.2231 209.384 16.4751 208.97 16.6551 208.49V202.604H18.2391V210.2C18.2391 210.392 18.2751 210.536 18.3471 210.632C18.4311 210.716 18.5631 210.764 18.7431 210.776V212C18.5631 212.024 18.4191 212.036 18.3111 212.036C18.2151 212.048 18.1191 212.054 18.0231 212.054C17.7231 212.054 17.4651 211.964 17.2491 211.784C17.0331 211.592 16.9191 211.358 16.9071 211.082L16.8711 209.984C16.4631 210.68 15.9111 211.22 15.2151 211.604C14.5311 211.988 13.7811 212.18 12.9651 212.18C11.9811 212.18 11.2371 211.85 10.7331 211.19C10.2291 210.518 9.97706 209.534 9.97706 208.238ZM25.9356 212.18C25.1676 212.18 24.4836 211.988 23.8836 211.604C23.2836 211.22 22.8096 210.734 22.4616 210.146V215.834H20.8776V202.604H22.2816V204.368C22.6536 203.792 23.1396 203.33 23.7396 202.982C24.3396 202.622 24.9936 202.442 25.7016 202.442C26.3496 202.442 26.9436 202.574 27.4836 202.838C28.0236 203.102 28.4916 203.462 28.8876 203.918C29.2836 204.374 29.5896 204.896 29.8056 205.484C30.0336 206.06 30.1476 206.666 30.1476 207.302C30.1476 208.19 29.9676 209.006 29.6076 209.75C29.2596 210.494 28.7676 211.088 28.1316 211.532C27.4956 211.964 26.7636 212.18 25.9356 212.18ZM25.4496 210.812C25.9176 210.812 26.3376 210.716 26.7096 210.524C27.0936 210.32 27.4176 210.056 27.6816 209.732C27.9576 209.396 28.1676 209.018 28.3116 208.598C28.4556 208.178 28.5276 207.746 28.5276 207.302C28.5276 206.834 28.4436 206.39 28.2756 205.97C28.1196 205.55 27.8916 205.178 27.5916 204.854C27.3036 204.53 26.9616 204.278 26.5656 204.098C26.1816 203.906 25.7616 203.81 25.3056 203.81C25.0176 203.81 24.7176 203.864 24.4056 203.972C24.1056 204.08 23.8176 204.236 23.5416 204.44C23.2656 204.632 23.0316 204.854 22.8396 205.106C22.6476 205.358 22.5216 205.628 22.4616 205.916V208.598C22.6416 209.006 22.8816 209.378 23.1816 209.714C23.4816 210.05 23.8296 210.32 24.2256 210.524C24.6216 210.716 25.0296 210.812 25.4496 210.812ZM37.1505 212.18C36.3825 212.18 35.6985 211.988 35.0985 211.604C34.4985 211.22 34.0245 210.734 33.6765 210.146V215.834H32.0925V202.604H33.4965V204.368C33.8685 203.792 34.3545 203.33 34.9545 202.982C35.5545 202.622 36.2085 202.442 36.9165 202.442C37.5645 202.442 38.1585 202.574 38.6985 202.838C39.2385 203.102 39.7065 203.462 40.1025 203.918C40.4985 204.374 40.8045 204.896 41.0205 205.484C41.2485 206.06 41.3625 206.666 41.3625 207.302C41.3625 208.19 41.1825 209.006 40.8225 209.75C40.4745 210.494 39.9825 211.088 39.3465 211.532C38.7105 211.964 37.9785 212.18 37.1505 212.18ZM36.6645 210.812C37.1325 210.812 37.5525 210.716 37.9245 210.524C38.3085 210.32 38.6325 210.056 38.8965 209.732C39.1725 209.396 39.3825 209.018 39.5265 208.598C39.6705 208.178 39.7425 207.746 39.7425 207.302C39.7425 206.834 39.6585 206.39 39.4905 205.97C39.3345 205.55 39.1065 205.178 38.8065 204.854C38.5185 204.53 38.1765 204.278 37.7805 204.098C37.3965 203.906 36.9765 203.81 36.5205 203.81C36.2325 203.81 35.9325 203.864 35.6205 203.972C35.3205 204.08 35.0325 204.236 34.7565 204.44C34.4805 204.632 34.2465 204.854 34.0545 205.106C33.8625 205.358 33.7365 205.628 33.6765 205.916V208.598C33.8565 209.006 34.0965 209.378 34.3965 209.714C34.6965 210.05 35.0445 210.32 35.4405 210.524C35.8365 210.716 36.2445 210.812 36.6645 210.812ZM47.4113 212.18C46.7033 212.18 46.0613 212.054 45.4853 211.802C44.9093 211.538 44.4113 211.184 43.9913 210.74C43.5713 210.284 43.2473 209.762 43.0193 209.174C42.7913 208.586 42.6773 207.968 42.6773 207.32C42.6773 206.66 42.7913 206.036 43.0193 205.448C43.2473 204.86 43.5713 204.344 43.9913 203.9C44.4113 203.444 44.9093 203.09 45.4853 202.838C46.0733 202.574 46.7153 202.442 47.4113 202.442C48.1193 202.442 48.7613 202.574 49.3373 202.838C49.9133 203.09 50.4113 203.444 50.8313 203.9C51.2633 204.344 51.5933 204.86 51.8213 205.448C52.0493 206.036 52.1633 206.66 52.1633 207.32C52.1633 207.968 52.0493 208.586 51.8213 209.174C51.5933 209.762 51.2693 210.284 50.8493 210.74C50.4293 211.184 49.9253 211.538 49.3373 211.802C48.7613 212.054 48.1193 212.18 47.4113 212.18ZM44.2973 207.338C44.2973 207.986 44.4353 208.574 44.7113 209.102C44.9993 209.63 45.3773 210.05 45.8453 210.362C46.3133 210.662 46.8353 210.812 47.4113 210.812C47.9873 210.812 48.5093 210.656 48.9773 210.344C49.4573 210.032 49.8353 209.612 50.1113 209.084C50.3993 208.544 50.5433 207.95 50.5433 207.302C50.5433 206.654 50.3993 206.066 50.1113 205.538C49.8353 205.01 49.4573 204.59 48.9773 204.278C48.5093 203.966 47.9873 203.81 47.4113 203.81C46.8353 203.81 46.3133 203.972 45.8453 204.296C45.3773 204.608 44.9993 205.028 44.7113 205.556C44.4353 206.084 44.2973 206.678 44.2973 207.338ZM59.0507 203.99C58.2587 204.002 57.5567 204.206 56.9447 204.602C56.3447 204.986 55.9187 205.52 55.6667 206.204V212H54.0827V202.604H55.5587V204.782C55.8827 204.134 56.3087 203.612 56.8367 203.216C57.3767 202.808 57.9407 202.58 58.5287 202.532C58.6487 202.532 58.7507 202.532 58.8347 202.532C58.9187 202.532 58.9907 202.538 59.0507 202.55V203.99ZM65.4818 211.532C65.3498 211.592 65.1698 211.67 64.9418 211.766C64.7138 211.862 64.4498 211.946 64.1498 212.018C63.8498 212.09 63.5318 212.126 63.1958 212.126C62.8118 212.126 62.4578 212.06 62.1338 211.928C61.8098 211.784 61.5518 211.568 61.3598 211.28C61.1678 210.98 61.0718 210.608 61.0718 210.164V203.846H59.7938V202.604H61.0718V199.472H62.6558V202.604H64.7618V203.846H62.6558V209.678C62.6798 210.014 62.7938 210.266 62.9978 210.434C63.2018 210.59 63.4418 210.668 63.7178 210.668C64.0298 210.668 64.3178 210.614 64.5818 210.506C64.8458 210.398 65.0198 210.32 65.1038 210.272L65.4818 211.532ZM70.1719 212.18C69.3919 212.18 68.6599 212.054 67.9759 211.802C67.2919 211.538 66.7039 211.148 66.2119 210.632L66.8239 209.516C67.3639 210.02 67.9039 210.38 68.4439 210.596C68.9839 210.812 69.5359 210.92 70.0999 210.92C70.7479 210.92 71.2759 210.8 71.6839 210.56C72.0919 210.308 72.2959 209.942 72.2959 209.462C72.2959 209.114 72.1879 208.856 71.9719 208.688C71.7679 208.52 71.4739 208.382 71.0899 208.274C70.7059 208.154 70.2499 208.022 69.7219 207.878C69.0739 207.686 68.5279 207.482 68.0839 207.266C67.6399 207.05 67.3039 206.78 67.0759 206.456C66.8479 206.132 66.7339 205.724 66.7339 205.232C66.7339 204.632 66.8899 204.128 67.2019 203.72C67.5139 203.3 67.9399 202.982 68.4799 202.766C69.0319 202.55 69.6559 202.442 70.3519 202.442C71.0479 202.442 71.6779 202.55 72.2419 202.766C72.8059 202.982 73.2919 203.3 73.6999 203.72L72.9799 204.818C72.6079 204.434 72.1999 204.152 71.7559 203.972C71.3119 203.78 70.8139 203.684 70.2619 203.684C69.9379 203.684 69.6199 203.726 69.3079 203.81C68.9959 203.882 68.7379 204.02 68.5339 204.224C68.3299 204.416 68.2279 204.692 68.2279 205.052C68.2279 205.352 68.3059 205.592 68.4619 205.772C68.6299 205.94 68.8699 206.084 69.1819 206.204C69.5059 206.324 69.8959 206.456 70.3519 206.6C71.0599 206.804 71.6719 207.008 72.1879 207.212C72.7159 207.416 73.1239 207.68 73.4119 208.004C73.6999 208.328 73.8439 208.778 73.8439 209.354C73.8439 210.242 73.5079 210.938 72.8359 211.442C72.1639 211.934 71.2759 212.18 70.1719 212.18ZM94.4577 212H92.8737V206.744C92.8737 205.76 92.7117 205.034 92.3877 204.566C92.0757 204.098 91.6077 203.864 90.9837 203.864C90.3477 203.864 89.7717 204.098 89.2557 204.566C88.7397 205.022 88.3737 205.616 88.1577 206.348V212H86.5737V206.744C86.5737 205.748 86.4177 205.022 86.1057 204.566C85.7937 204.098 85.3257 203.864 84.7017 203.864C84.0777 203.864 83.5017 204.092 82.9737 204.548C82.4577 204.992 82.0917 205.586 81.8757 206.33V212H80.2917V202.604H81.7317V204.62C82.1157 203.924 82.6137 203.39 83.2257 203.018C83.8377 202.634 84.5277 202.442 85.2957 202.442C86.0757 202.442 86.6997 202.658 87.1677 203.09C87.6357 203.51 87.9237 204.056 88.0317 204.728C88.4517 203.984 88.9617 203.42 89.5617 203.036C90.1617 202.64 90.8457 202.442 91.6137 202.442C92.1537 202.442 92.6037 202.544 92.9637 202.748C93.3357 202.94 93.6297 203.216 93.8457 203.576C94.0617 203.924 94.2177 204.338 94.3137 204.818C94.4097 205.298 94.4577 205.82 94.4577 206.384V212ZM96.1826 209.282C96.1826 208.682 96.3506 208.166 96.6866 207.734C97.0346 207.29 97.5086 206.948 98.1086 206.708C98.7086 206.468 99.4046 206.348 100.197 206.348C100.617 206.348 101.061 206.384 101.529 206.456C101.997 206.516 102.411 206.612 102.771 206.744V206.06C102.771 205.34 102.555 204.776 102.123 204.368C101.691 203.948 101.079 203.738 100.287 203.738C99.7706 203.738 99.2726 203.834 98.7926 204.026C98.3246 204.206 97.8266 204.47 97.2986 204.818L96.7226 203.702C97.3346 203.282 97.9466 202.97 98.5586 202.766C99.1706 202.55 99.8066 202.442 100.467 202.442C101.667 202.442 102.615 202.778 103.311 203.45C104.007 204.11 104.355 205.034 104.355 206.222V210.2C104.355 210.392 104.391 210.536 104.463 210.632C104.547 210.716 104.679 210.764 104.859 210.776V212C104.703 212.024 104.565 212.042 104.445 212.054C104.337 212.066 104.247 212.072 104.175 212.072C103.803 212.072 103.521 211.97 103.329 211.766C103.149 211.562 103.047 211.346 103.023 211.118L102.987 210.524C102.579 211.052 102.045 211.46 101.385 211.748C100.725 212.036 100.071 212.18 99.4226 212.18C98.7986 212.18 98.2406 212.054 97.7486 211.802C97.2566 211.538 96.8726 211.19 96.5966 210.758C96.3206 210.314 96.1826 209.822 96.1826 209.282ZM102.303 209.948C102.447 209.78 102.561 209.612 102.645 209.444C102.729 209.264 102.771 209.114 102.771 208.994V207.824C102.399 207.68 102.009 207.572 101.601 207.5C101.193 207.416 100.791 207.374 100.395 207.374C99.5906 207.374 98.9366 207.536 98.4326 207.86C97.9406 208.172 97.6946 208.604 97.6946 209.156C97.6946 209.456 97.7726 209.75 97.9286 210.038C98.0966 210.314 98.3366 210.542 98.6486 210.722C98.9726 210.902 99.3686 210.992 99.8366 210.992C100.329 210.992 100.797 210.896 101.241 210.704C101.685 210.5 102.039 210.248 102.303 209.948ZM111.855 203.99C111.063 204.002 110.361 204.206 109.749 204.602C109.149 204.986 108.723 205.52 108.471 206.204V212H106.887V202.604H108.363V204.782C108.687 204.134 109.113 203.612 109.641 203.216C110.181 202.808 110.745 202.58 111.333 202.532C111.453 202.532 111.555 202.532 111.639 202.532C111.723 202.532 111.795 202.538 111.855 202.55V203.99ZM120.05 212L116.792 207.428L115.01 209.102V212H113.426V198.86H115.01V207.446L119.87 202.622H121.58L117.836 206.51L121.76 212H120.05ZM122.043 207.32C122.043 206.432 122.223 205.622 122.583 204.89C122.955 204.146 123.459 203.552 124.095 203.108C124.743 202.664 125.481 202.442 126.309 202.442C127.065 202.442 127.743 202.64 128.343 203.036C128.943 203.432 129.411 203.912 129.747 204.476V198.86H131.331V210.2C131.331 210.392 131.367 210.536 131.439 210.632C131.523 210.716 131.655 210.764 131.835 210.776V212C131.535 212.048 131.301 212.072 131.133 212.072C130.821 212.072 130.545 211.964 130.305 211.748C130.077 211.532 129.963 211.292 129.963 211.028V210.236C129.591 210.836 129.093 211.31 128.469 211.658C127.845 212.006 127.197 212.18 126.525 212.18C125.877 212.18 125.277 212.054 124.725 211.802C124.185 211.538 123.711 211.178 123.303 210.722C122.907 210.266 122.595 209.75 122.367 209.174C122.151 208.586 122.043 207.968 122.043 207.32ZM129.747 208.706V206.006C129.603 205.598 129.369 205.232 129.045 204.908C128.721 204.572 128.355 204.308 127.947 204.116C127.551 203.912 127.155 203.81 126.759 203.81C126.291 203.81 125.865 203.912 125.481 204.116C125.109 204.308 124.785 204.572 124.509 204.908C124.245 205.232 124.041 205.604 123.897 206.024C123.753 206.444 123.681 206.882 123.681 207.338C123.681 207.806 123.759 208.25 123.915 208.67C124.083 209.09 124.311 209.462 124.599 209.786C124.899 210.11 125.241 210.362 125.625 210.542C126.021 210.722 126.447 210.812 126.903 210.812C127.191 210.812 127.485 210.758 127.785 210.65C128.097 210.542 128.391 210.392 128.667 210.2C128.943 210.008 129.177 209.786 129.369 209.534C129.561 209.27 129.687 208.994 129.747 208.706ZM138.079 212.18C137.371 212.18 136.729 212.054 136.153 211.802C135.577 211.538 135.079 211.184 134.659 210.74C134.239 210.284 133.915 209.762 133.687 209.174C133.459 208.586 133.345 207.968 133.345 207.32C133.345 206.66 133.459 206.036 133.687 205.448C133.915 204.86 134.239 204.344 134.659 203.9C135.079 203.444 135.577 203.09 136.153 202.838C136.741 202.574 137.383 202.442 138.079 202.442C138.787 202.442 139.429 202.574 140.005 202.838C140.581 203.09 141.079 203.444 141.499 203.9C141.931 204.344 142.261 204.86 142.489 205.448C142.717 206.036 142.831 206.66 142.831 207.32C142.831 207.968 142.717 208.586 142.489 209.174C142.261 209.762 141.937 210.284 141.517 210.74C141.097 211.184 140.593 211.538 140.005 211.802C139.429 212.054 138.787 212.18 138.079 212.18ZM134.965 207.338C134.965 207.986 135.103 208.574 135.379 209.102C135.667 209.63 136.045 210.05 136.513 210.362C136.981 210.662 137.503 210.812 138.079 210.812C138.655 210.812 139.177 210.656 139.645 210.344C140.125 210.032 140.503 209.612 140.779 209.084C141.067 208.544 141.211 207.95 141.211 207.302C141.211 206.654 141.067 206.066 140.779 205.538C140.503 205.01 140.125 204.59 139.645 204.278C139.177 203.966 138.655 203.81 138.079 203.81C137.503 203.81 136.981 203.972 136.513 204.296C136.045 204.608 135.667 205.028 135.379 205.556C135.103 206.084 134.965 206.678 134.965 207.338ZM156.206 202.604H157.736L153.74 212H152.354L150.536 207.572L148.736 212H147.35L143.354 202.604H144.866L148.106 210.434L149.618 206.582L148.034 202.622H149.42L150.536 205.61L151.652 202.622H153.038L151.472 206.582L152.984 210.434L156.206 202.604ZM167.371 212H165.787V206.744C165.787 205.748 165.631 205.022 165.319 204.566C165.019 204.098 164.557 203.864 163.933 203.864C163.501 203.864 163.069 203.972 162.637 204.188C162.217 204.404 161.839 204.698 161.503 205.07C161.179 205.43 160.945 205.85 160.801 206.33V212H159.217V202.604H160.657V204.62C160.909 204.176 161.233 203.792 161.629 203.468C162.025 203.144 162.475 202.892 162.979 202.712C163.483 202.532 164.011 202.442 164.563 202.442C165.103 202.442 165.553 202.544 165.913 202.748C166.285 202.94 166.573 203.216 166.777 203.576C166.993 203.924 167.143 204.338 167.227 204.818C167.323 205.298 167.371 205.82 167.371 206.384V212ZM169.709 212V209.984H171.041V212H169.709Z" fill="#7883BE"/>
<defs>
<clipPath id="clip0_3427_1100">
<rect width="40" height="40" fill="white" transform="translate(0 16)"/>
</clipPath>
</defs>
</svg>
