<svg width="40" height="40" viewBox="0 0 40 40" fill="none" xmlns="http://www.w3.org/2000/svg">
<path d="M30 8C31.1063 8 32 8.89375 32 10V30C32 31.1063 31.1063 32 30 32H10C8.89375 32 8 31.1063 8 30V10C8 8.89375 8.89375 8 10 8H30ZM10 6C7.79375 6 6 7.79375 6 10V30C6 32.2062 7.79375 34 10 34H30C32.2062 34 34 32.2062 34 30V10C34 7.79375 32.2062 6 30 6H10ZM18 27C18 27.55 18.45 28 19 28H27C27.55 28 28 27.55 28 27C28 26.45 27.55 26 27 26H19C18.45 26 18 26.45 18 27ZM13.7063 13.2937C13.3188 12.9062 12.6812 12.9062 12.2937 13.2937C11.9062 13.6812 11.9062 14.3188 12.2937 14.7063L17.5875 20L12.2937 25.2938C11.9062 25.6813 11.9062 26.3187 12.2937 26.7062C12.6812 27.0938 13.3188 27.0938 13.7063 26.7062L19.7062 20.7062C20.0937 20.3187 20.0937 19.6813 19.7062 19.2938L13.7063 13.2937Z" fill="#00B576"/>
</svg>
