<svg width="40" height="40" viewBox="0 0 40 40" fill="none" xmlns="http://www.w3.org/2000/svg">
<path d="M28 4C27.45 4 27 4.45 27 5C27 5.55 27.45 6 28 6H32.5125L22.95 14.6938L14.6125 8.2125C14.2625 7.9375 13.7688 7.93125 13.4125 8.19375L2.41252 16.1938C1.96877 16.5188 1.86877 17.1438 2.19377 17.5938C2.51877 18.0437 3.14377 18.1375 3.59377 17.8125L13.9813 10.25L22.3875 16.7875C22.7688 17.0875 23.3125 17.0625 23.675 16.7375L34 7.35V12C34 12.55 34.45 13 35 13C35.55 13 36 12.55 36 12V5C36 4.45 35.55 4 35 4H28ZM14 18C13.45 18 13 18.45 13 19V33C13 33.55 13.45 34 14 34C14.55 34 15 33.55 15 33V19C15 18.45 14.55 18 14 18ZM6.00002 24C5.45002 24 5.00002 24.45 5.00002 25V33C5.00002 33.55 5.45002 34 6.00002 34C6.55002 34 7.00002 33.55 7.00002 33V25C7.00002 24.45 6.55002 24 6.00002 24ZM22 29C22 25.1313 25.1313 22 29 22C32.8688 22 36 25.1313 36 29C36 32.8687 32.8688 36 29 36C25.1313 36 22 32.8687 22 29ZM38 29C38 24.0312 33.9688 20 29 20C24.0313 20 20 24.0312 20 29C20 33.9688 24.0313 38 29 38C33.9688 38 38 33.9688 38 29ZM29 23C28.45 23 28 23.45 28 24V24.5063C26.6063 24.575 25.5 25.725 25.5 27.1375C25.5 28.4125 26.4125 29.5 27.6625 29.7313L30.475 30.2437C30.775 30.3 30.9938 30.5625 30.9938 30.8687C30.9938 31.2188 30.7063 31.5063 30.3563 31.5063L27 31.5C26.45 31.5 26 31.95 26 32.5C26 33.05 26.45 33.5 27 33.5H28V34C28 34.55 28.45 35 29 35C29.55 35 30 34.55 30 34V33.5H30.3625C31.8188 33.5 33 32.3187 33 30.8625C33 29.5875 32.0875 28.5 30.8375 28.2687L28.025 27.7563C27.725 27.7 27.5063 27.4375 27.5063 27.1313C27.5063 26.7812 27.7938 26.4937 28.1438 26.4937H31.0063C31.5563 26.4937 32.0063 26.0437 32.0063 25.4937C32.0063 24.9438 31.5563 24.4937 31.0063 24.4937H30.0063V23.9937C30.0063 23.4438 29.5563 22.9937 29.0063 22.9937L29 23Z" fill="#00B576"/>
</svg>
