<svg width="40" height="40" viewBox="0 0 40 40" fill="none" xmlns="http://www.w3.org/2000/svg">
<path d="M20 6C12.2688 6 6 12.2688 6 20C6 27.7313 12.2688 34 20 34C20.55 34 21 34.45 21 35C21 35.55 20.55 36 20 36C11.1625 36 4 28.8375 4 20C4 11.1625 11.1625 4 20 4C28.8375 4 36 11.1625 36 20V21.5C36 24.5375 33.5375 27 30.5 27C28.4125 27 26.5938 25.8312 25.6625 24.1187C24.3875 25.8687 22.325 27 20 27C16.1313 27 13 23.8687 13 20C13 16.1313 16.1313 13 20 13C21.9562 13 23.7313 13.8063 25 15.1V15C25 14.45 25.45 14 26 14C26.55 14 27 14.45 27 15V21.5C27 23.4312 28.5688 25 30.5 25C32.4312 25 34 23.4312 34 21.5V20C34 12.2688 27.7313 6 20 6ZM25 20C25 17.2375 22.7625 15 20 15C17.2375 15 15 17.2375 15 20C15 22.7625 17.2375 25 20 25C22.7625 25 25 22.7625 25 20Z" fill="#00B576"/>
</svg>
