<svg width="40" height="40" viewBox="0 0 40 40" fill="none" xmlns="http://www.w3.org/2000/svg">
<path fill-rule="evenodd" clip-rule="evenodd" d="M20 6.25C12.4055 6.25 6.25 12.4055 6.25 20C6.25 27.5945 12.4055 33.75 20 33.75C27.5945 33.75 33.75 27.5945 33.75 20C33.75 12.4055 27.5945 6.25 20 6.25ZM3.75 20C3.75 11.0248 11.0248 3.75 20 3.75C28.9752 3.75 36.25 11.0248 36.25 20C36.25 28.9752 28.9752 36.25 20 36.25C11.0248 36.25 3.75 28.9752 3.75 20Z" fill="#00B576"/>
<path fill-rule="evenodd" clip-rule="evenodd" d="M15.0488 17.6492C15.0488 15.6589 16.662 14.043 18.655 14.043H23.0302C23.7205 14.043 24.2802 14.6026 24.2802 15.293C24.2802 15.9833 23.7205 16.543 23.0302 16.543H18.655C18.0438 16.543 17.5488 17.0385 17.5488 17.6492C17.5488 18.26 18.0438 18.7553 18.655 18.7553H21.347C23.34 18.7553 24.9532 20.3713 24.9532 22.3617C24.9532 24.3542 23.3395 25.9678 21.347 25.9678H16.9718C16.2814 25.9678 15.7218 25.4082 15.7218 24.7178C15.7218 24.0275 16.2814 23.4678 16.9718 23.4678H21.347C21.9587 23.4678 22.4532 22.9735 22.4532 22.3617C22.4532 21.7508 21.9582 21.2553 21.347 21.2553H18.655C16.662 21.2553 15.0488 19.6395 15.0488 17.6492Z" fill="#00B576"/>
<path fill-rule="evenodd" clip-rule="evenodd" d="M20 12.0547C20.6903 12.0547 21.25 12.6143 21.25 13.3047V15.3009C21.25 15.9913 20.6903 16.5509 20 16.5509C19.3097 16.5509 18.75 15.9913 18.75 15.3009V13.3047C18.75 12.6143 19.3097 12.0547 20 12.0547ZM20 23.4678C20.6903 23.4678 21.25 24.0275 21.25 24.7178V26.6962C21.25 27.3865 20.6903 27.9462 20 27.9462C19.3097 27.9462 18.75 27.3865 18.75 26.6962V24.7178C18.75 24.0275 19.3097 23.4678 20 23.4678Z" fill="#00B576"/>
</svg>
