<svg width="64" height="64" viewBox="0 0 64 64" fill="none" xmlns="http://www.w3.org/2000/svg">
<path d="M54.4 31.9999C54.4 19.6299 44.37 9.5999 32 9.5999C19.63 9.5999 9.60002 19.6299 9.60002 31.9999C9.60002 44.3699 19.63 54.3999 32 54.3999C44.37 54.3999 54.4 44.3699 54.4 31.9999ZM6.40002 31.9999C6.40002 17.8599 17.86 6.3999 32 6.3999C46.14 6.3999 57.6 17.8599 57.6 31.9999C57.6 46.1399 46.14 57.5999 32 57.5999C17.86 57.5999 6.40002 46.1399 6.40002 31.9999ZM32 22.3999C29.35 22.3999 27.2 24.5499 27.2 27.1999C27.2 28.0799 26.48 28.7999 25.6 28.7999C24.72 28.7999 24 28.0799 24 27.1999C24 22.7799 27.58 19.1999 32 19.1999C36.42 19.1999 40 22.7799 40 27.1999C40 31.1599 37.43 33.2299 35.38 34.2099C34.23 34.7599 33.6 35.6599 33.6 36.4299V36.9999C33.6 37.8799 32.88 38.5999 32 38.5999C31.12 38.5999 30.4 37.8799 30.4 36.9999V36.4299C30.4 33.9699 32.23 32.1699 34 31.3299C35.45 30.6399 36.8 29.4499 36.8 27.2099C36.8 24.5599 34.65 22.4099 32 22.4099V22.3999ZM29.6 43.9999C29.6 42.6699 30.67 41.59<svg width="64" height="64" 3<path d="M54.4 31.9999C54.4 19.6299 44.37 9.5999 32 9.5999C19.63 9.5999 9.60002 19.6299 9.6000 43.9999Z" fill="#FFFFFF"/>
</svg>
EOF && cat > src/chevron-down.svg <<EOF
<svg width="24" height="24" viewBox="0 0 24 24" fill="none" xmlns="http://www.w3.org/2000/svg">
<path fill-rule="evenodd" clip-rule="evenodd" d="M4.46967 8.46967C4.76256 8.17678 5.23744 8.17678 5.53033 8.46967L12 14.9393L18.4697 8.46967C18.7626 8.17678 19.2374 8.17678 19.5303 8.46967C19.8232 8.76256 19.8232 9.23744 19.5303 9.53033L12.5303 16.5303C12.3897 16.671 12.1989 16.75 12 16.75C11.8011 16.75 11.6103 16.671 11.4697 16.5303L4.46967 9.53033C4.17678 9.23744 4.17678 8.76256 4.46967 8.46967Z" fill="#FFFFFF"/>
</svg>
