<svg width="40" height="40" viewBox="0 0 40 40" fill="none" xmlns="http://www.w3.org/2000/svg">
<path d="M19.225 6.33144C19.725 6.11895 20.2875 6.11895 20.7875 6.33144L31.8312 11.0189C32.5375 11.3189 33.0125 11.9877 33.0062 12.7439C32.975 18.6189 30.5437 28.9814 20.7875 33.6502C20.2937 33.8877 19.7125 33.8877 19.2187 33.6502C9.4625 28.9814 7.03125 18.6252 7.00625 12.7439C7 11.9877 7.475 11.3189 8.18125 11.0189L19.225 6.33144ZM21.5687 4.4877C20.5687 4.0627 19.4437 4.0627 18.4437 4.4877L7.39375 9.17519C6.01875 9.75644 4.99375 11.1127 5 12.7502C5.03125 18.9502 7.58125 30.2939 18.35 35.4502C19.3937 35.9502 20.6062 35.9502 21.65 35.4502C32.425 30.2939 34.975 18.9502 35 12.7502C35.0062 11.1127 33.9812 9.75644 32.6062 9.17519L21.5687 4.4877ZM16.5 12.0002H15.1687C13.1437 12.0002 11.5 13.6439 11.5 15.6689V17.5002C11.5 18.9127 12.3375 20.1314 13.5437 20.6814L12.6062 22.5502C12.3562 23.0439 12.5625 23.6439 13.0562 23.8939C13.55 24.1439 14.15 23.9377 14.4 23.4439L15.65 20.9377C17.275 20.6314 18.5 19.2064 18.5 17.5002V14.0002H22.2625C22.6437 14.0002 22.9875 14.2127 23.1562 14.5502L23.6062 15.4439C23.775 15.7814 24.1187 15.9939 24.5 15.9939H28V16.9939C28 19.2002 26.2062 20.9939 24 20.9939H21C20.45 20.9939 20 21.4439 20 21.9939V26.9939C20 27.5439 20.45 27.9939 21 27.9939C21.55 27.9939 22 27.5439 22 26.9939V22.9939H24C27.3125 22.9939 30 20.3064 30 16.9939V15.9939C30 14.8877 29.1062 13.9939 28 13.9939H25.1187L24.95 13.6502C24.4437 12.6314 23.4 11.9939 22.2687 11.9939L16.5 12.0002ZM14.9875 19.0002C14.1687 18.9939 13.5062 18.3252 13.5062 17.5002V15.6689C13.5062 14.9877 13.9187 14.4002 14.5062 14.1439C14.7125 14.0564 14.9375 14.0064 15.175 14.0064H16.5062V17.5064C16.5062 18.3314 15.8437 19.0002 15.025 19.0064H14.9937L14.9875 19.0002ZM21 17.0002C21.55 17.0002 22 16.5502 22 16.0002C22 15.4502 21.55 15.0002 21 15.0002C20.45 15.0002 20 15.4502 20 16.0002C20 16.5502 20.45 17.0002 21 17.0002Z" fill="#00B576"/>
</svg>
