<svg width="40" height="40" viewBox="0 0 40 40" fill="none" xmlns="http://www.w3.org/2000/svg">
<path d="M12.7005 35.3716C9.25054 35.3716 7.6339 33.3216 6.4839 31.855C5.85057 31.055 5.30054 30.3716 4.68387 30.205C4.0172 30.0383 3.60055 29.355 3.76722 28.6883C3.93389 28.0216 4.60055 27.6051 5.28389 27.7718C6.73389 28.1385 7.60054 29.2385 8.43387 30.2885C9.7672 31.9718 10.9172 33.4383 14.5006 32.6383V32.255C14.4339 31.2216 14.6339 30.1718 15.0839 29.2051C10.7506 28.3051 6.05055 25.7716 6.05055 17.5216C6.05055 15.2884 6.80055 13.1383 8.20055 11.4217C7.65055 9.43833 7.78387 7.33838 8.60054 5.42171C8.75054 5.07171 9.0339 4.82163 9.40057 4.70496C9.7839 4.5883 11.8506 4.18833 16.0006 6.83833C19.3839 6.02166 22.9339 6.02166 26.3172 6.83833C30.4672 4.18833 32.5339 4.5883 32.9172 4.70496C33.2672 4.80496 33.5672 5.07171 33.7172 5.42171C34.5339 7.33838 34.6672 9.43833 34.1172 11.4217C35.5172 13.1383 36.2672 15.255 36.2672 17.4716C36.2672 25.8216 31.5672 28.3216 27.2339 29.1883C27.6839 30.1716 27.8839 31.2551 27.8005 32.3551V33.5718C27.8005 34.2551 27.2505 34.8218 26.5505 34.8218C25.8505 34.8218 25.3005 34.2551 25.3005 33.5718V32.255C25.4005 31.0383 24.9839 29.9383 24.2005 29.1216C23.8672 28.7716 23.7672 28.2716 23.9172 27.8383C24.0839 27.3883 24.4839 27.0716 24.9505 27.0216C29.5172 26.505 33.7505 24.9883 33.7505 17.4883C33.7505 15.6717 33.0505 13.9218 31.7839 12.5885C31.4505 12.2385 31.3505 11.7384 31.5172 11.2884C32.0172 9.95508 32.0672 8.5218 31.6672 7.1718C30.9505 7.28846 29.5005 7.7218 27.2339 9.25513C26.9339 9.45513 26.5672 9.52175 26.2172 9.42175C22.9005 8.52175 19.4005 8.52175 16.1005 9.42175C15.7505 9.52175 15.3839 9.45513 15.0839 9.25513C12.8339 7.73846 11.3839 7.30515 10.6506 7.18848C10.2672 8.53848 10.3172 9.97176 10.8006 11.3051C10.9672 11.7551 10.8672 12.2551 10.5339 12.6051C9.25055 13.9385 8.56724 15.7051 8.56724 17.5551C8.56724 24.9718 12.8005 26.5216 17.3839 27.0883C17.8505 27.1383 18.2505 27.4716 18.4005 27.905C18.5672 28.355 18.4505 28.855 18.1172 29.1883C17.3339 30.005 16.9339 31.105 17.0172 32.205V33.6385C17.0172 34.1885 16.6505 34.6718 16.1339 34.8385C14.8339 35.2218 13.7006 35.3883 12.7172 35.3883L12.7005 35.3716Z" fill="#00B576"/>
</svg>
