<svg width="40" height="40" viewBox="0 0 40 40" fill="none" xmlns="http://www.w3.org/2000/svg">
<path fill-rule="evenodd" clip-rule="evenodd" d="M6.23453 6.4954C7.87568 4.73523 10.2127 3.75 12.9717 3.75H27.0292C29.7947 3.75 32.132 4.73473 33.7717 6.49615C35.4018 8.24743 36.2492 10.6648 36.2492 13.3771V26.6221C36.2492 29.3344 35.4018 31.7518 33.7713 33.5031C32.1315 35.2646 29.7938 36.2493 27.0275 36.2493H12.9717C10.2062 36.2493 7.86852 35.2644 6.2285 33.5033C4.59785 31.7519 3.75 29.3346 3.75 26.6221V13.3771C3.75 10.6631 4.60243 8.24588 6.23453 6.4954ZM8.06305 8.20027C6.93402 9.4112 6.25 11.1825 6.25 13.3771V26.6221C6.25 28.8183 6.9313 30.5894 8.05813 31.7996C9.17562 32.9996 10.8238 33.7493 12.9717 33.7493H27.0275C29.1763 33.7493 30.8245 32.9996 31.9417 31.7996C33.0682 30.5894 33.7492 28.8184 33.7492 26.6221V13.3771C33.7492 11.1808 33.0682 9.40965 31.9418 8.19953C30.8247 6.99953 29.177 6.25 27.0292 6.25H12.9717C10.8319 6.25 9.18305 6.99903 8.06305 8.20027Z" fill="#00B576"/>
<path fill-rule="evenodd" clip-rule="evenodd" d="M20 3.75C20.6903 3.75 21.25 4.30965 21.25 5V34.9992C21.25 35.6895 20.6903 36.2492 20 36.2492C19.3097 36.2492 18.75 35.6895 18.75 34.9992V5C18.75 4.30965 19.3097 3.75 20 3.75Z" fill="#00B576"/>
<path fill-rule="evenodd" clip-rule="evenodd" d="M18.7497 16.8848C18.7497 16.1944 19.3092 15.6348 19.9997 15.6348H34.9992C35.6895 15.6348 36.2492 16.1944 36.2492 16.8848C36.2492 17.5752 35.6895 18.1348 34.9992 18.1348H19.9997C19.3092 18.1348 18.7497 17.5752 18.7497 16.8848ZM3.75 24.8628C3.75 24.1725 4.30965 23.6128 5 23.6128H19.9997C20.69 23.6128 21.2497 24.1725 21.2497 24.8628C21.2497 25.5532 20.69 26.1128 19.9997 26.1128H5C4.30965 26.1128 3.75 25.5532 3.75 24.8628Z" fill="#00B576"/>
</svg>
