<svg width="40" height="40" viewBox="0 0 40 40" fill="none" xmlns="http://www.w3.org/2000/svg">
<path d="M14.8687 28.8375C14.8687 28.9625 14.725 29.0625 14.5437 29.0625C14.3375 29.0812 14.1938 28.9812 14.1938 28.8375C14.1938 28.7125 14.3375 28.6125 14.5188 28.6125C14.7063 28.5938 14.8687 28.6938 14.8687 28.8375ZM12.925 28.5562C12.8813 28.6812 13.0063 28.825 13.1938 28.8625C13.3563 28.925 13.5437 28.8625 13.5813 28.7375C13.6188 28.6125 13.5 28.4688 13.3125 28.4125C13.15 28.3687 12.9688 28.4312 12.925 28.5562ZM15.6875 28.45C15.5063 28.4938 15.3812 28.6125 15.4 28.7563C15.4187 28.8813 15.5813 28.9625 15.7688 28.9188C15.95 28.875 16.075 28.7563 16.0562 28.6313C16.0375 28.5125 15.8687 28.4313 15.6875 28.45ZM19.8 4.5C11.1312 4.5 4.5 11.0813 4.5 19.75C4.5 26.6812 8.8625 32.6125 15.0938 34.7C15.8938 34.8438 16.175 34.35 16.175 33.9437C16.175 33.5562 16.1562 31.4188 16.1562 30.1063C16.1562 30.1063 11.7812 31.0437 10.8625 28.2437C10.8625 28.2437 10.15 26.425 9.125 25.9562C9.125 25.9562 7.69375 24.975 9.225 24.9937C9.225 24.9937 10.7812 25.1188 11.6375 26.6063C13.0062 29.0188 15.3 28.325 16.1938 27.9125C16.3375 26.9125 16.7438 26.2188 17.1938 25.8062C13.7 25.4187 10.175 24.9125 10.175 18.9C10.175 17.1812 10.65 16.3188 11.65 15.2188C11.4875 14.8125 10.9563 13.1375 11.8125 10.975C13.1187 10.5688 16.125 12.6625 16.125 12.6625C17.375 12.3125 18.7187 12.1313 20.05 12.1313C21.3812 12.1313 22.725 12.3125 23.975 12.6625C23.975 12.6625 26.9813 10.5625 28.2875 10.975C29.1438 13.1438 28.6125 14.8125 28.45 15.2188C29.45 16.325 30.0625 17.1875 30.0625 18.9C30.0625 24.9312 26.3813 25.4125 22.8875 25.8062C23.4625 26.3 23.95 27.2375 23.95 28.7062C23.95 30.8125 23.9312 33.4188 23.9312 33.9313C23.9312 34.3375 24.2188 34.8312 25.0125 34.6875C31.2625 32.6125 35.5 26.6812 35.5 19.75C35.5 11.0813 28.4688 4.5 19.8 4.5ZM10.575 26.0562C10.4937 26.1187 10.5125 26.2625 10.6187 26.3813C10.7187 26.4813 10.8625 26.525 10.9438 26.4438C11.025 26.3813 11.0062 26.2375 10.9 26.1187C10.8 26.0187 10.6562 25.975 10.575 26.0562ZM9.9 25.55C9.85625 25.6312 9.91875 25.7313 10.0437 25.7938C10.1437 25.8563 10.2688 25.8375 10.3125 25.75C10.3562 25.6688 10.2937 25.5688 10.1687 25.5063C10.0437 25.4688 9.94375 25.4875 9.9 25.55ZM11.925 27.775C11.825 27.8562 11.8625 28.0438 12.0063 28.1625C12.15 28.3062 12.3313 28.325 12.4125 28.225C12.4938 28.1438 12.4563 27.9562 12.3313 27.8375C12.1938 27.6938 12.0063 27.675 11.925 27.775ZM11.2125 26.8563C11.1125 26.9188 11.1125 27.0813 11.2125 27.225C11.3125 27.3687 11.4812 27.4312 11.5625 27.3687C11.6625 27.2875 11.6625 27.125 11.5625 26.9813C11.475 26.8375 11.3125 26.775 11.2125 26.8563Z" fill="#00B576"/>
</svg>
