<svg width="40" height="40" viewBox="0 0 40 40" fill="none" xmlns="http://www.w3.org/2000/svg">
<path d="M20 4C23.3125 4 26 6.6875 26 10V14H14V10C14 6.6875 16.6875 4 20 4ZM12 10V14C9.79375 14 8 15.7937 8 18V32C8 34.2062 9.79375 36 12 36H28C30.2062 36 32 34.2062 32 32V18C32 15.7937 30.2062 14 28 14V10C28 5.58125 24.4188 2 20 2C15.5813 2 12 5.58125 12 10ZM12 16H28C29.1063 16 30 16.8938 30 18V32C30 33.1063 29.1063 34 28 34H12C10.8937 34 10 33.1063 10 32V18C10 16.8938 10.8937 16 12 16ZM21 22C21 21.45 20.55 21 20 21C19.45 21 19 21.45 19 22V28C19 28.55 19.45 29 20 29C20.55 29 21 28.55 21 28V22Z" fill="#00B576"/>
</svg>
