<svg width="40" height="40" viewBox="0 0 40 40" fill="none" xmlns="http://www.w3.org/2000/svg">
<path fill-rule="evenodd" clip-rule="evenodd" d="M27.6559 7.44042C28.0599 6.88064 28.8413 6.75437 29.4009 7.15839C36.5948 12.3504 38.2178 22.3928 33.0256 29.5867C27.8336 36.7803 17.7911 38.4033 10.5974 33.2113C5.68958 29.6692 3.37651 23.87 4.04723 18.2627C4.12921 17.5772 4.75136 17.088 5.43683 17.17C6.12231 17.252 6.61151 17.8742 6.52953 18.5595C5.96236 23.3013 7.91906 28.1952 12.0605 31.1842C18.1348 35.5682 26.6146 34.1977 30.9986 28.1235C35.3826 22.0493 34.0121 13.5696 27.9379 9.18554C27.3781 8.78152 27.2519 8.0002 27.6559 7.44042Z" fill="#00B576"/>
<path fill-rule="evenodd" clip-rule="evenodd" d="M12.8471 17.9725C13.5279 18.0867 13.9872 18.7312 13.873 19.412C13.5518 21.3264 14.1296 23.3509 15.6051 24.8264C18.0304 27.2515 21.9712 27.2515 24.3964 24.8264C25.8719 23.3509 26.4495 21.3264 26.1284 19.412C26.0142 18.7312 26.4735 18.0867 27.1544 17.9725C27.8352 17.8582 28.4797 18.3175 28.5939 18.9984C29.0435 21.6777 28.2339 24.5242 26.164 26.594C22.7625 29.9955 17.2389 29.9955 13.8373 26.594C11.7675 24.5242 10.9579 21.6777 11.4075 18.9984C11.5217 18.3175 12.1662 17.8582 12.8471 17.9725Z" fill="#00B576"/>
<path fill-rule="evenodd" clip-rule="evenodd" d="M19.9998 20.7385C19.4766 20.7385 19.0086 20.4126 18.8273 19.9218L18.6148 19.3466C17.9398 17.5198 16.5019 16.0801 14.6789 15.4046L14.1047 15.1917C13.6144 15.01 13.2891 14.5425 13.2891 14.0196C13.2891 13.4968 13.6144 13.0293 14.1047 12.8476L14.6788 12.6347C16.5018 11.9592 17.9398 10.5196 18.6148 8.69275L18.8273 8.11755C19.0086 7.62671 19.4766 7.30078 19.9998 7.30078C20.5231 7.30078 20.991 7.62671 21.1723 8.11755L21.385 8.69273C22.0598 10.5195 23.4978 11.9592 25.3208 12.6347L25.8951 12.8475C26.3853 13.0292 26.7108 13.4968 26.7108 14.0196C26.7108 14.5425 26.3853 15.0101 25.8951 15.1918L25.3208 15.4046C23.4978 16.0801 22.0598 17.5198 21.385 19.3466L21.1723 19.9218C20.991 20.4126 20.5231 20.7385 19.9998 20.7385ZM22.5665 14.0196C21.5485 13.3432 20.6756 12.4694 19.9998 11.4505C19.3241 12.4694 18.4511 13.3432 17.4331 14.0196C18.4511 14.696 19.3241 15.5699 19.9998 16.5888C20.6756 15.5699 21.5485 14.696 22.5665 14.0196Z" fill="#00B576"/>
<path fill-rule="evenodd" clip-rule="evenodd" d="M9.51455 11.2085C8.96418 11.2085 8.47858 10.8485 8.31855 10.3219C8.07848 9.53203 7.46156 8.91482 6.67458 8.67492C6.14851 8.51457 5.78906 8.0292 5.78906 7.47923C5.78906 6.92928 6.14851 6.44392 6.67458 6.28357C7.46156 6.04367 8.07848 5.42645 8.31855 4.63652C8.47858 4.10995 8.96418 3.75 9.51455 3.75C10.0649 3.75 10.5505 4.10995 10.7105 4.63652C10.9506 5.42645 11.5675 6.04365 12.3545 6.28357C12.8806 6.44392 13.24 6.92928 13.24 7.47923C13.24 8.0292 12.8806 8.51457 12.3545 8.67492C11.5675 8.91483 10.9506 9.53203 10.7105 10.3219C10.5505 10.8485 10.0649 11.2085 9.51455 11.2085ZM9.60538 7.47923C9.57471 7.44933 9.54443 7.41903 9.51455 7.38833C9.48465 7.41903 9.45436 7.44933 9.4237 7.47923C9.45436 7.50915 9.48465 7.53945 9.51455 7.57015C9.54443 7.53945 9.57471 7.50915 9.60538 7.47923Z" fill="#00B576"/>
<path fill-rule="evenodd" clip-rule="evenodd" d="M18.9697 22.1324C19.5245 22.5432 19.641 23.326 19.2302 23.8809L9.44401 37.0935C9.03311 37.6482 8.2503 37.7649 7.69555 37.3539C7.14078 36.943 7.02416 36.1602 7.43505 35.6055L17.2212 22.3929C17.6322 21.838 18.4149 21.7214 18.9697 22.1324Z" fill="#00B576"/>
</svg>
