<svg width="40" height="40" viewBox="0 0 40 40" fill="none" xmlns="http://www.w3.org/2000/svg">
<path fill-rule="evenodd" clip-rule="evenodd" d="M15.2671 28.5214C14.3646 29.2278 13.9395 30.1299 13.8316 30.9653C13.7432 31.6499 13.1165 32.1333 12.4319 32.0449C11.7472 31.9564 11.2638 31.3298 11.3522 30.6451C11.5394 29.1956 12.2776 27.6864 13.7263 26.5526C15.1721 25.4211 17.234 24.7324 19.9652 24.7324C22.7222 24.7324 24.7969 25.4239 26.2469 26.5656C27.701 27.7106 28.4297 29.2344 28.6077 30.6963C28.6912 31.3814 28.2034 32.0048 27.518 32.0881C26.8327 32.1716 26.2095 31.6838 26.126 30.9984C26.0225 30.1478 25.6012 29.2391 24.7004 28.5298C23.7954 27.8173 22.31 27.2324 19.9652 27.2324C17.6499 27.2324 16.1725 27.8128 15.2671 28.5214Z" fill="#00B576"/>
<path fill-rule="evenodd" clip-rule="evenodd" d="M19.971 14.0039C18.0395 14.0039 16.4727 15.5704 16.4727 17.502C16.4727 19.4337 18.0395 21.0002 19.971 21.0002C21.9025 21.0002 23.4693 19.4337 23.4693 17.502C23.4693 15.5704 21.9025 14.0039 19.971 14.0039ZM13.9727 17.502C13.9727 14.1893 16.6591 11.5039 19.971 11.5039C23.2828 11.5039 25.9693 14.1893 25.9693 17.502C25.9693 20.8147 23.2828 23.5002 19.971 23.5002C16.6591 23.5002 13.9727 20.8147 13.9727 17.502Z" fill="#00B576"/>
<path d="M19.9997 36.25C19.877 36.2507 19.7552 36.2327 19.638 36.1967C19.103 36.03 6.54461 32.1083 6.54461 21.1167C6.54461 18.0583 6.50294 15.8483 6.47461 14.2283C6.40127 10.1717 6.38462 9.32667 7.44629 8.26667C8.70462 7.01 18.193 3.75 19.9997 3.75C21.908 3.75 31.2747 6.97833 32.5563 8.27C33.6147 9.33667 33.5978 10.18 33.5245 14.24C33.4962 15.86 33.4562 18.0733 33.4562 21.1167C33.4562 32.1067 20.8963 36.035 20.363 36.1967C20.2452 36.2323 20.1227 36.2503 19.9997 36.25ZM19.9997 6.25C16.2631 7.1007 12.6367 8.37738 9.19129 10.055C8.92462 10.3217 8.91461 10.875 8.97461 14.1817C9.00294 15.8133 9.04461 18.0383 9.04461 21.1167C9.04461 29.3033 18.0613 32.985 19.9997 33.68C21.938 32.985 30.9562 29.3033 30.9562 21.1167C30.9562 18.045 30.998 15.825 31.0263 14.1967C31.0847 10.8783 31.0745 10.325 30.7828 10.03C27.344 8.36373 23.7262 7.09553 19.9997 6.25Z" fill="#00B576"/>
</svg>
