<svg width="40" height="40" viewBox="0 0 40 40" fill="none" xmlns="http://www.w3.org/2000/svg">
<path fill-rule="evenodd" clip-rule="evenodd" d="M6.2346 6.49548C7.87578 4.73525 10.2128 3.75 12.9719 3.75H27.0297C29.7953 3.75 32.1327 4.73477 33.7723 6.49622C35.4027 8.24755 36.25 10.665 36.25 13.3773V26.6227C36.25 29.3357 35.4027 31.7533 33.772 33.5045C32.132 35.2658 29.7942 36.25 27.0282 36.25H12.9719C10.2065 36.25 7.86877 35.2658 6.22862 33.5047C4.59783 31.7535 3.75 29.3358 3.75 26.6227V13.3773C3.75 10.6632 4.60245 8.246 6.2346 6.49548ZM8.0631 8.20033C6.93403 9.4113 6.25 11.1827 6.25 13.3773V26.6227C6.25 28.8198 6.93137 30.5908 8.05813 31.8008C9.17557 33.0007 10.8238 33.75 12.9719 33.75H27.0282C29.1772 33.75 30.8253 33.0007 31.9423 31.8008C33.069 30.591 33.75 28.82 33.75 26.6227V13.3773C33.75 11.1809 33.069 9.40975 31.9425 8.1996C30.8253 6.99955 29.1777 6.25 27.0297 6.25H12.9719C10.8321 6.25 9.18313 6.99907 8.0631 8.20033Z" fill="#00B576"/>
<path fill-rule="evenodd" clip-rule="evenodd" d="M17.8113 18.9539C18.2995 19.4421 18.2995 20.2336 17.8113 20.7217L14.7482 23.7849L17.8113 26.8481C18.2995 27.3362 18.2995 28.1276 17.8113 28.6157C17.3232 29.1039 16.5318 29.1039 16.0436 28.6157L12.0966 24.6687C11.6084 24.1806 11.6084 23.3892 12.0966 22.9011L16.0436 18.9539C16.5318 18.4659 17.3232 18.4659 17.8113 18.9539Z" fill="#00B576"/>
<path fill-rule="evenodd" clip-rule="evenodd" d="M22.1903 18.9539C22.6785 18.4659 23.47 18.4659 23.9582 18.9539L27.9052 22.9011C28.3933 23.3892 28.3933 24.1806 27.9052 24.6687L23.9582 28.6157C23.47 29.1039 22.6785 29.1039 22.1903 28.6157C21.7022 28.1276 21.7022 27.3362 22.1903 26.8481L25.2535 23.7849L22.1903 20.7217C21.7022 20.2336 21.7022 19.4421 22.1903 18.9539Z" fill="#00B576"/>
<path fill-rule="evenodd" clip-rule="evenodd" d="M3.79102 13.2168C3.79102 12.5264 4.35067 11.9668 5.04102 11.9668H34.96C35.6503 11.9668 36.21 12.5264 36.21 13.2168C36.21 13.9071 35.6503 14.4668 34.96 14.4668H5.04102C4.35067 14.4668 3.79102 13.9071 3.79102 13.2168Z" fill="#00B576"/>
</svg>
